<svg xmlns="http://www.w3.org/2000/svg" data-name="Layer 1" viewBox="0 0 3800 3300">
    <defs>
        <clipPath id="a">
            <path fill="none"
                d="M3105.90833,2620.98865a180.3076,180.3076,0,0,0,64.1551,19.7014c99.7987,11.3117,350.7604-67.7268,359.2192-142.2711,8.6839-76.7563-218.4849-207.731-318.2523-219.0096a181.816,181.816,0,0,0-105.122,341.5793Z" />
        </clipPath>
    </defs>
    <path fill="#102770"
        d="M419.40623,2264.56725c0,5.3051-14.5996,9.7468-34.299,10.9393-1.1926,19.6995-5.6342,34.2991-10.9394,34.2991-5.3051,0-9.7468-14.5996-10.9393-34.2991-19.6995-1.1925-34.2991-5.6342-34.2991-10.9393,0-5.3054,14.5996-9.7468,34.2991-10.9397,1.1925-19.6991,5.6342-34.2988,10.9393-34.2988,5.3052,0,9.7468,14.5997,10.9394,34.2988C404.80663,2254.82045,419.40623,2259.26185,419.40623,2264.56725Z" />
    <path fill="#102770"
        d="M647.42233,1821.49385c0,6.4338-17.7054,11.8203-41.5955,13.2665-1.4462,23.8901-6.8328,41.5955-13.2665,41.5955s-11.8202-17.7054-13.2665-41.5955c-23.89-1.4462-41.5954-6.8327-41.5954-13.2665,0-6.434,17.7054-11.8202,41.5954-13.2667,1.4463-23.8898,6.8328-41.5952,13.2665-41.5952s11.8203,17.7054,13.2665,41.5952C629.71693,1809.67365,647.42233,1815.05985,647.42233,1821.49385Z" />
    <circle cx="437.175" cy="1954.467" r="29.167" fill="#102770"
        transform="rotate(-45 437.175 1954.467)" />
    <circle cx="272.279" cy="2063.191" r="14.172" fill="#102770" />
    <path fill="#e1f5fe"
        d="M2785.06653,2447.82725a17.11119,17.11119,0,0,0,3.7118-1.1382c-3.8109,110.0189-26.6758,222.2158-68.5951,299.9664-482.5889,117.5417-1221.741,29.1504-1710.1702-198.5094-168.7975-78.6215-307.6677-173.9415-395.6977-283.1157a58.525,58.525,0,0,1,10.2642-83.2818c119.6363-91.5951,281.5856-153.8409,467.1932-191.4185h.0495c65.9719-13.3624,134.9132-23.5579,206.0321-30.8825,325.8503-33.654,696.9851-6.3842,1032.8825,61.3693,137.3383,27.6654,268.787,62.161,388.8526,102.0014h.0495v.0495c45.928,56.5685,69.1394,167.9238,69.6838,286.8019q-.51975-.2229-1.0395-.4455c-56.222-21.7268-149.8593-51.6194-257.9484-60.6268-175.9908-14.6988-277.7448-3.7119-281.0111,35.1386-3.3162,40.1377,95.3202,66.5163,271.3111,81.2154C2628.72353,2473.95875,2726.02353,2459.95265,2785.06653,2447.82725Z" />
    <path fill="#ff5722"
        d="M1010.013,2548.14605c-172.0294-80.1268-312.9746-177.5978-400.6981-289.4019a51.41515,51.41515,0,0,1,8.9111-72.0724c120.2271-94.2927,284.6325-158.0947,473.5467-196.3417h.0495C1183.62843,2114.94905,1116.81523,2485.73765,1010.013,2548.14605Z" />
    <path fill="#fff"
        d="M2789.32273,2409.66965a5.04027,5.04027,0,0,1-.7425-.3465c-4.4045-105.9114-27.3685-201.9738-68.9413-253.1974v-.0495h-.0495c-450.8652-149.612-1062.0327-223.4529-1542.7412-147.7313-8.7601,84.8281-91.9053,93.3404-164.0141,33.1097-167.9733,42.1666-312.5371,106.8022-418.1516,197.8167l-.1469-.2064a27.52382,27.52382,0,0,1,4.653-36.8924c121.6272-102.8471,293.4957-171.5357,492.5841-211.8425h.0495c491.8441-99.5268,1149.8796-26.0817,1627.7672,132.4882h.0495v.0495C2765.56693,2179.43625,2788.77833,2290.79155,2789.32273,2409.66965Z"
        opacity=".55" />
    <path fill="#102770"
        d="M2231.57443,2810.97565c-294.5679,0-618.0908-46.416-901.4575-130.271-336.3575-99.5337-594.17-244.6192-725.9473-408.5279a70.36037,70.36037,0,0,1,12.0825-99.6337c168.2642-129.2017,433.5645-209.7461,767.2241-232.9273,294.2676-20.437,634.6338,4.7046,958.396,70.8081.3687.0757.73.1685,1.0865.2735,134.5459,27.4853,262.4585,61.2207,380.205,100.2709a12.48492,12.48492,0,0,1,6.4844,4.5997c16.023,19.8584,29.7779,46.372,40.8911,78.8159,20.0171,58.3081,30.791,132.7368,31.1573,215.2295a12.37225,12.37225,0,0,1-17.2559,11.4233l-.9717-.415c-57.7807-22.3242-149.1284-50.9424-254.1626-59.6949-256.4087-21.4111-267.2607,19.1504-267.6538,23.8477-.8862,10.7324,15.2393,47.4048,260.0122,67.8467,104.978,8.7475,199.8267-4.3701,260.9107-16.9141.083-.0171.166-.0342.2465-.0488a4.625,4.625,0,0,0,1.0254-.3174,12.37393,12.37393,0,0,1,17.2974,11.7774c-3.0054,86.3623-17.644,171.1669-41.2256,238.872-.0586.21-.1245.4151-.1953.6177a461.705,461.705,0,0,1-28.6475,65.9106,12.374,12.374,0,0,1-7.9663,6.1573c-118.125,28.7646-253.3618,45.8667-401.958,50.8276Q2276.89543,2810.9793,2231.57443,2810.97565Zm-641.3941-853.5474c-70.2075,0-138.7744,2.273-204.9877,6.8726-328.7916,22.8418-589.4751,101.6382-753.8697,227.8686a45.61564,45.61564,0,0,0-7.8662,64.502c128.6499,160.0219,382.1069,302.185,713.6817,400.3051,309.9633,91.7237,668.2934,138.2837,983.1884,127.7955,144.6338-4.8291,276.3257-21.2574,391.5259-48.8355a445.04992,445.04992,0,0,0,24.3262-56.9702c.0586-.1978.1196-.3906.188-.5835,21.438-61.3428,35.2734-137.522,39.3506-216.0815-62.7393,12.0703-154.773,23.4399-256.1109,14.978-90.2514-7.5366-159.331-18.1397-205.3222-31.5161-19.9268-5.7935-80.564-23.4302-77.2925-63.0445,2.5488-30.2954,35.8227-68.0566,294.3725-46.4502,98.7232,8.2251,185.5738,33.4839,245.3247,55.3736-1.7675-71.8335-12.1313-138.4693-29.5556-189.2334-9.7437-28.4375-21.4844-51.6284-34.9243-69.0015-116.2647-38.4033-242.5025-71.5991-375.2857-98.6841-.3686-.0757-.73-.166-1.084-.2734C2087.44353,1983.80765,1829.34293,1957.42825,1590.18033,1957.42825Zm1129.4581,165.4395h0Z" />
    <path fill="#102770"
        d="M1009.99973,2560.55085a12.37521,12.37521,0,0,1-6.2476-23.064c41.5381-24.2285,81.023-105.4614,103.042-211.9946,23.6206-114.2725,25.0733-259.9488-24.9267-327.8028a12.37248,12.37248,0,1,1,19.9218-14.6777c58.2569,79.0576,52.1607,236.5991,29.2383,347.4902-23.7524,114.9121-66.6699,200.2808-114.8047,228.3619A12.32857,12.32857,0,0,1,1009.99973,2560.55085Z" />
    <path fill="#ff5722"
        d="M2720.29533,2125.71875h-.0495c-117.5418-38.9991-246.0209-72.8509-380.1916-100.2197v-.0496C2576.91933,1657.13565,2880.39973,1698.21335,2720.29533,2125.71875Z" />
    <path fill="#fff"
        d="M2766.06173,1891.89215c-19.9943-77.4539-82.0566-102.942-160.5992-75.2763,13.1649,49.8378-46.5216,85.7189-88.5396,49.3427-50.6297,38.0095-103.7338,94.0829-154.3632,168.4684q-9.7251-2.0046-19.45-4.0088v-.0495C2523.75273,1749.45625,2743.19683,1706.69575,2766.06173,1891.89215Z"
        opacity=".55" />
    <path fill="#102770"
        d="M2719.63843,2135.192h-.0489a12.36639,12.36639,0,0,1-3.8965-.6299c-117.2241-38.894-244.6606-72.4854-378.7695-99.8389a12.3736,12.3736,0,0,1-9.8999-12.124,12.556,12.556,0,0,1,1.9653-6.7432c62.3511-96.9506,132.6856-171.3964,203.4009-215.2856,67.3389-41.7969,129.7193-52.1191,175.6446-29.0869,82.4414,41.3525,91.1108,174.3164,23.1909,355.6738A12.37466,12.37466,0,0,1,2719.63843,2135.192Zm0-12.3731h0Zm-359.9463-108.6621c124.2553,25.9668,242.6831,57.2779,352.4585,93.1836,68.9306-190.7886,37.8051-287.1435-15.21-313.7378-37.9443-19.0356-91.7529-9.0967-151.5015,27.9932C2481.49633,1861.28325,2417.51683,1927.65775,2359.69213,2014.15675Z" />
    <path fill="#102770"
        d="M2719.63843,2135.21635a12.35218,12.35218,0,0,1-12.3731-12.3486v-.0489a12.37307,12.37307,0,1,1,12.3731,12.3975Z" />
    <path fill="#ff5722"
        d="M2320.73953,2797.13655c143.8216-4.8005,279.5265-21.2812,399.4437-50.4811C2920.42493,3125.70905,2562.15773,3207.36965,2320.73953,2797.13655Z" />
    <path fill="#102770"
        d="M2765.02263,2854.15055c-113.0877,26.1808-239.5378,41.3251-373.2633,46.2742a852.49245,852.49245,0,0,1-71.0198-103.2882c143.8216-4.8005,279.5265-21.2812,399.4437-50.4811C2740.82133,2785.75365,2755.52,2821.63475,2765.02263,2854.15055Z"
        opacity=".3" />
    <path fill="#102770"
        d="M2662.07493,3082.19145c-101.2866,0-241.3452-90.7495-351.9995-278.7793a12.37212,12.37212,0,0,1,10.2514-18.6401c146.9019-4.9048,280.4492-21.7749,396.9287-50.1392a12.38813,12.38813,0,0,1,13.8672,6.2427c97.3535,184.2871,62.2681,288.8818-3.0298,325.3149C2709.03533,3076.82525,2686.69653,3082.19145,2662.07493,3082.19145Zm-319.9048-273.4741c75.4419,122.0483,151.8872,183.0517,203.7378,212.9394,66.0254,38.0518,128.0347,46.416,170.1269,22.9248,67.8028-37.832,66.6333-148.6303-2.3706-283.6401C2603.43233,2787.00835,2478.60323,2803.05815,2342.17013,2808.71735Z" />
    <path fill="#ff5722"
        d="M2870.58723,2712.16015c-40.2364,9.9478-89.8264-1.3363-122.5404-29.6452v-.0495c24.3004-69.5352,37.861-153.2746,40.7315-235.7764,15.9361-6.3351,17.025-29.6948.5444-37.0194-.3465-78.1469-10.4922-153.0272-30.4865-211.2782,0,0,49.194-34.9903,111.751-37.2175C2943.04253,2285.44645,2938.09343,2547.15625,2870.58723,2712.16015Z" />
    <path fill="#fff"
        d="M2768.10553,2237.34105s43.8365-48.9691,121.3471-36.4449l-18.8625-36.1422s-70.775-11.086-111.7539,33.6375Z"
        opacity=".55" />
    <path fill="#102770"
        d="M2840.43183,2728.08015c-36.1743,0-73.7158-13.0469-100.4809-36.2085a12.36565,12.36565,0,0,1-4.2774-9.3555,12.66212,12.66212,0,0,1,.6934-4.1333c22.8955-65.5103,37.1167-147.9468,40.0464-232.124a12.37076,12.37076,0,0,1,7.7954-11.0669,7.55981,7.55981,0,0,0,4.6313-7.0386,7.32623,7.32623,0,0,0-4.541-7.1777,12.37321,12.37321,0,0,1-7.3486-11.2525c-.3492-78.6889-10.9375-152.3144-29.8169-207.3144a12.37457,12.37457,0,0,1,4.5288-14.0991c2.1338-1.5162,52.9712-37.1705,118.4863-39.502a12.469,12.469,0,0,1,11.1279,6.1328c72.2022,123.8428,72.5586,386.4136.7642,561.9043a12.3834,12.3834,0,0,1-8.4839,7.3267A138.30243,138.30243,0,0,1,2840.43183,2728.08015Zm30.1563-15.9204h0Zm-108.0469-33.8721c27.4975,20.4223,65.6225,29.3921,99.0112,23.1738,64.4751-163.5181,65.249-409.895,2.0239-527.4902-40.9521,3.3008-75.3027,21.018-89.9682,29.7046,17.5195,55.1782,27.1679,123.6401,28.0346,199.1064a31.91486,31.91486,0,0,1,11.9385,25.8643,32.51291,32.51291,0,0,1-12.6977,25.2783C2797.49973,2534.68905,2783.98413,2613.72225,2762.54123,2678.28765Z" />
    <path fill="#102770" d="M2748.04663,2694.838h-.0489a12.373,12.373,0,1,1,.0489,0Z" />
    <path fill="#ff5722"
        d="M2789.43473,2449.58955a17.11119,17.11119,0,0,1-3.7118,1.1382c-59.043,12.1254-156.343,26.1315-264.4317,17.1241-175.9909-14.6991-274.6273-41.0777-271.3111-81.2153,3.2663-38.8505,105.0203-49.8374,281.0112-35.1387,108.089,9.0075,201.7263,38.9001,257.9483,60.6268q.51975.2229,1.0395.4456C2806.45973,2419.89485,2805.37083,2443.25455,2789.43473,2449.58955Z" />
    <path fill="#102770"
        d="M2788.77833,2436.866a17.10568,17.10568,0,0,1-3.7118,1.1382c-59.043,12.1255-156.343,26.1316-264.4317,17.1241-175.9909-14.699-274.6273-41.0776-271.3111-81.2153a22.62026,22.62026,0,0,1,5.246-12.5707c22.568,30.7342,116.354,51.6689,266.0651,64.1904,108.0887,9.0071,205.3887-4.9987,264.4317-17.1241a17.11119,17.11119,0,0,0,3.7118-1.1382,19.89122,19.89122,0,0,0,6.0874-3.8109C2805.25873,2412.96165,2802.63583,2431.37255,2788.77833,2436.866Z"
        opacity=".3" />
    <path fill="#fff"
        d="M2794.03213,2437.73a20.39119,20.39119,0,0,0-4.7017-2.9201q-.51975-.22245-1.0394-.4452c-56.222-21.7268-149.8594-51.6194-257.9484-60.6268-154.0663-12.8676-251.2177-6.0381-275.2208,21.9246-4.3552-5.5926-6.2855-11.482-5.7904-17.7675,3.2663-38.8505,105.0203-49.8375,281.0112-35.1387,108.089,9.0074,201.7264,38.9,257.9484,60.6268q.51975.2229,1.0394.4455C2803.78183,2410.26235,2804.72213,2428.97,2794.03213,2437.73Z"
        opacity=".55" />
    <path fill="#102770"
        d="M2591.10083,2480.20415c-23.1006,0-47.0264-.8838-71.4942-2.9248-90.2514-7.5366-159.331-18.1397-205.3222-31.5161-19.9268-5.7935-80.564-23.4302-77.2925-63.0445,2.5488-30.2929,35.8374-68.0444,294.3725-46.4502,107.9615,8.9942,201.731,38.3619,261.3794,61.4161l1.4624.6176a32.54121,32.54121,0,0,1-.6762,59.812,29.44068,29.44068,0,0,1-6.2207,1.8799A988.45629,988.45629,0,0,1,2591.10083,2480.20415Zm-191.2305-125.4761c-131.0059,0-137.9053,26.3184-138.2178,30.0464-.8862,10.7324,15.2393,47.4048,260.0122,67.8467,104.978,8.7475,199.8267-4.3701,260.9107-16.9141a5.48506,5.48506,0,0,0,1.2719-.3662c.1197-.0513.2393-.1025.3614-.1489a7.55981,7.55981,0,0,0,4.6313-7.0386,7.32623,7.32623,0,0,0-4.541-7.1777l-.8325-.354c-57.7783-22.3242-149.126-50.9424-254.1602-59.6949C2476.39623,2356.50785,2433.93283,2354.72805,2399.87033,2354.72805Z" />
    <circle cx="1598.5" cy="2301.39" r="201.737" fill="#1297e0" />
    <path fill="#102770"
        d="M1810.21453,2343.47245c16.8166,110.1542-58.8191,213.0444-168.973,229.8609-110.1543,16.8166-213.0444-58.8191-229.861-168.9734a204.72183,204.72183,0,0,1-2.3221-30.0055c31.6721,89.4492,123.2969,146.6874,220.5673,131.8377,99.9907-15.2649,171.541-101.5635,171.3109-199.7526A203.73,203.73,0,0,1,1810.21453,2343.47245Z"
        opacity=".3" />
    <path fill="#fff"
        d="M1800.25083,2301.36455c0,4.2059-.1039,8.4118-.4155,12.566-6.4386-105.563-94.1391-189.1619-201.3117-189.1619-107.2247,0-194.9255,83.5989-201.3641,189.1619-.3116-4.1542-.4152-8.3601-.4152-12.566,0-111.3785,90.3488-201.7273,201.7793-201.7273C1709.90213,2099.63725,1800.25083,2189.98605,1800.25083,2301.36455Z"
        opacity=".55" />
    <g opacity=".3">
        <path fill="#6b184e"
            d="M1800.25083,2301.36455c0,111.4305-90.3487,201.7796-201.7272,201.7796-111.4305,0-201.7793-90.3491-201.7793-201.7796a201.58224,201.58224,0,0,1,1.8172-27.0009c13.1888,98.6053,97.6704,174.7267,199.9621,174.7267,102.2397,0,186.7209-76.1214,199.91-174.7267A201.56569,201.56569,0,0,1,1800.25083,2301.36455Z" />
        <path fill="#102770"
            d="M1598.52263,2505.76565c-112.7075,0-204.3994-91.6943-204.3994-204.4018a204.792,204.792,0,0,1,1.8384-27.3511l2.6147-19.3237,2.5855,19.3286c13.1494,98.313,97.9956,172.4511,197.3608,172.4511,99.3335,0,184.1602-74.1381,197.312-172.4511l2.5855-19.3262,2.6147,19.3213a204.792,204.792,0,0,1,1.8384,27.3511C1802.87323,2414.07135,1711.20333,2505.76565,1598.52263,2505.76565Zm-199.0185-211.7309q-.1356,3.6657-.1367,7.3291c0,109.8144,89.3408,199.1577,199.1552,199.1577,109.7876,0,199.1065-89.3433,199.1065-199.1577q0-3.6585-.1367-7.3316c-21.3184,91.1499-103.6329,157.6807-198.9698,157.6807C1503.15643,2451.713,1420.82243,2385.18215,1399.50413,2294.03475Z" />
    </g>
    <path fill="#102770"
        d="M1598.50073,2516.10745c-118.396,0-214.7193-96.3208-214.7193-214.7168s96.3233-214.7192,214.7193-214.7192,214.7168,96.3232,214.7168,214.7192S1716.89673,2516.10745,1598.50073,2516.10745Zm0-403.4741c-104.0821,0-188.7574,84.6753-188.7574,188.7573,0,104.0796,84.6753,188.7549,188.7574,188.7549,104.0795,0,188.7548-84.6753,188.7548-188.7549C1787.25553,2197.30865,1702.58023,2112.63335,1598.50073,2112.63335Z" />
    <circle cx="1598.5" cy="2301.39" r="140.752" fill="#ffc107" />
    <path fill="#102770"
        d="M1739.23933,2301.36455a138.18448,138.18448,0,0,1-3.8423,32.6608,140.71784,140.71784,0,0,0-273.7988,0,138.17929,138.17929,0,0,1-3.8424-32.6608,140.74175,140.74175,0,0,1,281.4835,0Z"
        opacity=".3" />
    <path fill="#fff"
        d="M1671.50223,2350.21725c0,18.0621-32.6853,32.7042-73.0046,32.7042-40.3194,0-73.0047-14.6421-73.0047-32.7042,0-18.062,37.494-7.5139,77.8134-7.5139C1643.62563,2342.70335,1671.50223,2332.15525,1671.50223,2350.21725Z"
        opacity=".25" />
    <path fill="#102770"
        d="M1598.50073,2455.12355c-84.7681,0-153.733-68.9648-153.733-153.7329s68.9649-153.7329,153.733-153.7329c84.768,0,153.7329,68.9648,153.7329,153.7329S1683.26873,2455.12355,1598.50073,2455.12355Zm0-281.5039a127.771,127.771,0,1,0,127.771,127.771A127.91451,127.91451,0,0,0,1598.50073,2173.61965Z" />
    <path fill="#102770"
        d="M2808.735,2719.67925a7.50731,7.50731,0,0,1-6.9848-10.2246c63.7231-163.5449,54.5727-416.9092,3.8208-534.187a7.49919,7.49919,0,1,1,13.7646-5.9571c57.5537,132.9859,55.8325,393.0347-3.6108,545.5884A7.49917,7.49917,0,0,1,2808.735,2719.67925Z" />
    <circle cx="1145.031" cy="2485.859" r="11.239" fill="#102770" />
    <circle cx="1200.092" cy="2224.156" r="11.239" fill="#102770"
        transform="rotate(-76.718 1200.092 2224.156)" />
    <circle cx="1188.854" cy="2356.822" r="11.239" fill="#102770"
        transform="rotate(-80.783 1188.854 2356.822)" />
    <circle cx="1188.854" cy="2066.918" r="11.239" fill="#102770"
        transform="rotate(-22.5 1188.854 2066.918)" />
    <path fill="#102770"
        d="M2767.54643,2614.019c-11.3334,49.4912-27.1211,95.0728-47.3632,132.6365-482.5889,117.5417-1221.741,29.1504-1710.1702-198.5094-159.6436-74.3579-292.518-163.6523-380.931-265.477-29.8985-34.4339-24.3403-87.076,12.714-113.6578q7.9551-5.70675,16.1365-11.2522c88.4408,102.3974,221.7703,192.1251,382.1218,266.8072,369.9891,172.4492,883.8374,264.9974,1321.0609,248.6153,57.3133-2.1475,83.0042-73.3364,39.7452-110.9939-50.4354-43.9047-100.7214-99.853-147.3796-167.3161,99.9866,79.791,287.6957,89.6705,535.2975,51.8175C2798.03323,2520.13415,2789.37223,2575.66325,2767.54643,2614.019Z"
        opacity=".3" />
    <path fill="#102770"
        d="M2914.62163,2500.29775c-28.4007,75.0468-97.2994,62.8797-133.4473,0l-20.4246,148.6456-11.3125,34.7069s67.7524,30.0623,124.3474,20.5014C2888.45593,2701.67315,2924.016,2501.51845,2914.62163,2500.29775Z"
        opacity=".3" />
    <ellipse cx="976.898" cy="2093.701" fill="#fff" opacity=".55" rx="21.133" ry="15.305"
        transform="rotate(-9.049 976.898 2093.702)" />
    <ellipse cx="2650.831" cy="1845.068" fill="#fff" opacity=".55" rx="19.224" ry="11.462" />
    <path fill="#102770"
        d="M2747.55423,1843.21875s10,255-370,180l-25.4495,9.5696,372.9495,92.9304S2800.05423,1925.71875,2747.55423,1843.21875Z"
        opacity=".3" />
    <path fill="#ffa726"
        d="M2610.20853,1531.20855c-39.4199-3.732-44.6443,65.1343-64.3885,106.1825-25.7823,52.6504-109.439,75.5152-150.2159,59.571l-3.3245-71.7157c21.1686-14.9947,37.3166-33.8563,47.9684-56.857l.0679-.0679c7.599-16.0801,12.5522-34.1955,14.7234-54.4146,16.8263-136.7142,189.9075-206.1909,263.1158-112.0852C2761.44243,1459.357,2705.67123,1524.49125,2610.20853,1531.20855Z" />
    <path fill="#102770"
        d="M2425.64673,1715.61185c-13.2178,0-25.2906-1.9019-35.0757-5.7275a13.8537,13.8537,0,0,1,10.0879-25.8057c33.7915,13.2031,109.7949-6.0083,132.7026-52.8052,5.2686-10.9326,9.6826-24.8779,13.9502-38.3642,11.626-36.731,24.7852-78.2764,62.9907-75.5664,50.0195-3.7867,90.9644-25.3003,104.48-54.9683,7.8003-17.1216,5.1318-35.1904-7.7148-52.2534-25.9888-33.4009-69.9317-45.6153-117.439-32.5244-53.501,14.7583-111.6235,63.1543-120.8692,138.0127-5.6567,52.0166-28.7011,92.7685-68.4741,120.9179a13.85391,13.85391,0,1,1-16.0058-22.6172c33.4741-23.6938,52.1045-56.8945,56.9555-101.499,10.8399-87.7588,78.6353-144.3164,141.0279-161.5259,58.6694-16.1865,113.562-.3369,146.809,42.3975,19.1871,25.4785,23.0201,54.0356,10.9253,80.5811-18.0322,39.58-67.3803,66.8603-128.7866,71.1962a14.14555,14.14555,0,0,1-2.2973-.0293c-15.7764-1.4721-24.1236,21.294-35.1831,56.2378-4.563,14.4141-9.2798,29.3189-15.4444,42.1119C2534.863,1691.232,2472.95873,1715.60945,2425.64673,1715.61185Z" />
    <path fill="#102770"
        d="M2610.20853,1531.20855c-39.4199-3.732-44.6443,65.1343-64.3885,106.1825-25.7823,52.6504-109.439,75.5152-150.2159,59.571l-3.3245-71.7157c21.1686-14.9947,37.3166-33.8563,47.9684-56.857l.0679-.0679s31.0068,57.3319,68.3913-5.4278c37.3845-62.7598,72.3262-129.5227,148.1131-121.5842,75.7865,7.8702,75.1082-10.2452,61.3348-39.4878C2761.44243,1459.357,2705.67123,1524.49125,2610.20853,1531.20855Z"
        opacity=".3" />
    <path fill="#fff"
        d="M2281.41513,1279.83c-4.8848,2.3071-9.7701,4.6816-14.7229,6.9886l29.2426,71.8512c54.0749,18.1158,77.6185,49.5297,48.308,104.0117,89.967,173.8954,44.1014,422.0849-92.3415,544.4153,3.6636,49.0546,28.4959,98.7872,64.0488,148.9272-22.5257,154.2193-151.2343,299.4829-268.951,273.9039-166.5677-52.2433-118.5993-217.1148-29.8535-246.6287-41.7265-63.9134-65.813-132.8472-49.9363-213.2474l-343.1092-30.8713s12.7555-45.7297,47.9688-82.2997c-48.308-55.9074-88.0671-118.1243-110.7965-192.7575l-209.949,257.1148c-.2716,50.8863-35.5524,72.1908-117.9884,53.8037l-214.6044,10.3131c-29.5139-98.2443,7.531-159.0366,156.1191-157.137l357.723-593.9138c268.001,21.6436,475.2098-48.783,612.8065-224.5784,132.6435-79.111,238.3514-172.1313,290.7301-292.6976-52.1754-103.4013-21.779-151.2343,96.6161-139.6321,61.0635-60.7243,116.8351-96.4806,161.4794-79.1114,37.3841,14.4517,66.9663,66.1522,85.2176,171.5888C2717.34093,948.05165,2549.21253,1149.83265,2281.41513,1279.83Z" />
    <path fill="#102770"
        d="M2074.63353,2435.42385a132.52629,132.52629,0,0,1-28.1763-3.0054c-71.2549-22.3388-112.2852-68.9135-112.7905-127.8418-.459-53.496,33.5425-105.5468,79.5801-122.6074-46.6089-72.4389-62.2413-139.209-49.0723-209.6313l-343.3496-30.8936.8227-2.9468c.127-.4565,12.9322-45.371,46.9873-81.6992-52.3193-60.9326-87.8222-122.3047-108.3911-187.3877l-206.3818,252.7466c-.293,21.6602-6.9922,37.8589-19.9194,48.1641-19.5923,15.6152-52.5708,17.998-100.8277,7.2827l-216.2524,10.3931-.5738-1.9092c-14.9316-49.7046-12.3999-86.8555,7.7369-113.5742,24.3457-32.2974,73.2397-47.6392,149.3945-46.8628l357.7856-594.0137,1.5723.1269c271.8262,21.9434,477.2754-53.2788,610.5933-223.6084l.7006-.6176c147.5879-88.0249,242.2071-183.0347,289.2261-290.4346-26.1645-52.2339-31.1499-90.8057-14.8144-114.6533,16.4184-23.9722,54.5312-33.291,113.2934-27.7051,70.3638-69.7559,122.3023-94.7998,163.3496-78.8354,40.9375,15.8227,69.3335,72.5854,86.8067,173.5302l.0879.4981-.1099.4907c-61.3306,274.8071-229.3481,480.6103-499.3823,611.6943l-.0244.0122-5.8692,2.7906q-3.32145,1.58925-6.6723,3.1738l27.893,68.5303c31.5503,10.7544,50.5542,25.2417,58.086,44.2651,6.7627,17.0801,3.7939,37.8687-8.8233,61.8066,87.9151,171.4649,45.6348,420.5762-92.5781,545.4493,3.5571,43.269,24.3335,91.1792,63.4863,146.3989l.5908.8325-.1464,1.0108c-14.2701,97.705-70.7911,193.6059-143.9893,244.3212C2141.34983,2423.671,2107.32393,2435.42385,2074.63353,2435.42385Zm-447.1607-498.4985,342.7857,30.8423-.5493,2.7783c-14.0088,70.9399,1.7431,138.103,49.5703,211.3598l1.8066,2.7686-3.1372,1.0425c-45.5933,15.1636-79.6362,66.2451-79.1846,118.8159.4834,56.5698,40.2124,101.3892,108.9966,122.9639,39.3213,8.5302,82.2217-2.1534,123.8184-30.9717,71.8432-49.7754,127.3852-143.8379,141.6992-239.8609-39.6948-56.1791-60.6055-105.0512-63.9185-149.3774l-.0927-1.25.9326-.8374c137.6953-123.4521,179.7241-371.3574,91.7798-541.3452l-.6177-1.1939.6372-1.1865c12.4023-23.0517,15.5005-42.8027,9.2041-58.7036-7.0337-17.7637-25.376-31.3965-56.0791-41.6821l-1.1084-.3736-30.5981-75.1831,2.1972-1.0229c2.9614-1.3794,5.8985-2.7832,8.8257-4.1797l5.8716-2.7954c268.3935-130.2857,435.4468-334.7583,496.5137-607.7222-17.1485-98.7231-44.4751-154.0478-83.5401-169.1479-39.126-15.2295-89.5727,9.7363-158.7646,78.54l-.8521.8472-1.1938-.1172c-57.4561-5.6348-94.3872,2.915-109.7852,25.3955-15.3174,22.3633-10.0366,59.5581,15.6958,110.5518l.5371,1.0669-.4761,1.0961c-47.2509,108.7598-142.5561,204.8096-291.3549,293.628-119.2481,152.1069-295.4737,228.9038-524.5826,228.9135q-43.0737.00375-88.5668-3.6157l-357.6636,593.8135-1.46-.0171c-74.2749-1.0034-123.5937,14.1309-146.7212,44.8169-18.8403,24.9927-21.2964,60.0537-7.4926,107.1314l212.9492-10.232.3344.0733c46.189,10.3027,78.7769,8.208,96.8775-6.2183,11.8408-9.4409,17.9004-24.6167,18.0078-45.1123l.0049-.8984.5713-.6983,212.9687-260.8154,1.3892,4.5679c20.3174,66.7089,56.394,129.458,110.2905,191.8359l1.5186,1.7578-1.6114,1.6748C1644.63593,1889.04445,1630.94943,1926.315,1627.47283,1936.92535Z" />
    <path fill="#ee346a"
        d="M1958.70493,1954.15445s119.4934-76.0681,291.6319,56.2489c0,0-184.608-56.2489-296.7283,10.004Z" />
    <path fill="#1297e0"
        d="M1591.76573,1740.10655s397.2634,53.7975,771.9742-233.0165l10.4812,32.6477s-249.8839,299.7482-759.5217,248.7844Z" />
    <path fill="#ee346a"
        d="M1324.16593,1573.76875s120.7467-3.1982,186.5287,145.2745l41.3565-44.0094,1.4917-29.2103-23.0735-19.7202-83.0191-74.6913s-52.6256-32.9939-105.7723-10.0602Z" />
    <path fill="#ee346a"
        d="M2279.77673,924.68605l45.8674-40.771s-27.3457,202.5123,187.6341,241.4066l-50.0319,33.7978S2289.96953,1184.60135,2279.77673,924.68605Z" />
    <path fill="#1297e0"
        d="M2088.89543,2172.27385c60.4712-5.4356,22.8988,79.7218-24.2036,51.7367-47.1025-27.985-98.2866-3.3539-98.2866-3.3539S2013.41413,2179.05865,2088.89543,2172.27385Z" />
    <path fill="#ffa726"
        d="M1497.59183,667.50465c-134.2465-60.294-179.8958-17.9386-111.2093,156.8875Z" />
    <path fill="#fff"
        d="M1497.56273,667.49845l-16.2155,22.9328c-89.017-34.3992-131.0152-14.1801-116.2243,71.7837C1331.26673,640.22365,1380.99923,615.11965,1497.56273,667.49845Z"
        opacity=".55" />
    <path fill="#102770"
        d="M1386.384,838.24615a13.868,13.868,0,0,1-12.898-8.7891c-38.728-98.5766-43.0127-157.6001-13.479-185.7568,25.5151-24.3262,72.3779-20.6714,143.2617,11.1645a13.85766,13.85766,0,0,1,5.6275,20.6519l-111.211,156.8872A13.857,13.857,0,0,1,1386.384,838.24615Zm19.2309-182.6612c-11.8091,0-20.7544,2.7051-26.4892,8.1714-10.271,9.7925-21.438,39.7876,11.062,131.3086l86.1865-121.5844C1447.21163,661.608,1423.22973,655.585,1405.61493,655.585Z" />
    <path fill="#ffa726"
        d="M2071.96723,999.68425c12.6197,67.2375-497.3285,229.3953-525.9607,159.5795-85.2854-41.7269-136.5109-98.6518-159.9187-160.7328v-.068c0-.0679-.0675-.1358-.0675-.2037-74.5657-198.5244,135.086-450.2417,427.6481-431.1084,94.4448-181.6303,173.5563-181.6303,233.1269,50.0042a243.22016,243.22016,0,0,1,58.282,52.7183l.1358.2033C2164.51253,744.09955,2191.24483,864.53035,2071.96723,999.68425Z" />
    <path fill="#6b184e"
        d="M1683.92183,1041.96235s-.4277,26.2912,0,27.1393c.4276.8481,11.7407,14.2058,11.7407,14.2058l17.5994,3.5913,13.7048-29.2465,36.0429-21.1323,35.2209,3.1093s9.7925,4.7086,10.8215,4.581c1.029-.1277,8.206-7.3024,8.5399-8.8037.334-1.5012,1.8182-19.3114,1.8182-19.3114l-22.0507-21.9309s-32.8403-.3114-33.5987-.3796c-.7585-.0682-50.8712-10.5638-50.8712-10.5638Z" />
    <path fill="#fff"
        d="M2014.02493,517.21455c-51.9721-90.7812-114.4606-57.0607-185.6335,79.7897-295.7508-19.337-506.7595,237.9439-425.2735,437.4183-117.3097-202.5272,99.873-487.5583,410.5505-467.2717C1891.69413,417.07025,1959.27123,391.01625,2014.02493,517.21455Z"
        opacity=".55" />
    <g opacity=".3">
        <path fill="#6b184e"
            d="M2150.52753,1006.79045c-52.0299,313.9784-522.094,411.9511-629.6504,224.3377C1708.86,1279.60205,2018.323,1213.28815,2150.52753,1006.79045Z" />
        <path fill="#102770"
            d="M1728.32,1328.72465c-95.957,0-174.3481-34.7437-209.6558-96.3306l-3.0053-5.2441,5.8545,1.5088c174.1455,44.9145,488.8696-7.6929,626.8676-223.2422l6.687-10.4443-2.0263,12.2363c-29.7217,179.353-195.5542,287.102-346.7163,314.3237A441.11336,441.11336,0,0,1,1728.32,1328.72465Zm-202.085-93.6328c45.4322,72.0337,154.0552,103.9526,279.187,81.4233,145.9278-26.2768,305.6617-128.3276,340.3272-297.9077-61.3745,89.4727-163.252,159.6753-288.3765,198.4009C1745.45873,1251.64455,1622.25553,1258.29985,1526.235,1235.09185Z" />
    </g>
    <path fill="#102770"
        d="M1178.16133,1845.19685a13.85975,13.85975,0,0,1-11.9214-20.8936l352.2949-597.4414a13.85346,13.85346,0,1,1,23.8672,14.0723l-352.2949,597.4414A13.84515,13.84515,0,0,1,1178.16133,1845.19685Z" />
    <path fill="#102770"
        d="M2253.87183,1297.963a13.85675,13.85675,0,0,1-5.0074-26.7774c325.3003-126.0327,574.9829-482.9272,495.0562-707.4609-16.4771-38.4668-44.1113-58.1421-79.8145-56.7529-45.8862,1.7114-96.5014,38.0542-110.5273,79.3579a13.85622,13.85622,0,0,1-19.0894,8.0469c-47.4707-22.6783-86.5307-8.1739-102.7343,14.8974-17.8589,25.4224-10.3003,59.6314,19.7192,89.2798a13.853,13.853,0,0,1,2.5928,16.1816c-64.1138,125.0122-159.375,223.5498-299.7901,310.1099a13.8553,13.8553,0,0,1-14.541-23.5889c132.6392-81.7627,223.4961-174.2627,285.1489-290.4882-33.5669-37.815-39.9536-83.042-15.8032-117.4195,21.0474-29.9585,67.8565-50.4346,123.9917-29.6411,22.7637-45.7959,77.9151-82.4805,130-84.4263,47.5684-1.748,85.4688,24.4873,106.5039,73.9698.1074.2465.2051.498.2954.7519,40.5908,113.4473,5.6812,263.3765-95.7837,411.3477-101.3549,147.8174-252.6953,268.706-415.2148,331.6748A13.823,13.823,0,0,1,2253.87183,1297.963Z" />
    <path fill="#102770"
        d="M1020.70773,2003.28275a13.85321,13.85321,0,0,1-12.4097-7.6758c-28.2446-56.6553-17.7099-117.9541,26.836-156.1719,42.185-36.1865,117.2461-49.7509,189.8462,1.5552a13.85373,13.85373,0,0,1-15.9913,22.627c-60.4101-42.688-121.7871-32.3389-155.8129-3.1519-27.5245,23.6157-47.2559,68.2691-20.0782,122.7783a13.85908,13.85908,0,0,1-12.3901,20.0391Z" />
    <path fill="#102770"
        d="M1281.93333,1997.338a131.79233,131.79233,0,0,1-31.1133-3.7378c-32.9492-8.0982-55.9522-27.3047-61.5283-51.3794a13.85372,13.85372,0,0,1,26.9922-6.2549c3.125,13.4839,18.8916,25.2564,41.1474,30.7251,27.4732,6.7578,55.8765,1.7896,67.5415-11.7969,8.0445-9.3676,8.3472-23.2373.8985-41.2231a13.85427,13.85427,0,1,1,25.6006-10.6006c14.663,35.4053,5.1147,57.5415-5.4786,69.8755C1331.01533,1990.38725,1306.29613,1997.338,1281.93333,1997.338Z" />
    <path fill="#102770"
        d="M1617.72433,1955.48005a13.86138,13.86138,0,0,1-13.1274-18.2959c12.7514-37.71,36.6186-67.2998,50.8569-82.6148-49.3506-43.9087-83.8989-123.0395-98.9624-162.5805l-200.9961,247.5488a13.85447,13.85447,0,1,1-21.5112-17.4658l216.5307-266.6822a13.85729,13.85729,0,0,1,23.9527,4.5118c.4272,1.3378,43.5839,134.309,109.8095,182.373a13.85631,13.85631,0,0,1,1.0474,21.5869c-.3687.3272-38.3618,34.5361-54.4775,82.1997A13.86105,13.86105,0,0,1,1617.72433,1955.48005Z" />
    <path fill="#102770"
        d="M1378.93773,1901.835c-.2564,0-.5152-.0097-.774-.0317a9.60681,9.60681,0,0,1-8.8134-10.3418c3.9038-48.938-25.9302-106.582-69.4019-134.0845-13.8135-8.7378-40.8057-21.2036-66.3672-6.4892a9.60819,9.60819,0,1,1-9.5849-16.6553c25.4297-14.6338,56.0522-12.1875,86.228,6.9043,49.0601,31.0376,82.7148,96.3208,78.2812,151.853A9.609,9.609,0,0,1,1378.93773,1901.835Z" />
    <path fill="#102770"
        d="M1512.81463,1737.97515a10.19644,10.19644,0,0,1-9.8291-7.5171c-20.9009-76.7188-101.582-141.5356-176.1816-141.5356a10.1929,10.1929,0,0,1,0-20.3858c84.4726,0,172.3315,70.2344,195.8496,156.5649a10.2027,10.2027,0,0,1-9.8389,12.8736Z" />
    <path fill="#102770"
        d="M1478.47383,1581.37115a10.05216,10.05216,0,0,1-6.3794-2.2754c-58.4643-47.6758-120.4224-31.0693-123.0273-30.3394a10.10338,10.10338,0,0,1-5.5274-19.436c3.0005-.8643,74.4409-20.4272,141.3233,34.1162a10.1047,10.1047,0,0,1-6.3892,17.9346Z" />
    <path fill="#1297e0"
        d="M1960.25013,1569.85805l-367.0672,92.0671a40.96,40.96,0,0,1-49.4431-28.8119l-54.5512-197.2604a40.29481,40.29481,0,0,1,26.8662-49.2158l364.2802-113.3383a24.417,24.417,0,0,1,30.8435,17.0123l22.8377,85.4826c-31.6968,9.1831-45.6196,55.3948-39.1766,90.2019,6.1469,33.0298,41.7685,68.8733,75.983,47.3969l7.0763,26.4779A24.417,24.417,0,0,1,1960.25013,1569.85805Z" />
    <circle cx="1544.095" cy="1437.284" r="10.377" fill="#fff" opacity=".55"
        transform="rotate(-80.783 1544.095 1437.284)" />
    <circle cx="1597.918" cy="1616.502" r="10.377" fill="#fff" opacity=".55" />
    <circle cx="1858.666" cy="1552.044" r="10.377" fill="#fff" opacity=".55"
        transform="rotate(-22.5 1858.667 1552.044)" />
    <circle cx="1810.009" cy="1375.329" r="10.377" fill="#fff" opacity=".55" />
    <path fill="#fff"
        d="M1934.03143,1375.76765a41.30177,41.30177,0,0,0-9.2273,4.0033l-13.6376-50.9542a24.363,24.363,0,0,0-30.803-17.03l-364.2779,113.3748a40.3723,40.3723,0,0,0-24.154,20.5578l-2.7141-9.8381a40.25716,40.25716,0,0,1,26.8681-49.258l364.2779-113.3064a24.37433,24.37433,0,0,1,30.803,16.9621Z"
        opacity=".55" />
    <path fill="#102770"
        d="M1583.00023,1677.05965a54.43262,54.43262,0,0,1-52.5904-40.2662l-54.5459-197.2241a53.83278,53.83278,0,0,1,36.128-66.1816l364.2578-113.3008a38.23033,38.23033,0,0,1,48.2959,26.5942l22.8686,85.5079a13.85675,13.85675,0,0,1-9.5092,16.8823c-23.1104,6.7285-34.8169,45.5249-29.4678,74.4116,3.1347,16.7798,15.9912,34.0356,29.8999,40.1196,8.7182,3.8111,16.9238,3.169,25.0928-1.9677a13.85413,13.85413,0,0,1,20.7568,8.1347l7.124,26.5308a38.36026,38.36026,0,0,1-27.7124,47.019h-.0049l-367.0605,92.0703A56.06624,56.06624,0,0,1,1583.00023,1677.05965Zm304.6435-391.0035a10.48885,10.48885,0,0,0-3.1445.4834l-364.2993,113.313a26.27256,26.27256,0,0,0-17.6343,32.312l54.5557,197.2608a26.96946,26.96946,0,0,0,32.6977,19.082l367.0313-92.063h-.0049a10.64286,10.64286,0,0,0,7.6855-13.0273l-3.0053-11.189a53.09762,53.09762,0,0,1-34.2945-3.2397c-22.2754-9.7437-41.206-34.5972-46.0351-60.4395-6.8994-37.2583,6.2671-82.7978,36.394-100.625l-19.8071-74.0649a10.54971,10.54971,0,0,0-10.1392-7.8028Zm72.5782,283.8257h0Z" />
    <path fill="#102770"
        d="M1911.20573,1596.03905a13.861,13.861,0,0,1-13.2885-9.9536l-85.6861-291.8359a13.8548,13.8548,0,1,1,26.5869-7.8076l85.6861,291.8359a13.86277,13.86277,0,0,1-13.2984,17.7612Z" />
    <path fill="#ee346a"
        d="M1541.46083,1624.77135c-64.6597,15.8088-109.3036-113.9173-37.0454-133.8647Z" />
    <path fill="#102770"
        d="M1530.45383,1628.67335c-30.4028,0-54.3677-29.6191-62.5879-61.2158-8.3521-32.0923-.4981-68.9673,35.8716-79.0063l2.456-.6788,38.4229,138.8501-2.5513.625A48.82914,48.82914,0,0,1,1530.45383,1628.67335Zm-27.8003-134.5801c-33.0347,10.6812-36.8433,45.2295-29.856,72.0826,8.4034,32.29,34.0284,62.478,65.4859,56.6723Z" />
    <path fill="#102770"
        d="M1541.46083,1624.77135c-35.6204,8.6843-65.2022-26.8002-72.462-63.7098,13.5696,18.7263,33.4492,30.5318,55.7711,25.104l-25.8502-93.3594a47.62535,47.62535,0,0,1,5.4957-1.8995Z"
        opacity=".3" />
    <path fill="#fff"
        d="M1480.53313,1591.79715c-20.7616-35.96-20.0833-88.7458,23.8823-100.8905l9.6348,34.8737C1484.80763,1535.21135,1476.05493,1563.50405,1480.53313,1591.79715Z"
        opacity=".55" />
    <path fill="#102770"
        d="M1530.32933,1640.00155c-36.0132,0-64.0235-33.6353-73.4058-69.6973-11.7114-45.0122,5.8911-82.2852,43.8062-92.7515a13.851,13.851,0,0,1,17.0385,9.6607l37.0435,133.8647a13.85153,13.85153,0,0,1-10.061,17.1509A60.51668,60.51668,0,0,1,1530.32933,1640.00155Zm-34.9292-129.7315c-20.1758,14.9585-13.4741,46.084-11.6602,53.0566,5.8545,22.5025,21.1792,43.3448,39.607,47.9395Z" />
    <path fill="#1297e0"
        d="M2350.14563,1450.80795c-5.767,9.7023-14.248,18.8621-25.6469,26.8681-60.6565,42.8803-125.5195,52.7179-190.6538,24.3574-45.1193-23.747-89.3562-31.8209-132.3722-16.7584a44.63776,44.63776,0,0,1-6.5811,1.6962v.0679a43.35928,43.35928,0,0,1-33.0421-7.0564,40.3637,40.3637,0,0,1-14.5876-18.8617,7.44994,7.44994,0,0,0-.3392-1.1533,61.25257,61.25257,0,0,1,29.921-76.3294,61.695,61.695,0,0,1,13.7734-5.0211c43.2194-10.2448,87.9991-7.3953,127.1478,10.6522,58.6211,23.9507,107.4716,17.8442,148.7235-11.6018C2315.95013,1342.38645,2381.01653,1398.63255,2350.14563,1450.80795Z" />
    <path fill="#102770"
        d="M2350.14563,1450.80795c-5.767,9.7023-14.248,18.8621-25.6469,26.8681-60.6565,42.8803-125.5195,52.7179-190.6538,24.3574-45.1193-23.747-89.3562-31.8209-132.3722-16.7584a44.63776,44.63776,0,0,1-6.5811,1.6962v.0679a43.35928,43.35928,0,0,1-33.0421-7.0564,40.3637,40.3637,0,0,1-14.5876-18.8617,7.44994,7.44994,0,0,0-.3392-1.1533,60.23786,60.23786,0,0,1-2.2391-35.6204,39.83391,39.83391,0,0,0,12.9593,15.198,43.35849,43.35849,0,0,0,33.0421,7.0561v-.0679a44.6506,44.6506,0,0,0,6.5811-1.6963c43.0161-15.0621,87.2529-6.9881,132.3723,16.7588,65.1342,28.3606,129.9973,18.5225,190.6537-24.3577,11.3985-8.0061,19.8795-17.1655,25.6469-26.8681a57.24632,57.24632,0,0,0,5.6315-12.6197C2359.98373,1413.01635,2361.137,1432.14965,2350.14563,1450.80795Z"
        opacity=".3" />
    <path fill="#fff"
        d="M2358.08373,1423.93985c-16.6904-24.3573-52.1754-36.4345-82.0284-15.13-41.252,29.4464-90.1029,35.5525-148.724,11.6022-39.1482-18.0479-83.9284-20.8974-127.1478-10.6522a61.68014,61.68014,0,0,0-13.773,5.0207,60.7796,60.7796,0,0,0-31.0067,36.3666,59.58621,59.58621,0,0,0-2.8495,19.6762,40.61159,40.61159,0,0,1-5.2924-9.7023,7.44994,7.44994,0,0,0-.3392-1.1533,61.25257,61.25257,0,0,1,29.921-76.3294,61.695,61.695,0,0,1,13.7734-5.0211c43.2194-10.2448,87.9991-7.3953,127.1478,10.6522,58.6211,23.9507,107.4716,17.8442,148.7235-11.6018C2307.40123,1348.49255,2359.03373,1381.94215,2358.08373,1423.93985Z"
        opacity=".55" />
    <path fill="#102770"
        d="M2207.76823,1531.83985c-26.5918,0-53.2226-5.6836-79.4555-17.1045-.3125-.1367-.6177-.2832-.9204-.4419-44.8584-23.6084-84.5435-28.8208-121.3428-15.9423a57.28631,57.28631,0,0,1-7.19,1.9629,13.05166,13.05166,0,0,1-1.3867.3369,57.5327,57.5327,0,0,1-43.5913-9.336,54.18571,54.18571,0,0,1-19.5508-25.2197,14.126,14.126,0,0,1-.5053-1.5991,73.85391,73.85391,0,0,1-1.1817-48.7232,75.74973,75.74973,0,0,1,54.7876-50.6396c47.8736-11.3403,94.8462-7.3975,135.8472,11.4209,51.8164,21.1011,96.0327,17.771,135.1611-10.1636,32.7002-23.3276,69.065-13.8306,90.5933,5.9375,24.668,22.6465,29.9072,57.0215,13.0371,85.5347l-.0147.022c-6.9995,11.7797-16.9555,22.2534-29.5922,31.1279C2292.18233,1517.48925,2250.02653,1531.83985,2207.76823,1531.83985Zm-67.937-42.312c59.2334,25.625,118.6768,17.8321,176.6699-23.164,9.4458-6.6358,16.7481-14.2432,21.7359-22.6343,12.3413-20.8863,3.9917-40.0342-7.9443-50.9912-13.2959-12.2046-35.6958-18.1104-55.7593-3.7915-46.9043,33.4814-101.4136,37.9052-162.0069,13.1469-.188-.0756-.3759-.1562-.5615-.2417-35.3857-16.311-76.2427-19.685-118.1518-9.7534a47.97608,47.97608,0,0,0-10.6934,3.8916,47.15915,47.15915,0,0,0-24.0552,28.1323,46.50208,46.50208,0,0,0,.8228,30.9571c.0683.1831.1343.3686.1953.5542.1416.415.2685.8081.3808,1.1938a26.48,26.48,0,0,0,9.292,11.7749,29.75745,29.75745,0,0,0,21.4551,5.0122c.3931-.1074.7935-.2002,1.1988-.2734a30.71363,30.71363,0,0,0,4.5532-1.167C2041.20823,1456.67875,2087.97093,1462.35015,2139.83123,1489.52785Zm-206.2134-26.0034.0025.0073Zm-.0048-.0244a.03145.03145,0,0,1,.0024.0146A.03145.03145,0,0,0,1933.613,1463.50005Zm-.0147-.0879.0147.0854Zm416.5479-12.605h0Z" />
    <path fill="#ee346a"
        d="M1994.89163,1487.03915c-7.7348,12.7556-15.8767,21.1687-24.0865,26.3252-34.1955,21.5079-69.8158-14.3163-75.9899-47.3584-6.4456-34.8062,7.5311-81.011,39.2162-90.2383,11.8055-3.3924,26.1218-1.6282,42.8123,7.8707a61.25257,61.25257,0,0,0-29.921,76.3294,7.44994,7.44994,0,0,1,.3392,1.1533,40.3637,40.3637,0,0,0,14.5876,18.8617A43.35928,43.35928,0,0,0,1994.89163,1487.03915Z" />
    <path fill="#102770"
        d="M1949.25993,1522.443a43.46419,43.46419,0,0,1-17.4975-3.8135c-19.0479-8.3301-35.271-29.7779-39.4531-52.1558-6.7505-36.4477,8.4326-83.667,41.0083-93.1518,13.4668-3.8794,28.54-1.1475,44.7851,8.103l4.165,2.3706-4.2944,2.1265a58.43063,58.43063,0,0,0-29.7021,34.8388,57.6372,57.6372,0,0,0,1.0376,38.3081,13.45777,13.45777,0,0,1,.4101,1.3355,37.86221,37.86221,0,0,0,13.584,17.4853,41.05373,41.05373,0,0,0,31.1157,6.648l5.6177-1.0669-2.9663,4.8901c-7.4829,12.3413-15.8643,21.4795-24.9097,27.1607A42.6555,42.6555,0,0,1,1949.25993,1522.443Zm-3.6743-145.7276a39.11909,39.11909,0,0,0-10.852,1.5015c-29.9585,8.7231-43.7647,53.0249-37.4146,87.3242,3.8281,20.481,19.1724,40.8472,36.4868,48.4204,12.0655,5.271,24.3921,4.3262,35.6421-2.7563,7.2461-4.5484,14.0845-11.5869,20.376-20.9571a46.02014,46.02014,0,0,1-29.4385-8.1811,42.95795,42.95795,0,0,1-15.5005-20.0293l-.1342-.4932a2.97163,2.97163,0,0,0-.149-.4883,62.86114,62.86114,0,0,1-1.1914-41.831,63.57577,63.57577,0,0,1,28.0786-35.5689C1962.32153,1379.03475,1953.65693,1376.71535,1945.58563,1376.71535Z" />
    <path fill="#102770"
        d="M1994.89163,1487.03915c-7.7348,12.7556-15.8767,21.1687-24.0865,26.3252-34.1955,21.5079-69.8158-14.3163-75.9899-47.3584a98.13247,98.13247,0,0,1-1.2891-10.2452c14.0447,23.5436,40.9124,40.3699,66.8984,24.0186q.30495-.2037.6108-.4071.407.3051.8142.6105A43.35928,43.35928,0,0,0,1994.89163,1487.03915Z"
        opacity=".3" />
    <path fill="#fff"
        d="M1976.84373,1383.63835a60.8557,60.8557,0,0,0-26.5965,25.8502,43.27052,43.27052,0,0,0-20.5582.6783c-17.9796,5.2245-30.2601,22.3899-36.3666,42.6086-1.2892-32.3634,12.8913-68.9338,40.709-77.0078C1945.83693,1372.37525,1960.15323,1374.13945,1976.84373,1383.63835Z"
        opacity=".55" />
    <path fill="#102770"
        d="M1949.22093,1533.71735a54.69258,54.69258,0,0,1-21.9898-4.729c-22.2754-9.7437-41.206-34.5972-46.0351-60.4395-7.7954-42.0874,10.0219-94.7436,48.9599-106.084,16.5528-4.7534,34.5435-1.6772,53.5401,9.1333a13.85545,13.85545,0,0,1-.7032,24.4556,47.07743,47.07743,0,0,0-23.9282,28.0688,46.50208,46.50208,0,0,0,.8228,30.9571c.0683.1831.1343.3686.1953.5542.1416.415.2685.8081.3808,1.1938a26.49369,26.49369,0,0,0,9.292,11.7749,29.73818,29.73818,0,0,0,22.5562,4.8267,13.85271,13.85271,0,0,1,14.4263,20.7959c-8.4034,13.8598-18.0152,24.2456-28.5645,30.8716A54.05993,54.05993,0,0,1,1949.22093,1533.71735Zm-3.6377-145.6885a27.86016,27.86016,0,0,0-7.7246,1.0547c-23.064,6.7163-34.7705,45.5127-29.4214,74.3994,3.1347,16.7798,15.9912,34.0356,29.8999,40.1196,8.7182,3.8111,16.9238,3.169,25.0928-1.9677a41.06064,41.06064,0,0,0,4.3847-3.191,56.46809,56.46809,0,0,1-13.9331-7.1289,54.18571,54.18571,0,0,1-19.5508-25.2197,14.126,14.126,0,0,1-.5053-1.5991,75.2,75.2,0,0,1,14.5898-76.3428Q1946.97973,1388.02885,1945.58323,1388.02885Zm-11.9678,75.4761Zm-.0049-.0244.0025.0146Zm-.0049-.0245.0049.0196Zm-.0024-.0219.0024.0195Zm-.0049-.022.0049.022Z" />
    <path fill="#102770"
        d="M1994.89233,1500.86085a13.82649,13.82649,0,0,1-13.855-13.8208v-.0683a13.855,13.855,0,1,1,13.855,13.8891Z" />
    <polygon fill="#ffc107"
        points="1603.387 1472.241 1727.336 1439.191 1755.516 1535.127 1626.858 1565.286 1603.387 1472.241" />
    <polygon fill="#102770"
        points="1612.159 1501.219 1628.239 1564.929 1626.882 1565.268 1603.406 1472.248 1727.366 1439.206 1735.914 1468.245 1612.159 1501.219"
        opacity=".3" />
    <path fill="#102770"
        d="M1635.18283,1573.22655a21.66335,21.66335,0,0,1-20.9351-16.2622l-18.0053-71.3794a21.61943,21.61943,0,0,1,15.332-26.0766h0l102.4463-27.3169a21.41522,21.41522,0,0,1,26.2109,14.7363l21.6846,73.8208a21.53853,21.53853,0,0,1-15.7495,27.0386l-106.1231,24.8779A21.27075,21.27075,0,0,1,1635.18283,1573.22655Zm-18.3545-94.0209a1.15363,1.15363,0,0,0-.8203,1.3916l18.0054,71.3818a1.15824,1.15824,0,0,0,1.3793.8374l106.1231-24.8779a1.14891,1.14891,0,0,0,.8398-1.4429l-21.6821-73.8184a1.173,1.173,0,0,0-1.4014-.7885Z" />
    <path fill="#102770"
        d="M1707.128,1329.499c12.4945,58.857-45.9295,68.5595-68.9352,21.4479C1641.27733,1349.98715,1707.128,1329.499,1707.128,1329.499Z" />
    <path fill="#102770"
        d="M1794.45053,1303.84035c12.4945,58.8569-45.9295,68.5594-68.9352,21.4478C1728.59983,1324.32835,1794.45053,1303.84035,1794.45053,1303.84035Z" />
    <circle cx="1658.395" cy="1508.653" r="7.912" fill="#102770"
        transform="rotate(-22.5 1658.395 1508.652)" />
    <circle cx="1533.902" cy="1432.188" r="10.377" fill="#102770" />
    <circle cx="1587.725" cy="1611.405" r="10.377" fill="#102770" />
    <circle cx="1848.474" cy="1546.948" r="10.377" fill="#102770" />
    <circle cx="1799.816" cy="1370.232" r="10.377" fill="#102770"
        transform="rotate(-76.718 1799.816 1370.232)" />
    <circle cx="1694.748" cy="1499.178" r="7.912" fill="#102770"
        transform="rotate(-45 1694.748 1499.178)" />
    <path fill="#102770"
        d="M2295.94693,1380.66065a13.8536,13.8536,0,0,1-12.3608-7.5732l-81.3818-159.9365a13.85565,13.85565,0,0,1,24.6972-12.5684l81.3819,159.9365a13.85885,13.85885,0,0,1-12.3365,20.1416Z" />
    <path fill="#102770"
        d="M2076.05193,2447.28905c-35.686.0025-69.8999-14.0356-100.8032-41.7016-48.9307-42.5684-66.8213-100.9351-46.543-152.19,20.1319-50.8813,84.7583-103.6035,205.7911-99.104a13.85492,13.85492,0,0,1-1.0352,27.6905c-106.6455-3.9649-162.3438,39.5361-178.9893,81.6089-16.0693,40.6152-1.4477,85.9326,39.1114,121.2207,37.4023,33.4765,78.3276,42.81,121.8042,27.8979,90.188-30.9619,170.6128-157.9907,191.5478-260.2807-31.7798-36.1353-56.499-82.6856-73.5254-138.4888a13.856,13.856,0,0,1,3.6841-14.065c153.0518-146.1059,185.7324-331.0766,94.5068-534.9145a13.855,13.855,0,1,1,25.293-11.3184c47.2363,105.5469,62.9517,207.4073,46.7139,302.7491-16.1524,94.8266-63.6279,181.4184-141.1621,257.5097,16.5283,50.8887,39.9096,92.9004,69.5703,124.9683a13.84978,13.84978,0,0,1,3.4619,11.8774c-20.0439,110.6177-106.4502,252.2461-211.0938,288.169A148.40371,148.40371,0,0,1,2076.05193,2447.28905Z" />
    <path fill="#102770"
        d="M2015.12183,2201.39555a13.839,13.839,0,0,1-11.6993-6.4185c-84.2505-132.3803-67.6123-300.288-2.8564-386.1425a13.855,13.855,0,1,1,22.124,16.6845c-59.0698,78.3106-73.6816,232.3511,4.1065,354.5801a13.85913,13.85913,0,0,1-11.6748,21.2964Z" />
    <path fill="#102770"
        d="M2251.88443,2036.19045a10.192,10.192,0,0,1-5.8618-1.853c-51.5844-36.2525-215.6299-56.4795-280.0341-11.8775a10.19233,10.19233,0,1,1-11.6065-16.7578c62.6294-43.3667,198.1958-33.7378,272.3047-4.1626-13.4473-15.0219-34.5386-28.5742-61.9727-39.5385-69.2236-27.6685-157.4804-30.3858-196.7382-6.0547a10.193,10.193,0,0,1-10.7373-17.3291c50.0439-31.0083,148.6352-22.0874,215.0415,4.4531,49.3017,19.7046,81.0766,48.2397,89.4653,80.3516a10.19345,10.19345,0,0,1-9.8609,12.7685Z" />
    <path fill="#102770"
        d="M1696.91373,1758.60505c-38.706,0-74.9243-3.3106-107.4707-10.3101a10.19373,10.19373,0,1,1,4.2872-19.9316c100.5932,21.6357,244.541,7.1826,394.9194-39.6485,148.6206-46.2841,282.0776-117.0605,366.1499-194.1845a10.19316,10.19316,0,0,1,13.7793,15.0244C2211.93083,1653.25105,1915.15353,1758.60505,1696.91373,1758.60505Z" />
    <path fill="#102770"
        d="M1743.36643,1808.295c-46.8872,0-90.603-4.8706-129.6802-14.7607a10.19178,10.19178,0,1,1,5-19.7608c114.8438,29.0601,272.0215,13.0103,431.2134-44.0405,147.3608-52.8101,267.3291-130.9399,313.0932-203.8989a10.19268,10.19268,0,0,1,17.2706,10.83c-48.0762,76.648-172.0289,157.981-323.4839,212.2608C1947.50943,1788.085,1838.86933,1808.295,1743.36643,1808.295Z" />
    <path fill="#102770"
        d="M2612.55343,971.56885a148.46784,148.46784,0,0,1-65.1099-15.1977c-85.6152-41.2744-129.1015-150.3784-143.8232-195.3736a10.19262,10.19262,0,1,1,19.375-6.3378c28.9673,88.5327,78.8013,157.0752,133.3008,183.3471,33.6841,16.2354,69.7509,17.4024,107.1948,3.4741a10.19316,10.19316,0,0,1,7.1094,19.1065C2650.91773,967.90925,2631.528,971.56885,2612.55343,971.56885Z" />
    <path fill="#102770"
        d="M2505.134,1129.39355c-48.8965.0025-93.9454-19.7168-128.2422-56.4868-48.9893-52.5171-70.6812-131.6235-58.0323-211.6089a10.19345,10.19345,0,0,1,20.1368,3.1836c-11.5039,72.7344,8.728,147.2705,52.8027,194.5215,34.1577,36.6211,78.3081,53.711,127.7319,49.3726a10.19262,10.19262,0,1,1,1.7774,20.3076Q2513.16378,1129.3973,2505.134,1129.39355Z" />
    <path fill="#102770"
        d="M2439.09153,1164.44975c-41.4185.0024-77.5977-14.2529-106.3184-42.2437-55.6274-54.2114-71.2207-146.5869-57.8735-209.8169a10.19277,10.19277,0,0,1,19.9463,4.209c-11.897,56.3623,2.3388,142.461,52.1557,191.0083,34.6753,33.794,80.3833,44.231,135.835,31.023a10.19176,10.19176,0,0,1,4.7217,19.8291A209.2656,209.2656,0,0,1,2439.09153,1164.44975Z" />
    <path fill="#fff"
        d="M2083.54373,402.31815c-123.3825-125.85-319.9723-182.1949-532.807-94.8671a526.29291,526.29291,0,0,0-84.1054,41.1275c12.0637,42.9093-40.7163,76.2229-92.6055,72.5211-170.1308,170.4735-183.3601,442.9431-43.047,619.2432-215.5767-218.3187-154.9134-633.6376,189.9406-766.5481C1751.85033,178.99575,1963.65673,253.43685,2083.54373,402.31815Z"
        opacity=".55" />
    <path fill="#ee346a"
        d="M2147.00753,1013.05015c-120.4308,189.365-464.2184,253.2102-616.5381,220.8468-42.7444-6.4457-45.3227-74.9728-9.7702-80.8077,159.7149,46.5439,446.8493-24.4931,575.2862-179.5944C2115.79743,968.40625,2147.41463,984.14705,2147.00753,1013.05015Z" />
    <path fill="#fff"
        d="M2147.00753,1008.58635q-2.748,4.37685-5.6994,8.549c-10.9235-10.3806-27.0715-14.8588-39.0128-11.8056-128.437,155.1013-415.5713,226.1388-575.2863,179.5949-13.2305,2.1708-21.1686,13.0268-23.679,26.1215-13.8409-22.7291-7.8027-58.282,17.3692-62.4206,159.7149,46.5439,446.8493-24.4932,575.2862-179.5945C2115.79743,963.94245,2147.41463,979.68335,2147.00753,1008.58635Z"
        opacity=".55" />
    <path fill="#102770"
        d="M1617.092,1255.49465c-33.9063,0-64.2432-2.7173-89.1211-7.9639-31.2256-4.9511-45.625-33.6059-45.7837-58.2446-.1709-26.2402,14.4043-46.2793,36.2695-49.8681a13.87367,13.87367,0,0,1,6.1206.371c75.9155,22.1167,184.9365,16.8189,291.6284-14.1845,115.3516-33.523,210.9253-90.6812,269.1089-160.9448a13.83877,13.83877,0,0,1,7.2241-4.5826c15.2076-3.9013,34.0357.6714,47.9834,11.6504,13.3448,10.5005,20.5664,25.2466,20.337,41.5186a13.84232,13.84232,0,0,1-2.1631,7.2388C2053.923,1185.23585,1789.51143,1255.49465,1617.092,1255.49465Zm-96.6285-88.0688c-7.8295,2.9809-10.6225,13.2104-10.5688,21.6821.0684,10.2881,4.9097,28.4155,22.6392,31.0913q.4101.06225.813.1465c78.6791,16.7139,201.6918,6.1157,313.413-27.0068,132.4024-39.2505,233.8086-104.5142,286.1792-184.0503-1.04-7.5562-5.6152-12.688-9.5532-15.7886a32.7496,32.7496,0,0,0-20.1684-7.0776c-107.0459,125.5053-310.7764,194.5727-471.1866,194.58C1591.26923,1181.005,1553.33713,1176.54935,1520.46353,1167.42585Zm626.543-154.375h0Z" />
    <path fill="#102770" d="M2095.986,987.35015h-.0683a13.85495,13.85495,0,1,1,.0683,0Z" />
    <path fill="#102770"
        d="M1545.99333,1173.12165a13.79711,13.79711,0,0,1-6.0815-1.4136c-144.6826-70.8179-209.4409-194.2847-173.2275-330.2734,39.7534-149.2994,206.5844-299.7437,438.9086-288.6084,49.1626-92.19,94.1187-134.6534,137.3145-129.6875,46.6846,5.3442,84.6265,65.9863,115.9253,185.3369,58.5547,39.0991,98.9282,101.831,108.4082,168.8623,10.7935,76.3257-18.5596,156.3867-84.8901,231.5283a13.853,13.853,0,1,1-20.7715-18.335c61.6675-69.8657,87.9883-140.288,78.2251-209.3115-10.1367-71.6699-58.5474-125.708-100.4712-152.3804a13.8398,13.8398,0,0,1-5.9815-8.2421c-34.8388-135.5811-70.1269-167.2437-93.5962-169.9292-21.4721-2.4659-58.6352,16.8701-113.7597,122.8857a13.91,13.91,0,0,1-13.1958,7.4341c-222.2583-14.563-381.9141,127.0141-419.3408,267.5757-32.5415,122.2094,26.7602,233.7085,158.6352,298.2568a13.8566,13.8566,0,0,1-6.1011,26.3013Z" />
    <path fill="#102770"
        d="M1632.695,1070.06005c-21.9312,0-42.0337-10.0488-56.1963-29.1113a13.85364,13.85364,0,1,1,22.2412-16.5234c18.7549,25.2441,44.7046,17.7051,54.9903,13.291,22.9296-9.8389,43.4765-35.1685,38.3837-64.5435a13.85362,13.85362,0,0,1,24.917-10.4296c8.4766,11.8505,50.7886,20.1123,84.9512,7.5366,27.4609-10.105,40.1978-29.3164,37.8516-57.1021a13.85518,13.85518,0,1,1,27.6123-2.3291c3.374,39.9829-16.9995,71.1231-55.896,85.437-30.4151,11.1914-66.9702,10.4346-92.2608.3272-5.7055,30.8594-29.104,55.6128-54.6313,66.5674A81.00408,81.00408,0,0,1,1632.695,1070.06005Z" />
    <path fill="#102770"
        d="M1830.19013,1035.58015a13.86086,13.86086,0,0,1-9.9634-4.2237l-34.0063-35.1709a13.85581,13.85581,0,0,1,19.9219-19.2627l13.684,14.1553,3.3277-28.4155a13.85377,13.85377,0,1,1,27.5195,3.2226l-6.7261,57.4512a13.85592,13.85592,0,0,1-13.7573,12.2437Z" />
    <polygon fill="#fff"
        points="1798.452 985.949 1827.822 1013.036 1832.202 973.494 1798.452 985.949" />
    <path fill="#102770"
        d="M1829.79953,1018.32665l-36.1353-33.3276,41.5235-15.3223Zm-26.5601-31.4282,22.605,20.8472,3.3716-30.4321Z" />
    <path fill="#102770"
        d="M1683.923,1099.14215a13.83982,13.83982,0,0,1-8.4863-2.9029l-39.2065-30.3686a13.85371,13.85371,0,0,1,16.9677-21.9043l15.0611,11.665-1.0987-18.2812a13.85549,13.85549,0,0,1,27.6612-1.6602l2.9296,48.7671a13.85709,13.85709,0,0,1-13.8281,14.6851Z" />
    <path fill="#fff"
        d="M1652.68133,1053.58805c3.0447-.255,31.7749-11.6853,31.7749-11.6853s-1.8535,41.0873-4.016,39.5427C1678.27773,1079.90075,1652.68133,1053.58805,1652.68133,1053.58805Z" />
    <path fill="#102770"
        d="M1680.28043,1085.77055l-1.9995-1.3062c-2.1948-1.5649-20.4956-20.3051-28.2617-28.2885l-5.4834-5.6348,7.7661-.647c2.3194-.4175,17.4292-6.1279,30.7813-11.4404l5.3393-2.124-.2588,5.7422c-1.8383,40.7592-3.7207,41.6748-5.8984,42.7343Zm-20.6958-30.4199c6.4576,6.6113,14.1431,14.4189,18.8526,19.0844.7251-6.1181,1.4819-16.5551,2.0288-26.9604C1673.52753,1050.20165,1665.30243,1053.36825,1659.58463,1055.35065Z" />
    <path fill="#102770"
        d="M1724.97533,1108.898c-23.0664,0-42.7271-7.5732-54.6851-22.1167l21.4014-17.5976c11.0156,13.396,39.5727,15.6763,67.9077,5.4248,25.1977-9.1187,54.5557-30.5029,54.3652-60.7569l27.71-.1757c.2295,36.7895-28.2837,70.9326-72.6465,86.9873A130.48027,130.48027,0,0,1,1724.97533,1108.898Z" />
    <path fill="#102770"
        d="M1714.43573,1108.10945c-.1806,0-.3613-.0049-.542-.0098a13.85854,13.85854,0,0,1-13.313-14.3774c1.062-27.5879,15.42-50.2271,39.3921-62.1119,26.4038-13.0908,58.523-10.1928,83.8233,7.5537a13.85517,13.85517,0,0,1-15.9131,22.6856c-16.7334-11.7407-38.5596-13.8696-55.603-5.415-14.8145,7.3437-23.3399,20.9643-24.0088,38.352A13.85653,13.85653,0,0,1,1714.43573,1108.10945Z" />
    <path fill="#102770"
        d="M1714.426,1108.10945a13.85765,13.85765,0,0,1-13.8453-14.3872c1.062-27.5879,15.42-50.2271,39.3921-62.1119,26.4038-13.0908,58.523-10.1928,83.8233,7.5537a13.85222,13.85222,0,0,1,1.9873,20.9888c-28.5645,29.4434-65.7837,45.5713-110.6275,47.937C1714.91183,1108.10205,1714.66773,1108.10945,1714.426,1108.10945Zm60.3784-56.8018a50.66052,50.66052,0,0,0-22.5244,5.127,41.57732,41.57732,0,0,0-20.7154,22.1508c23.0054-3.5888,42.7857-11.7846,59.8072-24.7851A56.91526,56.91526,0,0,0,1774.80443,1051.30765Z" />
    <ellipse cx="2653.752" cy="664.529" fill="#102770" rx="51.129" ry="38.126"
        transform="rotate(-86.241 2653.752 664.53)" />
    <circle cx="2609.97" cy="587.525" r="19.325" fill="#102770"
        transform="rotate(-41.241 2609.97 587.525)" />
    <path fill="#102770"
        d="M2687.78843,576.06475c-.6998,10.6501-9.1376,18.7667-18.8465,18.1288-9.7088-.638-17.0121-9.7888-16.3123-20.439.6997-10.6501,9.1376-18.7667,18.8464-18.1287C2681.18493,556.26375,2688.48823,565.41455,2687.78843,576.06475Z" />
    <ellipse cx="2710.212" cy="606.394" fill="#102770" rx="19.325" ry="17.617"
        transform="rotate(-86.24 2710.212 606.394)" />
    <path fill="#102770" d="M1320.31713,1989.30325h-.0684a13.855,13.855,0,1,1,.0684,0Z" />
    <path fill="#102770"
        d="M1020.68333,2003.28035a13.85511,13.85511,0,0,1-1.1792-27.6587c72.0215-6.2354,147.1899-10.4737,223.4179-12.5977l.4541,13.8501-.0683,13.855c-75.3052,2.102-149.9292,6.311-221.416,12.5Q1021.28388,2003.28035,1020.68333,2003.28035Z" />
    <path fill="#102770"
        d="M1960.37323,1984.65235a13.94256,13.94256,0,0,1-1.6479-.0976c-114.3018-13.5547-229.2701-23.3423-341.7115-29.0967a13.85356,13.85356,0,1,1,1.4161-27.6709c113.0566,5.7837,228.645,15.625,343.5571,29.2529a13.85436,13.85436,0,0,1-1.6138,27.6123Z" />
    <path fill="#102770"
        d="M1960.22073,1569.88175l-367.0595,92.0703a40.94226,40.94226,0,0,1-49.3934-28.8355l-5.9707-21.6437a40.86717,40.86717,0,0,0,36.57,8.549l326.283-81.8251-75.1082-239.7764-1.3571.3396,75.2441-28.2931,29.1747,100.8905c-62.3527,15.5376-27.0714,158.8333,34.8742,145.7386a46.68506,46.68506,0,0,0,7.3273-3.7316l7.1244,26.5286A24.5008,24.5008,0,0,1,1960.22073,1569.88175Z"
        opacity=".3" />
    <path fill="#ee346a"
        d="M1815.83963,1050.50255q-39.284,40.50525-101.4334,43.7623a65.26678,65.26678,0,0,1,1.6962-12.4164c9.8381-41.9302,60.0461-57.0603,97.4302-32.8383A26.79516,26.79516,0,0,1,1815.83963,1050.50255Z" />
    <path fill="#102770"
        d="M2071.96723,999.68425c12.6197,67.2375-497.3285,229.3953-525.9607,159.5795-85.2854-41.7269-136.5109-98.6518-159.9187-160.7328,48.4439,105.5041,186.5156,120.4308,330.0146,83.3175a65.26678,65.26678,0,0,0-1.6962,12.4164q62.18295-3.2568,101.4334-43.7623a26.79516,26.79516,0,0,0-2.307-1.4924c190.7221-79.1115,356.5435-236.8589,291.5447-379.1368l.1358.2033C2164.51253,744.09955,2191.24483,864.53035,2071.96723,999.68425Z"
        opacity=".3" />
    <path fill="#102770"
        d="M1433.12713,1051.88225a69.87168,69.87168,0,0,1,15.2564-11.3156,110.0203,110.0203,0,0,1,16.5997-7.5937,108.07649,108.07649,0,0,1,17.616-4.777,69.04534,69.04534,0,0,1,18.9727-1.0199,69.063,69.063,0,0,1-15.2496,11.3333,108.099,108.099,0,0,1-16.6058,7.576,110.043,110.043,0,0,1-17.6233,4.7594A69.8742,69.8742,0,0,1,1433.12713,1051.88225Z" />
    <path fill="#102770"
        d="M1426.37973,1054.318a87.18607,87.18607,0,0,1,17.4573-12.1102,139.8073,139.8073,0,0,1,18.8012-8.3883,137.30817,137.30817,0,0,1,19.8175-5.5716,86.06657,86.06657,0,0,1,21.1737-1.8145,86.07019,86.07019,0,0,1-17.4511,12.1279,137.30653,137.30653,0,0,1-18.8074,8.3705,139.766,139.766,0,0,1-19.8236,5.554A87.18142,87.18142,0,0,1,1426.37973,1054.318Z" />
    <path fill="#102770"
        d="M1457.8,1120.464a84.05416,84.05416,0,0,1,11.5851-17.3339,134.25773,134.25773,0,0,1,14.1833-14.3502,131.97187,131.97187,0,0,1,16.1499-12.0919,83.00324,83.00324,0,0,1,18.7738-9.0796,82.99544,82.99544,0,0,1-11.5723,17.3481,131.92822,131.92822,0,0,1-14.1961,14.336,134.30959,134.30959,0,0,1-16.1627,12.0778A84.06365,84.06365,0,0,1,1457.8,1120.464Z" />
    <path fill="#102770"
        d="M2033.342,859.28125a102.62573,102.62573,0,0,1-18.6866,13.6145,167.09042,167.09042,0,0,1-20.1953,9.9563,164.12064,164.12064,0,0,1-21.336,7.1879,101.31831,101.31831,0,0,1-22.8589,3.495,101.29365,101.29365,0,0,1,18.6792-13.6319,164.15449,164.15449,0,0,1,20.202-9.9389,167.09284,167.09284,0,0,1,21.3434-7.1704A102.62374,102.62374,0,0,1,2033.342,859.28125Z" />
    <path fill="#102770"
        d="M2041.53173,855.90445a128.27588,128.27588,0,0,1-21.3581,14.716,212.48281,212.48281,0,0,1-22.8668,11.058,208.755,208.755,0,0,1-24.0082,8.2895,126.63941,126.63941,0,0,1-25.531,4.5965,126.66787,126.66787,0,0,1,21.3513-14.7334,208.77447,208.77447,0,0,1,22.8742-11.0406,212.51441,212.51441,0,0,1,24.0155-8.272A128.29135,128.29135,0,0,1,2041.53173,855.90445Z" />
    <path fill="#102770"
        d="M2063.23583,931.53165a119.87434,119.87434,0,0,1-24.0314,7.0639,197.60633,197.60633,0,0,1-24.2926,3.1157,194.09558,194.09558,0,0,1-24.4898.1276,118.33422,118.33422,0,0,1-24.7534-3.8581,118.35111,118.35111,0,0,1,24.0302-7.0827,194.14508,194.14508,0,0,1,24.2938-3.0969,197.60535,197.60535,0,0,1,24.491-.1088A119.87363,119.87363,0,0,1,2063.23583,931.53165Z" />
    <path fill="#102770"
        d="M1478.89843,1592.88455l-175.1038,264.2784c-10.797,60.9422-49.5487,68.1227-102.4818,48.0307-26.497,22.9858-176.5606,53.5091-180.6146-16.4144l-14.4049,40.6603,17.7479,57.8779,192.9239-12.2699s75.2063,50.4655,133.567-41.889l204.9865-254.4817-5.7528-53.4376-31.2285,5.0957Z"
        opacity=".3" />
    <path fill="#102770"
        d="M1993.90623,1830.01105s-139.7072,85.2643-222.3886-8.9035c-36.5572-41.6358-18.0036-107.2142,34.8077-123.9754l203.981-64.7397a50.43887,50.43887,0,0,0,34.6182-40.5649v-.0001a25.37084,25.37084,0,0,1,36.6953-18.839c47.6106,24.6432,148.5967,54.3358,290.7036-23.4549l-22.3508-76.9964-81.5539,36.9784-65.4868,3.1025-76.5523-15.3926-90.8588-18.7242-44.3583,14.2815-15.286,25.3173.7621,33.4491-41.5959,17.9988-368.6041,105.5857,26.9231,66.8424s40.7458,75.4317,46.0777,75.1868c5.3318-.2449,30.2208,36.9388,30.2208,36.9388l-45.5262,85.0788,326.1998,34.8593Z"
        opacity=".3" />
    <path fill="#102770"
        d="M2376.69853,1798.74855s-98.3467,174.3421-211.5919,87.2093c0,0-69.3311,19.7502,13.7911,226.958,0,0,85.8023,193.5032-229.8161,243.8931l59.8092,59.4363s73.5487,17.2486,79.0139,16.6182,104.8183-41.4959,104.8183-41.4959l89.8229-128.9119,39.3007-114.1778-77.477-129.8136,93.5752-126.4077Z"
        opacity=".3" />
    <path fill="#102770"
        d="M2000.63933,2405.026a122.73161,122.73161,0,0,1-26.1694-2.7369,13.85507,13.85507,0,1,1,5.8984-27.0751c44.9073,9.7876,103.1568-14.0479,159.8584-65.3809,75.6885-68.5303,125.3321-163.9746,118.0371-226.9507a13.85428,13.85428,0,0,1,27.5245-3.1885c8.3789,72.3291-43.8306,175.4126-126.9654,250.6787C2105.339,2378.79545,2049.16233,2405.026,2000.63933,2405.026Z" />
    <path fill="#102770"
        d="M2087.507,2240.97075c-9.209.0024-18.8232-2.7319-28.0225-8.1983-41.6601-24.7485-88.2202-3.142-88.6816-2.9223a10.192,10.192,0,0,1-8.8159-18.3789c2.2925-1.1011,56.6992-26.648,107.9126,3.7768,11.3208,6.731,22.6733,7.1167,31.1474,1.0767,6.2207-4.436,9.5264-11.6382,8.2251-17.9224-1.5844-7.6513-9.5776-13.3911-22.5122-16.1621a10.19219,10.19219,0,1,1,4.2725-19.9316c21.0034,4.4995,34.9292,16.1474,38.2031,31.958,2.9566,14.2895-3.4595,29.4629-16.3525,38.6548A43.23566,43.23566,0,0,1,2087.507,2240.97075Z" />
    <path fill="#102770"
        d="M2779.42243,669.87335c-62.0815,278.1783-230.2099,479.9593-498.0073,609.9566-16.8941,2.5783-27.5464,4.2745-27.5464,4.2745l-31.4817-61.8777c232.9236-90.9844,535.4592-425.5448,471.8178-723.9422C2731.58893,512.73625,2761.17113,564.43675,2779.42243,669.87335Z"
        opacity=".3" />
    <path fill="#102770"
        d="M1632.03093,1181.00245c-42.2705,0-81.5088-4.7925-115.2075-14.6118-193.3398-59.0381-317.8393-221.3086-325.083-423.5327-7.6636-213.9307,119.585-403.1323,324.1797-482.0117,109.2578-44.8487,222.1167-54.8975,326.0889-28.9624,96.2744,24.0185,181.2133,77.1216,245.6372,153.5693,137.666,163.3569,149.3017,392.2974,29.646,583.252q-.30765.49065-.6543.9521c-3.313,4.4238-6.6748,8.6914-9.9903,12.6856C2000.58073,1110.42875,1794.17693,1181.00245,1632.03093,1181.00245Zm93.9844-936.0205c-61.8433,0-128.8501,12.4658-199.8511,41.6089-193.6743,74.6729-313.9673,253.3374-306.7334,455.2759,6.8067,190.0488,123.7964,342.5415,305.315,397.9736,75.7544,22.0703,184.768,16.7725,291.4599-14.2358,115.3516-33.523,210.9253-90.6812,269.1089-160.9448,2.9199-3.5181,5.8765-7.2657,8.8037-11.1597,112.8101-180.4541,101.9776-396.3599-27.6611-550.1904C1994.04753,317.38435,1875.04123,244.982,1726.01533,244.982Zm379.5361,716.3672h0Z" />
    <ellipse cx="1508.399" cy="363.042" fill="#fff" opacity=".55" rx="17.136" ry="11.995" />
    <path fill="#fff"
        d="M1397.91393,454.58215c0,4.2867-5.1788,7.7617-11.5672,7.7617-6.3882,0-11.567-3.475-11.567-7.7617,0-4.2866,5.1788-7.7617,11.567-7.7617C1392.73513,446.82045,1397.91393,450.29555,1397.91393,454.58215Z"
        opacity=".55" />
    <path fill="#fff"
        d="M1298.041,707.06935c-1.796-100.2278,49.7818-182.4288,115.2023-183.601,65.4205-1.1723,78.5016,81.3517,80.2976,181.5795,1.7961,100.2277-8.3731,180.205-73.7936,181.3772C1354.32673,887.59735,1299.837,807.29705,1298.041,707.06935Z"
        opacity=".2" />
    <path fill="#102770"
        d="M1646.45563,961.97905c6.9892,21.4507,35.4362,31.4172,63.5382,22.2608,28.1019-9.1565,45.2171-33.9684,38.2279-55.4191-6.4676-19.8496-27.8031-11.3494-55.9051-2.193C1664.21473,935.78415,1639.97273,942.08255,1646.45563,961.97905Z" />
    <path fill="#fff"
        d="M1714.67633,936.80505c1.1517,3.7131-6.9448,9.5242-18.084,12.9796-11.1393,3.4553-21.1032,3.2463-22.255-.4668-1.1517-3.7131,6.9447-9.5242,18.084-12.9796C1703.56063,932.883,1713.52453,933.092,1714.67633,936.80505Z" />
    <path fill="#fff"
        d="M1982.08613,610.87705c8.1143,25.3984-4.2982,35.371-16.8116,26.6885-6.5349-11.2742-76.1763-21.2457-94.1854-17.0379l5.4671-18.3627Z"
        opacity=".65" />
    <path fill="#102770"
        d="M1870.58873,630.14765a45.85722,45.85722,0,0,1-5.8307-16.5244,48.07732,48.07732,0,0,1-.6934-9.2813,24.74868,24.74868,0,0,1,2.8498-11.4899l.0134-.0257a6.415,6.415,0,0,1,3.5834-3.1074l1.4025-.4877.0403-.014a10.74563,10.74563,0,0,1,7.0581,20.2992l-.0396.0139,4.9847-3.5939-.0031-.0012c-.5712-.4835-2.1368.9989-3.236,2.6546a31.99209,31.99209,0,0,0-3.1061,6.004,38.02072,38.02072,0,0,0-2.9633,14.1421l.0025.2259a2.19692,2.19692,0,0,1-4.0625,1.1858Z" />
    <path fill="#102770"
        d="M1963.41033,502.49485a75.80294,75.80294,0,0,0-14.9719,10.6722,49.43463,49.43463,0,0,0-5.6842,6.3585c-1.7047,2.1846-2.995,4.6357-4.4287,6.8714a10.90795,10.90795,0,1,1-16.2409-14.2087l.4706-.3919a51.86943,51.86943,0,0,1,9.4702-5.9558,65.06072,65.06072,0,0,1,10.0971-4.065,84.815,84.815,0,0,1,20.0921-3.4095,2.20243,2.20243,0,0,1,2.3322,2.0653A2.2365,2.2365,0,0,1,1963.41033,502.49485Z" />
    <path fill="#fa5c98"
        d="M1973.36393,617.93835c-30.7869-14.5968-61.416-16.9615-97.8807-18.5715,9.3689-33.5198,27.7129-61.5139,54.957-80.2702C1963.98883,521.22005,1977.35063,572.86585,1973.36393,617.93835Z" />
    <path fill="#102770"
        d="M1975.23163,621.20265l-2.7881-1.3232c-30.3418-14.3848-60.6225-16.7578-97.0556-18.3667l-2.7027-.1172.7276-2.6074c9.7461-34.8682,29.0454-63.0371,55.8081-81.4624l.6128-.4224.7422.0464c9.7363.6177,18.2836,5.1343,25.4052,13.4228,15.0269,17.4952,22.6905,51.941,19.524,87.7564Zm-96.9287-23.8598c34.6094,1.582,63.8184,4.1235,93.1641,17.351,2.395-33.5986-4.856-65.3491-18.7451-81.5185-6.1573-7.168-13.4473-11.1597-21.6846-11.8799C1906.10083,538.68805,1887.91473,564.92825,1878.30293,597.34285Z" />
    <path fill="#102770"
        d="M1969.22433,562.51815c-7.1196-12.244-17.0169-20.3216-29.8911-21.1439-21.1595,14.5743-36.9793,34.7437-47.3398,58.8402-5.3716-.3512-10.8871-.5987-16.4982-.8541,9.371-33.5149,27.7131-61.4984,54.9308-80.255C1950.09263,520.35885,1962.79133,538.565,1969.22433,562.51815Z"
        opacity=".3" />
    <path fill="#102770"
        d="M1973.36393,628.68315a10.728,10.728,0,0,1-4.6045-1.0352c-28.8867-13.6963-58.3007-15.9814-93.75-17.5464a10.74475,10.74475,0,0,1-9.8754-13.6279c10.2954-36.8286,30.769-66.6479,59.2114-86.228a11.01357,11.01357,0,0,1,6.7724-1.875c11.9678.7593,22.8199,6.4307,31.3843,16.4014,19.9805,23.2617,24.2407,63.8671,21.565,94.1137a10.73966,10.73966,0,0,1-10.7032,9.7974Zm-83.3227-39.353c26.333,1.5014,49.8413,4.2358,73.2666,12.7685-.0293-26.5381-6.4087-50.8667-17.1069-63.3227-3.9209-4.563-8.1958-7.3535-12.9883-8.4571C1913.96453,544.59625,1899.23313,564.76715,1890.04123,589.33015Z" />
    <path fill="#102770" d="M1674.86883,585.54545c-3.4362,152.738-29.8179,158.852-79.7704,14.3487Z" />
    <path fill="#102770" d="M1567.03673,636.808c10.5673,107.0513-7.3536,113.565-54.5389,16.8027Z" />
    <path fill="#102770" d="M1710.09973,570.56705c34.3228,101.9491,53.3378,100.5294,56.6284-7.0743Z" />
    <path fill="#102770"
        d="M1798.14913,881.44805a79.75173,79.75173,0,0,1,20.0226-26.2853c8.3728-7.1768,17.8259-13.4932,28.4387-17.5414a99.04974,99.04974,0,0,1,33.2678-6.5034,81.48852,81.48852,0,0,1,16.8048,1.5837,98.28739,98.28739,0,0,1,15.7984,5.2381,2.01531,2.01531,0,0,1-.3095,3.8289l-.3222.0723c-5.3589,1.2042-10.4303,1.751-15.3626,2.5774-4.9176.8938-9.7229,2.1646-14.4018,3.3732a158.37457,158.37457,0,0,0-26.828,10.2196c-8.642,4.0055-17.2907,8.2847-26.0535,12.9729-4.3872,2.3298-8.8788,4.6542-13.5108,6.9748a88.58339,88.58339,0,0,1-14.8315,6.3637l-.1691.0532a2.11493,2.11493,0,0,1-2.5433-2.9277Z" />
    <path fill="#102770"
        d="M1891.13823,783.81345c5.0442,16.5586,5.3261,33.0804,1.7331,47.1887-26.433-.7889-50.997,9.71-74.1784,28.5458-13.1992-9.6952-24.3071-25.274-30.1574-44.479-11.6316-38.1832,1.8841-76.1359,30.2378-84.7732,13.9879-4.2611,28.9065-.5842,41.8885,8.8052,12.7124,9.1824,23.5177,23.9035,29.5831,42.0513C1890.58553,781.99885,1890.86183,782.90615,1891.13823,783.81345Z" />
    <path fill="#102770"
        d="M1818.70093,868.068a8.52018,8.52018,0,0,1-5.0464-1.6504c-15.2661-11.1792-27.085-28.5327-33.2788-48.8648-12.9859-42.6269,3.1225-85.4297,35.9057-95.4175,32.8272-10,70.0513,16.5552,83.0396,59.1797h0c5.3613,17.6001,5.9961,35.5103,1.8359,51.7993a8.58657,8.58657,0,0,1-8.5229,6.4234c-23.2569-.6299-45.6592,8.0371-68.5498,26.6211A8.53153,8.53153,0,0,1,1818.70093,868.068Zm12.0776-130.9986a32.50382,32.50382,0,0,0-9.5166,1.4087c-23.7744,7.2437-34.7827,40.481-24.5435,74.0943,4.4165,14.4995,12.1582,27.0703,22.0899,36.0351,21.831-16.3501,44.3457-25.105,67.0898-26.0937a82.71794,82.71794,0,0,0-2.9199-36.2183h0C1874.08173,757.09375,1852.01633,737.06935,1830.77853,737.06935Z" />
    <ellipse cx="1814.832" cy="780.114" fill="#fff" rx="16.072" ry="20.738"
        transform="rotate(-16.569 1814.832 780.114)" />
    <ellipse cx="1874.2" cy="800.668" fill="#fff" rx="8.036" ry="10.369"
        transform="rotate(-14.313 1874.2 800.669)" />
    <path fill="#102770"
        d="M1614.91123,937.95165a88.58063,88.58063,0,0,1-15.6873,3.7911c-5.0995.9173-10.0879,1.7471-14.9963,2.5105-9.8248,1.4963-19.3128,3.2519-28.6322,5.2227a158.34659,158.34659,0,0,0-27.6026,7.8915c-4.4702,1.8356-9.0789,3.6971-13.5516,5.9277-4.4446,2.2937-8.8324,4.8941-13.8446,7.1407l-.2899.1302a2.01542,2.01542,0,0,1-2.5531-2.8753,98.3407,98.3407,0,0,1,9.5105-13.6592,81.50774,81.50774,0,0,1,12.5061-11.3363,99.04836,99.04836,0,0,1,30.5322-14.7249c10.9223-3.1172,22.2754-3.7238,33.2794-2.9944a79.74666,79.74666,0,0,1,31.7786,9.0492,2.115,2.115,0,0,1-.2771,3.8661Z" />
    <path fill="#102770"
        d="M1482.41293,911.56745c5.8822,16.2797,15.5554,29.6768,26.8849,38.8198,20.6908-16.4686,46.6482-22.7799,76.4935-21.5879,4.7592-15.6705,4.3188-34.7988-2.5035-53.6804-13.5642-37.5401-47.1244-59.8291-75.0006-49.7568-13.7523,4.9691-23.4938,16.8513-28.2623,32.1469-4.6767,14.9682-4.5079,33.2285,1.5088,51.3925C1481.76833,909.78345,1482.09063,910.67545,1482.41293,911.56745Z" />
    <path fill="#102770"
        d="M1509.28923,958.93465a8.52064,8.52064,0,0,1-5.3613-1.8921c-13.0884-10.5469-23.3105-25.2686-29.563-42.5708h0c-15.1416-41.9068-1.2231-85.481,31.0278-97.1363,32.2461-11.6455,70.774,12.9786,85.9156,54.8828,7.2241,19.9878,8.1592,40.9644,2.6318,59.065a8.5649,8.5649,0,0,1-8.5058,6.04c-29.4434-1.1572-52.6319,5.293-70.8301,19.7583A8.54067,8.54067,0,0,1,1509.28923,958.93465Zm13.0689-127.4634a32.665,32.665,0,0,0-11.1597,1.9336c-23.3911,8.4521-32.7051,42.2143-20.7641,75.2612h0a82.68294,82.68294,0,0,0,19.3603,30.7471c18.7817-12.8247,42.0239-19.3018,69.2676-19.3018h.083c2.5806-13.1299,1.2451-27.8345-3.9063-42.0874C1565.14863,850.09675,1543.06363,831.47125,1522.35813,831.47125Z" />
    <ellipse cx="1541.29" cy="862.888" fill="#fff" rx="16.072" ry="20.738"
        transform="rotate(-20.239 1541.29 862.888)" />
    <path fill="#fff"
        d="M1513.49713,911.83975c2.191,5.2909.6431,10.9565-3.4573,12.6545-4.1005,1.698-9.2007-1.2145-11.3917-6.5054-2.1909-5.2909-.643-10.9565,3.4574-12.6546C1506.20593,903.63625,1511.30613,906.54885,1513.49713,911.83975Z" />
    <g clip-path="url(#a)">
        <polygon fill="#ff5722"
            points="3382.593 2652.002 3427.681 2295.386 3537.967 2309.33 3537.967 2652.002 3382.593 2652.002" />
        <polygon fill="#ff5722"
            points="3379.291 2652.002 3424.431 2294.975 3427.681 2295.386 3382.593 2652.002 3379.291 2652.002" />
        <polygon fill="#ff5822"
            points="3375.989 2652.002 3421.181 2294.564 3424.431 2294.975 3379.291 2652.002 3375.989 2652.002" />
        <polygon fill="#ff5922"
            points="3372.687 2652.002 3417.931 2294.153 3421.181 2294.564 3375.989 2652.002 3372.687 2652.002" />
        <polygon fill="#ff5a22"
            points="3369.385 2652.002 3414.681 2293.743 3417.931 2294.153 3372.687 2652.002 3369.385 2652.002" />
        <polygon fill="#ff5b22"
            points="3366.083 2652.002 3411.431 2293.332 3414.681 2293.743 3369.385 2652.002 3366.083 2652.002" />
        <polygon fill="#ff5c22"
            points="3362.781 2652.002 3408.181 2292.921 3411.431 2293.332 3366.083 2652.002 3362.781 2652.002" />
        <polygon fill="#ff5d22"
            points="3359.479 2652.002 3404.931 2292.51 3408.181 2292.921 3362.781 2652.002 3359.479 2652.002" />
        <polygon fill="#ff5e22"
            points="3356.177 2652.002 3401.68 2292.099 3404.931 2292.51 3359.479 2652.002 3356.177 2652.002" />
        <polygon fill="#ff5f22"
            points="3352.875 2652.002 3398.43 2291.688 3401.68 2292.099 3356.177 2652.002 3352.875 2652.002" />
        <polygon fill="#ff6022"
            points="3349.573 2652.002 3395.18 2291.277 3398.43 2291.688 3352.875 2652.002 3349.573 2652.002" />
        <polygon fill="#ff6123"
            points="3346.271 2652.002 3391.93 2290.866 3395.18 2291.277 3349.573 2652.002 3346.271 2652.002" />
        <polygon fill="#ff6223"
            points="3342.969 2652.002 3388.68 2290.455 3391.93 2290.866 3346.271 2652.002 3342.969 2652.002" />
        <polygon fill="#ff6323"
            points="3339.667 2652.002 3385.43 2290.044 3388.68 2290.455 3342.969 2652.002 3339.667 2652.002" />
        <polygon fill="#ff6423"
            points="3336.365 2652.002 3382.18 2289.633 3385.43 2290.044 3339.667 2652.002 3336.365 2652.002" />
        <polygon fill="#ff6523"
            points="3333.063 2652.002 3378.93 2289.222 3382.18 2289.633 3336.365 2652.002 3333.063 2652.002" />
        <polygon fill="#ff6623"
            points="3329.761 2652.002 3375.68 2288.812 3378.93 2289.222 3333.063 2652.002 3329.761 2652.002" />
        <polygon fill="#ff6723"
            points="3326.459 2652.002 3372.43 2288.401 3375.68 2288.812 3329.761 2652.002 3326.459 2652.002" />
        <polygon fill="#ff6823"
            points="3323.157 2652.002 3369.18 2287.99 3372.43 2288.401 3326.459 2652.002 3323.157 2652.002" />
        <polygon fill="#ff6923"
            points="3319.855 2652.002 3365.93 2287.579 3369.18 2287.99 3323.157 2652.002 3319.855 2652.002" />
        <polygon fill="#ff6a23"
            points="3316.553 2652.002 3362.68 2287.168 3365.93 2287.579 3319.855 2652.002 3316.553 2652.002" />
        <polygon fill="#ff6b23"
            points="3313.251 2652.002 3359.43 2286.757 3362.68 2287.168 3316.553 2652.002 3313.251 2652.002" />
        <polygon fill="#ff6c23"
            points="3309.949 2652.002 3356.18 2286.346 3359.43 2286.757 3313.251 2652.002 3309.949 2652.002" />
        <polygon fill="#ff6d23"
            points="3306.647 2652.002 3352.93 2285.935 3356.18 2286.346 3309.949 2652.002 3306.647 2652.002" />
        <polygon fill="#ff6e23"
            points="3303.345 2652.002 3349.68 2285.524 3352.93 2285.935 3306.647 2652.002 3303.345 2652.002" />
        <polygon fill="#ff6f23"
            points="3300.043 2652.002 3346.43 2285.113 3349.68 2285.524 3303.345 2652.002 3300.043 2652.002" />
        <polygon fill="#ff7023"
            points="3296.741 2652.002 3343.179 2284.702 3346.43 2285.113 3300.043 2652.002 3296.741 2652.002" />
        <polygon fill="#ff7123"
            points="3293.439 2652.002 3339.929 2284.292 3343.179 2284.702 3296.741 2652.002 3293.439 2652.002" />
        <polygon fill="#ff7223"
            points="3290.137 2652.002 3336.679 2283.881 3339.929 2284.292 3293.439 2652.002 3290.137 2652.002" />
        <polygon fill="#ff7323"
            points="3286.835 2652.002 3333.429 2283.47 3336.679 2283.881 3290.137 2652.002 3286.835 2652.002" />
        <polygon fill="#ff7424"
            points="3283.533 2652.002 3330.179 2283.059 3333.429 2283.47 3286.835 2652.002 3283.533 2652.002" />
        <polygon fill="#ff7524"
            points="3280.231 2652.002 3326.929 2282.648 3330.179 2283.059 3283.533 2652.002 3280.231 2652.002" />
        <polygon fill="#ff7624"
            points="3276.929 2652.002 3323.679 2282.237 3326.929 2282.648 3280.231 2652.002 3276.929 2652.002" />
        <polygon fill="#ff7724"
            points="3273.627 2652.002 3320.429 2281.826 3323.679 2282.237 3276.929 2652.002 3273.627 2652.002" />
        <polygon fill="#ff7824"
            points="3270.325 2652.002 3317.179 2281.415 3320.429 2281.826 3273.627 2652.002 3270.325 2652.002" />
        <polygon fill="#ff7924"
            points="3267.023 2652.002 3313.929 2281.004 3317.179 2281.415 3270.325 2652.002 3267.023 2652.002" />
        <polygon fill="#ff7a24"
            points="3263.721 2652.002 3310.679 2280.593 3313.929 2281.004 3267.023 2652.002 3263.721 2652.002" />
        <polygon fill="#ff7b24"
            points="3260.419 2652.002 3307.429 2280.182 3310.679 2280.593 3263.721 2652.002 3260.419 2652.002" />
        <polygon fill="#ff7c24"
            points="3257.117 2652.002 3304.179 2279.772 3307.429 2280.182 3260.419 2652.002 3257.117 2652.002" />
        <polygon fill="#ff7d24"
            points="3253.815 2652.002 3300.929 2279.361 3304.179 2279.772 3257.117 2652.002 3253.815 2652.002" />
        <polygon fill="#ff7e24"
            points="3250.513 2652.002 3297.679 2278.95 3300.929 2279.361 3253.815 2652.002 3250.513 2652.002" />
        <polygon fill="#ff7f24"
            points="3247.211 2652.002 3294.429 2278.539 3297.679 2278.95 3250.513 2652.002 3247.211 2652.002" />
        <polygon fill="#ff8024"
            points="3243.909 2652.002 3291.179 2278.128 3294.429 2278.539 3247.211 2652.002 3243.909 2652.002" />
        <polygon fill="#ff8124"
            points="3240.607 2652.002 3287.928 2277.717 3291.179 2278.128 3243.909 2652.002 3240.607 2652.002" />
        <polygon fill="#ff8224"
            points="3237.305 2652.002 3284.678 2277.306 3287.928 2277.717 3240.607 2652.002 3237.305 2652.002" />
        <polygon fill="#ff8324"
            points="3234.003 2652.002 3281.428 2276.895 3284.678 2277.306 3237.305 2652.002 3234.003 2652.002" />
        <polygon fill="#ff8424"
            points="3230.701 2652.002 3278.178 2276.484 3281.428 2276.895 3234.003 2652.002 3230.701 2652.002" />
        <polygon fill="#ff8524"
            points="3227.399 2652.002 3274.928 2276.073 3278.178 2276.484 3230.701 2652.002 3227.399 2652.002" />
        <polygon fill="#ff8624"
            points="3224.097 2652.002 3271.678 2275.662 3274.928 2276.073 3227.399 2652.002 3224.097 2652.002" />
        <polygon fill="#ff8725"
            points="3220.795 2652.002 3268.403 2275.45 3269.995 2275.45 3271.678 2275.662 3224.097 2652.002 3220.795 2652.002" />
        <polygon fill="#ff8825"
            points="3217.493 2652.002 3265.101 2275.45 3268.403 2275.45 3220.795 2652.002 3217.493 2652.002" />
        <polygon fill="#ff8925"
            points="3214.191 2652.002 3261.799 2275.45 3265.101 2275.45 3217.493 2652.002 3214.191 2652.002" />
        <polygon fill="#ff8a25"
            points="3210.889 2652.002 3258.497 2275.45 3261.799 2275.45 3214.191 2652.002 3210.889 2652.002" />
        <polygon fill="#ff8b25"
            points="3207.587 2652.002 3255.195 2275.45 3258.497 2275.45 3210.889 2652.002 3207.587 2652.002" />
        <polygon fill="#ff8c25"
            points="3204.285 2652.002 3251.893 2275.45 3255.195 2275.45 3207.587 2652.002 3204.285 2652.002" />
        <polygon fill="#ff8d25"
            points="3200.983 2652.002 3248.591 2275.45 3251.893 2275.45 3204.285 2652.002 3200.983 2652.002" />
        <polygon fill="#ff8e25"
            points="3197.681 2652.002 3245.289 2275.45 3248.591 2275.45 3200.983 2652.002 3197.681 2652.002" />
        <polygon fill="#ff8f25"
            points="3194.379 2652.002 3241.987 2275.45 3245.289 2275.45 3197.681 2652.002 3194.379 2652.002" />
        <polygon fill="#ff9125"
            points="3191.077 2652.002 3238.685 2275.45 3241.987 2275.45 3194.379 2652.002 3191.077 2652.002" />
        <polygon fill="#ff9225"
            points="3187.775 2652.002 3235.383 2275.45 3238.685 2275.45 3191.077 2652.002 3187.775 2652.002" />
        <polygon fill="#ff9325"
            points="3184.473 2652.002 3232.081 2275.45 3235.383 2275.45 3187.775 2652.002 3184.473 2652.002" />
        <polygon fill="#ff9425"
            points="3181.171 2652.002 3228.779 2275.45 3232.081 2275.45 3184.473 2652.002 3181.171 2652.002" />
        <polygon fill="#ff9525"
            points="3177.869 2652.002 3225.477 2275.45 3228.779 2275.45 3181.171 2652.002 3177.869 2652.002" />
        <polygon fill="#ff9625"
            points="3177.225 2652.002 3174.609 2651.671 3222.175 2275.45 3225.477 2275.45 3177.869 2652.002 3177.225 2652.002" />
        <polygon fill="#ff9725"
            points="3174.609 2651.671 3171.358 2651.26 3218.873 2275.45 3222.175 2275.45 3174.609 2651.671" />
        <polygon fill="#ff9825"
            points="3171.358 2651.26 3168.108 2650.849 3215.571 2275.45 3218.873 2275.45 3171.358 2651.26" />
        <polygon fill="#ff9925"
            points="3168.108 2650.849 3164.858 2650.438 3212.269 2275.45 3215.571 2275.45 3168.108 2650.849" />
        <polygon fill="#ff9a25"
            points="3164.858 2650.438 3161.608 2650.027 3208.967 2275.45 3212.269 2275.45 3164.858 2650.438" />
        <polygon fill="#ff9b26"
            points="3161.608 2650.027 3158.358 2649.616 3205.665 2275.45 3208.967 2275.45 3161.608 2650.027" />
        <polygon fill="#ff9c26"
            points="3158.358 2649.616 3155.108 2649.206 3202.363 2275.45 3205.665 2275.45 3158.358 2649.616" />
        <polygon fill="#ff9d26"
            points="3155.108 2649.206 3151.858 2648.795 3199.061 2275.45 3202.363 2275.45 3155.108 2649.206" />
        <polygon fill="#ff9e26"
            points="3151.858 2648.795 3148.608 2648.384 3195.759 2275.45 3199.061 2275.45 3151.858 2648.795" />
        <polygon fill="#ff9f26"
            points="3148.608 2648.384 3145.358 2647.973 3192.457 2275.45 3195.759 2275.45 3148.608 2648.384" />
        <polygon fill="#ffa026"
            points="3145.358 2647.973 3142.108 2647.562 3189.155 2275.45 3192.457 2275.45 3145.358 2647.973" />
        <polygon fill="#ffa126"
            points="3142.108 2647.562 3138.858 2647.151 3185.853 2275.45 3189.155 2275.45 3142.108 2647.562" />
        <polygon fill="#ffa226"
            points="3138.858 2647.151 3135.608 2646.74 3182.551 2275.45 3185.853 2275.45 3138.858 2647.151" />
        <polygon fill="#ffa326"
            points="3135.608 2646.74 3132.358 2646.329 3179.249 2275.45 3182.551 2275.45 3135.608 2646.74" />
        <polygon fill="#ffa426"
            points="3132.358 2646.329 3129.108 2645.918 3175.947 2275.45 3179.249 2275.45 3132.358 2646.329" />
        <polygon fill="#ffa526"
            points="3129.108 2645.918 3125.858 2645.507 3172.645 2275.45 3175.947 2275.45 3129.108 2645.918" />
        <polygon fill="#ffa626"
            points="3125.858 2645.507 3122.608 2645.096 3169.343 2275.45 3172.645 2275.45 3125.858 2645.507" />
        <polygon fill="#ffa726"
            points="3122.608 2645.096 3119.358 2644.686 3166.041 2275.45 3169.343 2275.45 3122.608 2645.096" />
        <polygon fill="#ffa826"
            points="3119.358 2644.686 3116.107 2644.275 3162.739 2275.45 3166.041 2275.45 3119.358 2644.686" />
        <polygon fill="#ffa926"
            points="3116.107 2644.275 3112.857 2643.864 3159.437 2275.45 3162.739 2275.45 3116.107 2644.275" />
        <polygon fill="#ffaa26"
            points="3112.857 2643.864 3109.607 2643.453 3156.135 2275.45 3159.437 2275.45 3112.857 2643.864" />
        <polygon fill="#ffab26"
            points="3109.607 2643.453 3106.357 2643.042 3152.833 2275.45 3156.135 2275.45 3109.607 2643.453" />
        <polygon fill="#ffac26"
            points="3106.357 2643.042 3103.107 2642.631 3149.531 2275.45 3152.833 2275.45 3106.357 2643.042" />
        <polygon fill="#ffad26"
            points="3103.107 2642.631 3099.857 2642.22 3146.229 2275.45 3149.531 2275.45 3103.107 2642.631" />
        <polygon fill="#ffae27"
            points="3099.857 2642.22 3096.607 2641.809 3142.927 2275.45 3146.229 2275.45 3099.857 2642.22" />
        <polygon fill="#ffaf27"
            points="3096.607 2641.809 3093.357 2641.398 3139.625 2275.45 3142.927 2275.45 3096.607 2641.809" />
        <polygon fill="#ffb027"
            points="3093.357 2641.398 3090.107 2640.987 3136.323 2275.45 3139.625 2275.45 3093.357 2641.398" />
        <polygon fill="#ffb127"
            points="3090.107 2640.987 3086.857 2640.576 3133.021 2275.45 3136.323 2275.45 3090.107 2640.987" />
        <polygon fill="#ffb227"
            points="3086.857 2640.576 3083.607 2640.165 3129.719 2275.45 3133.021 2275.45 3086.857 2640.576" />
        <polygon fill="#ffb327"
            points="3083.607 2640.165 3080.357 2639.755 3126.417 2275.45 3129.719 2275.45 3083.607 2640.165" />
        <polygon fill="#ffb427"
            points="3080.357 2639.755 3077.107 2639.344 3123.115 2275.45 3126.417 2275.45 3080.357 2639.755" />
        <polygon fill="#ffb527"
            points="3077.107 2639.344 3073.857 2638.933 3119.813 2275.45 3123.115 2275.45 3077.107 2639.344" />
        <polygon fill="#ffb627"
            points="3073.857 2638.933 3070.607 2638.522 3116.511 2275.45 3119.813 2275.45 3073.857 2638.933" />
        <polygon fill="#ffb727"
            points="3070.607 2638.522 3067.357 2638.111 3113.209 2275.45 3116.511 2275.45 3070.607 2638.522" />
        <polygon fill="#ffb827"
            points="3067.357 2638.111 3064.107 2637.7 3109.907 2275.45 3113.209 2275.45 3067.357 2638.111" />
        <polygon fill="#ffb927"
            points="3064.107 2637.7 3060.857 2637.289 3106.605 2275.45 3109.907 2275.45 3064.107 2637.7" />
        <polygon fill="#ffba27"
            points="3060.857 2637.289 3057.606 2636.878 3103.303 2275.45 3106.605 2275.45 3060.857 2637.289" />
        <polygon fill="#ffbb27"
            points="3057.606 2636.878 3054.356 2636.467 3100.001 2275.45 3103.303 2275.45 3057.606 2636.878" />
        <polygon fill="#ffbc27"
            points="3054.356 2636.467 3051.106 2636.056 3096.699 2275.45 3100.001 2275.45 3054.356 2636.467" />
        <polygon fill="#ffbd27"
            points="3051.106 2636.056 3047.856 2635.645 3093.397 2275.45 3096.699 2275.45 3051.106 2636.056" />
        <polygon fill="#ffbe27"
            points="3047.856 2635.645 3044.606 2635.235 3090.095 2275.45 3093.397 2275.45 3047.856 2635.645" />
        <polygon fill="#ffbf27"
            points="3044.606 2635.235 3041.356 2634.824 3086.793 2275.45 3090.095 2275.45 3044.606 2635.235" />
        <polygon fill="#ffc027"
            points="3041.356 2634.824 3038.106 2634.413 3083.491 2275.45 3086.793 2275.45 3041.356 2634.824" />
        <polygon fill="#ffc128"
            points="3038.106 2634.413 3034.856 2634.002 3080.189 2275.45 3083.491 2275.45 3038.106 2634.413" />
        <polygon fill="#ffc228"
            points="3034.856 2634.002 3031.606 2633.591 3076.887 2275.45 3080.189 2275.45 3034.856 2634.002" />
        <polygon fill="#ffc328"
            points="3031.606 2633.591 3028.356 2633.18 3073.585 2275.45 3076.887 2275.45 3031.606 2633.591" />
        <polygon fill="#ffc428"
            points="3028.356 2633.18 3025.106 2632.769 3070.283 2275.45 3073.585 2275.45 3028.356 2633.18" />
        <polygon fill="#ffc528"
            points="3025.106 2632.769 3021.856 2632.358 3066.981 2275.45 3070.283 2275.45 3025.106 2632.769" />
        <polygon fill="#ffc628"
            points="3021.856 2632.358 3018.606 2631.947 3063.679 2275.45 3066.981 2275.45 3021.856 2632.358" />
        <polygon fill="#ffc728"
            points="3018.606 2631.947 3015.356 2631.536 3060.377 2275.45 3063.679 2275.45 3018.606 2631.947" />
        <polygon fill="#ffc828"
            points="3015.356 2631.536 3012.106 2631.125 3057.074 2275.45 3060.377 2275.45 3015.356 2631.536" />
        <polygon fill="#ffc928"
            points="3012.106 2631.125 3008.856 2630.715 3053.772 2275.45 3057.074 2275.45 3012.106 2631.125" />
        <polygon fill="#ffca28"
            points="3008.856 2630.715 3005.606 2630.304 3050.47 2275.45 3053.772 2275.45 3008.856 2630.715" />
        <polygon fill="#ffca28"
            points="3005.606 2630.304 3001.225 2629.75 3001.225 2275.45 3050.47 2275.45 3005.606 2630.304" />
    </g>
    <path fill="#102770"
        d="M3062.58523,2589.18935a181.12928,181.12928,0,0,0,107.4782,51.5007c99.7987,11.3117,350.7604-67.7268,359.2192-142.2711,5.5732-49.2586-85.9552-120.8119-178.6176-168.7327,60.6663,41.3682,106.7358,88.2627,102.754,123.6449-8.4592,74.5442-259.4209,153.5828-359.2195,142.271A187.14454,187.14454,0,0,1,3062.58523,2589.18935Z"
        opacity=".3" />
    <path fill="#f5f4b9"
        d="M3053.60923,2534.78005a96.62443,96.62443,0,0,0,34.3807,10.558c53.4821,6.062,187.9725-36.2948,192.5055-76.243,4.6537-41.1337-117.086-111.323-170.5514-117.3673a97.43518,97.43518,0,0,0-56.3348,183.0523Z" />
    <path fill="#fff"
        d="M3105.90833,2620.98865a176.83883,176.83883,0,0,0,17.7057,8.1648,181.76616,181.76616,0,0,1,143.1246-314.8213c41.5667,4.7073,105.1374,30.1474,164.6446,63.7977-71.5773-49.8834-165.3265-92.4661-220.3529-98.7205a181.816,181.816,0,0,0-105.122,341.5793Z"
        opacity=".35" />
    <path fill="#102770"
        d="M3191.02753,2654.14455a200.155,200.155,0,0,1-22.3486-1.145,194.18428,194.18428,0,0,1,43.7329-385.8984c50.6641,5.7421,133.0859,40.6445,205.0952,86.8505,48.9478,31.4087,130.1538,92.1265,124.0625,145.879-5.9546,52.5439-98.6841,93.7011-153.4277,113.5571C3318.07343,2638.80275,3242.64133,2654.14455,3191.02753,2654.14455Zm-.8154-363.5547a169.44915,169.44915,0,0,0-18.7451,337.8199h0c46.0742,5.2343,131.6967-10.5225,208.2348-38.2837,80.2857-29.1211,134.17-65.6592,137.2779-93.0835,3.2495-28.6695-39.9878-75.5176-112.837-122.2657-68.0273-43.6499-148.0151-77.8173-194.519-83.0859A172.024,172.024,0,0,0,3190.21213,2290.58985Z" />
    <path fill="#fff"
        d="M3287.10583,2354.65045c-32.5673-15.1128-63.2966-18.0367-69.0172-5.709-5.7207,12.3277,13.6846,21.3314,46.2519,36.4441,32.5673,15.1128,65.9641,30.6116,71.6848,18.2839C3341.74593,2391.34175,3319.67323,2369.76315,3287.10583,2354.65045Z"
        opacity=".35" />
    <path fill="#fff"
        d="M3393.98113,2428.78765a18.98493,18.98493,0,0,0,10.4909,21.9491c7.9583,3.5084,18.2469,3.5563,24.071-2.0821,5.8136-5.5511,3.2195-18.5358-8.1397-26.0398C3408.98963,2415.10565,3396.30343,2419.33155,3393.98113,2428.78765Z"
        opacity=".35" />
    <path fill="#102770"
        d="M3018.89513,1512.477c0,5.439-14.9682,9.9928-35.1649,11.2155-1.2227,20.1967-5.7765,35.1649-11.2156,35.1649-5.439,0-9.9928-14.9682-11.2155-35.1649-20.1967-1.2227-35.1649-5.7765-35.1649-11.2155,0-5.4394,14.9682-9.9929,35.1649-11.2158,1.2227-20.1965,5.7765-35.1647,11.2155-35.1647,5.4391,0,9.9929,14.9682,11.2156,35.1647C3003.92693,1502.48405,3018.89513,1507.03755,3018.89513,1512.477Z" />
    <path fill="#102770"
        d="M3149.94343,2022.64775c0,6.5961-18.1524,12.1186-42.6455,13.6014-1.4828,24.4932-7.0053,42.6455-13.6014,42.6455-6.5962,0-12.1187-18.1523-13.6014-42.6455-24.4932-1.4828-42.6456-7.0053-42.6456-13.6014,0-6.5965,18.1524-12.1187,42.6456-13.6017,1.4827-24.4929,7.0052-42.6453,13.6014-42.6453,6.5961,0,12.1186,18.1524,13.6014,42.6453C3131.791,2010.52905,3149.94343,2016.05125,3149.94343,2022.64775Z" />
    <circle cx="3189.778" cy="1657.435" r="29.903" fill="#102770"
        transform="rotate(-45 3189.778 1657.435)" />
    <circle cx="3286.493" cy="1782.919" r="14.53" fill="#102770"
        transform="rotate(-45 3286.493 1782.92)" />
    <g opacity=".7">
        <circle cx="3063.995" cy="1024.026" r="155.392" fill="#ffca28"
            transform="rotate(-45 3063.995 1024.026)" />
        <path fill="#2ecc71"
            d="M3167.55073,1129.61565c-32.2715-35.8267,13.9379-77.4506-18.3336-113.2774-32.2714-35.8268-78.4808,5.797-110.7523-30.0298-32.267-35.8218,27.5457-128.1092-18.3246-113.2674-49.4307,15.9937-59.7003,45.3954-59.7003,45.3954,32.2671,35.8219-13.9423,77.4456,18.3247,113.2675,32.2715,35.8268,78.4808-5.797,110.7523,30.0298s-13.9379,77.4505,18.3335,113.2772C3137.49943,1164.53645,3160.57253,1150.92065,3167.55073,1129.61565Z" />
        <path fill="#fff"
            d="M3191.93833,935.79615a155.42419,155.42419,0,0,0-227.9268,207.1987,155.40846,155.40846,0,1,1,227.9268-207.1987Z"
            opacity=".55" />
        <path fill="#102770"
            d="M3107.85373,1182.92635a7.91947,7.91947,0,0,1-5.8838-2.6172c-18.7305-20.7959-14.6631-43.3985-11.0742-63.3399,3.3691-18.7304,6.2817-34.9072-7.2583-49.9365-13.5401-15.0342-29.9317-13.8208-48.9136-12.4219-20.2148,1.4868-43.1103,3.1836-61.8408-17.6123-18.728-20.791-14.6582-43.3886-11.0694-63.3276,3.3716-18.7305,6.2842-34.9072-7.2558-49.9365a7.91358,7.91358,0,0,1-1.5894-7.9078c.4712-1.3525,12.1704-33.3081,64.7364-50.3149,3.6499-1.1841,14.768-4.7729,22.4218,2.063,9.375,8.3667,5.9937,25.0854,1.7139,46.25-4.7363,23.4351-10.6323,52.6025,2.5049,67.1851,13.5425,15.039,29.9365,13.8232,48.9136,12.4218,20.2026-1.4868,43.1103-3.186,61.8383,17.6123,18.7305,20.7935,14.6631,43.3936,11.0743,63.335-3.3692,18.7305-6.2818,34.9072,7.2607,49.939a7.91954,7.91954,0,0,1,1.6406,7.7612c-9.1577,27.9541-41.2451,42.1484-64.5849,50.3931A7.89259,7.89259,0,0,1,3107.85373,1182.92635Zm-57.7661-144.9048c15.5395,0,31.5503,3.1396,45.31,18.4179,18.7305,20.7935,14.6631,43.3936,11.0743,63.335-3.0665,17.0459-5.7544,31.9775,3.9941,45.8569,26.25-9.9218,41.7065-21.0376,48.0127-34.5605-15.0415-19.7119-11.2525-40.7764-7.8833-59.4971,3.3691-18.7305,6.2817-34.9072-7.2583-49.9365-13.5401-15.0342-29.9317-13.8232-48.9136-12.4219-20.2026,1.4893-43.1055,3.1836-61.8408-17.6098-18.4692-20.5054-11.6968-54.0015-6.2549-80.9156,2.2607-11.1816,5.6738-28.0688,3.2153-31.3476-.0146.0171-.2148-.0196-.708-.0171a20.785,20.785,0,0,0-6.2573,1.2451c-34.7583,11.2476-48.3374,28.9966-52.8125,36.748,14.7437,19.6143,10.9766,40.5445,7.627,59.1553-3.3716,18.7305-6.2842,34.9048,7.2534,49.9317,13.5376,15.0341,29.9219,13.8208,48.9111,12.4218C3038.92063,1038.43165,3044.47233,1038.02155,3050.08763,1038.02155Z" />
        <path fill="#102770"
            d="M3219.222,1031.35045a155.40458,155.40458,0,0,1-294.2487,62.1363,155.42458,155.42458,0,0,0,224.0353-199.5911A155.39093,155.39093,0,0,1,3219.222,1031.35045Z"
            opacity=".3" />
        <path fill="#102770"
            d="M3064.089,1193.27055c-2.6831,0-5.3637-.0635-8.0713-.1929-93.2177-4.3969-165.4736-83.8135-161.0742-177.0288,4.397-93.2153,83.7964-165.5298,177.0288-161.0742,93.2178,4.397,165.4737,83.8135,161.0743,177.0288C3228.77653,1122.51125,3153.76923,1193.27055,3064.089,1193.27055Zm-.1733-310.7886c-75.0073,0-137.7319,59.1724-141.3062,134.8706-3.6767,77.9615,56.753,144.3799,134.712,148.0591,77.9956,3.6328,144.3774-56.7554,148.059-134.7119,3.6768-77.9614-56.7529-144.3799-134.7119-148.0591Q3067.27758,882.48315,3063.91573,882.482Z" />
    </g>
    <g opacity=".7">
        <circle cx="867.879" cy="1268.596" r="162.014" fill="#ffa726" />
        <path fill="#fff"
            d="M1028.10023,1244.35775a162.03361,162.03361,0,0,0-314.4319,73.9914,162.03829,162.03829,0,1,1,314.4319-73.9914Z"
            opacity=".65" />
        <path fill="#102770"
            d="M867.97333,1442.51375q-4.1271,0-8.2934-.1978c-95.7886-4.5215-170.0415-86.1304-165.5201-181.9189a173.9117,173.9117,0,1,1,347.4366,16.3989C1037.20923,1369.80615,960.13643,1442.51375,867.97333,1442.51375Zm-.2637-324.0381a150.12572,150.12572,0,0,0-149.7802,143.0444c-3.9014,82.6807,60.1904,153.1226,142.8735,157.0264a150.11776,150.11776,0,0,0,157.0239-142.8736h0a150.118,150.118,0,0,0-142.8735-157.0263C872.53393,1118.53425,870.11443,1118.47565,867.70963,1118.47565Z" />
        <g opacity=".3">
            <ellipse cx="820.303" cy="1210.452" fill="#102770" rx="42.23" ry="33.784"
                transform="rotate(-46.461 820.302 1210.452)" />
            <ellipse cx="903.694" cy="1348.65" fill="#102770" rx="26.452" ry="21.162"
                transform="rotate(-46.461 903.694 1348.65)" />
            <ellipse cx="957.337" cy="1225.46" fill="#102770" rx="16.689" ry="20.861"
                transform="rotate(-18.474 957.336 1225.46)" />
        </g>
        <path fill="#102770"
            d="M1029.72753,1276.22275a162.03831,162.03831,0,0,1-321.5166,20.0187,162.0456,162.0456,0,0,0,276.788-139.5827A161.45946,161.45946,0,0,1,1029.72753,1276.22275Z"
            opacity=".3" />
        <path fill="#102770"
            d="M688.37373,1396.89115c-27.8638,0-51.7163-6.2866-59.9902-25.354-14.0869-32.6196,30.1684-72.8857,69.7705-100.9229l16.5625,23.3936c-55.3809,39.2114-62.0532,61.4429-60.0244,66.1426,2.0141,4.6509,22.705,14.9756,88.8379,1.5454,42.1362-8.5181,92.8808-25.1245,142.8979-46.7578,51.0376-22.1045,98.7451-48.3618,134.3286-73.9307,52.8736-38.0493,59.1602-59.5654,57.1924-64.1016-1.9849-4.5776-22.1191-14.7729-86.4014-2.0849l-5.5517-28.125c67.3047-13.2739,107.0776-6.9531,118.2519,18.8013,11.128,25.6665-11.333,58.8989-66.7553,98.7841-37.2095,26.7359-86.8116,54.065-139.6778,76.9629-52.5512,22.732-103.9306,39.5166-148.5913,48.5449C729.653,1393.76375,708.01483,1396.88875,688.37373,1396.89115Z" />
    </g>
</svg>