<svg xmlns="http://www.w3.org/2000/svg" data-name="Layer 1" viewBox="0 0 3500 3200">
    <path fill="#e1f5fe"
        d="M2564.33306,2625.13738q5.16825,67.5057,69.2237,81.8466a27.47848,27.47848,0,0,1,18.5143,13.8346c13.0938,25.4203-15.7156,69.2395-100.1059,85.6262-109.1665,22.0025-219.1665.0001-263.4194-51.3258Z" />
    <path fill="#102770"
        d="M2467.82526,2817.37328c-78.1616.0024-147.9101-22.041-181.1743-60.6201l3.7891-3.2666c43.8892,50.9057,153.667,72.1411,261.0327,50.5078,48.794-9.4751,85.1489-30.0391,97.2632-55.0098,4.7021-9.6899,5.0976-19.2871,1.1133-27.0215a25.07362,25.07362,0,0,0-16.836-12.539c-43.7036-9.7827-67.6489-38.0786-71.1718-84.0967l4.9853-.3809c3.3814,44.1846,25.3882,70.2222,67.2778,79.5996a30.11141,30.11141,0,0,1,20.188,15.127c4.7242,9.1675,4.3482,20.354-1.0571,31.4941-12.7978,26.3794-50.4785,47.9615-100.7935,57.732A430.39776,430.39776,0,0,1,2467.82526,2817.37328Z" />
    <path fill="#102770"
        d="M2596.49856,2690.84718l-232.2,109.4001c-32.3499-10.1999-58.8498-25.55-75.7498-45.1502l275.7998-129.9499Q2567.72371,2669.47233,2596.49856,2690.84718Z"
        opacity=".3" />
    <path fill="#ff5722"
        d="M2807.04846,2406.34708q-19.8747,14.02545-40,27.5501c-61.9998,41.8002-125.8999,80.5502-191.0998,116.3a2730.53532,2730.53532,0,0,1-245.8002,119.1001c-655.6497,278.5-1379.7998,297.6999-1723.54982,180.1501-15.4001-5.3-30.1001-10.8502-43.9502-16.6501,102.80029-155.95,517.15032-352.25,836.10022-423.6499v-.05c37.9501-8.5001,74.5498-15.2002,109.1-19.9002l811.6998-106.0498,92.3502-12.0502c92.85-13.1998,175.5499-19.2499,246.6-16.9998Z" />
    <path fill="#102770"
        d="M2807.04846,2406.34708q-19.8747,14.02545-40,27.5501c-61.9998,41.8002-125.8999,80.5502-191.0998,116.3-.1999.1001-.4502.25-.65.3501-4.8002,2.6501-9.6,5.2499-14.4001,7.85-5.05,2.7499-10.05,5.4498-15.1001,8.1-4.4998,2.3999-8.9999,4.8001-13.4997,7.1499-1.3001.6501-2.5501,1.3001-3.8001,1.9501-4.3499,2.3001-8.6999,4.5499-13.0499,6.7999-5.65,2.9001-11.25,5.8002-16.9,8.6499-4.2502,2.1503-8.5001,4.3003-12.8,6.4502q-46.2753,23.10015-93.3502,44.4001c-4.2499,1.9497-8.5001,3.8998-12.8,5.7998-6.6001,3.0002-13.2498,5.9-19.8999,8.8001-8.5501,3.75-17.0999,7.5-25.7001,11.1499-1.3.5502-2.55,1.1001-3.8501,1.6501a.18358.18358,0,0,0-.1498.05c-655.6,278.45-1379.7,297.6499-1723.4,180.1001-15.4001-5.3-30.1001-10.8502-43.9502-16.6501a234.50316,234.50316,0,0,1,15-20.3c.95.3501,1.9501.6501,2.9001,1.0001,313.15,107.0999,942.09992,100.65,1547.25012-111.9501-44.5499,3.8001-90.9,5.7999-138.5502,5.7999-341.4999,0-618.2998-102.8998-618.2998-229.8499,0-23.8,9.75-46.7501,27.8-68.3499v-.05c37.9501-8.5001,74.5498-15.2002,109.1-19.9002l811.6998-106.0498c173.1,40.7498,288.0002,112.55,288.0002,194.3499,0,1.3999-.05,2.75-.1501,4.1501q68.025-39.52515,133.6001-83.7002c11.6001-7.8501,23.1501-15.7499,34.65-23.7998Z"
        opacity=".3" />
    <path fill="#fff"
        d="M2681.69876,2277.89738c-70.5502-2.0502-152.5,4-244.3503,17.0499l-904.05,118.1c-156.7498,21.3-355.3997,84.6499-531.9497,164.1,29.05,60.6-35.1001,81.6501-156.85,78.2501-112.45033,62.5-203.25013,129.0998-248.70032,190.25-11.4999-4.1501-22.5998-8.4-33.15-12.8501,115.05009-174.5001,620.15022-399.5001,945.20022-443.6001l904.05-118.1c92.85-13.1998,175.5499-19.2499,246.6-16.9998Z"
        opacity=".55" />
    <path fill="#102770"
        d="M1117.18326,2930.31268c-201.4698,0-380.84483-23.2836-514.629-69.0356-15.8618-5.4614-30.9033-11.1597-44.7314-16.9482a12.50026,12.50026,0,0,1-5.6103-18.4107c54.9023-83.2739,200.35149-183.5693,399.05272-275.1733,189.8706-87.5318,397.312-152.5537,554.9048-173.9331l904.1089-118.1104c83.4008-11.8555,158.0151-17.9028,221.77-17.5586a75.75523,75.75523,0,0,1,53.5766,22.8565l130.3711,133.6181a12.50349,12.50349,0,0,1-1.7407,18.9429c-12.0801,8.5278-24.8584,17.3267-40.21,27.6953-424.663,286.2232-888.9624,403.0615-1203.684,450.6763C1413.83116,2918.61348,1259.95176,2930.31268,1117.18326,2930.31268Zm-535.21242-103.1909c9.1577,3.5694,18.7597,7.0874,28.6962,10.5078,221.58452,75.7813,587.898,88.2715,955.95462,32.583,312.1826-47.229,772.6465-163.0639,1193.44-446.6821,10.2221-6.9018,19.2895-13.103,27.7636-18.9868l-120.0952-123.0835a50.58984,50.58984,0,0,0-35.7641-15.3174c-62.5952-.0805-135.9522,5.6226-218.3081,17.3291l-904.1895,118.1201C1206.33356,2442.71748,713.11583,2653.42308,581.97084,2827.12178Z" />
    <path fill="#ffc107"
        d="M2807.04846,2406.34708v48.1334a39.02288,39.02288,0,0,1-16.742,32.1059c-752.2982,520.3256-1788.3201,579.5043-2203.429,424.3562a37.13708,37.13708,0,0,1-24.229-34.7641v-43.3812c13.8501,5.7999,28.5501,11.3501,43.9502,16.6501,422.94982,144.65,1421.95012,82.2,2160.44982-415.5502Q2787.14891,2420.32218,2807.04846,2406.34708Z" />
    <path fill="#102770"
        d="M1119.57576,2998.34738c-213.562,0-403.269-25.686-537.07522-75.6958a49.88726,49.88726,0,0,1-32.351-46.4722v-43.3813a12.5022,12.5022,0,0,1,17.3266-11.5308c13.3301,5.5811,27.8614,11.0865,43.1909,16.3623,221.57962,75.7788,587.88822,88.2666,955.95462,32.583,312.1826-47.2314,772.6465-163.0639,1193.44-446.6821,15.1977-10.2637,27.8418-18.9697,39.7802-27.395a12.499,12.499,0,0,1,19.7071,10.2124v48.1323a51.496,51.496,0,0,1-22.1338,42.3877c-178.9429,123.7647-382.8687,227.7613-606.1157,309.0991-200.0098,72.8711-411.0669,126.1866-627.3072,158.4644C1411.64606,2987.17068,1260.41316,2998.34738,1119.57576,2998.34738Zm-544.42622-147.0557v24.8877a24.77755,24.77755,0,0,0,16.1035,23.0542c218.31542,81.5992,589.63382,97.1021,969.04782,40.4712,321.6455-48.0102,794.9024-167.3779,1222.8931-463.3984a26.49215,26.49215,0,0,0,11.355-21.8262v-24.1919c-6.3819,4.3897-13.147,8.9991-20.503,13.9673-424.663,286.2232-888.9624,403.0615-1203.684,450.6763-377.4195,57.0996-739.2188,44.519-967.80772-33.6548C593.10114,2858.02268,583.93854,2854.68288,575.14954,2851.29168Z" />
    <path fill="#102770"
        d="M2466.446,2827.593c-80.774,0-151.9019-23.1787-187.3682-64.3115a12.5,12.5,0,1,1,18.9355-16.3232c41.6797,48.3398,147.4463,68.2128,251.482,47.2338,67.8149-13.1689,86.2182-41.2719,90.2441-49.5727,2.3291-4.8023,4.4336-11.8384,1.2183-18.0786a14.97172,14.97172,0,0,0-10.127-7.356c-47.8149-10.7056-75.1172-42.8955-78.9599-93.0932a12.49985,12.49985,0,1,1,24.9267-1.9092c3.0444,39.7656,21.9483,62.1997,59.4922,70.6054a39.68357,39.68357,0,0,1,26.8945,20.3077c6.1988,12.0337,5.8594,26.394-.9521,40.437-14.375,29.6313-53.6987,52.6611-107.8833,63.1836A446.73076,446.73076,0,0,1,2466.446,2827.593Z" />
    <ellipse cx="1077.382" cy="2596.067" fill="#fff" opacity=".55" rx="30.417" ry="13.192" />
    <ellipse cx="854.986" cy="2688.656" fill="#fff" opacity=".55" rx="18.333" ry="7.917" />
    <path fill="#ffa726"
        d="M1129.63136,2176.22708c16.4316-36.3448,79.2785-6.5059,125.048-3.2663,58.9347,3.755,120.733-57.9943,127.1608-101.6279l-61.0679-38.7403c-23.6925,11.024-48.2588,15.7243-73.6994,13.5491l-.0933.0255c-17.8619-1.3876-36.182-6.1063-54.9523-14.3095-127.9896-53.5909-275.2393,63.0878-229.5042,174.1417C991.22026,2272.60948,1076.05836,2256.37108,1129.63136,2176.22708Z" />
    <path fill="#102770"
        d="M1022.56656,2261.46258q-3.9954,0-7.9419-.3613c-29.2627-2.6855-52.3243-20.3052-64.9414-49.6167-20.8521-50.6347-7.2925-106.5576,36.1865-149.7998,46.2256-45.9741,129.5703-77.019,211.56-42.727,41.6236,18.1201,79.9707,18.4155,117.4268.9741a13.95571,13.95571,0,1,1,11.7822,25.3027c-44.5019,20.7178-91.6577,20.5152-140.166-.6054-69.9121-29.2432-141.2817-2.5806-180.9204,36.8457-35.1929,35.0024-46.4624,79.5532-30.144,119.1772,8.4204,19.5605,22.893,30.9204,41.7651,32.6538,32.6953,2.9956,71.9775-22.063,100.2856-63.9258,16.6919-34.7851,59.6338-25.5224,97.5684-17.3388,13.9282,3.0053,28.3325,6.1108,40.6103,6.9726,52.4024,3.3154,107.0752-53.5425,112.4073-89.6972a13.95548,13.95548,0,1,1,27.6123,4.0722c-7.0703,47.937-73.5938,117.8711-141.8823,113.4741-14.3555-1.0058-29.7486-4.3261-44.6338-7.539-36.0913-7.7832-60.2369-11.8042-66.7725,2.6782a13.95847,13.95847,0,0,1-1.1206,2.0215C1108.85556,2232.45868,1064.05336,2261.45778,1022.56656,2261.46258Z" />
    <path fill="#102770"
        d="M1129.63136,2176.22708c16.4316-36.3448,79.2785-6.5059,125.048-3.2663,58.9347,3.755,120.733-57.9943,127.1608-101.6279l-61.0679-38.7403c-23.6925,11.024-48.2588,15.7243-73.6994,13.5491l-.0933.0255s34.6552,55.7669-38.919,57.1091c-73.5743,1.3423-149.4295-1.4524-180.3523,68.8041-30.9824,70.2219-46.4888,60.5773-65.1852,33.919C991.22026,2272.60948,1076.05836,2256.37108,1129.63136,2176.22708Z"
        opacity=".3" />
    <path fill="#fff"
        d="M2436.84806,1751.20338c66.3508,50.508,237.3778-3.294,121.7214-222.2673-55.8413-112.1533-244.0705-244.3842-352.9817-269.7951a30.717,30.717,0,0,1-9.7778,7.9473c-.3657.157-.7317.366-1.0454.523-150.7403,92.9118-644.0576,59.1353-793.2293-27.6594-160.3608,74.455-398.5752,266.1876-535.878,439.9335a209.24509,209.24509,0,0,0-13.5946,21.3851v.052c-55.3182,100.3889,28.2345,168.6743,188.2292,104.6241,47.319,66.1418,126.9503,9.2547,79.6317-56.9391l127.1069-104.3104,40.8876-33.5678,7.3199-6.0127a42.14444,42.14444,0,0,0,2.6666,4.3399c32.8877,48.7825,163.7071,76.2325,214.1108,3.7644a92.58532,92.58532,0,0,0,5.9083-10.0912c32.9924-62.168,79.0562-84.7032,132.8583-83.6574,39.1621,9.6728,21.6988,80.4157-17.4633,70.7427-24.1561-7.3199-53.175,23.1106-79.893,62.8477-37.4366,55.8413-104.9902,84.1805-170.5565,69.3835-3.4508-.7844-6.8495-1.6209-10.1959-2.562-40.8352-10.7188-77.9057-30.012-101.382-48.4168-55.1096,245.43,37.5935,502.4673,228.5414,568.3997,4.9672,1.7255,9.9867,3.294,15.1107,4.7582-11.9214,57.8805-18.9275,113.9832-16.0518,167.2102,2.8233,52.3905,31.6329,100.2842,77.383,125.9568,127.9437,71.9454,358.7337,75.5532,425.2935-46.0639,180.6477,79.5267,511.0946,82.4547,505.9707-96.7812-.3661-13.9602-3.1897-27.6591-7.0588-41.0966-29.3323-102.1145-92.8598-133.5907-158.3739-126.0615,116.3885-236.4367-31.5808-428.0122-237.4827-399.83,21.4898-76.233,38.7964-151.054,51.0834-224.202,5.5423,3.3988,10.9279,7.0585,16.2088,10.98a41.36409,41.36409,0,0,0,26.352,8.3136c37.0185-1.7256,49.6193-51.9722,25.1495-91.5003,82.9777,35.502,144.7273,81.0431,166.06,145.8777C2333.68816,1719.62248,2367.674,1791.51558,2436.84806,1751.20338Zm-444.3777,582.9353c-24.7314-31.2669-64.5209-44.809-107.9704-43.6586a633.0014,633.0014,0,0,0,29.7506-98.0884l113.0944-17.9863Z" />
    <path fill="#ee346a"
        d="M2359.03136,1944.71458s-207.5-92.5-335,255c0,0,13.5208-332.5385,293.0104-305.0192Z" />
    <path fill="#ee346a" d="M1884.03136,1934.71458s-220-40-355,260c0,0,60.5104-332.5192,340-305Z" />
    <path fill="#ee346a"
        d="M2363.50716,1352.23118s26.0488-.066,35.7865,26.2087c0,0,22.2377,113.7747-127.7623,173.7747l-25-15S2385.48286,1442.24788,2363.50716,1352.23118Z" />
    <path fill="#ee346a"
        d="M1114.03136,1429.71458s173.332,36.2563,129.166,218.1281l43.334-35.6281s20-205-150-210Z" />
    <path fill="#1297e0"
        d="M1933.73076,2296.22358c-104.3227,6.6018-77.744,112.0729-145.7162,101.3173-42.2639-9.2516-5.6636-89.6844,40.6986-98.3436C1871.45126,2287.84528,1905.49886,2288.13818,1933.73076,2296.22358Z" />
    <path fill="#1297e0"
        d="M2078.20176,1531.55038l98.7872,22.5248-8.2629-16.0695,4.2876-26.0704,56.466,31.3234s29.4419,111.7228-43.0537,78.4769c-72.4955-33.2458-110.8385-55.1389-110.8385-55.1389Z" />
    <path fill="#fff"
        d="M2077.02926,1547.26778s47.6851-5.1818,114.3496,32.7255c0,0-20.5049-55.0478-108.566-47.3915Z"
        opacity=".55" />
    <path fill="#1297e0"
        d="M1262.13956,1721.30158c231.9007,100.9958,636.7749,70.5072,874.495-19.9994l-14.4255,60.8342c-101.8013,43.1679-215.0946,61.7838-335.4996,65.2072,0,0-52.0352-14.3971-124.8169,10.4615-152.6674,4.7767-290.8128-7.6959-391.9434-64.1362l-7.8096-52.3673Z" />
    <path fill="#102770"
        d="M1783.50886,2590.83758c-72.9614,0-149.7046-17.8271-208.4594-50.8642-46.333-26.001-75.7373-73.8525-78.6548-128.0029-2.5879-47.9126,2.3828-100.586,15.6372-165.586-95.3638-27.9956-172.666-104.06-217.8516-214.4531-44.2968-108.2178-53.291-236.4282-25.3271-361.0107l.8667-3.8623,3.1152,2.4414c22.1509,17.3681,62.8345,39.7558,110.5835,50.5078,63.4522,14.3237,130.9302-13.147,167.9297-68.3374,33.418-49.6997,60.4492-70.5933,82.6953-63.8477,11.8384,2.9175,20.1343-2.4707,24.9829-7.5146,9.5728-9.9585,13.7354-26.8189,9.8975-40.0904-1.9287-6.6748-6.6992-15.2319-18.4741-18.2495-57.7417-.9936-100.3687,25.9009-130.3174,82.334a94.93552,94.93552,0,0,1-6.0742,10.3589c-21.7896,31.3452-61.7286,47.7637-109.5801,45.1147-47.7808-2.6733-93.2666-23.872-109.9292-50.8593l-171.2525,140.5566c23.6646,34.7144,13.545,65.5103-6.2353,79.6558-19.8511,14.1967-52.4121,13.7768-77.6465-20.1416-88.2251,34.8901-162.0703,32.0947-192.9956-7.3999-23.2764-29.7266-16.8433-75.7691,17.207-123.1617,134.0552-169.6386,369.8413-363.1958,536.8579-440.7421l1.1817-.5494,1.1279.6568c151.8091,88.3301,641.9653,119.3432,790.6592,27.6904l.4858-.2563c.2783-.1465.5786-.3003.8789-.4322a28.08923,28.08923,0,0,0,8.8111-7.2046l.9839-1.2426,1.5429.3613c109.5508,25.5591,298.4961,158.3325,354.6533,271.1157,72.815,137.8589,26.3648,198.7769,3.0152,218.5669-35.4029,30.0049-92.0435,33.3569-127.1533,7.7979-36.1914,20.4565-60.8496,10.061-71.0401-5.2393-11.9678-17.9663-8.5718-49.2212,20.9107-72.4146-19.0332-55.6787-70.5518-101.4477-157.3218-139.7363,11.2158,22.229,12.4243,48.2837,2.6465,66.836-7.0899,13.4545-18.982,21.2378-33.4815,21.914a43.63511,43.63511,0,0,1-27.9541-8.7988c-4.248-3.1543-8.5693-6.1353-12.8833-8.8892-11.6626,68.5254-28.3056,141.5406-49.4946,217.1314,94.8291-11.7676,181.4136,23.0054,232.2192,93.4717,58.5572,81.2158,60.6934,192.6831,6.0425,306.3891,45.6641-3.9575,122.3071,9.0308,156.5674,128.3081,4.5508,15.8032,6.8262,29.0601,7.1582,41.7212,1.2793,44.7559-17.7173,80.669-56.4575,106.7407-101.0303,67.981-317.981,51.0254-450.9375-6.6919-21.8701,38.4644-61.9946,66.9605-116.2085,82.4854C1854.81506,2586.47,1819.62466,2590.83758,1783.50886,2590.83758Zm-510.6225-915.0024c-56.4112,258.4863,51.9824,512.0386,242.7441,566.3843l2.2315.6372-.4688,2.2729c-13.5132,65.6128-18.5986,118.5425-16.0058,166.5723,2.8247,52.4292,31.2768,98.7524,76.1108,123.9111,86.7725,48.794,213.2495,64.0039,307.5635,36.9947,53.833-15.4175,93.3618-43.7989,114.3139-82.0801l1.1011-2.0117,2.0996.9253c131.5698,57.9199,348.0054,75.4663,448.2154,8.0322,37.2241-25.0513,55.476-59.5215,54.248-102.4561-.3198-12.2314-2.5317-25.0903-6.9629-40.476-25.4883-88.7427-80.7764-132.8565-155.686-124.2701l-4.5532.5249,2.0239-4.1113c55.8178-113.3911,54.4897-224.668-3.645-305.3003-50.3809-69.8706-136.8116-103.8794-231.2549-90.9472l-3.7818.5175,1.0352-3.6743c22.0142-78.0786,39.1797-153.4204,51.0254-223.938l.6152-3.6523,3.1568,1.936c5.4809,3.3618,10.9961,7.0972,16.3916,11.1035a38.673,38.673,0,0,0,24.7387,7.8223c12.666-.5884,23.0689-7.4268,29.3018-19.2505,9.9585-18.9014,7.4853-46.4014-6.1548-68.435l-4.1626-6.7261,7.273,3.1128c93.1591,39.8584,147.9345,88.0713,167.4536,147.3926l.559,1.6967-1.4257,1.0791c-28.3618,21.4478-32.0874,50.4029-21.1963,66.7554,9.1211,13.6914,31.8261,22.6636,65.7983,2.8662l1.4453-.8398,1.3282,1.0107c33.2275,25.2954,88.059,22.3193,122.229-6.6382,47.4072-40.1782,45.8667-117.622-4.231-212.4731-55.3735-111.2085-241.0937-242.002-349.8511-268.1738a33.854,33.854,0,0,1-9.5239,7.3657l-.7349.3613c-149.5459,92.1582-640.83,61.4746-794.8388-26.8896-166.3379,77.6294-400.5396,270.0463-533.794,438.6694-32.6123,45.3931-39.0893,89.1919-17.2632,117.0679,29.7144,37.9467,102.1363,39.9072,189.0064,5.122l1.8213-.7275,1.1426,1.5942c23.3935,32.6978,53.6303,33.5816,71.8286,20.5689,18.186-13.0054,27.1118-41.8994,3.7353-74.6021l-1.3598-1.9018,179.4653-147.2974,1.4429,2.6685c14.4897,26.7968,59.624,48.186,107.3217,50.8545,46.0572,2.583,84.419-13.0909,105.2027-42.9908a90.33587,90.33587,0,0,0,5.7519-9.8339c30.9717-58.3545,75.2759-86.0328,135.1172-84.9854l.5518.0732c21.8506,5.398,26.9629,27.4512,22.4658,45.6592-4.4971,18.1983-19.2896,35.3369-41.1304,29.9365-19.6802-5.9497-45.6323,14.8462-77.2168,61.814-38.1421,56.8945-107.7563,85.2002-173.1811,70.4297C1335.92836,1714.43868,1296.04306,1693.15208,1272.88636,1675.83518Zm720.9009,663.9966-3.2764-4.1431c-22.7417-28.75-60.2905-43.9453-105.9448-42.7075l-3.7696.1001,1.377-3.5107a632.93332,632.93332,0,0,0,29.6338-97.7027l.3589-1.6748,118.4008-18.833Zm-104.1871-51.919c42.7735,0,78.4644,14.314,101.521,40.6934l33.0005-151.1572-107.7881,17.1435a636.72658,636.72658,0,0,1-28.1567,93.3252C1888.65046,2287.91528,1889.12906,2287.91278,1889.60016,2287.91278Z" />
    <path fill="#102770"
        d="M1295.24476,1618.18868a13.07126,13.07126,0,0,1-8.2984-23.1762l89.9854-73.8282a13.071,13.071,0,0,1,16.582,20.21l-89.9853,73.8281A13.01892,13.01892,0,0,1,1295.24476,1618.18868Z" />
    <path fill="#102770"
        d="M1710.01766,2386.21608a13.07125,13.07125,0,0,1-9.8364-21.6748c44.8755-51.333,117.1045-85.5323,184.0064-87.1289a13.07254,13.07254,0,0,1,.625,26.1376c-59.9244,1.4283-124.668,32.1216-164.9488,78.1983A13.04054,13.04054,0,0,1,1710.01766,2386.21608Z" />
    <path fill="#102770"
        d="M2001.55576,2504.80248a13.07473,13.07473,0,0,1-11.4624-19.3359c1.145-2.0948,2.2412-4.1919,3.291-6.3843,8.2788-17.2974,12.3682-37.8223,12.1582-61.0132-.3174-31.2109-8.1567-56.6992-23.3008-75.7398a13.08486,13.08486,0,1,1,21.0084-15.5786c18.4936,23.6133,28.059,54.2456,28.435,91.0669.2466,27.2241-4.707,51.6284-14.7192,72.5464-1.2476,2.6148-2.5562,5.1221-3.9234,7.627A13.06992,13.06992,0,0,1,2001.55576,2504.80248Z" />
    <path fill="#102770"
        d="M1514.95426,2254.62668a10.12041,10.12041,0,0,1-2.0264-.2075,10.00161,10.00161,0,0,1-7.7783-11.8115c9.0991-44.2041,20.979-89.1211,32.4609-131.0743a10.00053,10.00053,0,0,1,19.292,5.2784c-11.3965,41.6333-23.1787,86.1767-32.1631,129.8291A10.00572,10.00572,0,0,1,1514.95426,2254.62668Z" />
    <path fill="#102770"
        d="M1914.26326,2205.46658a13.08452,13.08452,0,0,1-12.7929-15.8106c37.373-174.6069-22.3609-293.9038-98.1397-334.6753-72.81-39.1748-161.1523-14.2236-242.3559,68.4619a13.07235,13.07235,0,0,1-18.6524-18.3203c88.6231-90.2392,190.8277-117.5854,273.3936-73.164,101.4013,54.5581,146.1352,200.5053,111.3159,363.1713A13.07646,13.07646,0,0,1,1914.26326,2205.46658Z" />
    <path fill="#102770"
        d="M1992.47126,2347.23658a13.04815,13.04815,0,0,1-13.0712-13.0445v-.0537a13.07128,13.07128,0,1,1,13.0712,13.0982Z" />
    <path fill="#102770"
        d="M2022.35416,2184.407a10.008,10.008,0,0,1-9.7803-12.1362l9.4653-43.3448a10.00079,10.00079,0,0,1,19.541,4.2676l-9.4653,43.3447A10.00676,10.00676,0,0,1,2022.35416,2184.407Z" />
    <path fill="#1297e0"
        d="M2451.824,2264.14108c-42.2956-20.5209-68.7416-7.5313-85.2581,27.5841-40.3121,74.6958-147.6279,43.2632-95.1849-41.7342C2339.11216,2216.68628,2399.79206,2218.73428,2451.824,2264.14108Z" />
    <path fill="#102770"
        d="M2153.29646,2383.13258a13.07481,13.07481,0,0,1-12.08-18.0591c30.9423-75.0171,118.5302-141.0254,199.4043-150.271a13.07041,13.07041,0,1,1,2.9687,25.9717c-71.0767,8.1274-151.0205,68.3618-178.2031,134.27A13.07712,13.07712,0,0,1,2153.29646,2383.13258Z" />
    <path fill="#102770"
        d="M1986.72916,1879.77558a13.07325,13.07325,0,0,1-6.0523-24.6655c40.4761-21.0986,81.5869-34.5923,122.1899-40.1025a13.0704,13.0704,0,0,1,3.5157,25.9033c-37.6026,5.105-75.8301,17.6831-113.6206,37.3828A13.016,13.016,0,0,1,1986.72916,1879.77558Z" />
    <path fill="#102770"
        d="M2164.03626,1561.82638a13.08878,13.08878,0,0,1-12.9712-14.8193c8.6279-64.0723,12.9517-126.2793,12.8516-184.8926a13.071,13.071,0,0,1,13.0493-13.0933h.0219a13.0711,13.0711,0,0,1,13.0713,13.0494c.1026,59.79-4.2993,123.186-13.0859,188.4277A13.07375,13.07375,0,0,1,2164.03626,1561.82638Z" />
    <path fill="#102770"
        d="M1783.69936,2601.35518c-74.8535.0025-153.5669-18.2812-213.8306-52.1679-49.4995-27.7784-80.9155-78.8648-84.0283-136.648-2.5122-46.499,1.9287-97.2485,13.9624-158.8916-94.2456-31.0034-170.4419-107.8564-215.4077-217.71-45.1075-110.205-54.2896-240.6591-25.857-367.3339a13.07226,13.07226,0,0,1,20.8179-7.4244c21.2451,16.6578,60.3491,38.1495,106.3843,48.5157,59.2187,13.352,122.2388-12.3194,156.8286-63.9112,36.687-54.5678,66.6211-76.2402,94.1455-68.1958,5.6323,1.3135,10.4468-.1953,14.6899-4.6069,6.8921-7.1704,10.127-20.271,7.3658-29.8291-1.5992-5.5273-4.834-9.0161-9.8682-10.6348-.5762-.0048-1.1548-.0073-1.7285-.0073-52.4927,0-89.9536,24.458-117.7051,76.7481a104.30677,104.30677,0,0,1-6.7724,11.4965c-23.8892,34.3653-67.19,52.439-118.8086,49.5752-46.1255-2.5805-89.1553-20.9179-111.1866-46.2158l-155.5761,127.6856c19.7436,35.8276,8.9428,69.5825-13.9136,85.9277-23.2471,16.6186-59.4751,15.6323-87.1826-16.106-89.5728,33.6329-164.8926,28.6744-197.9322-13.518-26.3403-33.6353-20.0048-84.419,16.9458-135.8448.1172-.1611.2369-.3222.3589-.4785,134.8609-170.6543,372.334-365.5444,540.6299-443.6841a13.0614,13.0614,0,0,1,12.0801.5567c69.1919,40.2612,222.3047,71.4502,390.0732,79.4604,177.815,8.5059,323.4961-10.8081,389.7217-51.6308.3394-.21.6909-.4029,1.0474-.5811.3442-.1806.6714-.3467.9887-.498a17.62063,17.62063,0,0,0,5.4029-4.3848,13.09022,13.09022,0,0,1,13.2104-4.6069c111.6895,26.0571,304.3872,161.56,361.7163,276.6992,76.2793,144.4116,25.6861,209.9023.3858,231.3428-37.0947,31.4404-95.5689,36.1377-134.607,12.0385-39.3969,19.6534-67.0898,6.5259-79.2187-11.6821-13.7232-20.6055-11.6333-54.9707,17.2339-81.5356-17.9273-44.961-59.5874-83.2471-126.7139-116.3599,3.6914,18.2861,1.7432,36.7017-6.1328,51.6455-8.7793,16.6626-24.2139,26.7017-42.3437,27.5464a54.07159,54.07159,0,0,1-33.7598-10.1587c-10.708,59.563-25.0513,122.2974-42.7588,187.0117,92.5293-6.7578,176.1938,29.5606,226.4893,99.3189,58.1738,80.6811,63.0419,189.5752,14.2163,301.4111,49.2578.8399,117.7124,24.2139,149.9804,136.5527,4.8023,16.6797,7.2071,30.7789,7.5635,44.3628,1.3696,47.9078-19.7656,87.9566-61.123,115.7862-103.2911,69.5068-314.0577,54.9194-452.566-2.1753-24.0649,36.8335-64.4433,64.1479-117.5708,79.3603C1856.89266,2596.87038,1820.76476,2601.35518,1783.69936,2601.35518Zm-503.6792-907.7173c-47.6978,247.6514,56.8261,486.6553,238.5058,538.4156a13.07216,13.07216,0,0,1,9.2212,15.2075c-13.3252,64.6997-18.3471,116.7724-15.8032,163.8696,2.6294,48.7964,29.0698,91.8848,70.7275,115.2637,83.1714,46.7676,209.1162,61.9263,299.4776,36.0498,51.0595-14.6216,88.3886-41.2427,107.9516-76.9898a13.06858,13.06858,0,0,1,16.7334-5.6884c129.0503,56.8115,340.6885,74.4531,438.0542,8.9355,34.0186-22.893,50.7007-54.3115,49.585-93.3813-.2979-11.3355-2.3804-23.3545-6.5552-37.8516-30.6323-106.6406-95.3857-122.3193-144.3213-116.6943a13.07187,13.07187,0,0,1-13.2202-18.7598c54.0357-109.7681,53.0396-217.0898-2.7344-294.4458-48.0542-66.6479-130.7592-99.0454-221.2475-86.6577a13.07331,13.07331,0,0,1-14.353-16.499c21.9091-77.7124,38.9917-152.6783,50.7739-222.8199a13.07094,13.07094,0,0,1,19.7241-8.977c5.7446,3.5229,11.521,7.4341,17.168,11.626a28.30759,28.30759,0,0,0,17.9052,5.7544c9.0625-.4224,15.9375-5.0049,20.4786-13.6231,6.8847-13.0639,7.7636-36.0473-5.7886-57.9419a13.06966,13.06966,0,0,1,16.2549-18.8965c96.1132,41.1231,152.8125,91.4331,173.3374,153.8086a13.07229,13.07229,0,0,1-4.5313,14.5093c-23.2031,17.5488-26.9897,40.1294-18.7744,52.4658,8.6597,12.9981,28.9429,12.8418,51.6773-.4077a13.06937,13.06937,0,0,1,14.4995.8936c25.8398,19.6655,75.8032,21.831,108.9892-6.294,43.291-36.687,40.8325-109.3921-6.7431-199.4678-53.4009-107.2436-230.1978-232.8393-337.461-261.4355a46.73453,46.73453,0,0,1-7.605,5.0244c-.2417.1294-.4907.249-.7421.3638-70.7129,43.3032-221.7579,63.9526-404.2676,55.2319-167.0142-7.9736-320.9107-39.0283-395.9229-79.5849-164.6582,78.4301-393.789,267.2827-524.9145,433.1128-29.6338,41.3623-36.1499,80.3125-17.4195,104.2333,26.2891,33.5767,95.6665,34.292,176.753,1.8262a13.05974,13.05974,0,0,1,15.4882,4.5288c19.1675,26.7871,43.0201,28.169,57.0826,18.1201,14.0454-10.0463,20.4394-33.059,1.2841-59.8535a13.07589,13.07589,0,0,1,2.3414-17.7075l175.3125-143.8867a13.0736,13.0736,0,0,1,19.7949,3.8843c12.6538,23.4033,55.0464,42.8906,98.6108,45.3296,42.3389,2.3291,77.2901-11.6529,95.9351-38.4693a82.26455,82.26455,0,0,0,5.0903-8.7524c32.5659-61.3574,81.3062-91.8042,144.6631-90.603a13.15993,13.15993,0,0,1,2.8809.3784,40.32824,40.32824,0,0,1,28.2373,24.1723c4.2163,10.149,4.9121,22.3243,1.958,34.2847-5.8985,23.8843-26.316,44.4873-53.9283,37.666-.2197-.0537-.4394-.1147-.6567-.1806-6.604-2.0093-26.228-.4078-65.2539,57.6318-40.5493,60.4809-114.6045,90.564-184.2822,74.8413C1345.21546,1727.366,1308.59926,1712.00708,1280.02016,1693.63788Zm712.4511,653.5718a13.07548,13.07548,0,0,1-10.2514-4.9609c-20.6275-26.0742-55.1514-39.856-97.3731-38.7012a13.24391,13.24391,0,0,1-11.0449-5.5566,13.06758,13.06758,0,0,1-1.4722-12.2754,622.34928,622.34928,0,0,0,29.1407-96.062,13.07049,13.07049,0,0,1,10.7275-10.1709l113.0933-17.9883a13.07218,13.07218,0,0,1,14.8242,15.6982l-34.8731,159.7339a13.063,13.063,0,0,1-12.771,10.2832Zm-89.2431-69.397c32.1826,2.2559,60.1391,12.5928,81.5967,30.0708l25.664-117.5634-85.4077,13.5864A643.86093,643.86093,0,0,1,1903.22816,2277.81268Z" />
    <path fill="#102770"
        d="M2223.40876,1544.62428a12.9891,12.9891,0,0,1-5.1635-1.0694c-16.25-6.9995-34.3579-13.9917-53.8257-20.7861a13.07115,13.07115,0,1,1,8.6133-24.6826c20.332,7.0947,38.5034,14.1138,55.5542,21.4599a13.07274,13.07274,0,0,1-5.1783,25.0782Z" />
    <path fill="#ee346a"
        d="M1659.69676,1505.70378l-2.3965,3.05c33.6592,35.1093,28.6236,64.3424-14.4657,87.7966l-5.795,8.9323s28.1037,37.0358,58.6038-10.0215,7.1893-78.4288,7.1893-78.4288S1685.404,1488.493,1659.69676,1505.70378Z" />
    <path fill="#102770"
        d="M1662.67636,1621.83128c-16.1816,0-27.1606-14.2188-27.6294-14.8364l-1.062-1.399,7.0972-10.9375.5566-.3027c20.9375-11.3965,32.6441-24.2114,34.7998-38.0908,2.1216-13.6694-4.9243-29.0747-20.9424-45.7813l-1.5039-1.5698,4.314-5.2881c7.8272-5.2392,15.752-7.0337,23.5449-5.3149,14.2481,3.1299,22.7588,16.8359,23.1153,17.417.8667,1.1499,23.8623,33.1299-7.2266,81.0937-10.4565,16.1328-21.9116,24.5435-34.0405,24.9927C1663.35506,1621.82638,1663.01326,1621.83128,1662.67636,1621.83128Zm-22.5268-16.5479c3.0322,3.3619,11.9433,11.8628,23.396,11.5333,10.3979-.4029,20.4907-8.0445,30-22.7149,29.1137-44.9194,8.1811-74.353,7.2778-75.5835-.2002-.3052-7.9224-12.6782-20.0757-15.3296-6.2988-1.3818-12.8027.0928-19.3335,4.3775l-.8154,1.0376c16.0937,17.3022,23.0835,33.5888,20.7788,48.4277-2.3853,15.3711-14.7608,29.2993-36.7896,41.4087Z" />
    <path fill="#fff"
        d="M1710.64936,1557.798c-2.0392-13.6989-7.7906-21.4898-7.7906-21.4898s-13.9602-22.7965-35.2406-15.3197a110.35321,110.35321,0,0,0-10.3005-12.2347l2.4053-3.0327c25.6722-17.2019,43.1358,11.2936,43.1358,11.2936S1714.25706,1532.38678,1710.64936,1557.798Z"
        opacity=".55" />
    <path fill="#1297e0"
        d="M1633.31866,1590.215c-24.1561-7.3199-53.175,23.1106-79.893,62.8477-37.4366,55.8413-104.9902,84.1805-170.5565,69.3835-44.8091-10.0912-86.1671-31.0579-111.5779-50.9788-12.2874-9.6207-20.81-19.0321-24.2608-26.7703l40.8876-33.5678,7.3199-6.0127c27.8161,51.4492,164.9099,82.7163,216.7774,8.1043a92.58532,92.58532,0,0,0,5.9083-10.0912c32.9924-62.168,79.0562-84.7032,132.8583-83.6574C1689.94406,1529.14508,1672.48076,1599.888,1633.31866,1590.215Z" />
    <path fill="#fff"
        d="M1670.65056,1564.90878a27.4357,27.4357,0,0,0-19.8686-17.8817c-53.8021-1.0458-99.8659,21.4894-132.8583,83.6574a92.58394,92.58394,0,0,1-5.9083,10.0911c-51.8675,74.6118-198.0197,33.5603-225.8359-17.8888l-12.7447,3.6044-25.7971,18.9966c-6.2744-6.013,1.6411,4.2809-.6072-.7907l40.8876-33.5678,7.3199-6.0127c27.8161,51.4492,164.9099,82.7163,216.7774,8.1043a92.58532,92.58532,0,0,0,5.9083-10.0912c32.9924-62.168,79.0562-84.7032,132.8583-83.6574C1671.435,1524.54388,1676.34986,1546.60868,1670.65056,1564.90878Z"
        opacity=".55" />
    <path fill="#102770"
        d="M1417.16856,1739.32638a168.6938,168.6938,0,0,1-37.1777-4.1284c-42.0532-9.4702-86.7969-29.9487-116.7627-53.4448-9.7974-7.6709-22.6367-19.4068-28.1348-31.7285a13.0695,13.0695,0,0,1,3.6426-15.4297l48.2056-39.5801a13.0736,13.0736,0,0,1,19.7949,3.8843c12.6538,23.4033,55.0464,42.8906,98.6108,45.3296,42.3804,2.3413,77.2925-11.6553,95.9351-38.4693a81.85694,81.85694,0,0,0,5.0903-8.7524c32.5659-61.3574,81.3062-91.8042,144.6631-90.603a13.15993,13.15993,0,0,1,2.8809.3784c27.6171,6.8213,36.0937,34.5703,30.1953,58.457-2.9541,11.958-9.2359,22.4072-17.6905,29.4238a40.32046,40.32046,0,0,1-36.2378,8.2422c-.2197-.0537-.4394-.1147-.6567-.1806-6.604-2.0093-26.228-.4078-65.2539,57.6318C1530.89906,1710.137,1474.81506,1739.324,1417.16856,1739.32638Zm-152.749-91.9922a109.02065,109.02065,0,0,0,14.9316,13.8428c21.25,16.6602,60.354,38.1519,106.3892,48.5181,59.2187,13.352,122.2388-12.3194,156.8286-63.9112,36.687-54.5678,66.6211-76.2402,94.1455-68.1958,5.6372,1.316,10.4492-.1928,14.6899-4.6069,6.8921-7.1704,10.127-20.271,7.3658-29.8291-1.5992-5.5273-4.834-9.0161-9.8682-10.6348-.5762-.0048-1.1572-.0073-1.7285-.0073-52.4951,0-89.9536,24.458-117.7051,76.7481a104.30677,104.30677,0,0,1-6.7724,11.4965c-23.8892,34.3653-67.19,52.439-118.8086,49.5752-46.1255-2.5805-89.1553-20.9179-111.1866-46.2158Z" />
    <path fill="#102770"
        d="M1656.17976,1635.07588c-.2734,0-.5468-.0097-.8227-.0317-16.8726-1.311-34.8999-13.9307-34.8999-45.4053a10.45655,10.45655,0,0,1,20.9131,0c0,8.7158,2.0288,23.4986,15.6079,24.5557a10.45639,10.45639,0,0,1-.7984,20.8813Z" />
    <path fill="#102770"
        d="M1642.84726,1529.93188a10.33372,10.33372,0,0,1-1.5405-.1148,10.45371,10.45371,0,0,1-8.8159-11.8725,36.411,36.411,0,0,1,24.4555-29.5313,10.45659,10.45659,0,0,1,14.4873,9.6216v.0537a10.45483,10.45483,0,0,1-7.1997,9.9365,15.60535,15.60535,0,0,0-11.0547,12.9761A10.45875,10.45875,0,0,1,1642.84726,1529.93188Z" />
    <path fill="#1297e0"
        d="M2046.05706,1454.239l-14.9996,189.2553-295.729,13.0715-82.5073,3.66,3.3464-35.6066c23.4763,1.8302,55.2139-23.8947,57.4098-68.8081.4184-48.7828-31.3715-64.6776-52.5996-57.7759l5.0196-64.1548,90.7158-.9935,266.7203-2.8725A22.452,22.452,0,0,1,2046.05706,1454.239Z" />
    <path fill="#fff"
        d="M2019.55446,1447.10848c-7.2678,18.1957-27.7115,18.4048-35.3977.3661l-2.9803.0523c.4184,39.1621,41.4627,38.6917,41.0446-.4704Zm-60.8085-16.3655c.4184,39.1624-40.6263,39.5805-41.0446.4184l-160.9882,1.7255-90.7158.9935-5.0196,64.1548c.4184-.1046.8368-.2616,1.2548-.366l3.7648-47.9984,90.7158-.9934,160.9882-1.7256c.4183,39.1621,41.463,38.7437,41.0446-.4183l24.9405-.2614a41.87176,41.87176,0,0,1-2.51-14.5356l41.0446-.4704a41.60463,41.60463,0,0,1-2.1962,14.5876l26.7183-.3137,1.2548-15.7901Z"
        opacity=".55" />
    <path fill="#ee346a"
        d="M2040.52116,1587.81l4.9669-64.3116,1.5688-20.6006c13.0715,7.5292,19.8686,20.9143,21.3324,34.9269v.0524C2070.74226,1559.68018,2060.12836,1583.05178,2040.52116,1587.81Z" />
    <path fill="#102770"
        d="M2037.76186,1591.05248l7.102-92.3023,3.44,1.9825c12.6611,7.2924,20.8862,20.7177,22.5708,36.8335,2.3486,21.792-8.1446,47.4267-29.7632,52.6733Zm11.4673-83.7598-5.9327,77.0435c16.6602-6.3574,24.5948-27.7832,22.6075-46.1914C2064.54646,1525.115,2058.54066,1514.10908,2049.22916,1507.29268Z" />
    <g opacity=".55">
        <path fill="#fff"
            d="M1983.68646,1446.27208c.1566.4184.3137.8364.4703,1.2025l35.3977-.3661q.23505-.627.4704-1.2548Z" />
        <path fill="#102770"
            d="M1982.51526,1449.99048l-.6568-1.5308c-.1635-.3808-.3295-.8203-.4931-1.2597l-1.2476-3.335,3.5401-.0928,39.9878-.459-2.3487,6.2793Z" />
    </g>
    <path fill="#102770"
        d="M1652.82046,1670.68138a10.45316,10.45316,0,0,1-10.4102-11.4355l3.3472-35.6055a10.43606,10.43606,0,0,1,11.2231-9.4458c7.5611.5591,16.7822-3.1983,24.6558-10.1343,7.4609-6.5674,20.1709-21.6382,21.4966-48.7598.1587-19.5971-5.752-35.0244-16.6553-43.0151-6.8311-5.0073-15.1465-6.6187-22.2681-4.3066a10.45366,10.45366,0,0,1-13.6572-10.7593l4.043-51.6724a24.018,24.018,0,0,1,23.8086-22.2583l350.0659-3.7866a28.694,28.694,0,0,1,20.9179,8.9526,28.26565,28.26565,0,0,1,7.5,21.4771l-15.4052,194.3872a10.45613,10.45613,0,0,1-9.9634,9.6216l-378.2373,16.7309C1653.12806,1670.679,1652.97426,1670.68138,1652.82046,1670.68138Zm12.915-36.1133-1.3794,14.6802,357.0068-15.7935,14.6753-185.1757v-.0025a7.28517,7.28517,0,0,0-7.3437-7.8613l-350.0659,3.7866a3.21318,3.21318,0,0,0-3.1836,2.9785l-3.042,38.8843a47.74519,47.74519,0,0,1,26.438,9.353c9.5434,6.9922,25.5029,24.1504,25.1928,60.4834-1.2719,26.2158-11.416,48.7451-28.5742,63.855C1686.37266,1627.759,1675.94786,1632.89328,1665.73546,1634.56808Zm365.3223,8.9258h0Z" />
    <path fill="#102770"
        d="M1660.97716,1508.51828a10.43183,10.43183,0,0,1-10.4565-10.4297v-.0537a10.45653,10.45653,0,1,1,10.4565,10.4834Z" />
    <path fill="#102770"
        d="M1735.33016,1667.02908c-.332,0-.6689-.0171-1.0058-.0489a10.45855,10.45855,0,0,1-9.4165-11.4038l21.372-223.6597a10.45747,10.45747,0,1,1,20.8203,1.9874l-21.372,223.6596A10.45988,10.45988,0,0,1,1735.33016,1667.02908Z" />
    <polygon fill="#ffc107"
        points="1944.003 1578.741 1837.569 1581.126 1848.026 1496.516 1954.461 1494.131 1944.003 1578.741" />
    <polygon fill="#102770"
        points="1954.458 1494.114 1944.001 1578.765 1943.844 1578.765 1951.53 1516.753 1845.181 1519.159 1848.004 1496.519 1954.458 1494.114"
        opacity=".3" />
    <path fill="#102770"
        d="M1837.569,1591.58228a10.45579,10.45579,0,0,1-10.3784-11.7383l10.4565-84.6094a10.45727,10.45727,0,0,1,10.1441-9.1723l106.4355-2.3853a10.456,10.456,0,0,1,10.6128,11.7358l-10.4565,84.6094a10.45736,10.45736,0,0,1-10.1441,9.1724l-106.4355,2.3852C1837.72516,1591.58228,1837.64706,1591.58228,1837.569,1591.58228Zm106.4355-12.8418h0Zm-86.7089-71.9727-7.8638,63.6328,85.3027-1.9116,7.8638-63.6328Z" />
    <path fill="#102770" d="M1958.746,1430.743c.4184,39.1624-40.6263,39.5805-41.0446.4184Z" />
    <path fill="#102770" d="M2022.22106,1431.26608c.4181,39.162-40.6262,39.6328-41.0446.4704Z" />
    <path fill="#fff"
        d="M2073.61786,1537.82468c-7.6335-17.8817-21.9078-14.5879-22.9012-14.3263l1.5688-20.6006C2065.357,1510.427,2072.15406,1523.81208,2073.61786,1537.82468Z"
        opacity=".55" />
    <path fill="#102770"
        d="M1938.36246,1465.54708a23.34509,23.34509,0,0,1-18.0884-9.1455c-4.9951-6.2158-7.6929-14.9219-7.8028-25.1807a5.22929,5.22929,0,0,1,5.1709-5.2856h.0562a5.232,5.232,0,0,1,5.2295,5.1733c.1074,9.9707,3.0493,15.6958,5.498,18.7427a13.2787,13.2787,0,0,0,10.0513,5.2393c7.3657-.0806,15.2075-7.7222,15.0269-24.314a5.22763,5.22763,0,0,1,5.1733-5.2832.45863.45863,0,0,1,.0561-.0024,5.23184,5.23184,0,0,1,5.2295,5.1733c.1099,10.2564-2.3974,19.021-7.2558,25.3418a23.32039,23.32039,0,0,1-18.1153,9.541Z" />
    <path fill="#102770"
        d="M2001.85846,1466.10858a23.35,23.35,0,0,1-18.0908-9.1455c-4.9926-6.2158-7.6904-14.9218-7.8003-25.1806a5.22786,5.22786,0,0,1,5.1709-5.2857h.0562a5.23037,5.23037,0,0,1,5.2295,5.1734c.1758,16.5014,8.1006,23.9819,15.4321,23.9819h.1148c3.7377-.0415,7.2656-1.9775,9.9389-5.4541,2.3828-3.1006,5.2002-8.8892,5.0928-18.8599a5.22412,5.22412,0,0,1,5.1709-5.2832.45863.45863,0,0,1,.0561-.0024,5.23184,5.23184,0,0,1,5.2295,5.1733c.1099,10.2588-2.3999,19.021-7.2583,25.3443a23.32455,23.32455,0,0,1-18.1152,9.5385Z" />
    <path fill="#102770"
        d="M1788.45076,1473.243c0,3.3689-2.2921,6.1-5.1196,6.1-2.8276,0-5.1197-2.7311-5.1197-6.1,0-3.369,2.2921-6.1001,5.1197-6.1001C1786.15866,1467.14288,1788.45076,1469.874,1788.45076,1473.243Z" />
    <path fill="#102770"
        d="M2003.08146,1610.74478c0,3.369-2.2921,6.1-5.1196,6.1s-5.1197-2.731-5.1197-6.1c0-3.3689,2.2922-6.1,5.1197-6.1S2003.08146,1607.37588,2003.08146,1610.74478Z" />
    <path fill="#102770"
        d="M1884.04366,1538.80308c0,3.3689-2.2921,6.1-5.1197,6.1-2.8275,0-5.1196-2.7311-5.1196-6.1,0-3.369,2.2921-6.1001,5.1196-6.1001C1881.75156,1532.703,1884.04366,1535.43408,1884.04366,1538.80308Z" />
    <path fill="#102770"
        d="M2020.85726,1477.68438c0,3.3689-2.2922,6.1-5.1197,6.1s-5.1196-2.7311-5.1196-6.1c0-3.369,2.2921-6.1001,5.1196-6.1001S2020.85726,1474.31538,2020.85726,1477.68438Z" />
    <path fill="#102770"
        d="M1777.37016,1619.60618c0,3.3689-2.2922,6.1-5.1197,6.1s-5.1196-2.7311-5.1196-6.1c0-3.369,2.2921-6.1,5.1196-6.1S1777.37016,1616.23718,1777.37016,1619.60618Z" />
    <path fill="#102770"
        d="M1917.89326,1537.62878c0,3.3689-2.2921,6.1-5.1196,6.1s-5.1197-2.7311-5.1197-6.1c0-3.369,2.2922-6.1,5.1197-6.1S1917.89326,1534.25978,1917.89326,1537.62878Z" />
    <path fill="#102770"
        d="M2037.21736,1602.842q-1.44285,0-2.9174-.1147a10.4576,10.4576,0,1,1,1.6552-20.8496c13.9893,1.1328,22.7735-17.7661,24.2969-36.9751.8643-10.9082-.6909-21.5088-4.27-29.082-4.9878-10.5591-11.6944-11.0914-13.8989-11.2647a10.4576,10.4576,0,1,1,1.6552-20.8496c24.7754,1.9653,40.1416,27.8101,37.3633,62.8491C2078.43326,1580.20528,2060.57676,1602.842,2037.21736,1602.842Z" />
    <path fill="#102770"
        d="M2155.694,1616.83128a13.00562,13.00562,0,0,1-6.8823-1.9678c-22.5635-14.0088-48.8404-24.6679-82.6929-33.5449a13.07166,13.07166,0,0,1-9.4531-15.4419c2.2217-10.1367,4.7705-23.2812,4.7705-35.0586a13.07068,13.07068,0,0,1,10.5298-12.8222c2.0117-.4004,49.8047-9.4214,98.7085,19.5068a156.48925,156.48925,0,0,1,36.56,30.0415,13.07136,13.07136,0,1,1-19.3994,17.5244,130.52515,130.52515,0,0,0-30.4565-25.0561c-28.0078-16.5674-55.9668-17.981-70.3858-17.3389-.5322,5.7129-1.3769,11.3452-2.334,16.6357,30.8643,8.9234,55.8667,19.6387,77.9419,33.3423a13.07329,13.07329,0,0,1-6.9067,24.1797Z" />
    <path fill="#102770"
        d="M2034.03376,2196.22828a10.00551,10.00551,0,0,1-9.5239-13.0616c37.544-116.8798,119.0528-216.1816,207.6538-252.9833,42.4439-17.6294,81.836-18.274,113.9209-1.8726a10.00046,10.00046,0,0,1-9.1064,17.8076c-26.6968-13.6499-60.2832-12.7734-97.1436,2.5366-82.1289,34.1114-161.0083,130.813-196.2817,240.6299A10.00456,10.00456,0,0,1,2034.03376,2196.22828Z" />
    <path fill="#102770"
        d="M2034.03866,2139.717a10.009,10.009,0,0,1-9.7021-12.4536c26.3281-104.1479,95.9546-198.6572,173.2593-235.1733,41.3378-19.5361,82.207-20.8887,118.2006-3.9209a10.00052,10.00052,0,1,1-8.5302,18.0908c-30.4029-14.3359-65.3736-12.9809-101.128,3.9136-71.0717,33.5718-137.8564,124.8584-162.4121,221.9922A10.00413,10.00413,0,0,1,2034.03866,2139.717Z" />
    <path fill="#102770"
        d="M1797.276,2405.81318a66.768,66.768,0,0,1-10.4321-.8642c-16.2842-3.5523-25.2197-15.564-24.9512-33.042.4761-30.8252,29.7754-73.4204,65.4444-80.083a7.50052,7.50052,0,0,1,2.7539,14.7461c-27.6953,5.1733-52.8199,40.9741-53.1983,65.5688-.2368,15.2393,9.5215,17.3755,12.7271,18.0762,24.6362,3.8843,33.3374-9.2041,47.749-34.646,15.9009-28.0786,35.6909-63.0225,95.8887-66.8311a7.50032,7.50032,0,1,1,.9472,14.9707c-52.0947,3.2959-68.2031,31.7408-83.7817,59.2505C1838.47226,2384.06268,1826.15046,2405.81078,1797.276,2405.81318Z" />
    <path fill="#102770"
        d="M2302.359,2341.31128c-20.3979,0-37.7563-9.2237-46.5185-24.7559-6.1255-10.8569-13.0835-34.4555,9.1577-70.5029a7.49906,7.49906,0,1,1,12.7637,7.876c-13.4839,21.8579-16.6309,41.4819-8.8575,55.2563,6.128,10.8643,18.6573,17.2974,33.9527,17.124,22.9858-.2148,44.3335-14.4751,57.1094-38.1445,9.309-19.8218,21.9604-32.8296,37.417-38.2934,16.2036-5.7227,35.625-3.1934,57.7148,7.5219a7.50033,7.50033,0,0,1-6.5479,13.4961c-18.3496-8.9038-33.8916-11.2182-46.1694-6.875-11.6968,4.1358-21.1938,14.2432-29.0283,30.9033-15.3638,28.4937-42.251,46.128-70.3565,46.3916C2302.78626,2341.31128,2302.57136,2341.31128,2302.359,2341.31128Z" />
    <path fill="#102770"
        d="M1635.86486,1794.79518c-149.7022,0-282.2168-22.2339-377.9004-63.9063a10.45692,10.45692,0,0,1,8.3496-19.1748c226.9995,98.8623,631.3574,69.3775,866.5991-20.1855a10.45725,10.45725,0,1,1,7.4414,19.5459c-121.0766,46.0986-282.4487,76.1645-442.7368,82.4902Q1666.31771,1794.79888,1635.86486,1794.79518Z" />
    <path fill="#102770"
        d="M1581.36286,1848.42308c-121.0937,0-242.9663-26.7188-329.0551-74.3457a10.45675,10.45675,0,1,1,10.122-18.3008c104.6314,57.8858,271.7481,84.2725,415.8301,65.6421a10.45735,10.45735,0,0,1,2.6807,20.7422A779.39383,779.39383,0,0,1,1581.36286,1848.42308Z" />
    <path fill="#102770"
        d="M1772.24916,1837.97388a10.45664,10.45664,0,0,1-.0586-20.9131c141.3159-.8203,267.7246-27.0093,346.8164-71.853a10.45759,10.45759,0,1,1,10.3174,18.1933c-82.107,46.5528-212.2315,73.7329-357.0117,74.5728Z" />
    <path fill="#102770"
        d="M1147.06116,1736.79468a10.46077,10.46077,0,0,1-9.7608-14.2066c13.2593-34.5361-6.2939-83.999-47.5512-120.2856-30.7886-27.0752-78.0249-48.2764-118.2715-26.565a10.45709,10.45709,0,0,1-9.9268-18.4082c41.5723-22.4218,95.9888-11.206,142.0093,29.2676,40.3198,35.4615,72.4268,93.5816,53.2666,143.4864A10.45976,10.45976,0,0,1,1147.06116,1736.79468Z" />
    <path fill="#102770"
        d="M1240.02016,1657.94948a7.50446,7.50446,0,0,1-6.6846-10.8936c22.6685-44.7363,17.2485-96.7676-14.8682-142.7539-28.5498-40.8789-72.7465-67.7881-105.2563-63.9429a7.50037,7.50037,0,0,1-1.7578-14.8974c38.1787-4.5264,87.2705,24.3774,119.3115,70.2514,35.3857,50.6641,41.1987,108.2984,15.9497,158.125A7.50019,7.50019,0,0,1,1240.02016,1657.94948Z" />
    <path fill="#102770"
        d="M1269.20716,1633.99188a7.49992,7.49992,0,0,1-5.4175-12.6879c27.8955-29.1333,19.4067-85.564-1.3818-128.5645-20.2002-41.7773-61.1304-88.9746-109.7974-84.3652a7.5011,7.5011,0,0,1-1.4014-14.9366c56.399-5.2685,102.4146,46.6724,124.7022,92.7735,28.1274,58.1763,27.6221,115.2783-1.2866,145.4687A7.47824,7.47824,0,0,1,1269.20716,1633.99188Z" />
    <path fill="#102770"
        d="M2270.42056,1561.57738a7.5012,7.5012,0,0,1-2.649-14.519c53.0494-20.0049,146.4746-85.1539,120.3467-188.545a7.49931,7.49931,0,1,1,14.541-3.6767c28.7232,113.6621-72.2119,184.6167-129.5947,206.2549A7.46251,7.46251,0,0,1,2270.42056,1561.57738Z" />
    <path fill="#102770"
        d="M2235.42056,1541.57738a7.5012,7.5012,0,0,1-2.649-14.519c53.0494-20.0049,146.4746-85.1539,120.3467-188.545a7.49931,7.49931,0,1,1,14.541-3.6767c28.7232,113.6621-72.2119,184.6167-129.5947,206.2549A7.46251,7.46251,0,0,1,2235.42056,1541.57738Z" />
    <path fill="#102770"
        d="M2377.70816,1629.55838a94.91047,94.91047,0,0,1-22.7173-2.5611,10.45758,10.45758,0,1,1,5.0244-20.3027c27.0044,6.6894,69.165-3.9697,104.9072-26.5088,35.4395-22.3511,59.3823-52.7466,65.6909-83.3936a10.45618,10.45618,0,0,1,20.4834,4.2139c-7.5561,36.7261-34.1992,71.1279-75.0195,96.8701C2443.91666,1618.157,2407.63486,1629.55838,2377.70816,1629.55838Z" />
    <path fill="#ee346a"
        d="M2205.58776,1259.141a30.717,30.717,0,0,1-9.7778,7.9473c-.3657.157-.7317.366-1.0454.523-150.7403,92.9118-644.0576,59.1353-793.2293-27.6594-1.2549-.7318-2.5097-1.4639-3.7125-2.196a34.68054,34.68054,0,0,1-8.3132-6.6404c-20.7054-22.4305,1.2548-55.8413,28.2865-52.1288a32.57563,32.57563,0,0,1,9.5684,2.8233c23.4763,11.0322,52.5473,21.019,85.6966,29.8553,158.6352,42.3515,409.2938,57.7235,572.2168,26.8751,32.3126-6.0654,61.1222-14.0126,85.1212-23.8947C2200.09746,1202.41058,2222.11,1238.331,2205.58776,1259.141Z" />
    <path fill="#102770"
        d="M1874.964,1325.59348c-183.9282,0-386.3159-32.063-474.685-83.4814-1.4478-.8448-2.6246-1.5308-3.7549-2.2193a37.24031,37.24031,0,0,1-8.855-7.0849c-9.7534-10.5664-11.6064-24.4898-4.9536-37.2388,6.9702-13.3521,21.2329-21.0352,35.4199-19.0576a35.24845,35.24845,0,0,1,10.2881,3.0322c22.7515,10.6934,51.4429,20.686,85.2832,29.707,165.8643,44.2774,416.7187,56.0645,571.1084,26.8335,32.8613-6.167,61.3354-14.1577,84.6313-23.75,16.7994-6.9262,30.3223.6055,37.3658,9.9658,8.9453,11.8824,9.2456,27.6709.7324,38.3936h0a33.16894,33.16894,0,0,1-10.5591,8.6011l-.7349.3613C2133.07926,1308.58418,2008.91416,1325.59348,1874.964,1325.59348Zm-461.3794-144.397c-12.2119,0-21.9165,8.0249-26.4355,16.687-5.6348,10.7959-4.065,22.5855,4.1968,31.5357a32.33127,32.33127,0,0,0,7.7221,6.1694c1.1597.7056,2.312,1.377,3.4644,2.0484,88.1006,51.2622,289.7314,83.2348,472.644,83.2422,132.8101.0048,255.7276-16.8433,318.2764-55.398l.4858-.2563c.2808-.1465.5786-.3028.8789-.4322a28.08923,28.08923,0,0,0,8.8111-7.2046v-.0024c8.2837-10.4321,5.3882-24.0454-.8106-32.2803-5.9204-7.8637-17.2925-14.1845-31.4673-8.3471-23.6132,9.7216-52.417,17.81-85.6103,24.038-155.0073,29.3555-406.8433,17.5318-573.3228-26.9165-34.1259-9.0942-63.1006-19.1919-86.1181-30.0073a29.84372,29.84372,0,0,0-8.833-2.6074A28.58744,28.58744,0,0,0,1413.58456,1181.19648Z" />
    <path fill="#fff"
        d="M2209.14316,1256.01248c-5.438-14.0126-20.653-24.3654-38.7441-16.9406-23.999,9.8818-52.8086,17.8294-85.1212,23.8947-162.923,30.8485-413.5816,15.4764-572.2168-26.875-33.1493-8.8363-62.2203-18.8231-85.6966-29.8554a32.58168,32.58168,0,0,0-9.5684-2.8233c-15.4244-2.1439-29.2276,7.8952-34.3519,21.0711-8.6793-21.2281,10.9279-45.9069,34.3519-42.6652a32.58168,32.58168,0,0,1,9.5684,2.8233c23.4763,11.0323,52.5473,21.0191,85.6966,29.8554,158.6352,42.3514,409.2938,57.7235,572.2168,26.875,32.3126-6.0653,61.1222-14.0126,85.1212-23.8947C2197.43086,1206.34088,2218.08386,1235.04578,2209.14316,1256.01248Z"
        opacity=".55" />
    <path fill="#102770"
        d="M1877.30036,1336.18918q-38.94645,0-80.3637-1.9629c-171.6431-8.1958-329.4287-40.7666-401.9751-82.9761-1.5137-.8837-2.7466-1.604-3.9331-2.3266a47.241,47.241,0,0,1-11.1426-8.9624c-12.7051-13.7647-15.2197-32.6563-6.543-49.2822,9.0283-17.295,27.5952-27.2022,46.2329-24.6412a45.69053,45.69053,0,0,1,13.3252,3.9307c22.1997,10.4321,50.2954,20.21,83.5279,29.0674,164.5654,43.9355,413.3642,55.6494,566.4184,26.6601,32.1704-6.0376,59.9439-13.8208,82.5757-23.1372,18.4229-7.5976,37.998-2.3437,49.8364,13.3814,11.8384,15.73,12.0703,36.8359.564,51.3281a43.68158,43.68158,0,0,1-13.877,11.3623c-.2441.1294-.4907.2515-.7421.3638C2141.17006,1315.75708,2023.22326,1336.18918,1877.30036,1336.18918Zm-463.6547-144.4116c-7.8565,0-14.1504,5.2954-17.1241,10.9961-2.0752,3.977-4.497,11.7944,2.5928,19.4751a21.76749,21.76749,0,0,0,5.2173,4.1723c1.3379.8081,2.4316,1.4454,3.5278,2.0874,69.4434,40.4053,222.5562,71.5943,390.3247,79.607,177.815,8.4887,323.4961-10.8106,389.7217-51.6333.3394-.21.6909-.4029,1.0474-.5811.3442-.1806.6689-.3442.9863-.498a17.53158,17.53158,0,0,0,5.4053-4.3848l.0049-.0049c4.7924-6.0351,2.8515-14.2602-.9766-19.3481-2.7417-3.6353-8.8428-9.1065-18.9941-4.9341-24.2847,9.9976-53.7867,18.2935-87.688,24.6558-156.3208,29.5947-410.2173,17.7002-578.0005-27.0923-34.729-9.2578-64.2993-19.5703-87.8858-30.6543a19.39834,19.39834,0,0,0-5.7324-1.6968A17.96808,17.96808,0,0,0,1413.64566,1191.77758Zm782.1655,75.31h0Z" />
    <path fill="#fff"
        d="M2390.26116,798.97288c3.4511-286.0039-241.4038-517.4213-528.9762-544.1916-19.8162,48.2598-124.5973,53.6977-155.1845,7.5292-230.5286,44.2339-428.6395,232.0448-450.286,482.3896,4.7579-320.7741,297.0885-549.9429,594.595-528.6105C2156.02046,238.04968,2417.18856,491.63628,2390.26116,798.97288Z"
        opacity=".65" />
    <path fill="#102770"
        d="M2034.151,631.29658c-14.2962-12.2628-30.542-21.0489-47.4237-27.3867a11.78607,11.78607,0,1,1,11.5583-20.199l.2093.1748c15.5933,12.7286,29.3201,27.7149,39.2194,44.4312a2.35316,2.35316,0,0,1-3.5633,2.9797Z" />
    <path fill="#102770"
        d="M1674.80346,591.57278a247.83889,247.83889,0,0,0-25.835,8.4015c-8.3526,3.3456-16.5057,7.2553-23.6474,12.7942l-.0519.0406a2.34954,2.34954,0,0,1-3.407-3.1415c5.3571-8.1995,12.4365-15.1984,19.8169-21.5704a265.23388,265.23388,0,0,1,23.2892-17.5647l.0824-.0565a11.78245,11.78245,0,0,1,13.2818,19.4653A12.05172,12.05172,0,0,1,1674.80346,591.57278Z" />
    <path fill="#ffa726"
        d="M2085.27786,1238.54038c-162.923,30.8484-413.5816,15.4764-572.2168-26.8751-199.5231-100.4936-255.155-288.4611-93.3828-494.3106-82.2456-240.097,51.5018-267.3378,250.1882-136.3094,87.3175-31.0578,229.6918-25.7248,322.7606,12.8622,193.5102-107.0291,341.1654-115.4994,238.0578,153.4069C2380.84976,970.47048,2273.82076,1154.98728,2085.27786,1238.54038Z" />
    <g opacity=".3">
        <path fill="#102770"
            d="M2085.27786,1238.54038c-162.923,30.8484-413.5816,15.4764-572.2168-26.8751-136.5186-68.756-205.6404-178.4517-183.8896-306.8135,9.4637,52.0765,35.5023,99.4999,76.1805,140.2308,47.528,47.6324,109.2253,78.5332,175.3671,91.3433,128.0481,24.8358,290.6047,34.6655,422.8883,22.5875,68.442-6.222,134.1654-31.5805,186.922-75.5532,56.4687-47.1096,95.5784-107.186,107.3428-176.7262C2322.13286,1056.58518,2226.60646,1175.90168,2085.27786,1238.54038Z" />
        <path fill="#6b184e"
            d="M1882.71786,1257.09988c-126.9751,0-265.5298-15.0489-370.3003-43.0201l-.4809-.1806c-139.1651-70.0904-206.6797-182.8858-185.232-309.4654l2.3804-14.038,2.544,14.0087c9.3359,51.3648,34.7363,98.1031,75.4931,138.9112,46.0718,46.1743,106.2647,77.5219,174.0723,90.6567,132.1118,25.6275,293.8818,34.2676,422.185,22.5513,70.188-6.3819,134.3482-32.3096,185.5494-74.9854,58.5278-48.8257,95.3466-109.4189,106.477-175.2221l2.5195-14.8926,2.4146,14.9097c22.6636,140-57.3535,265.0415-214.0479,334.4921l-.5468.1709C2028.28676,1251.87518,1957.50306,1257.09988,1882.71786,1257.09988Zm-368.7622-47.7832c165.7617,44.1967,416.2378,55.9741,570.5737,26.8212,148.7867-66.0376,227.3926-182.7221,212.8809-314.2724-14.0381,61.2939-50.2026,117.5659-105.2783,163.5132-51.9849,43.3276-117.0972,69.6508-188.2984,76.1255-128.7329,11.7553-291.0449,3.0859-423.5913-22.6246-68.7915-13.3227-129.8803-45.1464-176.6601-92.0312-37.7979-37.8467-62.627-80.7422-73.9429-127.688C1315.66466,1037.70778,1382.16366,1142.85908,1513.95566,1209.31668Z" />
    </g>
    <path fill="#fff"
        d="M2204.097,682.31c-.9295,11.6824-2.5568,24.5088-7.0153,34.0061-5.8668,12.4972-22.8151,14.7366-32.463,4.8615-21.8239-22.3377-50.2745-42.2074-83.4951-60.3008l10.5854-17.0815s80.0627,57.4683,81.3698,57.4683C2174.386,701.26358,2204.097,682.31,2204.097,682.31Z"
        opacity=".65" />
    <path fill="#fff"
        d="M1451.11046,653.80188c-.5241,11.7076-.4975,24.6368,2.7509,34.613,4.2744,13.1274,20.815,17.448,31.6113,8.8435,24.4216-19.4638,55.1135-35.6581,90.3186-49.4991l-8.3889-18.2607s-86.5621,47.1134-87.8592,46.9515C1478.24606,676.28828,1451.11046,653.80188,1451.11046,653.80188Z"
        opacity=".65" />
    <path fill="#fff"
        d="M1992.62706,623.97188c-93.0688-38.5871-235.4431-43.92-322.7606-12.8622-151.4724-99.9185-265.1942-107.8134-274.2396.4704-9.9864-139.028,109.9051-138.9236,274.2396-30.5348,87.3175-31.0578,229.6918-25.7248,322.7606,12.8622,155.9689-86.2717,282.1871-108.4932,271.2069,26.9797C2254.00416,519.50478,2135.89056,544.75888,1992.62706,623.97188Z"
        opacity=".65" />
    <path fill="#102770"
        d="M1882.83266,1266.18188c-127.8467,0-267.3194-15.1441-372.7661-43.2959a11.77316,11.77316,0,0,1-2.229-.8496c-103.3863-52.0728-168.4229-126.2549-188.0762-214.5337-20.3003-91.167,9.7534-192.1485,86.9165-292.3511-43.0493-129.458-18.0176-183.3203,10.8838-205.7007,47.5195-36.7968,139.8803-15.3637,253.9111,58.7647,89.0527-29.48,227.0557-23.96,320.3931,12.8564,89.1064-48.7011,204.143-95.4297,257.1338-49.3432,38.1079,33.1445,36.3745,103.2129-5.3394,214.1259,63.9429,97.2754,84.2969,195.1441,58.8623,283.3765-26.7993,92.9614-102.2803,171.0645-212.5391,219.9268a11.60519,11.60519,0,0,1-2.5439.7934C2029.52936,1260.91578,1958.194,1266.18188,1882.83266,1266.18188Zm-365.6153-65.4273c164.2701,43.5987,411.5845,55.2515,564.5826,26.6236,103.208-46.0596,173.6401-118.6695,198.4057-204.5801,23.9087-82.9395,3.4546-175.957-59.1553-268.999a11.61413,11.61413,0,0,1-1.2085-10.6421c38.75-101.0645,43.5645-168.1153,13.9161-193.9038-34.1846-29.7388-117.8296-10.2759-235.5103,54.8144a11.6125,11.6125,0,0,1-10.0684.5664c-90.6152-37.5683-228.7304-43.125-314.4213-12.6465a11.62084,11.62084,0,0,1-10.2857-1.2475c-105.8301-69.7949-192.4512-93.3179-231.6919-62.9248-33.0029,25.5566-33.3984,91.5332-1.1157,185.7764a11.60569,11.60569,0,0,1-1.8555,10.9375c-75.5786,96.1718-105.4467,192.2778-86.3769,277.9272C1360.45466,1083.406,1420.882,1151.95578,1517.21736,1200.75458Zm568.0616,37.7857h0Z" />
    <path fill="#102770"
        d="M2075.62616,672.06378c-.8868-6.3482-.0665-12.6425,1.4795-18.879a51.95012,51.95012,0,0,1,3.3814-9.473c1.6467-3.1976,3.3514-6.5646,7.8491-10.1029l.0244-.0195a6.93007,6.93007,0,0,1,4.9011-1.4999l1.5998.1327.0458.0037a11.613,11.613,0,1,1-1.9202,23.1464l-.0458-.0037,6.499-1.3669-.0024-.0024c-.3522-.7279-2.5482.0506-4.3597,1.2051a34.57024,34.57024,0,0,0-5.6989,4.5706,41.09714,41.09714,0,0,0-9.1235,12.6731l-.0965.2243a2.37429,2.37429,0,0,1-4.5331-.6086Z" />
    <path fill="#102770"
        d="M2223.25316,586.61768a81.89282,81.89282,0,0,0-19.4666,3.9844,53.38181,53.38181,0,0,0-8.4014,3.7911c-2.6416,1.4115-4.9897,3.2676-7.3859,4.8481a11.78826,11.78826,0,1,1-9.82-21.1524l.6366-.1809a56.07593,56.07593,0,0,1,11.9654-1.735,70.32434,70.32434,0,0,1,11.756.4077,91.666,91.666,0,0,1,21.344,5.4343,2.38093,2.38093,0,0,1,1.3989,3.0621A2.41775,2.41775,0,0,1,2223.25316,586.61768Z" />
    <path fill="#fa5c98"
        d="M2182.51006,705.02858c-24.0203-27.9085-53.2437-43.6636-88.563-61.2295,23.9411-29.0106,54.328-48.6303,89.4606-55.2244C2215.621,605.37028,2206.19526,662.24658,2182.51006,705.02858Z" />
    <path fill="#102770"
        d="M2183.01326,709.92208l-2.6342-3.0591c-23.6084-27.434-52.4439-43.02-87.6856-60.5468l-3.1689-1.5772,2.2534-2.7295c24.978-30.2661,56.4844-49.6972,91.1133-56.1963l.9546-.1806.8618.4492c9.4702,4.939,16.018,13.2422,19.4604,24.6826,7.2168,23.9868-.3198,61.521-19.1992,95.6274Zm-84.6191-67.0459c33.0762,16.5332,60.5322,31.7432,83.5596,57.2705,16.7846-31.8603,23.3911-65.9594,16.831-87.7636-2.8833-9.5826-8.208-16.5967-15.8301-20.8594C2151.05776,597.75418,2121.90486,615.46658,2098.39416,642.87618Z" />
    <path fill="#102770"
        d="M2182.508,716.64328a11.60823,11.60823,0,0,1-8.7989-4.0381c-22.5366-26.1841-50.5957-41.3305-84.934-58.4082a11.6122,11.6122,0,0,1-3.7867-17.7905c26.3086-31.875,59.5996-52.3608,96.2793-59.2456a11.60313,11.60313,0,0,1,7.5098,1.1157c11.4893,5.9912,19.7266,16.3477,23.8184,29.9512,9.5483,31.7334-4.0332,73.7158-19.9244,102.4267a11.61913,11.61913,0,0,1-8.9721,5.9278C2183.30136,716.62128,2182.90346,716.64328,2182.508,716.64328Zm-69.7828-76.3818c25.3614,13.0224,47.3877,26.0205,66.7896,44.7143,11.5991-26.2329,15.9521-53.0639,10.8398-70.0561-1.8725-6.2256-4.873-10.8521-9.1235-14.043C2155.96006,606.54808,2132.56656,620.02218,2112.72516,640.26148Z" />
    <path fill="#102770"
        d="M1561.94026,621.83468l-.0366-9.1889a1.79667,1.79667,0,0,1,3.0042-1.3373l3.377,3.0786c4.2371,3.862,5.691,7.3493,7.1003,10.6611a51.89322,51.89322,0,0,1,2.6776,9.7018c1.0833,6.3367,1.4374,12.6773.0848,18.9462a2.37481,2.37481,0,0,1-4.5648.2768l-.0806-.2353a41.09924,41.09924,0,0,0-8.1689-13.3169,34.56639,34.56639,0,0,0-5.3491-4.9787c-1.7218-1.2838-3.8562-2.2195-4.2542-1.5152l6.38,1.7408-.1282-9.188Z" />
    <path fill="#102770"
        d="M1471.45076,572.785c-2.2735-1.753-4.4781-3.7772-7.0086-5.3797a53.38855,53.38855,0,0,0-8.0988-4.4003,81.91383,81.91383,0,0,0-19.1193-5.4092,2.38114,2.38114,0,0,1-1.9732-2.728,2.418,2.418,0,0,1,1.6858-1.9083,91.65842,91.65842,0,0,1,21.687-3.8455,70.30145,70.30145,0,0,1,11.7535.4605,56.07551,56.07551,0,0,1,11.8048,2.6123l.5695.2115a11.78829,11.78829,0,1,1-8.2044,22.103A12.12508,12.12508,0,0,1,1471.45076,572.785Z" />
    <path fill="#fa5c98"
        d="M1469.12366,678.689c26.0131-26.0612,56.3188-39.6183,92.8372-54.5319-21.7365-30.6971-50.5939-52.5042-85.1446-61.6712C1443.45216,576.86028,1448.658,634.27688,1469.12366,678.689Z" />
    <path fill="#102770"
        d="M1468.26236,683.533l-1.6919-3.667c-16.3135-35.4029-21.0596-73.3911-12.0923-96.7798,4.2749-11.1572,11.4184-18.9551,21.2256-23.1812l.8935-.3857.94.249c34.0551,9.0357,64.0429,30.7398,86.7187,62.7661l2.0435,2.8882-3.2764,1.3379c-36.4355,14.8779-66.3379,28.2959-91.9092,53.9136Zm8.789-118.0738c-7.915,3.6914-13.7427,10.293-17.3266,19.6387-8.1495,21.2598-4.0772,55.7544,10.3149,88.7622,24.8486-23.7622,53.3496-36.9043,87.5537-50.9497C1536.17006,593.843,1508.404,574.02608,1477.05136,565.45918Z" />
    <path fill="#102770"
        d="M1469.12416,690.303a11.736,11.736,0,0,1-2.0362-.1807,11.61261,11.61261,0,0,1-8.5107-6.5723c-13.7329-29.8022-24.1821-72.6708-12.3193-103.6157,5.0854-13.2641,14.0625-22.9858,25.9643-28.1128a11.6316,11.6316,0,0,1,7.5733-.5615c36.0717,9.5728,67.7612,32.4585,91.643,66.1865a11.61263,11.61263,0,0,1-5.0879,17.4634c-35.5029,14.4971-64.5996,27.5293-89.0063,51.9824A11.614,11.614,0,0,1,1469.12416,690.303Zm8.9551-115.3882c-4.4727,2.8686-7.8077,7.2632-10.1343,13.335-6.3526,16.5673-3.9868,43.6474,5.6445,70.6616,20.73-17.2119,43.6548-28.5523,69.9048-39.6655C1525.20076,597.59788,1502.86676,582.43428,1478.07926,574.91478Z" />
    <path fill="#102770" d="M1783.71666,565.77258c18.3474,143.9188,43.8689,147.0849,76.7606,5.6649Z" />
    <path fill="#102770" d="M1894.30266,570.77408c-9.5828,101.7044,7.463,107.8143,51.8631,15.7261Z" />
    <path fill="#102770" d="M1747.78076,565.54218c-3.7713,102.0852-21.4687,105.9184-53.4718,8.8236Z" />
    <path fill="#102770"
        d="M1766.35806,2526.12818c-.3052,0-.5957,0-.8985-.0025-129.9121-.2856-270.8056-60.8105-276.04-172.4145a10.00124,10.00124,0,0,1,19.9805-.9375c4.6508,99.248,135.4223,153.0859,256.1035,153.352.2783.0025.5761.0025.8569.0025,101.8384,0,222.3706-40.127,228.1812-153.3985a10.0009,10.0009,0,1,1,19.9755,1.0254C2007.98646,2481.02558,1876.966,2526.12818,1766.35806,2526.12818Z" />
    <path fill="#102770"
        d="M2232.59336,2495.22c-79.3188,0-160.9033-15.9424-219.6313-42.6075a10.00053,10.00053,0,1,1,8.2666-18.2128c108.2617,49.1601,300.31,59.06,395.2783-1.2574,41.289-26.2231,62.5293-63.3667,63.1348-110.4004a10.16782,10.16782,0,0,1,10.1293-9.8706,10.00144,10.00144,0,0,1,9.8707,10.1294c-.6983,54.2139-25.0611,96.9507-72.4122,127.024C2377.61286,2481.53828,2306.07486,2495.22,2232.59336,2495.22Z" />
    <path fill="#102770"
        d="M1372.83036,1541.48478l-74.9258,67.9717a42.14444,42.14444,0,0,1-2.6666-4.3399l-7.3199,6.0127-40.8876,33.5678-127.1069,104.3104c47.3186,66.1938-32.3127,123.0809-79.6317,56.9391-159.9947,64.0502-243.5474-4.2352-188.2292-104.6241-33.5151,108.0751,187.3928,41.515,282.9192-60.0241C1226.37746,1568.20278,1365.77156,1441.87988,1372.83036,1541.48478Z"
        opacity=".3" />
    <path fill="#102770"
        d="M2197.53546,1269.11008c-152.0474,254.3883-649.8867,165.7913-799.7127-31.3542C1653.24726,1342.83718,1920.15386,1350.43818,2197.53546,1269.11008Z"
        opacity=".3" />
    <polygon fill="#102770"
        points="1379.801 1535.736 1379.801 1650.447 1303.821 1616.845 1379.801 1535.736"
        opacity=".3" />
    <path fill="#102770"
        d="M2150.00776,1604.64588l-13.3851,55.5799c-9.9868-30.221-50.1423-32.3126-50.1423-32.3126-5.856,13.9602-24.3131,16.7839-24.3131,16.7839l-5.4343,40.8699a19.21435,19.21435,0,0,1-17.9638,16.6513l-410.0575,23.1487a15.624,15.624,0,0,1-16.4929-16.2069l.7685-23.4398a2.95847,2.95847,0,0,0-5.3142-1.8766c-37.255,47.3259-90.8527,76.6403-153.9566,88.3264l-84.2849-17.9864c-14.5353,186.19,42.3518,310.8917,174.9487,370.4978l-38.6916,113.6694s-2.0913.5231-5.856,1.5162c-190.9479-65.9324-283.651-322.9697-228.5414-568.3997,23.4763,18.4048,60.5468,37.698,101.382,48.4168l.1571.1044c-.0524.6274-.1571,1.2551-.2094,1.8825,19.9733,1.6729,51.7108,4.2872,53.8024,4.2352,3.137-.1571,95.9968-30.4305,95.9968-30.4305l76.2329-95.2127,28.3389-7.3722,29.1756,31.5283,4.8102,35.2406,365.3738-18.4044,11.0846-49.0442,31.9989-23.738Z"
        opacity=".3" />
    <g opacity=".3">
        <path fill="#6b184e"
            d="M1376.42956,1653.50228c-32.656,3.6744-46.8918,20.7527-27.616,62.2165l-86.674-55.493-7.4227-15.093,37.8894-29.1929Z" />
        <path fill="#102770"
            d="M1354.70516,1722.45868l-94.5019-60.5053-8.6328-17.5537,40.6933-31.3526,93.5401,41.9141-9.0967,1.0254c-16.2207,1.8237-26.3892,6.7749-31.0864,15.1343-5.3663,9.5556-3.5303,24.2065,5.4614,43.5424Zm-90.6299-63.9624,79.209,50.7129c-6.8847-17.4096-7.5366-30.7202-2.0215-40.5371,4.6167-8.2202,13.3106-13.5986,26.4624-16.333l-74.7778-33.5058-35.083,27.0312Z" />
    </g>
    <path fill="#102770"
        d="M1918.22666,2008.20478l159.6411-14.6783s6.7883,27.0505,34.1702,20.4772c0,0,51.8257-5.0483,37.9698,83.8377-13.8558,88.886-81.8699,258.088,11.3943,255.4016,30.887,132.438,336.4945,61.1653,305.6078-71.2727l27.0821,52.2208,12.2639,56.4513-22.5028,90.6289L2402.81,2529.2l-131.5862,18.6781-170.4612-23.5904-88.9626-28.2021,15.545-55.7716-31.5325-101.6581,22.8091-159.7713-101.6764.0743C1927.22636,2116.836,1929.923,2058.71938,1918.22666,2008.20478Z"
        opacity=".3" />
    <path fill="#102770"
        d="M1544.38026,2124.68148c34.927-67.4314,135.2188-110.4801,106.8201,41.5673-50.3001,147.961-112.6238,226.1365,11.7643,284.9581,146.4005,60.1287,355.657-58.8216,292.9578-146.3976,66.5148,54.103,110.6269,116.4573,4.4807,234.1574,0,0-90.5322,49.5839-98.7521,46.5084-8.22-3.0754-109.6818,0-109.6818,0l-125.6047-21.8536-95.2649-52.2859-31.6899-69.2787v-117.6708Z"
        opacity=".3" />
    <path fill="#102770"
        d="M2587.34076,1596.91168c10.3739,107.9142-100.002,104.3905-127.8879,54.7569-62.9393-121.4495-158.5324-207.0118-282.4639-261.4294l-6.4844,121.6961c90.2896,21.4017,162.2401,75.0314,214.0053,164.1333-42.1534,74.1757-13.0775,89.6334,52.3382,75.1348C2549.81966,1791.74008,2605.11746,1747.82658,2587.34076,1596.91168Z"
        opacity=".3" />
    <path fill="#102770"
        d="M2174.36336,1226.38208a13.0713,13.0713,0,0,1-9.2334-22.3242c194.1968-193.7622,259.4825-412.4048,183.8282-615.6543-73.982-198.7622-274.7022-343.1372-499.4678-359.2627-211.3355-15.1441-420.3906,98.9404-520.3418,283.9087-106.1597,196.455-70.0635,436.2866,99.0332,657.998a13.07122,13.07122,0,0,1-20.7861,15.8545c-92.8687-121.7627-147.0777-246.5283-161.1231-370.835-12.5122-110.7251,8.1934-219.8046,59.8755-315.4467,104.7559-193.8599,323.855-313.4668,545.2124-297.5537,234.7949,16.8432,444.6094,168.0346,522.0996,376.2158,36.6065,98.3496,41.5869,205.4394,14.4019,309.6899-30.3565,116.4063-99.0796,228.6401-204.2652,333.5913A13.03037,13.03037,0,0,1,2174.36336,1226.38208Z" />
    <ellipse cx="1902.499" cy="296.375" fill="#fff" opacity=".65" rx="15.686" ry="27.777"
        transform="rotate(-79.711 1902.5 296.375)" />
    <ellipse cx="1686.743" cy="306.375" fill="#fff" opacity=".65" rx="14.161" ry="7.514" />
    <path fill="#fff"
        d="M2096.22986,449.07678c65.8394,64.7513,85.2759,148.0745,36.8865,197.2771-48.3893,49.2025-106.5699-4.4432-172.4093-69.1946-65.8395-64.7513-114.4057-116.0882-66.0163-165.2907S2030.39046,384.32548,2096.22986,449.07678Z"
        opacity=".2" />
    <path fill="#102770"
        d="M1369.31336,984.24038a100.91608,100.91608,0,0,1,22.0972-5.3742,164.39054,164.39054,0,0,1,22.0971-1.4819,161.50607,161.50607,0,0,1,22.0972,1.463,99.63579,99.63579,0,0,1,22.0972,5.3931,99.67243,99.67243,0,0,1-22.0972,5.3924,161.49021,161.49021,0,0,1-22.0972,1.463,164.27556,164.27556,0,0,1-22.0971-1.4819A100.95373,100.95373,0,0,1,1369.31336,984.24038Z" />
    <path fill="#102770"
        d="M1360.59936,984.24038a126.17751,126.17751,0,0,1,24.9402-5.3742,209.04416,209.04416,0,0,1,24.9396-1.4819,205.38689,205.38689,0,0,1,24.9395,1.463,124.55655,124.55655,0,0,1,24.9402,5.3931,124.603,124.603,0,0,1-24.9402,5.3924,205.36671,205.36671,0,0,1-24.9395,1.463,208.89789,208.89789,0,0,1-24.9396-1.4819A126.2252,126.2252,0,0,1,1360.59936,984.24038Z" />
    <path fill="#102770"
        d="M1369.21816,1061.14888a117.94272,117.94272,0,0,1,21.0693-12.7716,194.27955,194.27955,0,0,1,22.3114-9.0838,191.07189,191.07189,0,0,1,23.2526-6.2922,116.40978,116.40978,0,0,1,24.5074-2.5689,116.40964,116.40964,0,0,1-21.0632,12.7893,190.95286,190.95286,0,0,1-22.3175,9.0661,194.4474,194.4474,0,0,1-23.2581,6.2745A117.92455,117.92455,0,0,1,1369.21816,1061.14888Z" />
    <path fill="#102770"
        d="M2206.03146,984.24038a100.95427,100.95427,0,0,1-22.0971,5.3735,164.27814,164.27814,0,0,1-22.0972,1.4819,161.49021,161.49021,0,0,1-22.0972-1.463,99.67026,99.67026,0,0,1-22.0971-5.3924,99.63363,99.63363,0,0,1,22.0971-5.3931,161.50607,161.50607,0,0,1,22.0972-1.463,164.39311,164.39311,0,0,1,22.0972,1.4819A100.91662,100.91662,0,0,1,2206.03146,984.24038Z" />
    <path fill="#102770"
        d="M2214.74546,984.24038a126.2252,126.2252,0,0,1-24.9402,5.3735,208.90489,208.90489,0,0,1-24.9395,1.4819,205.377,205.377,0,0,1-24.9402-1.463,124.60632,124.60632,0,0,1-24.9396-5.3924,124.55992,124.55992,0,0,1,24.9396-5.3931,205.39717,205.39717,0,0,1,24.9402-1.463,209.05118,209.05118,0,0,1,24.9395,1.4819A126.17751,126.17751,0,0,1,2214.74546,984.24038Z" />
    <path fill="#102770"
        d="M2206.12606,1061.14888a117.91878,117.91878,0,0,1-24.5013-2.5866,194.41693,194.41693,0,0,1-23.2581-6.2745,190.96863,190.96863,0,0,1-22.3181-9.0661,116.40513,116.40513,0,0,1-21.0626-12.7893,116.40978,116.40978,0,0,1,24.5074,2.5689,191.1014,191.1014,0,0,1,23.2526,6.2922,194.32357,194.32357,0,0,1,22.3114,9.0838A117.93815,117.93815,0,0,1,2206.12606,1061.14888Z" />
    <path fill="#102770"
        d="M1489.94336,913.07518s89.1585-78.1308,171.588,21.6169c0,0,9.1334-59.5422-56.5507-88.6783a77.26642,77.26642,0,0,0-58.82-1.7887C1522.984,853.00858,1494.62746,872.06308,1489.94336,913.07518Z" />
    <path fill="#102770"
        d="M2075.633,913.07518s-89.1585-78.1308-171.588,21.6169c0,0-9.1334-59.5422,56.5507-88.6783a77.26642,77.26642,0,0,1,58.82-1.7887C2042.59236,853.00858,2070.94886,872.06308,2075.633,913.07518Z" />
    <path fill="#102770"
        d="M1862.21726,982.58858c0,31.6534-32.9935,57.3136-73.693,57.3136s-73.6929-25.6602-73.6929-57.3136c0-29.2908,31.5604-27.2252,72.2599-27.2252S1862.21726,953.22848,1862.21726,982.58858Z" />
    <path fill="#102770"
        d="M1788.52356,1042.40258c-42.0117,0-76.1914-26.8335-76.1914-59.8145,0-8.1616,2.2656-14.3872,6.9263-19.0332,10.9033-10.8667,32.7221-10.791,60.2832-10.708l7.5488.0171,7.7612-.0171c27.666-.1074,51.5698-.1782,62.9712,11.1841,4.5752,4.5606,6.8945,10.8032,6.8945,18.5571C1864.71736,1015.56908,1830.53766,1042.40258,1788.52356,1042.40258Zm-15.9058-84.5703c-22.4023,0-41.2646.7275-49.8291,9.2651-3.6719,3.6597-5.4565,8.7256-5.4565,15.4907,0,30.2246,31.936,54.8145,71.1914,54.8145s71.1938-24.5899,71.1938-54.8145c0-6.4648-1.7749-11.3769-5.4248-15.0146-9.9292-9.8999-32.8662-9.8389-59.4238-9.7266l-7.7783.0171-7.5635-.0171C1777.193,957.83958,1774.88586,957.83228,1772.61776,957.83228Z" />
    <path fill="#102770"
        d="M1799.325,1027.944c3.7884,16.5735,10.18,32.0288,20.4156,44.7845,10.1441,12.6715,23.7409,22.8522,39.5227,27.8302a71.76135,71.76135,0,0,0,49.2719-2.0776c16.0962-6.496,30.0372-19.1663,40.8319-34.6088a1.79822,1.79822,0,0,1,2.4988-.4687,1.81925,1.81925,0,0,1,.6604,2.1344c-6.9873,17.9895-19.2414,35.1794-37.135,46.1621a85.69288,85.69288,0,0,1-61.5155,10.7422,97.24286,97.24286,0,0,1-55.0129-32.4079,103.93506,103.93506,0,0,1-24.2858-58.5492,12.52272,12.52272,0,0,1,24.6887-3.8073Z" />
    <path fill="#102770"
        d="M1801.17246,1031.48518a103.9345,103.9345,0,0,1-24.2859,58.5492,97.24261,97.24261,0,0,1-55.0128,32.4079,85.695,85.695,0,0,1-61.5161-10.7422c-17.8931-10.9827-30.1471-28.1726-37.1344-46.1621a1.797,1.797,0,0,1,1.0242-2.3261,1.821,1.821,0,0,1,2.135.6604c10.7947,15.4425,24.7357,28.1128,40.8319,34.6088a71.76109,71.76109,0,0,0,49.2718,2.0776c15.7819-4.978,29.3787-15.1587,39.5227-27.8302,10.2356-12.7557,16.6272-28.211,20.4157-44.7845l.0604-.2631a12.52174,12.52174,0,0,1,24.6875,3.8043Z" />
    <ellipse cx="1784.616" cy="979.806" fill="#fff" rx="28.829" ry="11.088" />
    <path fill="#102770"
        d="M1784.61726,993.39378c-15.188,0-31.3305-4.7632-31.3305-13.5889s16.1425-13.5864,31.3305-13.5864,31.3282,4.7607,31.3282,13.5864S1799.80526,993.39378,1784.61726,993.39378Zm0-22.1753c-16.0742,0-26.3305,5.0855-26.3305,8.5864,0,3.501,10.2563,8.5889,26.3305,8.5889,16.0718,0,26.3282-5.0879,26.3282-8.5889C1810.94546,976.304,1800.68906,971.21848,1784.61726,971.21848Z" />
    <path fill="#102770"
        d="M1529.02646,2214.717a10.00408,10.00408,0,0,1-9.2334-13.833c52.7466-127.2119,146.0425-230.2563,243.4815-268.9233,49.8364-19.773,96.4648-21.1133,134.8535-3.8672a9.99887,9.99887,0,0,1-8.1934,18.2422c-33.3447-14.978-74.5923-13.523-119.2822,4.2163-92.5903,36.7407-181.6357,135.5981-232.3828,257.9932A10.00758,10.00758,0,0,1,1529.02646,2214.717Z" />
    <path fill="#102770"
        d="M1544.03626,2139.717a10.00941,10.00941,0,0,1-9.5923-12.8418c28.9258-97.7075,102.2876-187.2583,186.897-228.142,52.9931-25.6104,105.3564-29.3384,151.4258-10.7959a10.00108,10.00108,0,1,1-7.4708,18.5546c-40.7031-16.3916-87.4707-12.8393-135.2539,10.2491-78.5424,37.9516-149.4409,124.6801-176.4233,215.813A10.00225,10.00225,0,0,1,1544.03626,2139.717Z" />
    <path fill="#102770"
        d="M3000.76986,1736.49988c0,5.3052-14.5997,9.7468-34.2991,10.9394-1.1926,19.6994-5.6342,34.299-10.9394,34.299-5.3051,0-9.7468-14.5996-10.9393-34.299-19.6995-1.1926-34.2991-5.6342-34.2991-10.9394,0-5.3054,14.5996-9.7468,34.2991-10.9396,1.1925-19.6992,5.6342-34.2988,10.9393-34.2988,5.3052,0,9.7468,14.5996,10.9394,34.2988C2986.17016,1726.75308,3000.76986,1731.19448,3000.76986,1736.49988Z" />
    <path fill="#102770"
        d="M3083.36616,2253.14738c0,6.4337-17.7054,11.8202-41.5955,13.2664-1.4463,23.8901-6.8328,41.5955-13.2665,41.5955s-11.8203-17.7054-13.2665-41.5955c-23.8901-1.4462-41.5955-6.8327-41.5955-13.2664,0-6.4341,17.7054-11.8203,41.5955-13.2668,1.4462-23.8898,6.8328-41.5952,13.2665-41.5952s11.8202,17.7054,13.2665,41.5952C3065.66076,2241.32708,3083.36616,2246.71328,3083.36616,2253.14738Z" />
    <circle cx="3173.835" cy="1870.6" r="29.167" fill="#102770"
        transform="rotate(-76.717 3173.835 1870.6)" />
    <circle cx="3115.501" cy="2050.464" r="14.172" fill="#102770"
        transform="rotate(-22.5 3115.502 2050.464)" />
    <path fill="#102770"
        d="M668.29836,1689.18388c0,5.3051-14.59963,9.7468-34.299,10.9393-1.19263,19.6995-5.63423,34.2991-10.93943,34.2991-5.30509,0-9.74679-14.5996-10.93929-34.2991-19.6995-1.1925-34.2991-5.6342-34.2991-10.9393,0-5.3054,14.5996-9.7468,34.2991-10.9396,1.1925-19.6992,5.6342-34.2988,10.93929-34.2988,5.3052,0,9.7468,14.5996,10.93943,34.2988C653.69873,1679.43708,668.29836,1683.87848,668.29836,1689.18388Z" />
    <path fill="#102770"
        d="M606.31444,2251.11058c0,6.4337-17.7054,11.8202-41.5955,13.2665-1.4462,23.8901-6.8328,41.5955-13.2665,41.5955s-11.8202-17.7054-13.2665-41.5955c-23.89-1.4463-41.5954-6.8328-41.5954-13.2665,0-6.434,17.7054-11.8203,41.5954-13.2668,1.4463-23.8898,6.8328-41.5952,13.2665-41.5952s11.8203,17.7054,13.2665,41.5952C588.609,2239.29028,606.31444,2244.67658,606.31444,2251.11058Z" />
    <circle cx="471.067" cy="1899.084" r="29.167" fill="#102770" />
    <circle cx="311.171" cy="2002.808" r="14.172" fill="#102770" />
    <g opacity=".7">
        <circle cx="831.711" cy="1012.162" r="155.392" fill="#2ecc71"
            transform="rotate(-45 831.711 1012.162)" />
        <path fill="#1297e0"
            d="M935.26646,1117.75158c-32.2715-35.8267,13.9379-77.4506-18.3336-113.2774-32.2714-35.8268-78.4808,5.797-110.7523-30.0298-32.267-35.8218,27.5457-128.1092-18.3246-113.2674-49.43073,15.9937-59.70033,45.3954-59.70033,45.3954,32.26713,35.8219-13.94227,77.4456,18.32473,113.2675,32.2715,35.8268,78.4808-5.797,110.7523,30.0298s-13.9379,77.4505,18.3335,113.2772C905.21516,1152.67238,928.28826,1139.05658,935.26646,1117.75158Z" />
        <path fill="#fff"
            d="M959.65406,923.93208a155.4242,155.4242,0,0,0-227.92683,207.1987,155.40847,155.40847,0,1,1,227.92683-207.1987Z"
            opacity=".55" />
        <path fill="#102770"
            d="M875.56946,1171.06228a7.91947,7.91947,0,0,1-5.8838-2.6172c-18.7305-20.7959-14.6631-43.3985-11.0742-63.3399,3.3691-18.7304,6.2817-34.9072-7.2583-49.9365-13.5401-15.0342-29.9365-13.8184-48.9136-12.4219-20.21,1.4868-43.1103,3.1836-61.84083-17.6123-18.728-20.791-14.6582-43.3886-11.06937-63.3276,3.37157-18.7305,6.28417-34.9072-7.25583-49.9365a7.91358,7.91358,0,0,1-1.5894-7.9078c.47123-1.3525,12.1704-33.3081,64.73643-50.3149,3.6523-1.1841,14.768-4.7729,22.4218,2.063,9.375,8.3667,5.9937,25.0854,1.7139,46.25-4.7363,23.4351-10.6323,52.6025,2.5049,67.1851,13.54,15.0366,29.9414,13.8256,48.9136,12.4218,20.2075-1.4892,43.1079-3.1836,61.8383,17.6123,18.7305,20.7935,14.6631,43.3936,11.0743,63.335-3.3692,18.7305-6.2818,34.9072,7.2607,49.939a7.91954,7.91954,0,0,1,1.6406,7.7612c-9.1577,27.9541-41.2451,42.1484-64.5849,50.3931A7.89259,7.89259,0,0,1,875.56946,1171.06228Zm-57.7661-144.9048c15.5395,0,31.5503,3.1396,45.31,18.4179,18.7305,20.7935,14.6631,43.3936,11.0743,63.335-3.0665,17.0459-5.7544,31.9775,3.9941,45.8569,26.25-9.9218,41.7065-21.0376,48.0127-34.5605-15.0415-19.7119-11.2525-40.7764-7.8833-59.4971,3.3691-18.7305,6.2817-34.9072-7.2583-49.9365-13.5401-15.0342-29.9268-13.8232-48.9136-12.4219-20.2051,1.4868-43.1079,3.1812-61.8408-17.6098-18.4692-20.5054-11.6968-54.0015-6.2549-80.9156,2.2607-11.1816,5.6738-28.0688,3.2153-31.3476-.0171.0146-.2172-.0196-.708-.0171a20.785,20.785,0,0,0-6.2573,1.2451c-34.7583,11.2476-48.33743,28.9966-52.81253,36.748,14.7437,19.6143,10.9766,40.5445,7.627,59.1553-3.3716,18.7305-6.2842,34.9048,7.2534,49.9317,13.53513,15.0341,29.92673,13.8208,48.91113,12.4218C806.63636,1026.56758,812.18806,1026.15748,817.80336,1026.15748Z" />
        <path fill="#102770"
            d="M986.93776,1019.48638a155.4046,155.4046,0,0,1-294.24873,62.1363,155.42458,155.42458,0,0,0,224.03533-199.5911A155.39093,155.39093,0,0,1,986.93776,1019.48638Z"
            opacity=".3" />
        <path fill="#102770"
            d="M831.80476,1181.40648c-2.6831,0-5.3637-.0635-8.0713-.1929-93.21773-4.3969-165.47363-83.8135-161.07423-177.0288,4.397-93.2153,83.8208-165.5322,177.02883-161.0742,93.2178,4.397,165.4737,83.8135,161.0743,177.0288C996.49226,1110.64718,921.485,1181.40648,831.80476,1181.40648Zm-.1733-310.7886c-75.0073,0-137.73193,59.1724-141.30623,134.8706-3.6767,77.9615,56.753,144.3799,134.712,148.0591,77.9419,3.6401,144.3774-56.7554,148.059-134.7119,3.6768-77.9614-56.7529-144.3799-134.7119-148.0591Q834.99331,870.61908,831.63146,870.61788Z" />
    </g>
    <g opacity=".7">
        <circle cx="2805.594" cy="1171.732" r="162.014" fill="#ffa726" />
        <path fill="#fff"
            d="M2965.816,1147.49368a162.03361,162.03361,0,0,0-314.4319,73.9914,162.03829,162.03829,0,1,1,314.4319-73.9914Z"
            opacity=".65" />
        <path fill="#102770"
            d="M2805.68906,1345.64968q-4.1271,0-8.2934-.1978c-95.7886-4.5215-170.0415-86.1304-165.5201-181.9189a173.9117,173.9117,0,1,1,347.4366,16.3989C2974.925,1272.94208,2897.85216,1345.64968,2805.68906,1345.64968Zm-.2637-324.0381a150.12572,150.12572,0,0,0-149.7802,143.0444c-3.9014,82.6807,60.1904,153.1226,142.8735,157.0264a150.11776,150.11776,0,0,0,157.0239-142.8736h0a150.118,150.118,0,0,0-142.8735-157.0263C2810.24966,1021.67018,2807.83016,1021.61158,2805.42536,1021.61158Z" />
        <g opacity=".3">
            <ellipse cx="2758.018" cy="1113.588" fill="#102770" rx="42.23" ry="33.784"
                transform="rotate(-46.461 2758.018 1113.588)" />
            <ellipse cx="2841.41" cy="1251.786" fill="#102770" rx="26.452" ry="21.162"
                transform="rotate(-46.461 2841.41 1251.786)" />
            <ellipse cx="2895.052" cy="1128.596" fill="#102770" rx="16.689" ry="20.861"
                transform="rotate(-18.474 2895.052 1128.596)" />
        </g>
        <path fill="#102770"
            d="M2967.44326,1179.35868a162.03831,162.03831,0,0,1-321.5166,20.0187,162.0456,162.0456,0,0,0,276.788-139.5827A161.45946,161.45946,0,0,1,2967.44326,1179.35868Z"
            opacity=".3" />
        <path fill="#102770"
            d="M2626.08946,1300.02708c-27.8638,0-51.7163-6.2866-59.9902-25.354-14.0869-32.6196,30.1684-72.8857,69.7705-100.9229l16.5625,23.3936c-55.3809,39.2114-62.0532,61.4429-60.0244,66.1426,2.0141,4.6533,22.705,14.9731,88.8379,1.5454,42.1362-8.5181,92.8808-25.1245,142.8979-46.7578,51.0376-22.1045,98.7451-48.3618,134.3286-73.9307,52.8736-38.0493,59.1602-59.5654,57.1924-64.1016-1.9849-4.5751-22.1191-14.7778-86.4014-2.0849l-5.5517-28.125c67.3047-13.2739,107.0776-6.9483,118.2519,18.8013,11.128,25.6665-11.333,58.8989-66.7553,98.7841-37.2095,26.7359-86.8116,54.065-139.6778,76.9629-52.5512,22.732-103.9306,39.5166-148.5913,48.5449C2667.36876,1296.89968,2645.73056,1300.02468,2626.08946,1300.02708Z" />
    </g>
</svg>