<svg xmlns="http://www.w3.org/2000/svg" data-name="Layer 1" viewBox="0 0 3500 3500">
    <path fill="#102770"
        d="M3143.08345,1925.5766c0,5.2001-14.3106,9.5538-33.62,10.7228-1.169,19.3094-5.5227,33.62-10.7228,33.62s-9.5538-14.3106-10.7228-33.62c-19.3094-1.169-33.62-5.5227-33.62-10.7228,0-5.2004,14.3106-9.5539,33.62-10.7231,1.169-19.3092,5.5227-33.6198,10.7228-33.6198s9.5538,14.3106,10.7228,33.6198C3128.77285,1916.0227,3143.08345,1920.3762,3143.08345,1925.5766Z" />
    <path fill="#102770"
        d="M3152.51655,2499.2723c0,6.3063-17.3549,11.5862-40.7721,13.0038-1.4176,23.4172-6.6975,40.772-13.0038,40.772s-11.5862-17.3548-13.0038-40.772c-23.4172-1.4176-40.7721-6.6975-40.7721-13.0038,0-6.3066,17.3549-11.5862,40.7721-13.0042,1.4176-23.4168,6.6975-40.7717,13.0038-40.7717s11.5862,17.3549,13.0038,40.7717C3135.16165,2487.6861,3152.51655,2492.9657,3152.51655,2499.2723Z" />
    <circle cx="3245.195" cy="2077.736" r="28.589" fill="#102770"
        transform="rotate(-76.717 3245.195 2077.736)" />
    <circle cx="3231.303" cy="2299.188" r="13.892" fill="#102770" />
    <path fill="#102770"
        d="M590.165,1812.2404c0,5.2001-14.3106,9.5539-33.6201,10.7228-1.1689,19.3095-5.5226,33.6201-10.7228,33.6201-5.2001,0-9.5538-14.3106-10.7228-33.6201-19.3094-1.1689-33.62-5.5227-33.62-10.7228,0-5.2003,14.3106-9.5538,33.62-10.723,1.169-19.3092,5.5227-33.6198,10.7228-33.6198,5.2002,0,9.5539,14.3106,10.7228,33.6198C575.85435,1802.6866,590.165,1807.0401,590.165,1812.2404Z" />
    <path fill="#102770"
        d="M529.40815,2363.0424c0,6.3064-17.3549,11.5863-40.772,13.0039-1.4177,23.4171-6.6976,40.772-13.0039,40.772s-11.5862-17.3549-13.0038-40.772c-23.4172-1.4176-40.772-6.6975-40.772-13.0039,0-6.3066,17.3548-11.5862,40.772-13.0041,1.4176-23.4168,6.6975-40.7717,13.0038-40.7717s11.5862,17.3549,13.0039,40.7717C512.05325,2351.4562,529.40815,2356.7358,529.40815,2363.0424Z" />
    <circle cx="396.838" cy="2017.985" r="28.589" fill="#102770"
        transform="rotate(-45 396.838 2017.985)" />
    <circle cx="240.108" cy="2119.655" r="13.892" fill="#102770"
        transform="rotate(-80.783 240.108 2119.655)" />
    <path fill="#ff5722"
        d="M2523.85445,2454.5672c-165.066,103.5584-384.4354,217.801-631.2504,324.4962-340.9144,147.4716-656.3438,247.0111-863.1176,279.7008-.49.0981-1.029.1472-1.5193.245a846.47446,846.47446,0,0,1-124.4365-201.0394,834.0415,834.0415,0,0,1-32.2487-85.8167,846.297,846.297,0,0,1-38.9141-254.5096c0-172.6629,51.6566-333.2689,140.3651-467.1646,151.6373-228.8283,411.4888-379.7307,706.5299-379.7307,316.0663,0,591.6992,173.1529,737.2103,429.7699A840.67145,840.67145,0,0,1,2523.85445,2454.5672Z" />
    <path fill="#102770"
        d="M1027.01415,3061.698l-.9302-1.1206a848.76553,848.76553,0,0,1-124.7974-201.6211,840,840,0,0,1-32.3437-86.0693,848.941,848.941,0,0,1-39.0259-255.2442c0-167.5024,48.6792-329.5141,140.7715-468.5156,158.0225-238.4644,422.9102-380.8301,708.5742-380.8301,305.293,0,588.5913,165.1538,739.3408,431.0132a838.28361,838.28361,0,0,1,107.6953,355.0757l.1075,1.4722-1.25.7836c-170.7105,107.1021-395.0098,222.4048-631.5796,324.6705-326.9702,141.4379-649.8511,246.0644-863.7061,279.8706-.1904.0415-.5005.0879-.813.1318Zm652.2485-1388.4985c-284.0161,0-547.3755,141.5454-704.4873,378.6328-91.56,138.1982-139.956,299.2724-139.956,465.8105a844.10508,844.10508,0,0,0,38.7988,253.7744,841.94082,841.94082,0,0,0,155.3393,284.9512l.0391-.0049c213.5815-33.7671,536.0205-138.2641,862.6367-279.5483,235.7715-101.9214,459.3164-216.7871,629.668-323.5401a833.33933,833.33933,0,0,0-106.9605-351.5478C2264.46045,1837.4011,1982.79535,1673.1995,1679.26265,1673.1995Z" />
    <path fill="#fff"
        d="M2500.08435,2338.1853c-195.0112,53.32-434.3537,67.1031-562.5871,9.393,192.5129,14.7745,376.3902,6.8253,547.2532-35.3677Z"
        opacity=".65" />
    <g opacity=".3">
        <path fill="#6b184e"
            d="M1516.99035,1863.0152c-39.5021,45.5793-75.9657,98.0202-108.7044,156.0971,26.6124-55.6754,57.4397-139.0417,59.9393-145.6092C1469.05835,1871.2488,1488.12335,1867.4749,1516.99035,1863.0152Z" />
        <path fill="#102770"
            d="M1410.41985,2020.3162l-4.3457-2.2608c15.8741-33.208,36.7774-83.9111,58.8623-142.771l.9986-2.6538c.769-2.0801,1.6479-4.4629,50.6811-12.0361l6.5992-1.0181-4.3726,5.044C1479.63865,1909.8547,1443.16155,1962.2375,1410.41985,2020.3162Zm59.9244-145.4859-.8179,2.1753c-14.5386,38.7427-28.5693,73.9697-41.0034,103.0322a928.40577,928.40577,0,0,1,82.268-113.5693C1479.12355,1871.5149,1471.919,1873.9075,1470.34425,1874.8303Zm-.2295.1514Zm.4101-.6299-.0097.022A.08458.08458,0,0,1,1470.52485,1874.3518Z" />
    </g>
    <path fill="#ff5722"
        d="M2526.15785,2517.6435a850.22025,850.22025,0,0,1-7.2044,110.6646c-54.2052,415.41-409.4796,736.2304-839.6906,736.2304a843.37481,843.37481,0,0,1-515.8316-175.1622,854.61858,854.61858,0,0,1-135.4641-130.3671c.4903-.0978,1.0293-.1469,1.5193-.245,206.7738-32.6897,522.2032-132.2292,863.1176-279.7008,246.815-106.6952,466.1844-220.9378,631.2504-324.4962Q2526.1334,2485.81115,2526.15785,2517.6435Z" />
    <path fill="#102770"
        d="M1679.26265,3366.9885c-188.9477,0-367.8369-60.747-517.3266-175.6689a858.66932,858.66932,0,0,1-135.8521-130.7422l-2.6367-3.1665,5.5493-1.0474c213.5815-33.7671,536.0205-138.2641,862.6367-279.5483,236.3477-102.1704,460.4126-217.3511,630.9204-324.3237l3.4497-2.1656.2954,4.0625c1.5333,21.0132,2.3096,42.2949,2.3096,63.2544a855.50922,855.50922,0,0,1-7.2265,110.9864C2466.45745,3049.5618,2104.42375,3366.9885,1679.26265,3366.9885Zm-646.6479-306.2427a853.82306,853.82306,0,0,0,132.3095,126.6895c148.6255,114.2578,326.4795,174.6509,514.3384,174.6509,422.7075,0,782.6514-315.5908,837.2608-734.0943a850.8944,850.8944,0,0,0,7.1826-110.3491c0-19.4897-.6739-39.2602-2.0093-58.833-170.2783,106.4893-393.1372,220.9229-628.1201,322.5025C1568.003,2922.1472,1246.482,3026.4807,1032.61475,3060.7458Z" />
    <path fill="#fff"
        d="M1932.66625,2722.3694c-53.2552,189.0985-160.2882,321.7977-322.9694,396.1358l180.118-181.0899Z"
        opacity=".65" />
    <path fill="#102770"
        d="M2526.15785,2517.6435a850.22025,850.22025,0,0,1-7.2044,110.6646c-167.9578,103.1663-369.6834,207.8522-591.6014,303.8629-277.2503,119.8788-542.7381,207.4599-763.9208,257.2053a854.61858,854.61858,0,0,1-135.4641-130.3671c.4903-.0978,1.0293-.1469,1.5193-.245,206.7738-32.6897,522.2032-132.2292,863.1176-279.7008,246.815-106.6952,466.1844-220.9378,631.2504-324.4962Q2526.1334,2485.81115,2526.15785,2517.6435Z"
        opacity=".35" />
    <path fill="#fff"
        d="M1496.49,1757.1039c-342.1463,273.2406-448.2167,765.954-319.8176,1171.3823l-22.5038-218.3302c-2.9906-145.7561,16.2099-287.9037,55.6672-426.7572l52.4592-146.9084,105.5144-208.5568Z"
        opacity=".65" />
    <path fill="#fff"
        d="M2526.15785,2517.6435c0,9.508-.1469,18.9669-.49,28.4258-14.948-454.618-388.2094-818.4692-846.405-818.4692-458.1957,0-831.457,363.8512-846.405,818.4692-.3431-9.4589-.49-18.9178-.49-28.4258,0-467.7527,379.1914-846.8953,846.895-846.8953S2526.15785,2049.8908,2526.15785,2517.6435Z"
        opacity=".65" />
    <path fill="#102770"
        d="M1849.475,1687.853h-59.8412l42.9329,152.6173,72.584,71.849s4.2639,1.0291,11.9094,2.8424Q1891.6973,1806.21265,1849.475,1687.853Zm-285.7781,6.7144-164.3308,180.0141-118.9477,213.5371c46.9518-8.5277,87.6792-16.4673,96.305-19.6531,3.1365-1.1762,7.1553-5.6363,11.6645-12.5465a.048.048,0,0,1,.0487-.0491q9.63105-18.74625,19.8494-36.7576c32.7387-58.0769,69.2023-110.5178,108.7044-156.0971,35.6302-41.1687,73.6621-76.7501,113.6545-105.9112l-9.9492-86.5517Z"
        opacity=".3" />
    <path fill="#102770"
        d="M2516.94385,2392.4714a841.21737,841.21737,0,0,1-53.4208,194.9625c-200.9416,75.9166-411.1951,96.0106-628.849,71.7996q99.613-152.47035,116.7909-353.6079c158.2049,42.6877,366.7429-24.2601,366.7429-200.8925,0,0-11.4682-56.8519-53.8621-90.914a111.17161,111.17161,0,0,0-37.5906-19.9959c-63.9585-19.4572-259.4597-66.6049-309.6951-78.6615-7.6455-1.8133-11.9094-2.8424-11.9094-2.8424l-72.584-71.849-15.3402-15.193s-204.2254,22.7895-300.2361,37.7379c-39.5021,45.5793-75.9657,98.0202-108.7044,156.0971-7.1065,14.899-13.919,27.8377-19.8494,36.7576a.048.048,0,0,0-.0487.0491c-4.5092,6.9102-8.528,11.3703-11.6645,12.5465-8.6258,3.1858-49.3532,11.1254-96.305,19.6531-75.5735,13.7719-167.2225,29.1611-167.2225,29.1611a152.88482,152.88482,0,0,0-3.7248,20.3391c-8.0865,71.1137,41.0214,118.4086,111.1549,141.7862l-42.7857,163.204-26.5144,243.3842,31.4644,267.4483c-180.3572-130.759-307.0976-330.7693-341.2085-560.9701a850.35657,850.35657,0,0,0-9.2139,125.1721c0,467.7036,379.1914,846.895,846.895,846.895s846.895-379.1914,846.895-846.895A850.35653,850.35653,0,0,0,2516.94385,2392.4714Zm-1283.8691,319.9383c-9.8021-36.7085-12.1057-78.0243-9.4589-122.3784l16.3201-5.8813c.0981-1.5681.2941-3.1855.4412-4.8029,9.508-99.4905,27.9359-195.1584,53.9112-284.6509,119.9276,11.9584,260.7339-29.847,300.2361-125.613,15.7811-38.3747,52.0487-64.3501,93.5601-64.3501h5.6854c41.8545,0,80.1805,25.6813,93.9523,65.2325,13.3797,38.3257,38.571,69.2514,70.9666,92.678l-1.1271,10.6842-21.5156,95.4717-38.62,107.4304-48.1767,118.3593-59.6455,77.485-63.7132,90.4728-117.2812,81.0139-54.5483,30.4351c.6371.0981,1.2743.1471,1.9114.2449l-9.557,4.0189,7.6456-4.2638C1318.79335,2857.8227,1255.76645,2797.4422,1233.07475,2712.4097Zm446.1881,401.7359a843.12252,843.12252,0,0,1-382.6221-91.1587q333.39165-102.333,498.8743-309.5482c217.0167,65.8206,431.2891,53.5681,641.7383-68.0748C2298.35885,2923.3001,2011.06145,3114.1456,1679.26285,3114.1456Z"
        opacity=".3" />
    <path fill="#102770"
        d="M2089.13085,2589.9792c-100.6592,0-206.6992-11.1108-315.4492-33.5278a12.25171,12.25171,0,1,1,4.9463-23.999c282.6904,58.2666,546.0961,39.0332,741.6772-54.1528.0659-.0342.1294-.066.1953-.0977a12.25315,12.25315,0,0,1,12.4536,21.0645,15.1513,15.1513,0,0,1-1.665.935c-.1148.0611-.232.1172-.3491.1734C2406.23775,2559.8157,2254.98775,2589.9792,2089.13085,2589.9792Z" />
    <path fill="#102770"
        d="M2021.92865,2690.8435c-115.061,0-219.6216-16.3574-305.7715-36.9946a12.25351,12.25351,0,1,1,5.7081-23.833c199.4409,47.7783,499.6167,72.2363,797.0678-82.5635a12.25305,12.25305,0,1,1,11.3135,21.7383C2354.84615,2660.47,2178.66205,2690.8435,2021.92865,2690.8435Z" />
    <path fill="#102770"
        d="M1133.62055,1983.5315a12.25393,12.25393,0,0,1-10.4736-18.5913c55.0854-91.1255,117.3218-165.791,184.9805-221.9214a12.251,12.251,0,0,1,15.6445,18.8574c-65.5444,54.3799-125.9888,126.9654-179.6533,215.7398A12.24753,12.24753,0,0,1,1133.62055,1983.5315Z" />
    <path fill="#102770"
        d="M1107.51705,3154.6301a12.22965,12.22965,0,0,1-9.5117-4.519c-91.6016-112.5757-146.7188-263.1397-159.3921-435.4175-11.477-155.9961,11.1792-325.0854,65.52-488.9868a12.25305,12.25305,0,1,1,23.2617,7.7099c-90.0903,271.7237-113.8549,651.1695,89.6192,901.2256a12.25334,12.25334,0,0,1-9.4971,19.9878Z" />
    <path fill="#102770"
        d="M1197.09225,2043.6218a12.25881,12.25881,0,0,1-10.8154-17.9931c75.9619-143.313,178.811-259.7705,305.686-346.1402a12.25315,12.25315,0,0,1,13.7891,20.2588c-123.5449,84.1016-223.7476,197.605-297.8247,337.356A12.25111,12.25111,0,0,1,1197.09225,2043.6218Z" />
    <path fill="#102770"
        d="M1277.02875,2105.6189a12.26,12.26,0,0,1-11.2256-17.1484c77.0923-176.9971,185.5909-323.0616,313.7671-422.4073a12.2525,12.2525,0,1,1,15.0098,19.3701c-124.9341,96.8335-230.8545,239.585-306.311,412.8223A12.25246,12.25246,0,0,1,1277.02875,2105.6189Z" />
    <path fill="#102770"
        d="M1155.99365,2623.4802a12.25333,12.25333,0,0,1-1.4893-24.414c120.9522-14.9585,228.4644-84.0186,302.7344-194.458,112.5757-167.3999,134.4775-408.1177,61.6699-677.8052a12.25207,12.25207,0,1,1,23.6572-6.3867c74.6851,276.6455,51.604,524.4873-64.9926,697.8686-78.2911,116.416-191.958,189.2578-320.0611,205.1026A12.31723,12.31723,0,0,1,1155.99365,2623.4802Z" />
    <path fill="#102770"
        d="M1154.70215,2743.9758a12.25481,12.25481,0,0,1-3.4693-24.0063c378.5205-111.9483,597.9151-238.1055,453.2862-1044.4116a12.253,12.253,0,1,1,24.1211-4.3262c69.5971,388.0078,58.164,643.4448-35.979,803.8721-91.7164,156.2963-257.8541,216.1279-434.48,268.3667A12.29128,12.29128,0,0,1,1154.70215,2743.9758Z" />
    <path fill="#102770"
        d="M1164.91945,2869.6814a12.25489,12.25489,0,0,1-3.1275-24.1016c521.5454-138.0468,691.4502-508.8696,534.6973-1167.0044a12.25248,12.25248,0,0,1,23.8379-5.6787c85.8838,360.5835,74.5166,633.8526-34.7461,835.4224-95.376,175.9521-264.6582,294.021-517.5196,360.9521A12.35393,12.35393,0,0,1,1164.91945,2869.6814Z" />
    <path fill="#102770"
        d="M1185.42475,2980.6458a12.25421,12.25421,0,0,1-2.3901-24.2701c259.624-51.8847,448.3179-178.7256,560.8423-376.9946,136.2085-240,149.3066-575.4321,35.0439-897.2803a12.25148,12.25148,0,0,1,23.0908-8.1982c53.4107,150.4394,80.3516,310.8154,77.9078,463.7891-2.7442,171.8041-41.3453,324.4799-114.729,453.7841-116.1939,204.7339-310.4419,335.5884-577.3536,388.9283A12.161,12.161,0,0,1,1185.42475,2980.6458Z" />
    <path fill="#102770"
        d="M2143.62055,2365.2502a1613.80846,1613.80846,0,0,1-297.2876-28.0273,12.25262,12.25262,0,0,1,4.5215-24.0845c222.8076,41.8189,446.2232,36.0352,646.1035-16.7114a12.25159,12.25159,0,1,1,6.2549,23.6914C2389.37255,2350.1672,2268.04925,2365.2502,2143.62055,2365.2502Z" />
    <path fill="#102770"
        d="M1546.09865,2249.6106a12.20449,12.20449,0,0,1-4.5655-.8887c-100.1074-40.2417-191.4648-89.1382-271.5356-145.3296a12.25267,12.25267,0,0,1,14.0771-20.0586c78.5352,55.1148,168.23,103.1104,266.5991,142.6538a12.25435,12.25435,0,0,1-4.5751,23.6231Z" />
    <path fill="#102770"
        d="M1133.63525,1983.5315a12.21221,12.21221,0,0,1-8.8745-3.8037,759.8587,759.8587,0,0,1-49.7657-57.5903,12.25271,12.25271,0,0,1,19.3555-15.0293,736.00258,736.00258,0,0,0,48.1543,55.7202,12.25351,12.25351,0,0,1-8.8696,20.7031Z" />
    <path fill="#102770"
        d="M2106.80665,2483.0432a1631.11251,1631.11251,0,0,1-291.7749-26.4673,12.25381,12.25381,0,1,1,4.3896-24.1113c236.6211,43.0664,477.6514,32.6392,697.0435-30.1587a12.2528,12.2528,0,0,1,6.7431,23.5596C2390.31735,2463.9026,2249.64355,2483.0432,2106.80665,2483.0432Z" />
    <path fill="#102770"
        d="M1501.20355,2366.0583a12.18744,12.18744,0,0,1-4.5532-.8837c-100.6225-40.337-192.0288-88.7915-271.6846-144.021a12.25264,12.25264,0,0,1,13.9649-20.1368c78.1421,54.1822,167.9199,101.7603,266.8359,141.4136a12.25429,12.25429,0,0,1-4.563,23.6279Z" />
    <path fill="#102770"
        d="M1077.08005,2088.8538a12.2234,12.2234,0,0,1-9.1772-4.1309c-25.586-28.8892-46.7896-58.2153-63.0201-87.1606a12.25216,12.25216,0,0,1,21.3721-11.9873c15.3784,27.4243,35.564,55.3173,59.9927,82.9028a12.2536,12.2536,0,0,1-9.1675,20.376Z" />
    <path fill="#102770"
        d="M1446.21575,2452.9041a12.19126,12.19126,0,0,1-4.8657-1.0132c-90.7959-39.3384-173.1299-85.022-244.7192-135.7813a12.25289,12.25289,0,0,1,14.1748-19.9902c70.2051,49.7778,151.0473,94.6216,240.2856,133.2861a12.2547,12.2547,0,0,1-4.8755,23.4986Z" />
    <path fill="#102770"
        d="M1041.20845,2171.5833a12.22282,12.22282,0,0,1-9.4116-4.4019c-28.2544-33.8379-51.5088-68.6548-69.1162-103.4814a12.25263,12.25263,0,1,1,21.8701-11.0547c16.7676,33.1665,38.9941,66.4184,66.0547,98.833a12.25381,12.25381,0,0,1-9.397,20.105Z" />
    <path fill="#102770"
        d="M1015.76655,2241.8176a12.262,12.262,0,0,1-11.6382-16.0937c7.6612-23.2202,16.2964-47.0679,25.6714-70.8814,11.3111-28.7085,23.4961-56.8042,36.2134-83.5107a1197.864,1197.864,0,0,1,57.1387-106.4014,12.25328,12.25328,0,1,1,20.9619,12.6953,1172.29788,1172.29788,0,0,0-55.9692,104.2285c-12.483,26.211-24.4385,53.7842-35.5445,81.9678-9.2041,23.3838-17.6831,46.7945-25.2002,69.5777A12.25522,12.25522,0,0,1,1015.76655,2241.8176Z" />
    <path fill="#102770"
        d="M1093.25925,2322.2913a12.26535,12.26535,0,0,1-11.9312-15.0855c6.0254-25.3711,13.0005-51.0815,20.7374-76.4209,9.5361-31.2695,20.2661-62.0093,31.8896-91.355a1117.90633,1117.90633,0,0,1,52.3242-113.8086,12.25287,12.25287,0,0,1,21.6455,11.4893,1092.6622,1092.6622,0,0,0-51.1792,111.3232c-11.3867,28.7525-21.8969,58.8599-31.2426,89.5044-7.5855,24.8487-14.4263,50.0562-20.3321,74.9268A12.2601,12.2601,0,0,1,1093.25925,2322.2913Z" />
    <path fill="#102770"
        d="M1184.71435,2400.0232a12.2693,12.2693,0,0,1-12.0166-14.707c5.686-27.8443,12.1362-55.5396,19.1699-82.3145,8.3862-32.2192,17.9639-64.4629,28.4619-95.8081,13.4131-40.2905,28.7158-80.2417,45.4736-118.7231a12.25219,12.25219,0,1,1,22.4659,9.7851c-16.4673,37.815-31.5039,77.0777-44.6949,116.6992-10.3271,30.8374-19.7461,62.5391-27.998,94.2456-6.9263,26.3672-13.2715,53.6182-18.8696,81.0181A12.25733,12.25733,0,0,1,1184.71435,2400.0232Z" />
    <path fill="#102770"
        d="M1377.93945,2524.4104a12.1797,12.1797,0,0,1-5.752-1.4429,1394.79317,1394.79317,0,0,1-194.9658-125.4956,12.253,12.253,0,0,1,14.9609-19.4092,1370.32019,1370.32019,0,0,0,191.5284,123.2789,12.2548,12.2548,0,0,1-5.7715,23.0688Z" />
    <path fill="#102770"
        d="M1015.76905,2241.8152a12.2177,12.2177,0,0,1-9.2578-4.2236,930.06462,930.06462,0,0,1-82.544-110.1124,12.25346,12.25346,0,0,1,20.6836-13.1445,905.74781,905.74781,0,0,0,80.3662,107.1973,12.25364,12.25364,0,0,1-9.248,20.2832Z" />
    <path fill="#102770"
        d="M834.40915,2470.9045a12.26,12.26,0,0,1-11.3062-16.9653c40.7398-97.8491,112.6734-185.8765,183.2618-224.2602a12.25208,12.25208,0,1,1,11.7041,21.5283c-65.9717,35.874-133.6231,119.1479-172.3438,212.1509A12.25725,12.25725,0,0,1,834.40915,2470.9045Z" />
    <path fill="#102770"
        d="M845.00975,2676.3977a12.25315,12.25315,0,0,1-12.2461-12.0068c-2.3901-118.7451,75.1709-272.417,140.979-320.4834a12.25292,12.25292,0,1,1,14.4531,19.79c-54.3579,39.6997-133.2861,183.2495-130.9302,300.2002a12.25622,12.25622,0,0,1-12.0043,12.4976C845.17815,2676.3953,845.09275,2676.3977,845.00975,2676.3977Z" />
    <path fill="#102770"
        d="M891.87985,2842.3499a12.25663,12.25663,0,0,1-11.7822-8.9234c-33.3228-117.8833,15.1294-246.936,66.9214-357.6294a12.25337,12.25337,0,0,1,22.1972,10.3858c-49.8803,106.604-96.6723,230.4345-65.5395,340.5786a12.26591,12.26591,0,0,1-11.7969,15.5884Z" />
    <path fill="#102770"
        d="M1965.31735,2355.0037c-.1147,0-.2295-.0025-.3467-.0049a12.25592,12.25592,0,0,1-11.9092-12.5879c3.2642-118.0811-28.3764-212.9956-96.7285-290.1611a12.25351,12.25351,0,0,1,18.3448-16.25c71.6626,80.9057,106.2768,184.2236,102.8808,307.0898A12.255,12.255,0,0,1,1965.31735,2355.0037Z" />
    <path fill="#102770"
        d="M2087.02635,2364.1858a12.25473,12.25473,0,0,1-12.146-10.752c-26.189-212.1289-92.6416-326.6211-222.2046-382.8296a12.252,12.252,0,0,1,9.751-22.4804c138.5718,60.1172,209.3823,180.4321,236.7749,402.3071a12.25656,12.25656,0,0,1-12.1753,13.7549Z" />
    <path fill="#102770"
        d="M2195.20505,2364.1858a12.25352,12.25352,0,0,1-12.1851-11.1231c-20.227-218.4082-150.2465-400.2172-347.8003-486.333a12.25314,12.25314,0,0,1,9.7901-22.4658c205.8667,89.7412,341.3476,279.1016,362.4097,506.5381a12.24981,12.24981,0,0,1-11.0694,13.3301C2195.96435,2364.1687,2195.58345,2364.1858,2195.20505,2364.1858Z" />
    <path fill="#102770"
        d="M2318.19825,2355.0037a12.25123,12.25123,0,0,1-12.2193-11.5503c-16.0351-279.0576-199.9219-491.9751-491.8994-569.5606a12.25186,12.25186,0,1,1,6.294-23.6816c145.6103,38.6914,269.4799,112.5024,358.2177,213.4595,91.0718,103.6132,143.5816,234.4531,151.8506,378.3764a12.25145,12.25145,0,0,1-11.5283,12.9346C2318.67425,2354.9963,2318.43505,2355.0037,2318.19825,2355.0037Z" />
    <path fill="#102770"
        d="M1223.62545,3243.8757a12.22662,12.22662,0,0,1-9.7046-4.7632c-74.7998-96.8164-129.7534-241.1474-154.7388-406.4086-26.1914-173.2569-18.5327-354.9756,22.1485-525.5127a12.25361,12.25361,0,0,1,23.8379,5.6884c-78.7256,330.0098-24.834,713.2471,128.1421,911.2525a12.25389,12.25389,0,0,1-9.6851,19.7436Z" />
    <path fill="#102770"
        d="M1360.49805,3314.6472a12.218,12.218,0,0,1-8.5205-3.4497c-186.7652-180.8081-257.1363-544.2358-179.2798-925.8789a12.25161,12.25161,0,1,1,24.0088,4.8975c-76.2232,373.6474-8.5865,728.2446,172.3169,903.374a12.25345,12.25345,0,0,1-8.5254,21.0571Z" />
    <path fill="#102770"
        d="M1434.729,3340.8826a12.25435,12.25435,0,0,1-4.1479-23.7842c231.8066-83.374,521.0058-346.4209,603.7231-642.3071a12.25167,12.25167,0,0,1,23.5987,6.5966c-38.1861,136.6016-125.1514,280.1392-244.8731,404.1724-114.4409,118.5596-247.3169,208.9771-374.1528,254.5947A12.22706,12.22706,0,0,1,1434.729,3340.8826Z" />
    <path fill="#102770"
        d="M1563.794,3368.927a12.2546,12.2546,0,0,1-5.0049-23.4424c274.3408-122.5268,475.625-351.5698,598.2593-680.7666a12.25274,12.25274,0,1,1,22.9638,8.5547c-61.477,165.0244-142.7563,306.4868-241.582,420.459a1055.29131,1055.29131,0,0,1-369.646,274.126A12.21132,12.21132,0,0,1,1563.794,3368.927Z" />
    <path fill="#102770"
        d="M1697.01655,3370.0671a12.25442,12.25442,0,0,1-2.3315-24.2822c122.1728-23.8183,250.3052-116.7432,360.7934-261.6528,97.378-127.7124,175.9766-290.52,210.2539-435.5127a12.25273,12.25273,0,0,1,23.8477,5.6396c-71.5747,302.7564-317.5781,662.4268-590.2075,715.5786A12.335,12.335,0,0,1,1697.01655,3370.0671Z" />
    <path fill="#102770"
        d="M1654.60205,3089.1516a12.19633,12.19633,0,0,1-7.2657-2.395c-76.5478-56.4966-112.1728-142.1851-112.1142-269.6655a12.25528,12.25528,0,0,1,12.2534-12.2486h.0049a12.25624,12.25624,0,0,1,12.2485,12.2583c-.0561,119.0381,32.4073,198.4571,102.1582,249.939a12.25322,12.25322,0,0,1-7.2851,22.1118Z" />
    <path fill="#102770"
        d="M1554.95115,3169.7839a12.20843,12.20843,0,0,1-7.8565-2.8564c-73.4497-61.4697-113.4497-153.7305-122.2827-282.0557a12.25313,12.25313,0,0,1,24.4483-1.6845c8.3496,121.3208,45.498,207.9834,113.562,264.9462a12.25339,12.25339,0,0,1-7.8711,21.6504Z" />
    <path fill="#102770"
        d="M1463.02485,3221.7249a12.19933,12.19933,0,0,1-8.1421-3.1031c-69.5776-61.9458-107.8466-192.4145-120.459-293.8598a12.25181,12.25181,0,1,1,24.3165-3.0225c15.1586,121.9165,59.2944,231.2671,112.4365,278.5815a12.25336,12.25336,0,0,1-8.1519,21.4039Z" />
    <path fill="#102770"
        d="M2118.23725,3254.2664a12.25319,12.25319,0,0,1-12.2534-12.2535c0-50.2343-33.0347-96.3256-72.1362-100.6518a12.25209,12.25209,0,1,1,2.6953-24.3555c51.8017,5.73,93.9477,61.8067,93.9477,125.0073A12.25319,12.25319,0,0,1,2118.23725,3254.2664Z" />
    <path fill="#102770"
        d="M2204.90235,3193.9246a12.25618,12.25618,0,0,1-11.8506-9.1748c-15.3321-59.0088-45.6958-99.856-98.4522-132.4488a12.25381,12.25381,0,0,1,12.8809-20.8496c58.54,36.1694,92.2461,81.5454,109.2871,147.1362a12.26671,12.26671,0,0,1-11.8652,15.337Z" />
    <path fill="#102770"
        d="M2277.64405,3124.0295a12.25838,12.25838,0,0,1-11.9703-9.6923c-12.8369-60.0196-53.1079-104.0943-123.1176-134.7437a12.252,12.252,0,0,1,9.8291-22.4463c77.7514,34.0381,122.6465,83.7793,137.2534,152.063a12.256,12.256,0,0,1-9.419,14.5459A12.41887,12.41887,0,0,1,2277.64405,3124.0295Z" />
    <path fill="#102770"
        d="M2337.02385,3063.3435a12.25141,12.25141,0,0,1-12.0629-10.1953c-12.1558-71.3574-59.0162-117.8638-143.2642-142.1802a12.25316,12.25316,0,1,1,6.7969-23.5449c92.8833,26.8091,146.9238,81.1841,160.6225,161.6089a12.261,12.261,0,0,1-12.0923,14.3115Z" />
    <path fill="#102770"
        d="M2293.76465,2752.6477c-14.1114,0-28.1446-.3345-41.958-.852a12.25221,12.25221,0,0,1,.913-24.4874c90.7398,3.396,191.3721-1.0815,249.9244-59.978a12.25185,12.25185,0,0,1,17.3779,17.2754C2464.18695,2740.7727,2377.74165,2752.6477,2293.76465,2752.6477Z" />
    <path fill="#102770"
        d="M2343.59615,2841.1389a347.09888,347.09888,0,0,1-121.1352-21.6943,12.25219,12.25219,0,0,1,8.5644-22.959c76.7871,28.6377,167.1094,26.1206,241.5967-6.7285a12.25263,12.25263,0,0,1,9.8877,22.4219A344.868,344.868,0,0,1,2343.59615,2841.1389Z" />
    <path fill="#102770"
        d="M1321.19385,3271.759a12.2549,12.2549,0,0,1-2.7515-24.1943c251.2109-58.0835,486.5894-278.96,614.2847-576.4307a12.25355,12.25355,0,0,1,22.5195,9.668c-130.7178,304.5093-372.6099,530.8276-631.2817,590.6397A12.30069,12.30069,0,0,1,1321.19385,3271.759Z" />
    <path fill="#102770"
        d="M1754.57275,2980.6238a12.1881,12.1881,0,0,1-7.2339-2.3731c-42.6416-31.2597-103.5059-38.4106-180.8984-21.2451a12.25373,12.25373,0,0,1-5.3077-23.9258c84.585-18.7597,152.1094-10.2173,200.6934,25.4102a12.25305,12.25305,0,0,1-7.2534,22.1338Z" />
    <g opacity=".3">
        <path fill="#6b184e"
            d="M1455.97265,2874.2409l-9.557,4.0189,7.6456-4.2638C1454.69835,2874.0941,1455.33555,2874.1431,1455.97265,2874.2409Z" />
        <polygon fill="#102770"
            points="1447.366 2880.519 1445.222 2876.119 1453.601 2871.446 1464.924 2873.136 1447.366 2880.519" />
    </g>
    <path fill="#102770"
        d="M1679.26515,3379.22c-475.0855,0-861.5943-386.5088-861.5943-861.5943,0-475.083,386.5088-861.5918,861.5943-861.5918,475.083,0,861.5918,386.5088,861.5918,861.5918C2540.857,2992.7112,2154.34815,3379.22,1679.26515,3379.22Zm0-1693.7818c-458.8697,0-832.19,373.3179-832.19,832.1875,0,458.8697,373.3203,832.19,832.19,832.19,458.8696,0,832.1875-373.3203,832.1875-832.19C2511.45265,2058.7561,2138.13475,1685.4382,1679.26515,1685.4382Z" />
    <g opacity=".3">
        <path fill="#6b184e"
            d="M1240.37715,2579.3471h12.8407l-13.2819,4.8029C1240.03405,2582.5819,1240.23,2580.9645,1240.37715,2579.3471Z" />
        <path fill="#102770"
            d="M1237.25825,2587.7234l.232-3.7256c.0683-1.0742.1782-2.1704.2905-3.2764l.3613-3.8256h29.0601Z" />
    </g>
    <g opacity=".3">
        <path fill="#6b184e"
            d="M1455.97265,2874.2409l-9.557,4.0189,7.6456-4.2638C1454.69835,2874.0941,1455.33555,2874.1431,1455.97265,2874.2409Z" />
        <polygon fill="#102770"
            points="1447.366 2880.519 1445.222 2876.119 1453.601 2871.446 1464.924 2873.136 1447.366 2880.519" />
    </g>
    <path fill="#ffc107"
        d="M2426.42405,2120.5371c214.7182-31.6065,358.0582-22.9638,376.7907,33.3153,18.773,56.381-91.2376,149.558-282.7997,253.3726-178.4976,96.6829-427.8012,202.6233-709.7105,296.5367-352.3808,117.4661-675.2305,189.3813-884.0553,204.0842-137.5042,9.7209-225.579-5.3946-239.98-48.6552-14.3649-43.1099,46.5335-107.7335,161.6051-182.122-7.0208-34.6019-11.8525-64.7682-11.8739-93.9574-251.7501,147.1987-395.2267,289.324-363.5994,384.1089,32.5578,97.6696,243.8697,124.0627,547.8953,85.9839,229.9186-28.7633,512.7707-94.4068,811.3984-193.9051,264.8938-88.3051,503.932-190.4622,694.9554-292.6017,309.1544-165.2927,492.7054-330.4583,457.3796-436.485-34.3424-103.1865-268.1793-126.8104-600.0079-78.9918Z" />
    <path fill="#102770"
        d="M648.67655,2813.9826c-14.3651-43.11,46.5335-107.7337,161.6049-182.1222q-3.15915-15.4749-5.6261-29.8569,15.5754-9.42255,31.7451-18.8922c.0281,29.1744,4.8393,59.354,11.874,93.9571-104.8048,67.7523-164.6812,127.3978-163.6566,170.0393C665.55275,2838.9115,653.27365,2827.9096,648.67655,2813.9826Z"
        opacity=".3" />
    <path fill="#102770"
        d="M2426.42405,2120.5372l-28.2769-46.6287c209.3075-29.911,348.612-20.6837,367.0749,34.7357a40.61681,40.61681,0,0,1,2.0469,12.1317C2709.224,2095.7694,2588.07455,2096.7254,2426.42405,2120.5372Z"
        opacity=".3" />
    <path fill="#102770"
        d="M2527.05015,2566.6972c-191.0235,102.1396-430.0617,204.2966-694.9553,292.6017-298.6278,99.4983-581.48,165.1418-811.3985,193.9052-299.4001,37.4959-508.8645,12.4928-546.2617-81.5624,80.1553,55.9483,264.3716,66.9061,508.2687,36.3542,229.9189-28.7634,512.7708-94.4067,811.3986-193.9053,264.8936-88.305,503.9321-190.462,694.9552-292.6016,309.1545-165.2926,492.7056-330.4582,457.3798-436.4848-.512-1.4713-1.0197-2.9911-1.6337-4.4216,19.7629,13.7665,33.1834,30.3278,39.6266,49.6295C3019.75565,2236.2391,2836.20455,2401.4047,2527.05015,2566.6972Z"
        opacity=".3" />
    <path fill="#fff"
        d="M477.44425,2978.3471a82.072,82.072,0,0,1-4.6433-11.1269c-31.6272-94.785,111.8493-236.9103,363.5995-384.1089a319.45042,319.45042,0,0,0,2.448,38.1407C610.704,2755.4937,473.26385,2885.3028,477.44425,2978.3471Z"
        opacity=".65" />
    <path fill="#fff"
        d="M2812.09435,2188.1726c18.7729,56.3811-91.2378,149.558-282.7999,253.3729-178.4976,96.6829-427.8012,202.6231-709.7103,296.5366-352.3808,117.4659-675.2307,189.3811-884.0556,204.0842-137.504,9.7207-225.5787-5.3945-239.9797-48.6553a43.76127,43.76127,0,0,1-1.4231-21.0309c26.9999,32.9896,110.1677,43.9897,232.5235,35.3658,208.8249-14.7028,531.6744-86.6181,884.0552-204.0843,281.9095-93.9134,531.213-199.8537,709.7107-296.5366,169.364-91.7686,274.991-175.241,284.2227-232.3419A41.371,41.371,0,0,1,2812.09435,2188.1726Z"
        opacity=".65" />
    <path fill="#fff"
        d="M2988.62555,2153.3039c-46.7268-92.5526-270.6787-113.302-584.3662-69.3217l-19.8376-32.7618c331.8289-47.8186,565.6656-24.1948,600.0081,78.9917A84.16539,84.16539,0,0,1,2988.62555,2153.3039Z"
        opacity=".65" />
    <path fill="#102770"
        d="M779.45065,3084.6228c-148.8159,0-291.1719-24.4775-320.5981-112.7515-44.9512-134.7192,212.6025-309.3481,370.1269-401.4526a14.70222,14.70222,0,0,1,22.124,12.6831c.022,29.9634,5.5786,61.4649,11.5796,91.0425a14.70224,14.70224,0,0,1-6.4282,15.2734c-108.5303,70.1587-166.7114,131.8872-155.6372,165.1245,4.1675,12.5049,32.6831,52.229,224.9951,38.6377,214.6289-15.1123,543.7647-91.1352,880.4443-203.3667,270.9791-90.2734,522.19-195.2221,707.356-295.5175,221.333-119.9488,287.6196-200.4541,275.8521-235.7984-11.7383-35.2612-112.6587-59.9292-360.7007-23.4131a14.70723,14.70723,0,0,1-14.7168-6.9262l-42.002-69.3189a14.70478,14.70478,0,0,1,10.4785-22.1728c167.2437-24.0967,310.9082-30.0367,415.4541-17.1705,114.3702,14.0748,181.8604,49.7632,200.6006,106.0718,36.9873,111.0108-132.2778,276.5235-464.3969,454.0967-198.711,106.25-439.8121,207.7686-697.2364,293.5815-287.229,95.7032-576.3916,164.7925-814.2236,194.5484C952.89055,3076.5149,865.10005,3084.6228,779.45065,3084.6228Zm43.3228-476.3696c-237.5806,142.1484-362.8614,273.8818-336.0254,354.3139,28.5913,85.774,227.5195,114.1993,532.1215,76.0474,235.9717-29.5215,523.1299-98.1567,808.5767-193.2666,255.8765-85.2954,495.398-186.1353,692.6709-291.6162,308.8599-165.1343,481.4282-325.6372,450.3613-418.8721-29.3432-88.1763-243.8452-115.4541-561.9189-72.1753l25.3906,41.9043c162.7417-23.2617,357.2315-33.4521,383.2153,44.6192,26.5577,79.7631-142.9052,191.3672-289.746,270.9448-186.6285,101.0864-439.5118,206.7602-712.0679,297.5586-338.8819,112.9663-670.7227,189.5263-887.6685,204.7998-152.6318,10.8008-238.4106-8.9478-254.9634-58.6768-16.1499-48.4643,37.4024-113.5962,159.1895-193.6499C827.97845,2650.0574,824.46775,2629.1614,822.77345,2608.2532Z" />
    <path fill="#fff"
        d="M2223.77925,2347.6355c-103.6481,9.7466-248.4549-15.5945-315.9017-56.1963a61.13682,61.13682,0,0,1-29.2399-58.3682c9.6355-97.2434,6.5166-185.687-16.4855-260.3738h-339.3491c-23.002,74.6868-26.1209,163.1304-16.4858,260.3738a61.034,61.034,0,0,1-29.2398,58.3682c-67.3908,40.6018-212.2533,65.9429-315.9015,56.1963-85.9375-8.0758-151.9916-83.1525-142.5792-168.9228a144.12262,144.12262,0,0,1,9.524-38.5965c19.549-49.1787,65.1631-83.8208,123.9769-89.1119-24.2275-95.3497-13.1996-211.6965,35.3662-285.1581-185.9655-80.7576-196.9372-402.0616,55.4722-599.7786q12.44775-9.7743,25.7868-19.1033c10.4149,6.6277,21.4982,13.0327,33.0828,19.1033,200.0003,105.4304,562.6856,130.0478,791.6474,0q15.95685-9.0222,31.0221-19.1033c282.0392,197.6055,273.1281,543.4154,74.5198,621.7224,49.4014,73.4059,58.3128,186.2996,33.8626,282.3176,73.4059,6.572,126.0934,58.7581,133.6121,127.7084C2375.77055,2264.483,2309.71655,2339.5597,2223.77925,2347.6355Z" />
    <path fill="#102770"
        d="M1208.00775,2361.9543c-16.6113,0-32.7124-.6835-47.9785-2.1191a173.70586,173.70586,0,0,1-117.7612-62.6172c-27.8491-34.1675-40.5835-76.7261-35.8521-119.8413a156.42528,156.42528,0,0,1,10.337-41.8359c20.1928-50.791,64.5922-85.5469,120.3076-94.9439-20.5249-94.4189-7.7222-199.1943,32.7881-269.5263-70.5396-36.0987-117.2242-107.8028-128.9039-198.9795-14.8217-115.708,28.4742-285.6665,194.4361-415.669,8.3691-6.5698,17.2265-13.1323,26.3159-19.4946l6.7017-4.6924,6.9043,4.3921c10.1342,6.4502,20.9643,12.7051,32.1923,18.5889,195.4444,103.0297,555.4566,127.688,779.9048.1977,10.6177-6.0034,20.7837-12.2632,30.2393-18.6181l6.98-4.6924,6.8872,4.8266c185.3711,129.8755,235.7837,308.274,221.1499,431.9214-11.3599,95.9937-60.5176,170.0195-135.7154,205.4248,40.2295,69.104,52.0996,170.5664,30.979,266.3233,71.1499,12.019,122.9541,65.4907,130.73,136.7846,4.6802,43.1446-8.1006,85.7178-35.9863,119.8828a173.79537,173.79537,0,0,1-117.7368,62.5684h0c-106.4917,10.022-254.5947-16.4966-323.3667-57.8979a73.69537,73.69537,0,0,1-35.1172-70.0538c9.8437-99.3359,5.4492-180.2417-13.4448-246.9335H1531.958c-18.894,66.6918-23.2885,147.5952-13.4472,246.9116a73.5556,73.5556,0,0,1-35.1245,70.0805C1424.51905,2337.4084,1307.37055,2361.9519,1208.00775,2361.9543Zm61.1597-1200.2783c-6.416,4.6216-12.6685,9.3213-18.6645,14.0283-157.8882,123.6792-199.2188,284.2432-185.2515,393.2715,11.2427,87.7808,57.5659,155.4395,127.0923,185.6324l13.3935,5.8154-8.0517,12.1802c-44.7998,67.7636-58.3472,178.4326-33.7134,275.3833l3.54,13.9331-14.3164,1.2866c-52.8076,4.751-95.3076,35.1929-113.6889,81.4355a132.06154,132.06154,0,0,0-8.7281,35.3687c-4.0112,36.5747,6.814,72.688,30.4834,101.7236a149.04308,149.04308,0,0,0,101.062,53.7012c102.2095,9.6289,243.4522-15.3442,308.4302-54.4922a48.9525,48.9525,0,0,0,23.3716-46.6577c-10.5981-106.9629-5.0488-193.7061,16.9678-265.1953l2.6611-8.6475h357.4463l2.6611,8.6475c22.0166,71.4892,27.5659,158.2324,16.9678,265.188a49.08337,49.08337,0,0,0,23.3569,46.6577c65.0415,39.1553,206.2915,64.1186,308.4449,54.4995h0a149.119,149.119,0,0,0,101.0473-53.6646c23.7036-29.0429,34.5752-65.1733,30.6104-101.7382-6.9727-63.9356-56.2134-110.8887-122.5269-116.8238l-14.331-1.2842,3.5522-13.9428c25.2149-99.0186,12.5928-205.9644-32.1558-272.4536l-8.5107-12.6465,14.1821-5.5933c74.1162-29.2212,122.8931-98.9551,133.8233-191.3183,13.6206-115.1123-33.1128-280.9473-204.1114-404.1626-7.8979,5.0927-16.1865,10.0952-24.729,14.9267-107.9907,61.333-254.7021,93.2178-412.9736,89.8877-145.8594-3.1103-288.1592-35.8105-390.415-89.7143C1286.83105,1172.052,1277.80025,1166.9446,1269.16745,1161.676Z" />
    <path fill="#ee346a"
        d="M2246.26105,1858.1889s-122.5253-98.0203-377.378,107.8223l9.802,49.0101s267.1052-208.293,374.9275-100.4708Z" />
    <path fill="#ee346a"
        d="M1145.98365,1858.1889s122.5253-98.0203,377.378,107.8223l-9.8021,49.0101s-267.1052-208.293-374.9274-100.4708Z" />
    <path fill="#ee346a"
        d="M1272.97515,1560.7151l-35.694,22.5727s-56.4513,167.0788,26.8659,196.4849h44.1091S1237.69425,1645.5203,1272.97515,1560.7151Z" />
    <path fill="#ee346a"
        d="M2122.25905,1560.7151l35.6941,22.5727s56.4513,167.0788-26.8659,196.4849h-44.1091S2157.54005,1645.5203,2122.25905,1560.7151Z" />
    <path fill="#fff"
        d="M1726.09875,169.5801c-112.914,0-218.0936,34.2884-306.3419,93.4249,13.3378,31.3043-26.493,78.8695-62.8519,48.7834-120.2224,107.5545-196.2902,266.694-196.2902,444.2872,0,115.8982,38.0034,221.2606,104.3874,294.9531q-3.3801-2.10105-6.7601-4.2023a8.873,8.873,0,0,0-2.4969-.9743c-1.5225-.6093-3.1061-1.2182-4.6287-1.7055-84.9597-73.449-134.6563-192.0878-134.6563-324.6127,0-323.943,253.1127-586.4956,565.4229-586.4956,143.4265,0,274.3073,55.3606,374.0054,146.5931C1963.07205,210.3848,1849.18375,169.5801,1726.09875,169.5801Z"
        opacity=".65" />
    <path fill="#ffa726"
        d="M1692.40975,1164.2264c-404.7885-15.4333-601.7226-252.1694-394.229-537.3266-88.4487-230.1474,40.4339-261.3752,238.0447-141.2924,83.6203-33.3037,222.0698-33.2134,313.7678.9026,184.0275-110.8318,327.08-124.3699,236.6005,140.3898C2307.89625,930.9201,2009.29125,1176.2752,1692.40975,1164.2264Z" />
    <path fill="#102770"
        d="M1270.48675,858.382a100.94889,100.94889,0,0,1,22.0971-5.3736,164.29455,164.29455,0,0,1,22.0972-1.4819,161.50607,161.50607,0,0,1,22.0972,1.463,99.665,99.665,0,0,1,22.0971,5.3925,99.63886,99.63886,0,0,1-22.0971,5.393,161.49021,161.49021,0,0,1-22.0972,1.463,164.37668,164.37668,0,0,1-22.0972-1.4819A100.91631,100.91631,0,0,1,1270.48675,858.382Z" />
    <path fill="#102770"
        d="M1261.77305,858.382a126.21672,126.21672,0,0,1,24.9397-5.3736,208.9312,208.9312,0,0,1,24.9399-1.4819,205.38662,205.38662,0,0,1,24.9397,1.463,124.59353,124.59353,0,0,1,24.9399,5.3925,124.56038,124.56038,0,0,1-24.9399,5.393,205.36643,205.36643,0,0,1-24.9397,1.463,209.03569,209.03569,0,0,1-24.9399-1.4819A126.17554,126.17554,0,0,1,1261.77305,858.382Z" />
    <path fill="#102770"
        d="M1270.392,935.2911a117.88931,117.88931,0,0,1,21.0687-12.7716,194.3236,194.3236,0,0,1,22.3119-9.0838,190.9512,190.9512,0,0,1,23.2524-6.2921,116.40152,116.40152,0,0,1,24.5073-2.569,116.40663,116.40663,0,0,1-21.0628,12.7893,190.8569,190.8569,0,0,1-22.3176,9.0655,194.338,194.338,0,0,1-23.2585,6.2751A117.91685,117.91685,0,0,1,1270.392,935.2911Z" />
    <path fill="#102770"
        d="M2107.20505,858.382a100.91852,100.91852,0,0,1-22.0972,5.3741,164.37448,164.37448,0,0,1-22.0972,1.4819,161.48876,161.48876,0,0,1-22.0971-1.463,99.63834,99.63834,0,0,1-22.0972-5.393,99.6645,99.6645,0,0,1,22.0972-5.3925,161.50462,161.50462,0,0,1,22.0971-1.463,164.29235,164.29235,0,0,1,22.0972,1.4819A100.9511,100.9511,0,0,1,2107.20505,858.382Z" />
    <path fill="#102770"
        d="M2115.91875,858.382a126.1719,126.1719,0,0,1-24.9398,5.3741,209.03569,209.03569,0,0,1-24.9399,1.4819,205.37116,205.37116,0,0,1-24.9397-1.463,124.56038,124.56038,0,0,1-24.9399-5.393,124.59353,124.59353,0,0,1,24.9399-5.3925,205.39135,205.39135,0,0,1,24.9397-1.463,208.9312,208.9312,0,0,1,24.9399,1.4819A126.21309,126.21309,0,0,1,2115.91875,858.382Z" />
    <path fill="#102770"
        d="M2107.29975,935.2911a117.91806,117.91806,0,0,1-24.5013-2.5866,194.33135,194.33135,0,0,1-23.2584-6.2751,190.83571,190.83571,0,0,1-22.3176-9.0655,116.40814,116.40814,0,0,1-21.063-12.7893,116.40082,116.40082,0,0,1,24.5073,2.569,190.95919,190.95919,0,0,1,23.2526,6.2921,194.31331,194.31331,0,0,1,22.3117,9.0838A117.88226,117.88226,0,0,1,2107.29975,935.2911Z" />
    <path fill="#102770"
        d="M1692.37875,1164.2326c-314.7601-12.0246-503.8528-157.8786-474.7569-356.2544,24.4231,158.0029,202.6129,268.4055,474.7569,278.7482,224.9798,8.598,440.6764-112.5211,467.7165-292.2685C2192.30635,1015.762,1948.32345,1173.952,1692.37875,1164.2326Z"
        opacity=".3" />
    <path fill="#fff"
        d="M1837.37855,508.6446c-87.4631-28.3594-210.1443-28.3778-290.5277-.4356a25.2207,25.2207,0,0,1-21.037-2.2863c-142.8449-83.9706-247.453-86.4137-255.4826,11.3446-9.3456-126.9133,105.7298-129.0314,265.9136-31.6506,83.6119-33.3325,222.0513-33.2078,313.7631.8724,150.0906-90.4033,272.954-116.0725,263.9822,21.3078-8.1716-103.8717-117.9068-80.304-252.1292-1.8024A30.10881,30.10881,0,0,1,1837.37855,508.6446Z"
        opacity=".65" />
    <path fill="#102770"
        d="M1891.37345,521.7654c-15.2773-10.0863-31.8351-17.1514-48.7806-23.5733a14.11681,14.11681,0,1,1,14.6804-23.4832l.1199.119c13.8262,13.1457,27.3682,27.2146,37.9083,43.0429a2.81879,2.81879,0,0,1-3.8971,3.916Z" />
    <path fill="#fff"
        d="M1937.63725,550.2672c33.9497,16.3286,63.7816,35.2398,86.417,58.6651,19.0319,9.7533,32.6668.9299,36.6036-41.2765l-16.3548,22.5852-83.3895-54.002Z"
        opacity=".65" />
    <path fill="#fff"
        d="M1451.728,550.2672c-33.9497,16.3286-63.7816,35.2398-86.417,58.6651-19.0319,9.7533-32.6668.9299-36.6036-41.2765l16.3548,22.5852,83.3894-54.002Z"
        opacity=".65" />
    <path fill="#102770"
        d="M1542.90815,497.7142a199.28364,199.28364,0,0,0-24.7009,9.1889,113.68492,113.68492,0,0,0-22.9056,13.3587l-.0624.0486a2.81413,2.81413,0,0,1-4.1896-3.5865,124.21857,124.21857,0,0,1,17.3036-23.1729,221.15661,221.15661,0,0,1,21.1896-20.0503l.2389-.1993a14.14422,14.14422,0,1,1,18.105,21.7358A14.43647,14.43647,0,0,1,1542.90815,497.7142Z" />
    <path fill="#102770"
        d="M1714.57765,1176.9006q-11.29035,0-22.6343-.4297h0c-232.0972-8.8501-401.3184-88.33-464.2774-218.0639-47.2339-97.3267-27.0654-215.4883,56.7261-333.3203-46.3891-124.3238-23.7964-177.7539,3.6621-200.6861,45.7715-38.2251,134.2041-21.2915,249.3701,47.6197,85.4346-31.6748,219.2994-31.2696,311.2622.9912,121.7994-72.5318,205.4248-91.6431,248.5865-56.8091,38.4741,31.0474,39.4482,99.3408,2.9443,208.6572,81.8872,115.354,97.0972,234.7095,42.7319,336.687C2074.331,1090.2576,1900.36125,1176.9006,1714.57765,1176.9006Zm-21.7017-24.917c185.0854,7.0826,361.2988-76.0131,428.4497-201.9653,51.2524-96.1401,35.8179-205.3784-44.6362-315.9058A12.24757,12.24757,0,0,1,2075,622.9382c33.8599-99.082,36.2403-163.9746,6.8848-187.666-33.4253-26.9702-115.6397-4.4726-225.5713,61.7334a12.22357,12.22357,0,0,1-10.5933.9888c-89.143-33.169-223.0981-33.606-304.9609-1.0059a12.23018,12.23018,0,0,1-10.896-.9106c-104.895-63.7451-189.4238-83.4986-226.0986-52.8711-30.7813,25.708-28.7012,89.3848,5.8545,179.2993a12.25536,12.25536,0,0,1-1.5308,11.604c-82.6392,113.5693-102.8247,222.0093-58.3765,313.5986,58.0127,119.5411,223.6817,195.9058,443.1641,204.2749Z" />
    <path fill="#102770"
        d="M1933.45085,559.4223a47.97486,47.97486,0,0,1,.8664-18.3008,50.49588,50.49588,0,0,1,2.9773-9.252,25.903,25.903,0,0,1,7.2149-9.9664l.0228-.0196a6.57257,6.57257,0,0,1,4.5832-1.5856l1.5033.0689.0447.0022a10.96518,10.96518,0,0,1-1.0054,21.9073l-.0447-.0021,6.0847-1.5158-.0027-.0022c-.4224-.6338-2.5185.2359-4.2322,1.449a34.10173,34.10173,0,0,0-5.3351,4.707,39.97212,39.97212,0,0,0-8.2957,12.7112l-.0786.2091a2.23928,2.23928,0,0,1-4.3029-.4102Z" />
    <path fill="#102770"
        d="M2073.64955,469.3216c-6.7322.8191-13.2551,2.1579-18.7706,4.6146a41.32073,41.32073,0,0,0-7.615,4.403c-2.3638,1.6468-4.4222,3.729-6.6178,5.5823a11.10872,11.10872,0,1,1-11.6855-18.6395l.4551-.1972a55.38443,55.38443,0,0,1,11.4547-3.2983,57.13793,57.13793,0,0,1,11.7847-.9546,75.7059,75.7059,0,0,1,21.4267,4.1251,2.24329,2.24329,0,0,1,1.4493,2.8222A2.27087,2.27087,0,0,1,2073.64955,469.3216Z" />
    <path fill="#fa5c98"
        d="M2038.33385,587.5908c-24.3197-26.2331-53.2551-40.4808-88.1732-56.2682,22.2025-29.0222,50.9994-49.1584,84.8704-56.8195C2066.90625,489.654,2059.79435,545.2083,2038.33385,587.5908Z" />
    <path fill="#102770"
        d="M2039.01855,592.4622l-2.7442-2.959c-23.894-25.774-52.4389-39.8706-87.2705-55.6201l-3.2251-1.4576,2.1509-2.81c23.1738-30.293,53.0786-50.2979,86.4819-57.854l.9473-.2149.8789.4175c9.3921,4.4653,16.0596,12.3071,19.8193,23.3106,7.8736,23.0493,1.9019,59.7827-15.2148,93.5864Zm-84.4458-62.2266c32.6294,14.8364,59.7851,28.6084,83.0249,52.4976,15.1074-31.482,20.2759-64.751,13.1396-85.6397-3.1323-9.1699-8.5302-15.769-16.0522-19.6265C2004.00385,484.6521,1976.38665,502.8528,1954.57275,530.2356Z" />
    <path fill="#102770"
        d="M2055.48485,534.9679c-2.492-13.5202-8.9718-24.2363-20.4356-29.7191-24.6725,5.5451-46.6037,17.7565-65.2325,35.2015q-9.4392-4.5792-19.6255-9.1585c22.1802-28.9715,50.9646-49.158,84.858-56.7589C2054.42575,483.7538,2059.34765,507.9278,2055.48485,534.9679Z"
        opacity=".3" />
    <path fill="#102770"
        d="M1432.89445,529.1321l-.353-8.6664a1.693,1.693,0,0,1,2.7797-1.3657l3.3023,2.7835a25.88449,25.88449,0,0,1,7.2316,9.9723,50.46063,50.46063,0,0,1,2.9814,9.2569,47.98337,47.98337,0,0,1,.8683,18.3096,2.23939,2.23939,0,0,1-4.3018.4138l-.0796-.2127a39.97885,39.97885,0,0,0-8.3005-12.7164,34.059,34.059,0,0,0-5.3382-4.707c-1.714-1.2125-3.8116-2.0798-4.2271-1.4416l6.0802,1.4172-.4422-8.6621Z" />
    <path fill="#102770"
        d="M1343.42055,484.408c-2.3572-1.6462-4.6369-3.5563-7.1849-5.058a55.47894,55.47894,0,0,0-8.0548-4.1013,73.18672,73.18672,0,0,0-18.6748-4.685,2.24495,2.24495,0,0,1-1.9701-2.4891,2.28048,2.28048,0,0,1,1.5378-1.8759,82.35658,82.35658,0,0,1,21.0568-4.0979,71.29874,71.29874,0,0,1,11.3515.2982,58.4691,58.4691,0,0,1,11.3467,2.1994l.4451.1471a11.11343,11.11343,0,1,1-6.9795,21.1026A11.46289,11.46289,0,0,1,1343.42055,484.408Z" />
    <path fill="#fa5c98"
        d="M1344.82175,587.5908c24.3198-26.2331,53.2551-40.4808,88.1733-56.2682-22.2025-29.0222-50.9994-49.1584-84.8704-56.8195C1316.24935,489.654,1323.36135,545.2083,1344.82175,587.5908Z" />
    <path fill="#102770"
        d="M1344.13815,592.4622l-1.8237-3.6011c-17.1167-33.8037-23.0884-70.5371-15.2149-93.5864,3.7598-11.0035,10.4273-18.8453,19.8194-23.3106l.8764-.4175.9497.2149c33.4034,7.5561,63.3081,27.561,86.482,57.854l2.1509,2.81-3.2251,1.4576c-34.8316,15.7495-63.3765,29.8461-87.2706,55.6201Zm4.3335-114.9952c-7.522,3.8575-12.9199,10.4566-16.0522,19.6265-7.1363,20.8887-1.9678,54.1577,13.1396,85.6397,23.2373-23.8916,50.3931-37.6612,83.0249-52.4976C1406.77,502.8528,1379.15525,484.6521,1348.47165,477.467Z" />
    <path fill="#102770"
        d="M1431.64235,534.407c-5.9189,2.679-11.7132,5.3581-17.3207,8.0371-19.1894-18.5041-41.9305-31.4635-67.5373-37.2577-11.9623,5.6695-18.3798,16.9469-20.685,31.152-3.489-26.3545,1.6823-49.6561,20.685-58.6903C1380.61535,485.249,1409.39975,505.4355,1431.64235,534.407Z"
        opacity=".3" />
    <path fill="#102770"
        d="M2038.335,598.5559a10.96877,10.96877,0,0,1-8.042-3.5083c-22.8565-24.6558-50.6665-38.3691-84.6484-53.7353a10.96121,10.96121,0,0,1-4.1919-16.6529c24.3481-31.8286,55.8715-52.8686,91.1596-60.852a10.91885,10.91885,0,0,1,7.1265.7934c11.2915,5.3662,19.602,15.0611,24.0356,28.0396,10.3736,30.3711-1.2866,71.521-15.6567,99.9048a10.9489,10.9489,0,0,1-9.7827,6.0107Zm-70.5933-71.2353c25.3662,11.8481,47.4292,23.7695,67.0923,41.4477,10.4785-26.0864,13.811-52.5708,8.186-69.0381-2.0825-6.101-5.2417-10.5664-9.5996-13.5473C2008.84765,492.6257,1986.41355,506.7029,1967.74165,527.3206Z" />
    <path fill="#102770"
        d="M1344.82175,598.5559a10.9489,10.9489,0,0,1-9.7827-6.0107c-14.3726-28.3838-26.0303-69.5337-15.6568-99.9048,4.4336-12.9785,12.7442-22.6734,24.0357-28.0396a10.92055,10.92055,0,0,1,7.1265-.7934c35.288,7.9834,66.8115,29.0259,91.1596,60.852a10.96121,10.96121,0,0,1-4.1919,16.6529c-33.9819,15.3662-61.7944,29.0795-84.6484,53.7329A10.96221,10.96221,0,0,1,1344.82175,598.5559Zm4.9145-112.373c-4.3579,2.9809-7.517,7.4463-9.5996,13.5473-5.625,16.4673-2.2924,42.9492,8.1861,69.0381,19.6631-17.6782,41.7236-29.5996,67.0923-41.4477C1396.74315,506.7029,1374.30905,492.6257,1349.73625,486.1829Z" />
    <path fill="#102770" d="M1654.16475,464.5695c26.2101,134.6595,50.4866,136.0689,72.7774.599Z" />
    <path fill="#102770" d="M1759.08705,466.5739c-2.7534,96.5553,13.7079,101.2663,49.9076,11.6316Z" />
    <path fill="#102770" d="M1620.24345,466.5739c2.7534,96.5553-13.7079,101.2663-49.9076,11.6316Z" />
    <path fill="#ee346a"
        d="M2124.46595,1146.9398c-238.4592,159.6526-656.7216,126.523-855.7467,0-50.4983-28.6176-29.174-97.9058,19.2226-82.7006,1.4215.4327,2.843.9888,4.2648,1.5452a10.451,10.451,0,0,1,2.2869.9269c197.4183,124.7926,557.1474,158.0459,795.2976,3.7088a68.38063,68.38063,0,0,1,8.0351-4.5119,47.55928,47.55928,0,0,1,11.1875-3.7088C2157.22515,1052.8661,2163.715,1119.2491,2124.46595,1146.9398Z" />
    <path fill="#102770"
        d="M1708.06145,1266.4661c-169.6972,0-337.6025-40.437-445.6616-109.0259-34.0307-19.4507-41.0327-54.4776-30.332-79.0943,10.1782-23.4252,34.1089-33.8012,59.5459-25.7959,1.6016.4859,3.313,1.1426,5.0244,1.8116a16.95929,16.95929,0,0,1,4.5923,2.1118c191.8677,121.1694,545.2612,157.019,781.897,3.6645a80.72137,80.72137,0,0,1,9.5141-5.332,59.50923,59.50923,0,0,1,14.0772-4.6435c23.3935-4.5313,42.5439,4.8852,51.1963,25.1953,10.1416,23.8012,3.0468,60.83-26.3868,81.5942l-.2465.1685C2017.82715,1233.0823,1862.19725,1266.4661,1708.06145,1266.4661Zm-433.2348-192.0703c-9.1431,0-16.4038,4.7875-20.2857,13.7182-6.3598,14.6362-1.4599,35.8814,20.2173,48.1665l.5322.3198c199.8365,127.0362,611.2159,154.7998,842.2266.2466,18.3594-13.0346,24.0576-37.3266,17.854-51.8847-4.0185-9.4336-12.1045-13.0518-24.0283-10.7349a35.43339,35.43339,0,0,0-8.3472,2.7881,56.69848,56.69848,0,0,0-6.5796,3.7134c-113.7329,73.706-253.5644,105.1782-390.5175,105.1855-157.4439.0098-311.1011-41.5698-417.1924-108.3691-.4322-.1465-.8179-.2857-1.1914-.4419-.918-.3565-2.0264-.8033-3.1372-1.1402A31.95077,31.95077,0,0,0,1274.82665,1074.3958Z" />
    <path fill="#fff"
        d="M2147.75555,1113.993c-4.9566-14.982-17.9893-24.9512-38.7634-20.9414a46.00893,46.00893,0,0,0-11.139,3.7315,67.71452,67.71452,0,0,0-8.0758,4.5113c-238.1516,154.3307-597.8849,121.0807-795.2677-3.7315a11.62331,11.62331,0,0,0-2.2837-.9467,43.63409,43.63409,0,0,0-4.2886-1.5039c-22.7233-7.1288-39.4318,4.3444-45.6142,21.4424-10.2476-30.075,10.5822-63.3251,45.6142-52.2972a43.73472,43.73472,0,0,1,4.2886,1.5035,11.62448,11.62448,0,0,1,2.2837.947c197.3828,124.8122,557.1161,158.0623,795.2677,3.7315a67.67259,67.67259,0,0,1,8.0758-4.5113,46.00869,46.00869,0,0,1,11.139-3.7314C2142.52025,1055.6802,2155.88715,1085.7556,2147.75555,1113.993Z"
        opacity=".65" />
    <path fill="#102770"
        d="M2124.47515,1146.9643c-238.4857,159.6218-656.7544,126.4833-855.7523,0-28.2931-16.0402-34.0298-44.7786-25.1742-64.3276,4.2886,10.3592,12.4756,20.1058,25.1742,27.2907,198.9979,126.5387,617.2666,159.6772,855.7523,0a60.97342,60.97342,0,0,0,22.2222-29.6298C2155.05155,1100.0692,2147.92285,1130.423,2124.47515,1146.9643Z"
        opacity=".3" />
    <path fill="#102770"
        d="M1708.06145,1266.4661c-169.6972,0-337.6025-40.437-445.6616-109.0259-34.0307-19.4507-41.0327-54.4776-30.332-79.0943,10.1782-23.4252,34.1089-33.8012,59.5459-25.7959,1.6016.4859,3.313,1.1426,5.0244,1.8116a16.95929,16.95929,0,0,1,4.5923,2.1118c191.8677,121.1694,545.2612,157.019,781.897,3.6645a80.72137,80.72137,0,0,1,9.5141-5.332,59.50923,59.50923,0,0,1,14.0772-4.6435c23.3935-4.5313,42.5439,4.8852,51.1963,25.1953,10.1416,23.8012,3.0468,60.83-26.3868,81.5942-.0805.0562-.1635.1148-.2465.1685C2017.82715,1233.0823,1862.19725,1266.4661,1708.06145,1266.4661Zm-433.2348-192.0703c-9.1431,0-16.4038,4.7875-20.2857,13.7182-6.3598,14.6362-1.4599,35.8814,20.2173,48.1665.1807.1026.3589.2075.5322.3198,199.8365,127.0362,611.2159,154.7998,842.2266.2466,18.3594-13.0346,24.0576-37.3266,17.854-51.8847-4.0185-9.4336-12.1045-13.0518-24.0283-10.7349a35.43339,35.43339,0,0,0-8.3472,2.7881,56.69848,56.69848,0,0,0-6.5796,3.7134c-113.7329,73.706-253.5644,105.1782-390.5175,105.1855-157.4439.0098-311.1011-41.5698-417.1924-108.3691-.4322-.1465-.8179-.2857-1.1914-.4419-.918-.3565-2.0264-.8033-3.1372-1.1402A31.95077,31.95077,0,0,0,1274.82665,1074.3958Zm849.6387,72.5439h0Zm-837.1558-70.3052.0146.0122Z" />
    <path fill="#102770"
        d="M1708.13225,1176.0535c-171.9848,0-339.851-45.4322-455.7104-118.418-.5103-.1709-.9497-.332-1.377-.5103-1.0034-.3881-2.2558-.8911-3.5131-1.2744a12.21436,12.21436,0,0,1-4.4458-2.4536c-88.2569-76.3208-138.8746-198.0224-138.8746-333.8965,0-330.1342,259.1578-598.7207,577.7027-598.7207s577.7002,268.5865,577.7002,598.7207c0,157.4951-37.544,267.2803-114.7754,335.6299a12.24466,12.24466,0,0,1-2.9419,1.9287,62.883,62.883,0,0,0-7.3364,4.1358C2010.36865,1141.6809,1857.68305,1176.0535,1708.13225,1176.0535Zm-443.1225-139.4507c210.1123,132.6855,597.1265,171.9458,856.2598,4.0039a91.33389,91.33389,0,0,1,8.5742-4.9365c70.83-63.5254,105.2636-166.9702,105.2636-316.1695,0-316.6235-248.1616-574.2138-553.1933-574.2138-305.0342,0-553.1958,257.5903-553.1958,574.2138,0,127.8272,46.8408,242.0386,128.6084,313.8037.9692.3516,1.9385.7276,2.9053,1.106A17.5889,17.5889,0,0,1,1265.00975,1036.6028Zm871.709,9.353h0Z" />
    <path fill="#102770"
        d="M2097.70265,1081.4832a15.51475,15.51475,0,1,1,11.0498-4.6509l-.1245.1245A15.39628,15.39628,0,0,1,2097.70265,1081.4832Z" />
    <path fill="#102770"
        d="M1283.10785,1797.0496c-36.1499.0024-69.8681-6.6382-100.5517-19.9805a12.25148,12.25148,0,1,1,9.7705-22.4707c72.0093,31.3135,163.8232,21.5234,265.5127-28.3203,62.5342-30.6226,113.4179-76.8555,147.1533-133.7036,23.8525-40.1661,34.6558-77.1704,31.2476-107.0118a12.25214,12.25214,0,0,1,24.3457-2.7832c4.0795,35.7105-7.5342,76.858-34.5215,122.3023-36.1743,60.9595-90.6177,110.4785-157.4439,143.2007C1402.46575,1780.7092,1339.807,1797.0471,1283.10785,1797.0496Z" />
    <path fill="#102770"
        d="M1252.10445,1584.0686a12.25309,12.25309,0,0,1-6.2305-22.8101l111.2891-65.5615c-15.0293-25.4126-17.4145-51.1328-6.0693-70.6054a12.25246,12.25246,0,1,1,21.1718,12.3388c-6.1206,10.5029-6.1572,30.4492,12.0923,54.9292a12.24892,12.24892,0,0,1-3.6035,17.8809l-122.4438,72.1313A12.19353,12.19353,0,0,1,1252.10445,1584.0686Z" />
    <path fill="#102770"
        d="M1485.13915,1723.9661c-40.3858.0024-81.9214-27.2486-110.5127-57.295-42.2925-44.4384-72.6001-112.5561-39.2041-157.0996a12.25246,12.25246,0,0,1,19.6045,14.7022c-23.7476,31.6748.813,87.1118,37.3511,125.5054,35.8593,37.6855,88.496,64.5971,125.2441,39.7827a12.25343,12.25343,0,1,1,13.7109,20.3125A81.03284,81.03284,0,0,1,1485.13915,1723.9661Z" />
    <path fill="#102770"
        d="M1296.06885,1461.1987c5.8652,12.9969,9.8677,26.1817,13.338,39.4208a186.0935,186.0935,0,0,1,4.2784,19.953,89.3122,89.3122,0,0,1,1.0124,20.2838,12.473,12.473,0,0,1-24.3801,2.4707,89.3208,89.3208,0,0,1-3.0776-20.0744,186.11018,186.11018,0,0,1,.1882-20.4053c.7437-13.6664,2.0195-27.3865,5.1579-41.2952a1.84568,1.84568,0,0,1,3.4828-.3534Z" />
    <path fill="#102770"
        d="M2110.23435,1797.0178c-56.7847,0-119.5215-16.3452-185.6128-48.7378-66.8481-32.7002-121.3135-82.2192-157.5024-143.2007-28.7354-48.4179-40.2637-93.5107-33.3374-130.4003a12.25139,12.25139,0,1,1,24.082,4.5214c-5.8106,30.9497,4.6777,70.1538,30.3296,113.3741,33.7451,56.8628,84.6484,103.0957,147.2046,133.6987,98.5205,48.2861,188.1152,59.0112,259.1162,31.0059a12.253,12.253,0,1,1,8.9892,22.7978C2174.81935,1791.3879,2143.54735,1797.0154,2110.23435,1797.0178Z" />
    <path fill="#102770"
        d="M2141.08155,1584.0686a12.20175,12.20175,0,0,1-6.2085-1.6968l-122.3828-72.1338a12.251,12.251,0,0,1-3.6133-17.8637c14.0185-18.8599,19.1064-38.2276,13.6108-51.8116a21.8503,21.8503,0,0,0-17.1973-13.8989,12.25171,12.25171,0,0,1,3.9698-24.1797,46.14766,46.14766,0,0,1,35.9448,28.8892c7.5903,18.7598,4.2187,41.6821-9.1357,64.3188l111.2451,65.5664a12.25339,12.25339,0,0,1-6.2329,22.8101Z" />
    <path fill="#102770"
        d="M1908.07125,1723.9661a81.01471,81.01471,0,0,1-46.1938-14.0918,12.25343,12.25343,0,1,1,13.7109-20.3125c36.7578,24.812,89.3823-2.1021,125.2417-39.7803,36.5356-38.3936,61.0986-93.833,37.3511-125.5078a12.25246,12.25246,0,0,1,19.6045-14.7022c33.396,44.5435,3.0883,112.6612-39.2041,157.1021C1989.99025,1696.7175,1948.44965,1723.9661,1908.07125,1723.9661Z" />
    <path fill="#102770"
        d="M2100.62235,1461.5521c3.1385,13.9087,4.4142,27.6288,5.158,41.2952a186.11006,186.11006,0,0,1,.1881,20.4053,89.32632,89.32632,0,0,1-3.0775,20.0744,12.473,12.473,0,0,1-24.3802-2.4707,89.3122,89.3122,0,0,1,1.0124-20.2838,186.14219,186.14219,0,0,1,4.2784-19.953c3.4705-13.2391,7.4728-26.4239,13.338-39.4208a1.84578,1.84578,0,0,1,3.4828.3534Z" />
    <path fill="#102770"
        d="M2232.87835,2063.3362a12.19921,12.19921,0,0,1-12.2534-12.19v-.1245a12.2536,12.2536,0,1,1,12.2534,12.3145Z" />
    <path fill="#1297e0"
        d="M2264.47,2057.0173c-52.0759-5.3166-88.3288,15.3681-106.9585,58.0938-31.4219,76.0265-105.1456,30.8183-61.5456-27.8634l77.5315-31.897Z" />
    <path fill="#1297e0"
        d="M1120.51785,2057.0173c52.076-5.3166,88.3288,15.3681,106.9585,58.0938,31.422,76.0265,105.1457,30.8183,61.5456-27.8634l-77.5315-31.897Z" />
    <path fill="#102770"
        d="M1208.09075,2361.969c-16.6455.0024-32.7758-.686-48.0688-2.1265a173.782,173.782,0,0,1-117.771-62.6391c-27.8418-34.1577-40.5737-76.709-35.8545-119.8169,7.7319-71.3037,59.5044-124.7779,130.6519-136.7749-20.5127-94.3848-7.7076-199.1651,32.7856-269.5484-73.1885-37.3999-120.2612-112.3877-129.9268-208.0175-12.3486-122.2071,39.4263-298.3301,221.7798-426.1402a12.24931,12.24931,0,0,1,13.6035-.3052c199.8707,127.0581,611.3672,154.8072,842.3584.1587a12.2478,12.2478,0,0,1,13.8477.1465c185.3711,129.8755,235.7861,308.2813,221.1572,431.9336-11.3574,95.9937-60.5127,170.022-135.7031,205.4297,40.2002,69.0942,52.0728,170.5688,30.9863,266.3428,71.1743,12.0019,122.9615,65.4736,130.691,136.7871,4.6923,43.1177-8.0689,85.6763-35.9302,119.8315a173.82794,173.82794,0,0,1-117.7539,62.6123h0c-106.5381,10.0367-254.6094-16.4746-323.3765-57.8882a73.812,73.812,0,0,1-35.1099-70.0927c9.8438-99.2774,5.4444-180.166-13.4643-246.8994h-321.0205c-18.9112,66.7382-23.3106,147.6269-13.4668,246.8774a73.65645,73.65645,0,0,1-35.105,70.1147C1424.54585,2337.428,1307.44385,2361.9666,1208.09075,2361.969Zm1015.7032-14.3262h0Zm-954.6289-1185.9912c-168.3448,121.294-216.3794,285.1001-204.8755,398.9307,9.2944,91.9824,55.9619,162.6977,128.0346,194.0136a12.25169,12.25169,0,0,1,5.3418,17.9883c-44.7802,67.8272-58.3252,178.5108-33.706,275.42a12.25436,12.25436,0,0,1-10.7837,15.2221c-66.2866,5.9229-115.4834,52.8662-122.4194,116.814-4.0015,36.5454,6.8261,72.6514,30.4882,101.6797a149.1256,149.1256,0,0,0,101.0767,53.7231c102.1875,9.6265,243.457-15.3198,308.4302-54.4775a49.04442,49.04442,0,0,0,23.3691-46.6992c-10.6006-106.8872-5.0439-193.6206,16.9873-265.1636a12.25187,12.25187,0,0,1,11.709-8.6475h339.3311a12.25166,12.25166,0,0,1,11.7089,8.6475c22.0313,71.5356,27.5879,158.269,16.9873,265.1538a49.1807,49.1807,0,0,0,23.3667,46.7065c65.0196,39.1577,206.2623,64.1089,308.4327,54.48h0a149.15832,149.15832,0,0,0,101.0644-53.7012c23.6817-29.0332,34.5337-65.1489,30.5591-101.6967-6.9336-63.9551-56.1548-110.8985-122.478-116.8189a12.254,12.254,0,0,1-10.7862-15.2221c25.1783-99.0455,12.5537-206.0035-32.1606-272.4878a12.2526,12.2526,0,0,1,5.6714-18.2373c74.1064-29.2237,122.876-98.9551,133.8037-191.3184,13.6206-115.1196-33.1226-280.9692-204.1235-404.1846-112.8003,72.6734-265.1807,104.6826-416.1329,104.69C1541.86525,1266.4734,1377.39255,1227.6819,1269.16505,1161.6516Z" />
    <path fill="#102770"
        d="M2006.28415,2173.5413a12.25344,12.25344,0,0,1-8.9502-20.6202c75.166-80.4296,159.2212-120.9668,236.6235-114.104a12.25221,12.25221,0,0,1-2.1582,24.4092c-69.7485-6.1474-146.6552,31.6284-216.56,106.4282A12.22521,12.22521,0,0,1,2006.28415,2173.5413Z" />
    <path fill="#102770"
        d="M1862.14355,1984.9646a12.25556,12.25556,0,0,1-11.709-8.667c-10.127-33.0444-24.3408-62.9346-42.2485-88.8403a12.25228,12.25228,0,1,1,20.1562-13.9356c19.3433,27.981,34.6582,60.1441,45.52,95.5982a12.26483,12.26483,0,0,1-11.7187,15.8447Z" />
    <path fill="#102770"
        d="M2188.33735,2290.3455c-123.2519,0-271.2842-45.3321-313.6596-101.2305a9.80116,9.80116,0,0,1,15.6201-11.8433c40.852,53.8892,217.6513,107.3755,349.4555,90.3809,43.6841-5.6397,99.6387-21.7505,118.125-66.4819a9.8027,9.8027,0,0,1,18.1202,7.4853c-17.4732,42.2778-63.7183,69.3994-133.7354,78.4399A423.39161,423.39161,0,0,1,2188.33735,2290.3455Z" />
    <path fill="#102770"
        d="M2112.55365,2164.9792a39.04,39.04,0,0,1-34.6508-20.8984c-9.5264-17.8369-5.7129-41.2671,10.1953-62.6807a9.80334,9.80334,0,0,1,15.7373,11.6944c-11.272,15.1684-14.502,30.7763-8.6402,41.7505a19.39906,19.39906,0,0,0,18.3887,10.5053c13.3106-.6567,26.3452-13.3618,34.8706-33.9843,20.7886-47.6905,61.2183-69.7998,117.0117-64.0992a9.80175,9.80175,0,1,1-1.9922,19.502c-47.124-4.8071-79.7583,12.7734-96.9775,52.2607-11.5918,28.0518-30.5518,44.8462-51.9458,45.9009C2113.88185,2164.9622,2113.21775,2164.9792,2112.55365,2164.9792Z" />
    <path fill="#102770"
        d="M1152.085,2063.3362a12.19915,12.19915,0,0,1-12.2534-12.19v-.1245a12.25355,12.25355,0,1,1,12.2534,12.3145Z" />
    <path fill="#102770"
        d="M1378.67915,2173.5413a12.22925,12.22925,0,0,1-8.9551-3.8868c-69.9023-74.7998-146.8139-112.5683-216.56-106.4282a12.25221,12.25221,0,0,1-2.1582-24.4092c77.3974-6.8457,161.4575,33.6768,236.6235,114.104a12.25344,12.25344,0,0,1-8.9502,20.6202Z" />
    <path fill="#102770"
        d="M1522.82225,1984.9646a12.26483,12.26483,0,0,1-11.7188-15.8447c10.8619-35.4541,26.1768-67.6172,45.5201-95.5982a12.25228,12.25228,0,1,1,20.1562,13.9356c-17.9077,25.9057-32.1216,55.7959-42.2485,88.8403A12.25649,12.25649,0,0,1,1522.82225,1984.9646Z" />
    <path fill="#102770"
        d="M1196.65035,2290.3455a423.39387,423.39387,0,0,1-53.9258-3.2496c-70.0171-9.0405-116.2622-36.1621-133.7353-78.4399a9.80265,9.80265,0,1,1,18.1201-7.4853c18.4863,44.7314,74.4409,60.8422,118.125,66.4819,131.8164,17.0141,308.606-36.4917,349.4556-90.3809a9.80116,9.80116,0,0,1,15.6201,11.8433C1467.937,2245.011,1319.89745,2290.3455,1196.65035,2290.3455Z" />
    <path fill="#102770"
        d="M1272.43405,2164.9792c-.6641,0-1.3281-.017-1.9971-.0488-21.394-1.0547-40.354-17.8491-52.019-46.0742-17.146-39.3188-49.8096-56.8921-96.9043-52.0874a9.80175,9.80175,0,0,1-1.9922-19.502c55.7788-5.7006,96.2231,16.4087,116.9385,63.9258,8.5986,20.7959,21.6333,33.501,34.9438,34.1577a19.35535,19.35535,0,0,0,18.3887-10.5053c5.8618-10.9742,2.6318-26.5821-8.6401-41.7505a9.80334,9.80334,0,0,1,15.7373-11.6944c15.9082,21.4136,19.7216,44.8438,10.1953,62.6807A39.04025,39.04025,0,0,1,1272.43405,2164.9792Z" />
    <path fill="#102770"
        d="M1513.55225,2024.823a9.75115,9.75115,0,0,1-6.0694-2.1118c-83.3667-65.8716-240.4541-167.5806-355.8667-108.562a9.80285,9.80285,0,1,1-8.9257-17.4561c125.1733-63.9844,289.8925,41.8457,376.9458,110.6372a9.80218,9.80218,0,0,1-6.084,17.4927Z" />
    <path fill="#102770"
        d="M1523.35445,1970.9119a9.75038,9.75038,0,0,1-6.0693-2.1119c-83.3667-65.874-240.4566-167.5634-355.8667-108.562a9.80283,9.80283,0,1,1-8.9258-17.456c125.1855-63.982,289.8975,41.8506,376.9458,110.6372a9.80214,9.80214,0,0,1-6.084,17.4927Z" />
    <path fill="#102770"
        d="M1913.94985,1744.0186a56.46754,56.46754,0,0,0-28.8486,3.4747,78.602,78.602,0,0,0-26.3755,17.7539,109.1831,109.1831,0,0,0-19.8235,27.3065,98.25,98.25,0,0,0-10.4553,32.8168l-.0092.0757a2.947,2.947,0,0,1-5.87-.2271,106.94893,106.94893,0,0,1,5.4527-37.1307,123.90564,123.90564,0,0,1,17.2176-34.2163,99.31141,99.31141,0,0,1,29.2384-27.3676,83.19843,83.19843,0,0,1,40.8198-11.8616l.4332-.0091a14.7695,14.7695,0,1,1,.6521,29.5318A15.93818,15.93818,0,0,1,1913.94985,1744.0186Z" />
    <path fill="#102770"
        d="M1474.22075,1714.6429a83.19812,83.19812,0,0,1,40.8198,11.8616,99.309,99.309,0,0,1,29.2384,27.3676,123.90564,123.90564,0,0,1,17.2176,34.2163,106.94911,106.94911,0,0,1,5.4529,37.1307,2.94735,2.94735,0,0,1-5.8705.2277l-.0089-.0763a98.25,98.25,0,0,0-10.4553-32.8168,109.18739,109.18739,0,0,0-19.8233-27.3065,78.60477,78.60477,0,0,0-26.3757-17.7539,56.46754,56.46754,0,0,0-28.8486-3.4747,14.76971,14.76971,0,1,1-1.8623-29.3885Z" />
    <path fill="#102770"
        d="M2145.305,1166.0676c0,290.6161-902.3689,290.6161-902.3689,0h58.8696c200.0003,105.4304,562.6856,130.0478,791.6474,0Z"
        opacity=".3" />
    <path fill="#1297e0"
        d="M1381.02635,1415.7475a33.15136,33.15136,0,0,0-19.2844,15.5142h-.0619c-39.0015,21.3242-67.2483-30.4104-28.2468-51.7342,43.6372-31.9556,22.4986-51.7342-15.8231-56.3699-26.516-.9892-43.0193-35.5402-23.673-55.0721a30.77887,30.77887,0,0,1,16.3177-8.097,80.19394,80.19394,0,0,1,38.1361,2.4107C1405.37915,1279.7675,1444.81335,1355.7307,1381.02635,1415.7475Z" />
    <path fill="#fff"
        d="M1402.72485,1388.5131c8.2985-44.9458-23.4477-87.1623-64.1049-99.5268a79.90738,79.90738,0,0,0-38.0955-2.3948,31.33786,31.33786,0,0,0-14.6478,6.5719,28.87455,28.87455,0,0,1,8.0758-25.0627,30.75357,30.75357,0,0,1,16.3186-8.1315,79.914,79.914,0,0,1,38.0955,2.4505C1397.04385,1277.179,1432.85565,1334.6562,1402.72485,1388.5131Z"
        opacity=".65" />
    <path fill="#102770"
        d="M1343.40575,1448.5632a40.40294,40.40294,0,0,1-21.1987-5.896,41.17627,41.17627,0,0,1-19.6973-36.0327c.3564-15.3003,9.1943-28.8989,24.2847-37.4341,16.1816-11.9848,19.2749-19.7802,18.6303-22.2485-.8398-3.2031-9.4116-9.1504-28.8354-11.5747-17.5391-.8862-33.2178-12.5317-40.044-29.8071-6.5088-16.46-3.1787-34.1284,8.6866-46.1084a42.80372,42.80372,0,0,1,22.8125-11.5235,91.89565,91.89565,0,0,1,43.9697,2.7564c35.2295,10.7373,63.3447,40.4346,71.5698,75.6421,8.1787,34.9926-3.9551,69.9145-34.1626,98.3349a12.25765,12.25765,0,0,1-4.7851,2.7857,20.97833,20.97833,0,0,0-12.2437,9.8633,12.247,12.247,0,0,1-5.625,5.1147A50.14362,50.14362,0,0,1,1343.40575,1448.5632Zm-19.0283-177.5952a66.97344,66.97344,0,0,0-11.941,1.0767c-2.8515.5249-6.8994,1.77-9.8339,4.7046-7.1582,7.2265-4.6729,16.2646-3.2691,19.8144,2.5269,6.3916,8.9502,13.9844,18.7329,14.3506.3394.0122.6787.0391,1.0157.0806,28.1469,3.4033,45.9204,13.9721,50.0488,29.7558,4.0527,15.4932-5.5225,31.8653-28.4595,48.6621a12.16877,12.16877,0,0,1-1.3599.8643c-7.7783,4.2529-12.1484,10.2637-12.3022,16.9263a16.82645,16.82645,0,0,0,7.9395,14.5337c5.0537,3.0712,11.4697,3.0688,18.2934.0415a45.61158,45.61158,0,0,1,21.2256-16.7188c22.2363-21.8213,31.1987-47.7099,25.2563-73.147-6.1792-26.4428-28.2446-49.6679-54.9047-57.7929A68.89624,68.89624,0,0,0,1324.37745,1270.968Zm56.6479,144.7803h0Z" />
    <path fill="#102770"
        d="M1361.74555,1443.5144a12.25413,12.25413,0,0,1-10.6518-18.313,45.68447,45.68447,0,0,1,26.3208-21.1621,12.25213,12.25213,0,0,1,12.0752,20.5664,170.79163,170.79163,0,0,1-20.7544,16.7163A12.21384,12.21384,0,0,1,1361.74555,1443.5144Z" />
    <path fill="#102770"
        d="M1847.94185,1255.1233a12.25228,12.25228,0,0,1-10.9692-6.7774,234.20859,234.20859,0,0,0-14.3897-24.8413,12.25326,12.25326,0,0,1,20.4102-13.5644,258.95248,258.95248,0,0,1,15.8984,27.4487,12.25857,12.25857,0,0,1-10.9497,17.7344Z" />
    <path fill="#102770"
        d="M1907.82715,1336.4026a12.26053,12.26053,0,0,1-11.4331-7.8418c-4.2383-10.9766-3.9893-24.3823.7641-40.979a12.25347,12.25347,0,0,1,23.5596,6.748c-3.1421,10.9644-3.6475,19.7486-1.4624,25.4029a12.25926,12.25926,0,0,1-11.4282,16.6699Z" />
    <path fill="#1297e0"
        d="M2007.29315,1414.5783c-17.4325-2.9516-39.7663,6.0152-59.4264,32.4702-22.5567-17.5994-46.6166-29.184-69.8974-35.2549-63.1578-16.3744-121.3034,8.02-132.1639,65.1631-63.5478,19.8831-97.4104,7.2403-97.4104,7.2403-5.4026-47.5076-41.7712-74.5753-87.8867-77.1931-35.8118-2.005-77.5273,10.6933-115.1771,40.0446-21.6097-29.0171-46.3936-36.9815-64.3276-31.3005,63.8265-60.0393,24.3944-136.0069-32.6371-153.3283a285.30152,285.30152,0,0,1,112.0581-118.9642c123.8097-71.7909,292.4541-47.3407,372.3762,73.2389,36.7589-118.6858,163.576-76.1348,116.291-2.8405-16.0401,23.5031-33.2497,52.5203-40.1561,77.082,9.1898,28.2927,36.1463,36.2017,73.0163,32.8598,24.8954-2.2276,48.8999,13.701,53.8011,38.2623C2039.48465,1380.3261,2032.18865,1399.4295,2007.29315,1414.5783Z" />
    <path fill="#aee0f5"
        d="M1560.50835,1407.0039c-35.8118-2.005-77.5273,10.6933-115.1771,40.0446-21.6097-29.0171-46.3936-36.9815-64.3276-31.3005,63.8265-60.0393,24.3944-136.0069-32.6371-153.3283a285.30152,285.30152,0,0,1,112.0581-118.9642C1549.87075,1176.5383,1608.072,1292.9965,1560.50835,1407.0039Z" />
    <path fill="#102770"
        d="M1442.98825,1464.4153l-7.4829-10.0464c-19.1162-25.6714-38.7769-30.752-50.8008-26.9409l-51.2622,16.2402,39.165-36.8432c23.606-22.2046,33.2349-48.8257,27.1143-74.9634-6.189-26.4258-28.2568-49.6216-54.9146-57.7173l-13.9624-4.2407,6.5918-13.0176a298.91412,298.91412,0,0,1,116.8433-124.0308l4.9878-2.8906,5.4077,1.9995c46.5088,17.2022,85.5591,55.4981,107.1436,105.0684,23.999,55.122,23.9966,117.1606-.0025,174.6875l-3.3374,8.0005-8.6548-.4834c-34.9194-1.9507-73.9038,11.7065-106.958,37.4755Zm-35.5395-60.4444c12.8344,3.4986,26.726,11.6089,39.9731,26.3038,33.0444-23.1153,69.6167-35.586,104.8364-35.7349,18.3032-49.0869,17.334-101.2329-2.9077-147.7246-18.0884-41.543-49.8926-73.96-87.8223-89.7632a274.10743,274.10743,0,0,0-95.8129,98.9502c28.6889,13.4741,50.7299,39.8022,57.8662,70.2734C1429.88275,1353.1848,1424.16505,1380.0598,1407.44875,1403.9709Z" />
    <path fill="#fff"
        d="M1952.545,1198.9277c-18.7692-26.0094-71.3452-28.1816-103.4255,20.4957-9.5236,14.4252-30.2423,15.5388-42.1054,2.9517-26.6777-28.3485-59.2594-49.2341-94.8482-62.6568-17.1542,24.5616-67.4469,17.043-69.8971-16.5412a300.93609,300.93609,0,0,0-181.8441,38.485,284.33631,284.33631,0,0,0-89.8359,82.0389,92.36372,92.36372,0,0,0-22.2222-10.2481,285.30152,285.30152,0,0,1,112.0581-118.9642c123.8097-71.7909,292.4541-47.3407,372.3762,73.2389C1868.557,1092.3276,1989.47075,1129.3648,1952.545,1198.9277Z"
        opacity=".65" />
    <path fill="#fff"
        d="M2029.68265,1385.0103c-9.8024-15.5948-28.5162-24.7285-47.7306-23.002a135.46555,135.46555,0,0,1-29.4333-.1604c-28.6157-3.7281-45.2302-35.0081-32.4219-60.8674l.1451-.2924c13.3112,13.0325,34.8651,16.597,61.7101,14.1464,24.8954-2.2276,48.8999,13.7011,53.8011,38.2624A41.71406,41.71406,0,0,1,2029.68265,1385.0103Z"
        opacity=".65" />
    <path fill="#1297e0"
        d="M1557.41725,1235.0032c52.756-57.9059,96.2427,26.8161,14.2523,39.8272,81.9903-14.4026,93.1017,73.3158,5.8566,49.3162Z" />
    <path fill="#fff"
        d="M1561.51115,1253.1745l-4.1218-18.1566c35.1993-38.6523,66.2771-13.8122,58.7027,10.8606C1607.73785,1232.4562,1585.73825,1227.8892,1561.51115,1253.1745Z"
        opacity=".65" />
    <path fill="#fff"
        d="M1636.69925,1313.0466c-8.0201-12.9213-28.4604-23.3362-59.6494-18.7134,1.9492-.3899,3.8987-.7798,5.681-1.2255-1.838.1672-3.3419.1672-3.3976-.1669-.2227-.8913,1.3923-13.7011,1.3923-13.7011h29.4071c.7798-.7798,1.5593-1.615,2.2276-2.3948C1633.24585,1284.0294,1641.99,1300.6267,1636.69925,1313.0466Z"
        opacity=".65" />
    <path fill="#102770"
        d="M1679.61175,1500.3601c-22.4487,0-34.6215-4.3872-35.4931-4.7143a12.25231,12.25231,0,0,1-7.8809-10.0928c-3.1299-27.5635-18.6377-48.5401-43.6719-59.0698-39.8022-16.7383-94.6533-4.8829-139.7314,30.2075a12.25275,12.25275,0,0,1-17.356-2.3535c-19.0918-25.6519-38.7207-30.7276-50.7495-26.9092a12.2527,12.2527,0,0,1-12.0996-20.603c23.5767-22.1827,33.1983-48.7867,27.0947-74.9122-6.1792-26.4428-28.2446-49.6679-54.9047-57.7929a12.25482,12.25482,0,0,1-7.3584-17.2583c49.1601-97.0606,144.5019-158.855,255.0415-165.2954,95.4126-5.5567,182.3291,31.4599,236.9946,99.8535,16.2939-34.2652,42.81-56.3648,73.7305-60.4834,25.2099-3.357,49.1308,6.4941,60.9301,25.1001,11.6089,18.3056,9.878,41.8091-4.7485,64.4824-18.7183,27.3682-31.5796,51.3916-37.5586,70.0415,4.9805,11.7651,17.5488,24.7778,58.9771,21.0132,32.0898-2.8638,60.8569,17.7905,66.9531,48.042,3.0078,14.8437,2.5781,43.1054-34.1406,65.4272a12.24265,12.24265,0,0,1-8.4229,1.6089c-14.9756-2.5342-32.7319,7.7954-47.5049,27.6782a12.25023,12.25023,0,0,1-17.3584,2.3633c-20.2368-15.7446-42.8735-27.1728-65.4663-33.0444-32.4097-8.4107-63.7207-5.1612-85.9033,8.9013-16.5674,10.503-27.3291,26.6407-31.1231,46.67a12.25172,12.25172,0,0,1-8.3764,9.4116C1720.39305,1497.7454,1696.94085,1500.3601,1679.61175,1500.3601Zm-20.3247-26.1279c11.3697,2.0239,37.2803,4.1235,76.1743-6.9776a92.11023,92.11023,0,0,1,40.4053-55.4004c27.8931-17.6782,66.2232-22.0288,105.1807-11.9238,22.229,5.7788,44.3921,16.1841,64.7143,30.3247,17.7637-19.7754,38.4937-29.8584,58.606-28.3642,15.7495-10.6372,22.2729-23.2129,19.3921-37.4219-3.5645-17.7051-21.4453-30.2197-40.7373-28.4888-46.6065,4.2261-75.437-9.6509-85.7324-41.2256a12.25069,12.25069,0,0,1-.1465-7.1167c6.1816-21.9702,20.2636-49.1137,41.8579-80.6787,9.1772-14.2358,10.8276-27.7588,4.4629-37.7978-6.7017-10.5664-21.2207-16.023-37.002-13.9356-27.2998,3.6353-50.4663,27.981-61.9702,65.1221a12.2514,12.2514,0,0,1-21.9165,3.1421c-48.2544-72.8174-133.7134-112.9492-228.6499-107.4609-97.1094,5.6591-181.4404,57.6684-228.1934,139.9609,28.6914,13.501,50.7276,39.8584,57.854,70.3467,6.2818,26.8896.5713,53.7402-16.1181,77.6269,12.8296,3.4961,26.7114,11.604,39.9487,26.2989,50.1221-34.834,109.7193-45.2637,154.6509-26.3672C1632.97605,1416.8958,1653.04445,1441.6833,1659.28705,1474.2322Z" />
    <path fill="#102770"
        d="M1877.97365,1424.054a12.20171,12.20171,0,0,1-7.1729-2.3267c-28.6523-20.7349-34.7339-62.0532-34.978-63.8013a12.25267,12.25267,0,0,1,24.2651-3.4228c.0733.5102,5.0171,32.854,25.0781,47.3706a12.25329,12.25329,0,0,1-7.1923,22.1802Z" />
    <path fill="#102770" d="M1745.88625,1489.1931h-.0635a12.25335,12.25335,0,1,1,.0635,0Z" />
    <path fill="#102770"
        d="M1560.49315,1419.2542a12.26106,12.26106,0,0,1-11.3013-16.9751c21.4185-51.3135,21.4819-106.521.1807-155.4566-18.9307-43.4814-52.8955-76.9629-93.1885-91.8628a12.25174,12.25174,0,0,1,8.4961-22.9834c46.521,17.1997,85.5811,55.4956,107.1606,105.0659,23.9917,55.1099,23.9795,117.146-.0366,174.6753A12.25657,12.25657,0,0,1,1560.49315,1419.2542Z" />
    <path fill="#102770"
        d="M1461.81635,1285.0378a9.80665,9.80665,0,0,1-8.8891-13.9209l25.2465-54.5581a9.80261,9.80261,0,0,1,17.793,8.2325l-25.2466,54.5581A9.80369,9.80369,0,0,1,1461.81635,1285.0378Z" />
    <path fill="#102770"
        d="M1504.48975,1270.2332a9.75537,9.75537,0,0,1-4.5142-1.1084l-56.7676-29.5044a9.80151,9.80151,0,1,1,9.043-17.3926l56.7676,29.5044a9.80375,9.80375,0,0,1-4.5288,18.501Z" />
    <path fill="#102770"
        d="M1604.96825,1338.1409c-8.2862,0-18.2056-1.2867-30.0415-4.5435a9.80185,9.80185,0,1,1,5.2002-18.9014c26.8213,7.3829,41.7578,2.7881,46.3989-3.3837,3.7573-4.9976.9717-10.7422-.4004-12.981-5.7788-9.4263-22.5415-18.6353-50.9375-14.1504-.6494.1148-1.3135.2246-1.9824.3296a9.80126,9.80126,0,0,1-3.2324-19.3335q.98505-.172,1.9555-.3296c24.1016-4.2676,34.0967-15.2759,35.3809-24.3115.8862-6.2134-2.0093-11.8628-7.3755-14.3897-7.1558-3.3691-20.1929-1.0864-35.271,15.459a9.80237,9.80237,0,1,1-14.4922-13.2031c18.9087-20.7495,40.6397-28.2153,58.1153-19.9902a33.05324,33.05324,0,0,1,18.4326,34.8877c-.6201,4.3554-3.1006,14.3554-12.9102,23.6206,14.1284,4.4604,23.7793,12.6025,29.0283,21.1645,7.1143,11.6016,6.8702,25.0171-.6396,35.0073C1638.21045,1328.3923,1627.771,1338.1409,1604.96825,1338.1409Z" />
    <path fill="#102770"
        d="M1799.43355,1643.3655h-195.2051a12.25345,12.25345,0,0,1,0-24.5069h195.2051a12.25345,12.25345,0,0,1,0,24.5069Z" />
    <path fill="#fff"
        d="M1468.13045,273.4395c1.3322,4.7853-2.5559,10.0478-8.6845,11.754-6.1285,1.7062-12.1767-.7898-13.5089-5.5751-1.3323-4.7853,2.5558-10.0478,8.6844-11.754C1460.74995,266.1582,1466.79815,268.6543,1468.13045,273.4395Z"
        opacity=".65" />
    <path fill="#fff"
        d="M1449.65395,595.9968c-44.7551,75.0722-62.6827,146.872-111.6937,117.6536s-52.461-113.7627-7.7059-188.8349c44.7551-75.0723,120.7676-112.2442,169.7786-83.0257C1549.04385,471.0082,1494.40905,520.9245,1449.65395,595.9968Z"
        opacity=".25" />
    <path fill="#fff"
        d="M1627.80865,415.39c-35.4238,12.5209-66.988,14.6147-76.9892-13.6804s10.6078-61.3829,46.0315-73.9039c35.4237-12.5209,72.2479.2666,82.2491,28.5617C1689.10125,384.6624,1663.23235,402.8691,1627.80865,415.39Z"
        opacity=".25" />
    <path fill="#fff"
        d="M1735.32815,1194.1366c-1.4379,3.8409-6.447,5.5158-11.1882,3.7408-4.7411-1.7749-7.4189-6.3275-5.981-10.1684,1.438-3.8409,6.4471-5.5157,11.1882-3.7408C1734.08835,1185.7431,1736.76605,1190.2957,1735.32815,1194.1366Z"
        opacity=".65" />
    <path fill="#102770"
        d="M1356.13765,1355.0205c9.4554,20.7192,27.4783,22.0829,57.5576-3.7904l-13.8979,42.1273-47.2285,41.6263-27.0002-16.6861v-18.6082Z"
        opacity=".3" />
    <path fill="#102770"
        d="M1407.31415,1315.7983c38.8253,64.0956,169.1688,64.1658,166.3374-.3822l3.8747,27.4606,10.2727-12.3418,26.8904-2.2045c1.6532,51.6337,178.7033,59.1226,229.6174,19.6178,36.4513,41.7269,155.7714,54.9588,182.4681,8.4413v41.5651s-21.4023,21.6921-24.466,21.6921-44.4194-1.5336-46.3676,3.7584c-1.9482,5.2921-7.2862,12.0626-10.2754,15.8877-2.9893,3.8251-66.0561-37.1132-70.2875-36.3858-4.2315.7274-94.7461,20.4981-94.7461,20.4981s-29.1087,49.5078-34.0424,50.026-104.0049,0-104.0049,0l-48.4145-58.8579-90.1449-5.4403s-37.8414,28.2242-41.0831,30.1599c-3.2418,1.9357-41.6773-9.9349-41.6773-9.9349l-26.5779-22.3584C1418.06825,1377.5234,1427.86915,1347.3926,1407.31415,1315.7983Z"
        opacity=".3" />
    <path fill="#102770"
        d="M2068.06635,1791.6003a9.80391,9.80391,0,0,1-4.0942-18.7133c51.7798-23.7745,60.625-121.4746,52.4683-197.9175a9.80139,9.80139,0,1,1,19.4921-2.0801c9.2725,86.8823-2.6123,189.729-63.7817,217.8149A9.76364,9.76364,0,0,1,2068.06635,1791.6003Z" />
    <path fill="#102770"
        d="M2150.69825,1784.6741a9.80214,9.80214,0,0,1-5.9034-17.6319c12.295-9.2602,21.6724-35.3125,24.4727-67.9956,4.209-49.1235-6.3672-97.8125-25.7202-118.4033a9.80337,9.80337,0,0,1,14.2871-13.4277c26.8457,28.5669,34.895,87.6367,30.9643,133.5058-3.3593,39.2139-15.1,69.0943-32.2119,81.98A9.751,9.751,0,0,1,2150.69825,1784.6741Z" />
    <path fill="#102770"
        d="M2226.954,2347.6355c-103.6482,9.7466-248.5107-15.5945-315.9018-56.1963a61.034,61.034,0,0,1-29.2398-58.3682c9.6354-97.2434,6.5165-185.687-16.4855-260.3738h-7.5748l5.904-5.2353-31.1336-67.6695-11.4174.3342,31.7462,66.5555-311.8362-4.5113,15.8733-58.2012-2.5621-1.3367-29.8524,64.829,5.9036,5.2353h-7.5744c-23.002,74.6868-26.1209,163.1304-16.4858,260.3738a61.034,61.034,0,0,1-29.2398,58.3682c-67.3908,40.6018-212.2533,65.9429-315.9015,56.1963-85.9375-8.0758-151.9916-83.1525-142.5792-168.9228a144.12262,144.12262,0,0,1,9.524-38.5965c-7.2403,119.1315,322.5291,156.2242,332.944-6.7392-9.5793-107.4912,10.8049-193.2057,40.8245-249.7916-4.567-56.419-95.3497-85.8815-95.3497-85.8815,115.0656-12.977,218.38-74.7428,299.4717-170.3152l180.4514,6.1821,41.2701,36.2017,175.3833,99.7498,112.6707,12.2526c-67.2796,10.1923-113.8962,40.9917-128.6551,103.4813,29.5182,56.5862,49.4571,141.6878,39.9331,248.1208,10.4149,162.9634,340.1847,125.8707,332.9444,6.7392a144.12219,144.12219,0,0,1,9.5236,38.5965C2378.94525,2264.483,2312.89115,2339.5597,2226.954,2347.6355Z"
        opacity=".3" />
    <polygon fill="#102770"
        points="1653.922 1485.695 1606.011 1627.389 1782.267 1623.077 1731.481 1488.159 1653.922 1485.695"
        opacity=".3" />
    <path fill="#102770"
        d="M1576.48305,1648.5835c95.6044-125.9625,97.5762-201.8681,17.6873-234.0103-75.1917,333.7703-599.0581,370.1972-525.0693-5.4403C978.63645,1754.3721,1274.49065,1928.9676,1576.48305,1648.5835Z"
        opacity=".3" />
    <path fill="#102770"
        d="M1820.49205,1648.5835c-95.6044-125.9625-97.5762-201.8681-17.6873-234.0103,75.1917,333.7703,599.0582,370.1972,525.0693-5.4403C2418.33875,1754.3721,2122.48445,1928.9676,1820.49205,1648.5835Z"
        opacity=".3" />
    <path fill="#102770"
        d="M1391.117,787.2173s89.1585-78.1307,171.588,21.617c0,0,9.1334-59.5423-56.5507-88.6783a77.266,77.266,0,0,0-58.82-1.7888C1424.15755,727.1507,1395.801,746.2053,1391.117,787.2173Z" />
    <path fill="#102770"
        d="M1976.80655,787.2173s-89.1585-78.1307-171.588,21.617c0,0-9.1334-59.5423,56.5507-88.6783a77.266,77.266,0,0,1,58.82-1.7888C1943.76585,727.1507,1972.12245,746.2053,1976.80655,787.2173Z" />
    <polygon fill="#fde6e6"
        points="1769.905 966.913 1793.231 1014.879 1822.266 965.405 1769.905 966.913" />
    <polygon fill="#fde6e6"
        points="1608.57 967.343 1584.452 1014.917 1556.24 964.968 1608.57 967.343" />
    <polygon fill="#102770"
        points="1584.558 1019.613 1554.309 966.061 1558.171 963.878 1584.348 1010.221 1606.592 966.339 1610.547 968.346 1584.558 1019.613" />
    <path fill="#6b184e"
        d="M1605.97725,972.4569l-7.2786,15.7053c-.7313,58.2513,181.8131,60.5431,182.5444,2.2918l-9.763-15.9047c-34.8264-13.837-62.1836-35.6377-78.9766-68.702C1671.53755,940.9382,1643.745,964.8585,1605.97725,972.4569Z" />
    <path fill="#102770"
        d="M1692.09465,1035.282c-28.1689,0-56.5917-5.5347-75.0073-16.4771-13.6303-8.1006-20.7568-18.706-20.6054-30.6689l.205-.9058,7.7491-16.726,1.1035-.2198c35.0927-7.0605,62.915-28.5083,85.0586-65.5737l2.0605-3.4497,1.8213,3.584c15.7251,30.9594,41.1792,53.0859,77.8174,67.644l.686.271,10.4859,17.0801-.0098.6396c-.1489,11.9654-7.5391,22.3902-21.3696,30.1441C1744.60205,1030.4309,1718.45945,1035.282,1692.09465,1035.282Zm-91.1792-46.626c.0562,10.2393,6.2574,19.0967,18.4375,26.3355,33.9087,20.1513,106.167,21.0571,140.5665,1.7651,12.2949-6.8945,18.7133-15.5371,19.0893-25.7031l-9.0356-14.7168c-35.9351-14.4239-61.3697-36.0401-77.6148-65.9912-22.2534,35.7617-50.0464,56.7407-84.8388,64.0576Z" />
    <path fill="#102770"
        d="M1763.39085,831.7307c0,31.6534-32.9935,57.3136-73.693,57.3136s-73.6929-25.6602-73.6929-57.3136c0-29.2908,31.5604-27.2252,72.2599-27.2252S1763.39085,802.3707,1763.39085,831.7307Z" />
    <path fill="#102770"
        d="M1791.875,981.134a105.37006,105.37006,0,0,1-18.0029-1.5649c-50.105-8.6768-89.0357-51.3257-96.8775-106.1255a11.08828,11.08828,0,1,1,21.9532-3.1396c7.478,52.2631,44.9194,81.5625,78.7085,87.4145,37.4389,6.4771,71.709-12.29,91.7041-50.2222a11.089,11.089,0,0,1,19.6191,10.3418C1867.80515,958.0066,1831.65285,981.134,1791.875,981.134Z" />
    <path fill="#102770"
        d="M1586.22065,981.134c-39.7827,0-75.9277-23.125-97.1045-63.2959a11.089,11.089,0,0,1,19.6192-10.3418c19.9926,37.9297,54.2724,56.6944,91.7065,50.2222,33.7891-5.852,71.2305-35.1514,78.7061-87.4145a11.08823,11.08823,0,1,1,21.9531,3.1396c-7.8394,54.7974-46.77,97.4463-96.8726,106.1255A105.40461,105.40461,0,0,1,1586.22065,981.134Z" />
    <path fill="#102770"
        d="M1793.645,1023.7854c-.0659,0-.1318,0-.2002-.0024a8.86953,8.86953,0,0,1-7.7124-4.856l-24.1186-47.5732a8.87127,8.87127,0,1,1,15.8252-8.0225l16.6284,32.8003,20.0635-35.5249a8.8715,8.8715,0,1,1,15.4492,8.7256l-28.2105,49.9463A8.87687,8.87687,0,0,1,1793.645,1023.7854Z" />
    <path fill="#102770"
        d="M1584.45305,1023.7854a8.87711,8.87711,0,0,1-7.7246-4.5068l-28.2129-49.9463a8.87154,8.87154,0,0,1,15.4493-8.7256l20.0659,35.5249,16.626-32.8003a8.87127,8.87127,0,1,1,15.8252,8.0225l-24.1163,47.5732a8.86929,8.86929,0,0,1-7.7124,4.856C1584.585,1023.7854,1584.51905,1023.7854,1584.45305,1023.7854Z" />
    <path fill="#102770"
        d="M1743.90865,1032.0081a8.87151,8.87151,0,0,1-3.7158-16.9288,93.9198,93.9198,0,0,0,35.2661-27.5512,8.86878,8.86878,0,1,1,14.0625,10.8105,111.67282,111.67282,0,0,1-41.9067,32.854A8.82581,8.82581,0,0,1,1743.90865,1032.0081Z" />
    <path fill="#102770"
        d="M1635.19285,1032.0081a8.84759,8.84759,0,0,1-3.7012-.813,120.37325,120.37325,0,0,1-42.727-32.5952,8.87165,8.87165,0,1,1,13.6523-11.3331,102.7381,102.7381,0,0,0,36.4868,27.8101,8.87153,8.87153,0,0,1-3.7109,16.9312Z" />
    <path fill="#ed197c"
        d="M1743.90415,1023.1365c-32.8646,15.3015-74.2894,15.9669-108.7062,0C1645.44325,982.9538,1733.925,982.9538,1743.90415,1023.1365Z" />
    <path fill="#102770"
        d="M1689.59715,1043.6707a138.80741,138.80741,0,0,1-58.1323-12.4878,8.87214,8.87214,0,0,1-4.8633-10.2393c6.4917-25.4541,36.2988-36.8164,63.0664-36.8164.1001,0,.1953.0024.2954.0024,26.5991.083,56.2549,11.5162,62.5488,36.8677a8.87178,8.87178,0,0,1-4.8633,10.1807A138.20732,138.20732,0,0,1,1689.59715,1043.6707Zm-42.6367-25.232a124.19116,124.19116,0,0,0,85.2295-.0073c-7.7393-11.2622-26.1744-16.5112-42.2803-16.5625h-.2393C1673.40085,1001.8689,1654.82175,1007.0911,1646.96045,1018.4387Z" />
    <path fill="#102770"
        d="M1743.90375,1032.0276a8.8492,8.8492,0,0,1-8.8696-8.8477v-.0439a8.86968,8.86968,0,1,1,8.8696,8.8916Z" />
    <path fill="#102770"
        d="M1635.19775,1032.0276a8.84929,8.84929,0,0,1-8.8697-8.8477v-.0439a8.86968,8.86968,0,1,1,8.8697,8.8916Z" />
    <ellipse cx="1685.79" cy="828.948" fill="#fff" rx="28.829" ry="11.088" />
    <path fill="#102770"
        d="M1327.168,1791.6003a9.77232,9.77232,0,0,1-4.0845-.896c-61.1694-28.0859-73.0542-130.9326-63.7817-217.8149a9.80144,9.80144,0,1,1,19.4922,2.0801c-8.1568,76.4429.6884,174.143,52.4682,197.9175a9.80388,9.80388,0,0,1-4.0942,18.7133Z" />
    <path fill="#102770"
        d="M1244.53615,1784.6741a9.7511,9.7511,0,0,1-5.8887-1.9727c-17.1118-12.8857-28.8526-42.7661-32.2119-81.98-3.9307-45.8691,4.1186-104.9389,30.9643-133.5058a9.80337,9.80337,0,1,1,14.2871,13.4277c-19.353,20.5908-29.9292,69.2798-25.7202,118.4033,2.8003,32.6831,12.1778,58.7354,24.4727,67.9956a9.80214,9.80214,0,0,1-5.9033,17.6319Z" />
    <path fill="#102770"
        d="M1878.69135,2024.823a9.80218,9.80218,0,0,1-6.084-17.4927c87.0508-68.7866,251.7725-174.6289,376.9458-110.6372a9.80285,9.80285,0,0,1-8.9257,17.4561c-115.4126-59.021-272.5025,42.6855-355.8667,108.562A9.76578,9.76578,0,0,1,1878.69135,2024.823Z" />
    <path fill="#102770"
        d="M1868.89155,1970.9119a9.80218,9.80218,0,0,1-6.084-17.4927c87.0508-68.7891,251.7676-174.6314,376.9434-110.6372a9.80283,9.80283,0,1,1-8.9258,17.456c-115.4126-59.0088-272.5,42.688-355.8642,108.562A9.76589,9.76589,0,0,1,1868.89155,1970.9119Z" />
    <g opacity=".7">
        <path fill="#ffca28"
            d="M2788.91,1394.7061a15.44453,15.44453,0,0,0-.2724,14.3859l29.9166,60.0515,1.5805,3.1062a15.44165,15.44165,0,0,1-16.7294,22.0696l-69.3153-13.4054a15.4032,15.4032,0,0,0-13.7321,4.1415l-50.2973,49.4798a15.47776,15.47776,0,0,1-26.2112-9.1002l-8.6642-70.0239a15.558,15.558,0,0,0-8.2285-11.8249l-62.5583-32.5322a15.06054,15.06054,0,0,1-8.0648-10.8444,15.232,15.232,0,0,1,8.61-16.8381l63.9202-29.9167a15.44051,15.44051,0,0,0,8.7191-11.4437l11.6071-69.5875a15.4082,15.4082,0,0,1,26.4835-8.0106l48.2263,51.5505a15.382,15.382,0,0,0,13.5687,4.6864l69.8056-10.4626a15.47136,15.47136,0,0,1,15.8032,22.7781Z" />
        <path fill="#fff"
            d="M2823.07725,1332.9654l-8.501,15.367a15.24672,15.24672,0,0,0-16.4024-9.1005l-69.8056,10.4629a15.38236,15.38236,0,0,1-13.5688-4.6867l-48.2265-51.5502a15.36162,15.36162,0,0,0-20.5983-1.7438l3.2153-19.2905a15.4082,15.4082,0,0,1,26.4835-8.0106l48.2263,51.5505a15.382,15.382,0,0,0,13.5687,4.6864l69.8056-10.4626A15.47136,15.47136,0,0,1,2823.07725,1332.9654Z"
            opacity=".65" />
        <path fill="#102770"
            d="M2659.27735,1551.5833a28.22,28.22,0,0,1-9.2847-1.5821,27.8385,27.8385,0,0,1-18.5864-23.0029l-8.6817-70.0342a2.88233,2.88233,0,0,0-1.5356-2.2046l-62.6099-32.5512a28.01039,28.01039,0,0,1,1.0498-50.2271l63.9209-29.8999a2.88752,2.88752,0,0,0,1.626-2.1411l11.6064-69.6021a28.0107,28.0107,0,0,1,48.0933-14.5239l48.1885,51.5527a2.90826,2.90826,0,0,0,2.539.8863l69.7828-10.4712a28.00917,28.00917,0,0,1,28.6718,41.2524l-34.1381,61.7603a2.89114,2.89114,0,0,0-.0538,2.688l31.521,63.1323a28.01117,28.01117,0,0,1-30.3735,40.0171l-69.2871-13.3814a2.916,2.916,0,0,0-2.5708.7764l-50.3027,49.4897A27.86354,27.86354,0,0,1,2659.27735,1551.5833Zm5.2295-279.5508a3.20183,3.20183,0,0,0-.9302.1465,2.7043,2.7043,0,0,0-2.0142,2.2924l-11.6064,69.6021a28.007,28.007,0,0,1-15.7617,20.7666l-63.9209,29.8999a2.88832,2.88832,0,0,0-.1075,5.1782l62.6099,32.5488a27.99967,27.99967,0,0,1,14.8804,21.4087l8.6816,70.0293a2.89028,2.89028,0,0,0,4.895,1.7017l50.3003-49.4898a28.013,28.013,0,0,1,24.9585-7.5341l69.2871,13.3813a2.88782,2.88782,0,0,0,3.1324-4.126l-31.5235-63.1323a28.01267,28.01267,0,0,1,.542-26.062l34.1406-61.7627a2.88942,2.88942,0,0,0-2.9565-4.2554l-69.7827,10.4712a27.97568,27.97568,0,0,1-24.624-8.5742l-48.1861-51.5503A2.695,2.695,0,0,0,2664.50685,1272.0325Z" />
        <path fill="#102770"
            d="M2804.87625,1489.3241l-69.3154-13.4054a15.40309,15.40309,0,0,0-13.732,4.1415l-50.2974,49.4798a15.4777,15.4777,0,0,1-26.2111-9.1002l-8.6642-70.0239a15.55814,15.55814,0,0,0-8.2285-11.8249l-62.5583-32.5322a15.06068,15.06068,0,0,1-8.0649-10.8444l25.9388-15.8028,59.3903,29.6952a45.43148,45.43148,0,0,1,24.7517,34.9106l3.2244,25.3868a7.29587,7.29587,0,0,0,12.4363,4.1998l16.8737-17.1357a45.4308,45.4308,0,0,1,43.3554-12.2071l73.253,18.2524s1.09.5993,2.9971,1.6347l1.5805,3.1062A15.44167,15.44167,0,0,1,2804.87625,1489.3241Z"
            opacity=".3" />
    </g>
    <g opacity=".7">
        <circle cx="662.097" cy="1212.606" r="148.663" fill="#2ecc71"
            transform="rotate(-45 662.097 1212.606)" />
        <path fill="#22a7f0"
            d="M782.03755,1247.4919c-21.0755-25.5825-64.4307,10.0875-85.4761-15.4864-21.0365-25.6034,22.3188-61.2737,1.2734-86.8473-21.0365-25.6036-64.3917,10.0664-85.4371-15.5072-14.1232-17.175.7719-38.888,5.7255-59.0606a149.18243,149.18243,0,0,0-19.63,7.7687c.0071-.0258.016-.0513.023-.077-.3922.1843-.767.4039-1.1574.5919-1.7307.8375-3.4331,1.7199-5.13,2.6234q-2.6994,1.4307-5.3323,2.9776c-1.3878.8133-2.7764,1.6168-4.1375,2.4749-2.3762,1.4936-4.695,3.0746-6.9851,4.7031-.74.5268-1.5086,1.0086-2.2391,1.5493-2.9954,2.214-5.8966,4.5598-8.7246,7.0004-.8437.7287-1.6469,1.5037-2.4752,2.252-2.0211,1.8257-4.0023,3.6956-5.9252,5.636-.9329.9412-1.8472,1.899-2.7559,2.8669-1.8254,1.9438-3.5909,3.9458-5.3154,5.9942-.7806.9274-1.5782,1.8352-2.3373,2.7837-2.3983,2.9957-4.719,6.0644-6.8918,9.2635-5.0376,14.056-8.9457,27.9304.7121,39.6921,21.0457,25.5736,64.4009-10.0964,85.4374,15.5073,21.0454,25.5739-22.3099,61.2439-1.2645,86.8175,21.0365,25.6036,64.392-10.0664,85.4671,15.5164a26.90348,26.90348,0,0,1,2.6099,3.7864c.3656.6428.6048,1.3052.9038,1.9584.2994.6533.6548,1.2976.8913,1.9604.26.7296.4066,1.477.5956,2.2179.1545.607.3606,1.2053.4704,1.8193.1362.7621.176,1.5395.2475,2.3121.0567.6103.1555,1.2142.1745,1.8306.0242.783-.031,1.5785-.0622,2.3704-.0249.6204-.016,1.2347-.0721,1.86-.0724.806-.2086,1.6215-.3282,2.4348-.0917.6226-.1576,1.2411-.2745,1.8677-.1542.8274-.3569,1.6622-.5498,2.4955-.1448.6238-.2699,1.2445-.4334,1.8714-.2248.8621-.4849,1.7297-.7406,2.5964-.1776.602-.3414,1.2016-.5315,1.8055-.3036.9651-.63,1.9336-.9587,2.9027-.1678.4944-.3266.9876-.4993,1.4826-1.0958,3.1441-2.2676,6.2996-3.3978,9.448-.0359.1003-.0702.2003-.1061.3006q-.714,1.9956-1.3822,3.9832c-.1058.3162-.2037.6312-.3073.9471-.3803,1.1592-.7431,2.3154-1.0808,3.4676-.1073.3671-.2015.7321-.3033,1.0986-.3094,1.1077-.5959,2.2118-.848,3.3104-.0862.3766-.1558.7504-.234,1.1255-.2269,1.0826-.4247,2.1603-.5796,3.2315-.0537.3757-.0893.7487-.1331,1.1228-.0819.691-.2006,1.3875-.246,2.0726.0285-.0123.0555-.027.0841-.0393-.0347.5288-.1154,1.0652-.1264,1.5902a148.87926,148.87926,0,0,0,73.637-47.451C780.35625,1287.6704,796.56065,1265.1778,782.03755,1247.4919Z" />
        <path fill="#fff"
            d="M782.03755,1247.4919c-21.0755-25.5825-64.4307,10.0875-85.4761-15.4864-21.0365-25.6034,22.3188-61.2737,1.2734-86.8473-21.0365-25.6036-64.3917,10.0664-85.4371-15.5072-14.1232-17.175.7719-38.888,5.7255-59.0606a149.18243,149.18243,0,0,0-19.63,7.7687c.0071-.0258.016-.0513.023-.077-.3922.1843-.767.4039-1.1574.5919-1.7307.8375-3.4331,1.7199-5.13,2.6234q-2.6994,1.4307-5.3323,2.9776c-1.3878.8133-2.7764,1.6168-4.1375,2.4749-2.3762,1.4936-4.695,3.0746-6.9851,4.7031-.74.5268-1.5086,1.0086-2.2391,1.5493-2.9954,2.214-5.8966,4.5598-8.7246,7.0004-.8437.7287-1.6469,1.5037-2.4752,2.252-2.0211,1.8257-4.0023,3.6956-5.9252,5.636-.9329.9412-1.8472,1.899-2.7559,2.8669-1.8254,1.9438-3.5909,3.9458-5.3154,5.9942-.7806.9274-1.5782,1.8352-2.3373,2.7837-2.3983,2.9957-4.719,6.0644-6.8918,9.2635q-.6294,1.75545-1.2219,3.5051c.135-.1583.2675-.319.4015-.4781q2.58675-3.0726,5.3155-5.9942c.9087-.9679,1.8229-1.9257,2.7558-2.8669,1.923-1.9404,3.9041-3.8103,5.9252-5.636.8284-.7483,1.6316-1.5233,2.4753-2.252,2.8279-2.4406,5.7292-4.7864,8.7246-7.0004.7305-.5406,1.499-1.0224,2.2391-1.5493,2.29-1.6285,4.6088-3.2095,6.985-4.7031,1.3611-.8581,2.7498-1.6616,4.1375-2.4749q2.63925-1.54155,5.3324-2.9776c1.6969-.9035,3.3993-1.7859,5.1299-2.6234.3904-.188.7652-.4076,1.1574-.5919-.007.0257-.0159.0512-.023.077a149.18375,149.18375,0,0,1,19.6301-7.7687c-4.9536,20.1726-19.8487,41.8856-5.7256,59.0606,21.0454,25.5736,64.4006-10.0964,85.4371,15.5072,21.0454,25.5736-22.3098,61.2439-1.2733,86.8473,21.0453,25.5739,64.4006-10.0961,85.476,15.4864,13.1589,16.0246,1.1145,35.992-4.5975,54.9565,2.9414-2.9513,5.7942-6.0009,8.4902-9.2104C780.35625,1287.6704,796.56065,1265.1778,782.03755,1247.4919Z"
            opacity=".65" />
        <path fill="#fff"
            d="M810.124,1226.6479a148.68087,148.68087,0,0,0-296.3737-4.0321,148.68517,148.68517,0,1,1,296.3737,4.0321Z"
            opacity=".65" />
        <path fill="#102770"
            d="M662.01415,1373.8464a160.7347,160.7347,0,0,1-46.3111-6.8335c-85.1391-25.581-133.5913-115.6591-108.0126-200.8007,25.5834-85.1319,115.6396-133.5865,200.8007-108.0127,85.1392,25.581,133.5913,115.6591,108.0127,200.8007h0C795.55415,1328.7268,731.34275,1373.8464,662.01415,1373.8464Zm.1513-297.3559c-58.5278,0-112.727,38.0859-130.4125,96.9531-21.5943,71.8726,19.309,147.9126,91.1816,169.5068,71.8555,21.5918,147.915-19.309,169.5068-91.1816,21.5943-71.8726-19.3091-147.9126-91.1816-169.5068A135.69918,135.69918,0,0,0,662.16545,1076.4905Z" />
        <path fill="#102770"
            d="M804.48855,1255.3776a148.68512,148.68512,0,0,1-290.6818-53.6565,148.69185,148.69185,0,0,0,277.443-62.7297A148.15354,148.15354,0,0,1,804.48855,1255.3776Z"
            opacity=".3" />
        <path fill="#102770"
            d="M702.24365,1363.5608a7.80058,7.80058,0,0,1-7.7979-7.9639c.2051-9.5727,3.6768-19.0942,7.0337-28.3032,6.001-16.4624,9.126-27.085,1.9556-35.8105-7.1826-8.7256-18.208-7.7076-35.5103-4.9976-17.1631,2.6831-36.6137,5.7227-49.956-10.5176-13.3496-16.2231-6.6138-34.7143-.669-51.0303,5.9912-16.4477,9.1114-27.0654,1.9361-35.7836-7.1704-8.733-18.1885-7.7222-35.4981-5.0147-17.1484,2.6807-36.5869,5.73-49.939-10.4932-13.208-16.0839-6.4819-34.8559-2.0312-47.2778a7.77087,7.77087,0,0,1,.8887-1.7505,157.09219,157.09219,0,0,1,83.1543-61.477,7.798,7.798,0,0,1,9.8852,9.3091,160.86312,160.86312,0,0,1-5.3345,16.4575c-5.9912,16.4502-9.1137,27.0678-1.9409,35.791,7.1729,8.7109,18.1812,7.7026,35.481,4.9927,17.1582-2.6905,36.6113-5.7325,49.9585,10.5151,13.3496,16.2207,6.6138,34.7144.6689,51.0327-5.9936,16.4575-9.1162,27.0825-1.9409,35.8154,7.1729,8.711,18.1885,7.7027,35.4883,4.9878,17.1631-2.6904,36.6113-5.7397,49.9805,10.4908,13.3447,16.25,6.5991,34.7461.6494,51.0669a129.594,129.594,0,0,0-5.2027,16.3647,7.80906,7.80906,0,0,1-1.6504,3.3643,155.83875,155.83875,0,0,1-77.5,49.9414A7.78053,7.78053,0,0,1,702.24365,1363.5608Zm-16.1866-94.624c10.8057,0,21.25,2.7148,29.4239,12.6367,13.3471,16.2402,6.604,34.7388.6518,51.062-1.4624,4.0112-2.8857,7.9175-3.9892,11.665a140.06361,140.06361,0,0,0,56.5698-39.5996,161.06864,161.06864,0,0,1,5.3369-16.4453c6.0034-16.4599,9.1309-27.0825,1.9605-35.8154-7.1827-8.7183-18.2154-7.71-35.5201-4.9878-17.163,2.688-36.6015,5.73-49.9511-10.4907-13.3472-16.2451-6.6089-34.7412-.6665-51.062,5.9936-16.4502,9.1137-27.0679,1.9384-35.7862-7.1752-8.7353-18.1982-7.7197-35.498-5.0122-17.1509,2.6856-36.5894,5.73-49.939-10.4931-13.3471-16.233-6.6113-34.7242-.6689-51.0376.0073-.0171.0122-.0342.0195-.0513a141.32876,141.32876,0,0,0-59.6094,49.0478c-5.1611,14.607-6.5502,23.523-.2661,31.1744,7.168,8.7085,18.1885,7.6953,35.4761,4.9877,17.1631-2.6879,36.6113-5.7299,49.9585,10.5176,13.3496,16.2232,6.6138,34.7144.6689,51.0303-5.9912,16.4502-9.1113,27.0654-1.936,35.7837,7.1777,8.7353,18.2007,7.7295,35.4956,5.0146C672.17775,1270.033,679.19185,1268.9368,686.05705,1268.9368Zm89.8243,39.375h0Z" />
    </g>
</svg>