<svg xmlns="http://www.w3.org/2000/svg" data-name="Layer 1" viewBox="0 0 3200 3300">
    <path fill="#ffa726"
        d="M1519.30523,1418.76616c-459.8219-17.5316-683.5303-286.4533-447.8267-610.3793-100.4739-261.4373,45.931-296.9107,270.4082-160.502,94.989-37.8316,252.2615-37.7289,356.4264,1.0253,209.0471-125.9,371.5485-141.2787,268.7678,159.4767C2218.47073,1153.74046,1879.26863,1432.45306,1519.30523,1418.76616Z" />
    <path fill="#fff"
        d="M1665.68713,667.84356c-89.6576-24.5074-205.2262-24.9866-289.9889-1.7901-22.0249,6.0274-45.5655,3.8261-65.5481-7.2247-152.1947-84.1665-261.8098-82.2357-270.3516,24.6321-10.3551-143.7905,120.2612-146.046,302.0882-35.576,94.989-37.8316,252.2615-37.7289,356.4264,1.0253,170.4982-102.6784,310.0338-131.8466,299.9353,24.0933-8.4524-113.8911-123.5773-94.0185-267.7185-13.4393A86.36172,86.36172,0,0,1,1665.68713,667.84356Z"
        opacity=".65" />
    <path fill="#102770"
        d="M1519.30523,1429.75736c-357.9126-13.6359-572.8041-179.6227-539.2784-405.2791,28.3479,178.9563,230.6287,303.9336,539.2784,315.7238,255.2348,9.6887,500.0119-127.5914,531.2304-331.4614C2087.906,1260.69466,1810.37223,1440.82986,1519.30523,1429.75736Z"
        opacity=".3" />
    <path fill="#102770"
        d="M1826.20313,1055.01966c-7.4936.283-14.0219-.6952-20.4947-1.1901-6.4305-.5122-12.781-.7283-18.948-1.0969a329.91665,329.91665,0,0,0-36.8903.9602c-12.3915.5434-24.8913,2.5614-37.7244,4.726-6.3929,1.1668-12.9048,2.3501-19.4617,3.7304a193.42,193.42,0,0,1-20.2545,3.6304l-.2092.0255a2.64842,2.64842,0,0,1-2.0696-4.6173c10.6105-9.3359,22.2521-17.666,35.2726-23.5239a148.9769,148.9769,0,0,1,41.4248-12.5395,111.17787,111.17787,0,0,1,43.9989,2.9253,88.1527,88.1527,0,0,1,20.4497,8.4782,89.78427,89.78427,0,0,1,17.1647,13.8898,2.70907,2.70907,0,0,1-1.844,4.5863Z" />
    <path fill="#102770"
        d="M1822.43773,975.18936c0,22.4529-5.8953,43.0601-15.6862,59.2078-32.5004-10.9702-66.9485-7.2278-102.832,7.3818-12.7133-17.0191-20.6075-40.5483-20.6075-66.5896,0-51.775,31.1162-93.7588,69.5628-93.7588,18.9671,0,36.0885,10.2015,48.6478,26.7591,12.3031,16.1987,20.1461,38.5493,20.8125,63.36C1822.43773,972.72886,1822.43773,973.95916,1822.43773,975.18936Z" />
    <path fill="#102770"
        d="M1703.941,1052.83806a11.083,11.083,0,0,1-8.8696-4.436c-14.7192-19.6436-22.8247-45.6445-22.8247-73.2178,0-57.7978,36.167-104.8218,80.6225-104.8218,44.48,0,80.6665,47.024,80.6665,104.8218,0,23.8623-5.9814,46.3257-17.2998,64.9634a11.08084,11.08084,0,0,1-13.0029,4.7534c-28.5815-9.6167-59.6924-7.2876-95.1196,7.1192A11.07012,11.07012,0,0,1,1703.941,1052.83806Zm48.9282-160.3125c-32.2363,0-58.4594,37.0801-58.4594,82.6587,0,19.6607,4.8535,38.1885,13.789,53.0664,33.2715-12.041,64.5166-14.3945,93.1104-7.0215a107.283,107.283,0,0,0,10.0635-46.0449C1811.37273,929.60566,1785.13,892.52556,1752.86923,892.52556Z" />
    <path fill="#102770"
        d="M1359.19193,1065.77966a120.83409,120.83409,0,0,1-20.8243-2.2526c-6.61-1.1609-13.0721-2.324-19.3854-3.5849-12.6449-2.5051-24.9937-4.5458-37.2311-6.2493-6.1229-.9486-12.2537-1.7138-18.4424-2.1165-6.189-.4-12.3865-.4091-18.7094-.4235-6.2622.2689-12.7052.5085-19.1448,1.258-6.4328.8391-12.9318,2.0775-20.0364,2.6088l-.3784.0284a2.62463,2.62463,0,0,1-1.8799-4.6303c2.7125-2.2696,5.547-4.466,8.493-6.541a78.77173,78.77173,0,0,1,9.13-5.93,105.704,105.704,0,0,1,20.2531-8.3173,127.26745,127.26745,0,0,1,43.7372-4.505c14.6985,1.0117,28.8157,5.276,41.9183,11.0162a102.03755,102.03755,0,0,1,34.7791,25.0472,2.74128,2.74128,0,0,1-2.0325,4.5935Z" />
    <path fill="#102770"
        d="M1209.18353,975.18936c0,22.4529,5.8953,43.0601,15.6863,59.2078,32.5003-10.9702,66.9484-7.2278,102.832,7.3818,12.7132-17.0191,20.6075-40.5483,20.6075-66.5896,0-51.775-31.1162-93.7588-69.5629-93.7588-18.9671,0-36.0885,10.2015-48.6478,26.7591-12.3031,16.1987-20.146,38.5493-20.8125,63.36C1209.18353,972.72886,1209.18353,973.95916,1209.18353,975.18936Z" />
    <path fill="#102770"
        d="M1327.68133,1052.83806a11.06072,11.06072,0,0,1-4.1724-.8178c-35.4248-14.4068-66.543-16.7359-95.1172-7.1192a11.082,11.082,0,0,1-13.0054-4.7534c-11.3183-18.6401-17.3022-41.1035-17.3022-64.9634,0-57.7978,36.1865-104.8218,80.6665-104.8218,44.4556,0,80.6226,47.024,80.6226,104.8218,0,27.5757-8.1055,53.5767-22.8223,73.2178A11.083,11.083,0,0,1,1327.68133,1052.83806Zm-63.7207-35.8032c18.9404,0,38.811,3.7427,59.4628,11.2158,8.9356-14.8779,13.7867-33.4033,13.7867-53.0664,0-45.5786-26.2232-82.6587-58.4595-82.6587-32.2608,0-58.5034,37.0801-58.5034,82.6587a107.3,107.3,0,0,0,10.0659,46.0449A134.22163,134.22163,0,0,1,1263.96063,1017.03486Z" />
    <path fill="#fff"
        d="M1925.04583,759.77756c-2.2642,31.7185-20.4261,37.2637-30.437,22.1068-2.2427-15.3787-74.9424-57.266-96.7482-60.5831l14.1871-17.9122Z"
        opacity=".65" />
    <path fill="#fff"
        d="M1109.76153,759.77756c2.2641,31.7185,20.426,37.2637,30.4369,22.1068,2.2428-15.3787,74.9425-57.266,96.7483-60.5831l-14.1871-17.9122Z"
        opacity=".65" />
    <path fill="#102770"
        d="M1745.646,688.46246c-16.2651-12.9416-34.5387-21.9693-53.4141-28.2714a13.00663,13.00663,0,1,1,11.924-22.7463l.2382.1844c17.7146,13.4024,33.4629,29.3704,45.0605,47.4021a2.597,2.597,0,0,1-3.8086,3.4312Z" />
    <path fill="#102770"
        d="M1347.73863,659.28646a273.5065,273.5065,0,0,0-28.1495,10.3171c-9.0749,4.0296-17.9071,8.6732-25.5573,15.0725l-.0558.0467a2.5926,2.5926,0,0,1-3.8848-3.3255c5.5741-9.2605,13.0959-17.2671,20.9755-24.5949a292.85641,292.85641,0,0,1,24.9681-20.3189l.0888-.0656a13.00275,13.00275,0,1,1,15.4401,20.9258A13.3108,13.3108,0,0,1,1347.73863,659.28646Z" />
    <path fill="#102770"
        d="M1544.49523,1432.05926q-12.82095,0-25.6762-.4883h-.0025c-129.1138-4.9218-245.3808-30.2685-336.2305-73.2959-89.9365-42.5976-155.7128-102.6928-190.2172-173.7915-53.5352-110.31-30.5396-244.3261,64.6826-377.9931-52.7393-141.0083-27.3291-201.4307,3.6303-227.2876,50.9107-42.5196,153.6646-22.6294,282.4537,54.4677,96.9604-36.1596,249.3676-35.6958,353.8159,1.1158,96.2939-57.3365,221.2573-113.5596,281.5698-64.8853,43.3691,35,44.3042,112.3389,2.8101,236.3501,93.042,130.8179,110.4126,266.1768,48.7939,381.7603C1952.36633,1333.866,1755.13,1432.05926,1544.49523,1432.05926Zm-24.7046-26.0986c210.7178,7.9565,411.2476-86.5723,487.7173-230.0073,58.4326-109.6094,40.8716-234.104-50.7886-360.0245a12.81772,12.81772,0,0,1-1.7651-11.687c38.6255-113.0297,41.2085-187.1655,7.4683-214.3945-38.9136-31.4038-130.3589-6.5283-257.4976,70.0415a12.83347,12.83347,0,0,1-11.0791,1.0327c-101.4893-37.7563-254.0015-38.2544-347.2168-1.1303a12.81475,12.81475,0,0,1-11.3965-.9546c-119.5801-72.6685-216.0742-95.083-258.1201-59.961-35.354,29.5288-33.1079,102.3023,6.3281,204.9146a12.81443,12.81443,0,0,1-1.5991,12.1362c-94.1284,129.3604-117.0947,252.937-66.4136,357.3682,66.0816,136.1645,254.6289,223.1421,504.3653,232.666Z" />
    <path fill="#102770"
        d="M1793.04553,731.73206c-1.2364-6.965-.5885-13.9397.8624-20.8805a57.33212,57.33212,0,0,1,3.3434-10.5845c1.6859-3.5932,3.4291-7.3759,8.2446-11.461l.0264-.0227a7.64876,7.64876,0,0,1,5.3439-1.8536l1.7694.0812.0508.0024a12.81557,12.81557,0,1,1-1.175,25.6042l-.0507-.0024,7.1115-1.7719-.0029-.0026c-.4181-.7884-2.8082.1597-4.7586,1.5064a38.17477,38.17477,0,0,0-6.0991,5.2725,45.35938,45.35938,0,0,0-9.5453,14.3475l-.097.2513a2.62011,2.62011,0,0,1-5.0238-.4863Z" />
    <path fill="#102770"
        d="M1952.36973,631.49016a90.40062,90.40062,0,0,0-21.3054,5.1867,58.9195,58.9195,0,0,0-9.1107,4.523c-2.8554,1.6642-5.3696,3.8069-7.9479,5.6474a13.00906,13.00906,0,1,1-11.6904-22.9271l.6945-.2254a61.86274,61.86274,0,0,1,13.1248-2.4006,77.61369,77.61369,0,0,1,12.981-.0293,101.16325,101.16325,0,0,1,23.7594,5.1241,2.62739,2.62739,0,0,1-.4774,5.0981Z" />
    <path fill="#fa5c98"
        d="M1912.25983,763.73356c-27.6262-29.7997-60.4955-45.9845-100.161-63.9182,25.2211-32.9679,57.9331-55.8419,96.4091-64.5445C1944.71683,652.48156,1936.63793,715.589,1912.25983,763.73356Z" />
    <path fill="#102770"
        d="M1912.88153,768.17746l-2.5025-2.7002c-27.2168-29.3628-59.6997-45.4053-99.3384-63.3252l-2.9394-1.3306,1.9604-2.5635c26.2354-34.2919,60.083-56.9384,97.8809-65.4882l.8667-.1953.8008.3808c10.5078,4.9951,17.9736,13.7818,22.1875,26.1157,8.8916,26.0303,2.1191,67.5684-17.251,105.8204Zm-96.7652-69.3555c37.6245,17.085,68.8501,32.8418,95.4785,60.4785,17.5342-36.1425,23.5694-74.5117,15.3516-98.5717-3.6426-10.6617-9.9487-18.313-18.75-22.7588C1872.87663,646.18526,1841.11393,667.18626,1816.11633,698.822Z" />
    <path fill="#102770"
        d="M1932.22263,700.53126c-2.4608-16.7115-9.8426-30.0399-23.7344-36.6526-29.886,6.7666-56.3372,22.094-78.4825,44.188-5.7926-2.7681-11.7905-5.4851-17.8908-8.2532,25.2213-32.9615,57.9266-55.8246,96.3733-64.5392C1929.71053,645.37306,1935.70843,671.15776,1932.22263,700.53126Z"
        opacity=".3" />
    <path fill="#102770"
        d="M1912.25893,776.54906a12.82324,12.82324,0,0,1-9.3994-4.1016c-25.9131-27.9565-57.4732-43.5156-96.0425-60.9546a12.8148,12.8148,0,0,1-4.8975-19.4653c27.7124-36.2207,63.5913-60.1709,103.7622-69.2578a12.858,12.858,0,0,1,8.3301.9253c12.9151,6.1401,22.4195,17.2265,27.4878,32.0629,11.8213,34.607-1.4477,81.46-17.8076,113.7647a12.81011,12.81011,0,0,1-9.6533,6.9019A12.49632,12.49632,0,0,1,1912.25893,776.54906Zm-79.5947-81.399c28.4985,13.3277,53.3178,26.7701,75.476,46.5894,11.7237-29.397,15.4346-59.165,9.104-77.6978-2.3193-6.7895-5.8178-11.77-10.6347-15.1147C1878.96793,656.20966,1853.71893,672.02266,1832.66423,695.15006Z" />
    <path fill="#102770"
        d="M1812.10753,712.63056c-.2051,0-.4126-.0049-.6201-.0146l-.0513-.0025a12.78955,12.78955,0,1,1,.6714.0171Z" />
    <path fill="#102770"
        d="M1224.50393,697.255l-.4146-10.1422a1.97831,1.97831,0,0,1,3.2514-1.5936l3.8574,3.2642c4.8296,4.0867,6.5752,7.8731,8.2642,11.4681a57.3055,57.3055,0,0,1,3.348,10.59c1.4528,6.9441,2.1013,13.9223.8646,20.8906a2.62036,2.62036,0,0,1-5.0223.4911l-.0985-.2561a45.37,45.37,0,0,0-9.551-14.3534,38.12931,38.12931,0,0,0-6.1024-5.2725c-1.9507-1.346-4.3427-2.291-4.7527-1.4979l7.1071,1.6701-.516-10.1375Z" />
    <path fill="#102770"
        d="M1122.71473,646.84726c-2.5783-1.8405-5.0925-3.9832-7.9479-5.6474a58.92508,58.92508,0,0,0-9.1108-4.523,90.39821,90.39821,0,0,0-21.3054-5.1867l-.0249-.0032a2.62706,2.62706,0,0,1-.4804-5.098,101.16519,101.16519,0,0,1,23.7595-5.1241,77.61372,77.61372,0,0,1,12.981.0293,61.86274,61.86274,0,0,1,13.1248,2.4006l.6365.2098a13.00909,13.00909,0,0,1-8.1481,24.7094A13.39719,13.39719,0,0,1,1122.71473,646.84726Z" />
    <path fill="#fa5c98"
        d="M1124.46063,763.73356c27.6262-29.7997,60.4954-45.9845,100.1609-63.9182-25.221-32.9679-57.9331-55.8419-96.409-64.5445C1092.00363,652.48156,1100.08253,715.589,1124.46063,763.73356Z" />
    <path fill="#102770"
        d="M1123.83853,768.17746l-1.6651-3.2861c-19.3701-38.2544-26.1401-79.7925-17.2485-105.8204,4.2139-12.3339,11.6797-21.1206,22.1875-26.1157l.8008-.3808.8667.1953c37.7978,8.5498,71.6431,31.1963,97.8784,65.4882l1.9605,2.5635-2.9395,1.3306c-39.6362,17.9199-72.1167,33.9624-99.3384,63.3252ZM1128.526,637.97c-8.8037,4.4458-15.1074,12.0971-18.75,22.7588-8.2178,24.0576-2.1851,62.4267,15.3491,98.5717,26.6333-27.6416,57.854-43.3935,95.4785-60.4785C1195.60613,667.18626,1163.84343,646.18526,1128.526,637.97Z" />
    <path fill="#102770"
        d="M1224.59873,699.81346c-6.4078,2.8707-12.6103,5.7414-18.6595,8.6121-21.4276-20.2487-46.6485-34.3971-74.9964-40.8049-16.0964,7.6383-23.4268,24.2986-24.5035,44.7521-6.7666-34.0381-2.2555-65.6668,21.7865-77.0985C1166.67253,643.98886,1199.37783,666.852,1224.59873,699.81346Z"
        opacity=".3" />
    <path fill="#102770"
        d="M1124.461,776.54906a12.55426,12.55426,0,0,1-1.7822-.1245,12.8063,12.8063,0,0,1-9.6509-6.9019c-16.3598-32.3071-29.6264-79.1602-17.8051-113.7671,5.0683-14.834,14.5727-25.9204,27.4902-32.0605a12.786,12.786,0,0,1,8.3276-.9253c40.1685,9.0869,76.0498,33.0371,103.7598,69.2578a12.81464,12.81464,0,0,1-4.8975,19.4653c-38.5669,17.4365-70.1245,32.9981-96.0449,60.9546A12.81388,12.81388,0,0,1,1124.461,776.54906Zm5.6519-127.6221c-4.8193,3.3447-8.3154,8.3252-10.6348,15.1147-6.3305,18.5303-2.6196,48.2984,9.1016,77.6978,22.1606-19.8218,46.98-33.2617,75.4761-46.5894C1183.00113,672.02266,1157.75213,656.20966,1130.11293,648.927Z" />
    <path fill="#102770"
        d="M1224.61243,712.63056a12.84133,12.84133,0,1,1,.6714-.0171l-.0513.0025C1225.025,712.62566,1224.81753,712.63056,1224.61243,712.63056Z" />
    <path fill="#102770" d="M1475.86063,623.98666c29.7734,152.9673,57.3505,154.5684,82.6719.6805Z" />
    <path fill="#102770" d="M1595.04773,626.26366c-3.1278,109.6826,15.5715,115.034,56.6928,13.213Z" />
    <path fill="#102770" d="M1437.32743,626.26366c3.1278,109.6826-15.5715,115.034-56.6927,13.213Z" />
    <path fill="#ee346a"
        d="M2065.86293,1322.75216a38.39413,38.39413,0,0,1-13.9944,29.5267c-.0514,0-.0514.0513-.1027.0513a25.15873,25.15873,0,0,1-2.9729,2.2556c-60.0795,40.3433-129.3348,71.6135-203.87,94.0664-215.0964,64.8978-474.3805,56.7983-685.376-17.5829a889.13023,889.13023,0,0,1-95.04-39.6773,742.02292,742.02292,0,0,1-67.7688-37.5239,37.2964,37.2964,0,0,1-15.2248-45.0594,36.91577,36.91577,0,0,1,31.1162-23.4782,26.53537,26.53537,0,0,1,3.4858-.2049,37.202,37.202,0,0,1,19.326,5.4337c281.0705,170.1907,696.6021,171.8824,972.0855.0513a36.42647,36.42647,0,0,1,9.637-4.2548,38.02131,38.02131,0,0,1,48.6991,36.3964Z" />
    <path fill="#fff"
        d="M2066.18333,1323.71326a37.80455,37.80455,0,0,1-2.4091,13.2768c-.3076-.8201-.6152-1.5891-.974-2.4092a38.01709,38.01709,0,0,0-45.316-20.8125,36.42255,36.42255,0,0,0-9.637,4.2546c-275.4834,171.8311-691.015,170.1393-972.0855-.051a37.19871,37.19871,0,0,0-19.326-5.4341,26.48416,26.48416,0,0,0-3.4858.2052,36.91509,36.91509,0,0,0-31.1162,23.4782c0,.051-.0513.051-.0513.1023a36.97533,36.97533,0,0,1,31.1675-50.0319,26.51828,26.51828,0,0,1,3.4858-.205,37.2021,37.2021,0,0,1,19.326,5.4338c281.0705,170.1906,696.6021,171.8824,972.0855.0513a36.42,36.42,0,0,1,9.637-4.2548,38.02131,38.02131,0,0,1,48.6991,36.3963Z"
        opacity=".55" />
    <path fill="#102770"
        d="M1532.73013,1505.69206c-129.2041.0025-259.4995-20.9594-377.4439-62.5366a904.45187,904.45187,0,0,1-96.416-40.2539,758.03583,758.03583,0,0,1-68.9331-38.1714,50.251,50.251,0,0,1-20.376-60.542,49.54672,49.54672,0,0,1,41.8946-31.6186,36.15352,36.15352,0,0,1,4.6606-.2588,50.16664,50.16664,0,0,1,25.9595,7.2851c277.3901,167.959,689.5239,168.0201,958.6694.1416a48.99655,48.99655,0,0,1,12.9492-5.7177,50.8157,50.8157,0,0,1,46.316,88.1543c-.1416.1172-.2857.2319-.4297.3418a38.80831,38.80831,0,0,1-3.8037,2.8149c-59.4263,39.9048-129.1773,72.1021-207.1582,95.5908C1749.47813,1490.83616,1641.48743,1505.68966,1532.73013,1505.69206Zm-516.6138-207.7514a13.92011,13.92011,0,0,0-1.8286.0976,24.28139,24.28139,0,0,0-20.8252,15.4053,24.57842,24.57842,0,0,0,10.0781,29.563,731.74721,731.74721,0,0,0,66.5992,36.875,878.7607,878.7607,0,0,0,93.6718,39.1015c209.1016,73.711,468.6646,80.3858,677.4097,17.3975,75.5347-22.7515,142.9663-53.8501,200.4272-92.4341a13.48024,13.48024,0,0,0,1.604-1.1938q.44325-.39555.918-.7447a25.70651,25.70651,0,0,0,8.877-19.2553,25.20687,25.20687,0,0,0-32.2827-24.0967,23.80089,23.80089,0,0,0-6.3794,2.7832c-134.6851,84.0063-308.4595,130.2173-489.4849,130.2222-.4541,0-.8838-.0025-1.3379-.0025-180.8301-.227-356.5405-46.4428-494.7583-130.1367A24.546,24.546,0,0,0,1016.11633,1297.94066Z" />
    <path fill="#fff"
        d="M1544.32123,268.80066c-123.5419,0-238.7283,36.9089-335.9212,100.6791,27.5791,49.9293-52.3389,109.8036-105.0363,86.428-116.2626,118.4159-188.3376,283.2751-188.3376,465.6662,0,134.7682,39.3696,260.0531,106.9332,364.013a37.42532,37.42532,0,0,0-5.844-.4614,26.53537,26.53537,0,0,0-3.4858.2049c-79.5077-109.2908-126.669-245.3409-126.669-392.8224,0-360.527,281.7373-652.773,629.2951-652.773,176.8033,0,336.5876,75.6118,450.9026,197.4109C1854.50893,332.51956,1706.61753,268.80066,1544.32123,268.80066Z"
        opacity=".65" />
    <path fill="#102770"
        d="M2319.95663,1125.18916a12.81883,12.81883,0,0,1-11.1865-19.0478c5.6739-10.2027,10.918-20.7032,15.5835-31.2134a12.8163,12.8163,0,1,1,23.4278,10.4004c-4.9781,11.2085-10.5665,22.4023-16.6138,33.2739A12.80962,12.80962,0,0,1,2319.95663,1125.18916Z" />
    <path fill="#fff"
        d="M2551.62383,1127.49416c-54.8503,269.4342-220.4275,434.7036-453.0555,537.5356q-22.9911,10.15005-46.8025,19.4796,10.304,33.37185,19.1211,67.9737,4.7673,18.45465,8.9708,37.2165c1.7941,7.7919,3.5372,15.6349,5.1776,23.5295a1552.90635,1552.90635,0,0,1,33.2691,293.8351q.53835,24.14415.0513,48.0326c-3.7936,227.1429-62.335,440.1374-191.6695,562.449-1.3842,1.3842-2.768,2.6657-4.1522,3.9473.8713,1.1276,1.6917,2.2042,2.4605,3.3318l1.2815,1.6405a385.76673,385.76673,0,0,1,28.707,44.4955c127.6428,232.8333-148.6094,381.3398-260.1047,222.9907-13.3794-19.0181-22.299-40.7532-27.8354-63.36-21.7864-89.3501-36.7549-175.3679-42.9577-257.1312,0-85.5054,133.5893-126.5151,105.4464-298.4488-123.2856-25.4772-259.0792-23.5292-379.2891,1.3842-.0514.3588-.1027.769-.1537,1.1276-26.4515,169.8317,105.805,210.8928,105.805,295.937-6.2025,81.7633-21.1713,167.7811-42.9577,257.1312-5.5361,22.6068-14.4557,44.3419-27.8354,63.36-96.0654,136.4603-314.4423,45.0597-291.3743-131.7437,5.4851-42.5989,25.067-90.2217,63.7189-140.7148-132.2565-121.6965-192.0284-336.8442-195.873-566.3963-.2563-15.9428-.2563-31.9875,0-48.0326a1555.53979,1555.53979,0,0,1,36.0888-306.5484q6.76605-30.75735,14.7632-60.7456c3.1272-11.9955,6.4591-23.888,9.8939-35.6273q-49.3659,26.6052-84.2241,62.6426a220.2779,220.2779,0,0,0-32.8077,23.1193c.3076,1.4352.6152,2.8194.974,4.2032a88.49293,88.49293,0,0,0,2.5118,8.6124c-25.1186,36.4986-41.2147,78.9949-47.9813,127.4378,12.354,9.3297,20.7098,20.7098,25.1183,32.7053,12.6106,33.8329-5.9463,72.4335-54.1329,83.0445-15.3274,178.3415-257.38743,132.0516-226.989-52.2872q.15345-.7692.3076-1.5381c48.084-240.8298,214.5322-480.7883,459.412-600.6907a889.13023,889.13023,0,0,0,95.04,39.6773c210.9955,74.3812,470.2796,82.4807,685.376,17.5829,74.5352-22.4529,143.7905-53.7231,203.87-94.0664a25.15873,25.15873,0,0,0,2.9729-2.2556c.0513,0,.0513-.0513.1027-.0513,121.6451-65.2054,214.5325-143.5342,268.1013-239.9071-52.7487-55.1582-37.1138-122.8754,42.0864-88.1711,24.7084-100.1149,93.7075-113.5969,142.6116-73.5098C2542.96053,982.06326,2568.95053,1046.29466,2551.62383,1127.49416Z" />
    <path fill="#ee346a"
        d="M992.67293,2431.484s165.2798,143.3138,354.3297-25.7413l2.4288,52.0134s-218.3505,194.1554-336.2536,24.9901Z" />
    <path fill="#ee346a"
        d="M2087.60743,2431.484s-165.2798,143.3138-354.3297-25.7413l-2.4288,52.0134s218.3505,194.1554,336.2536,24.9901Z" />
    <path fill="#ee346a"
        d="M845.25833,1551.74036l-33.8048,32.8793s89.6631,21.3518,107.247,77.8356l31.3967-9.0719S933.65,1574.212,845.25833,1551.74036Z" />
    <path fill="#ee346a"
        d="M2174.26713,1260.14216l-43.8939,45.4812s30.9175,231.2693,183.5031,228.739l22.2134-19.2877S2176.83023,1452.37546,2174.26713,1260.14216Z" />
    <path fill="#102770"
        d="M2118.35573,2155.09676c-.2052,11.8416-.5641,23.6832-1.0766,35.4221-9.0222,213.7122-68.0251,411.1231-190.5929,527.0269-1.3842,1.3842-2.768,2.6657-4.1522,3.9473.8713,1.1276,1.6917,2.2042,2.4605,3.3318l-48.5452-63.7702c76.6229-109.5406,127.0113-239.4549,150.8329-377.4227,12.2797-71.1202-33.7536-139.2602-104.4202-153.9267-319.0271-66.2125-779.4374-43.0421-961.2897,61.3264q-.3075-20.91525-.1024-41.9328c.051,1.9993.051,3.9986.1024,5.9979,206.2791-118.4159,771.0862-132.3078,1081.274-29.7323A662.46466,662.46466,0,0,1,2118.35573,2155.09676Z"
        opacity=".3" />
    <path fill="#102770"
        d="M2118.40673,2150.12416v.7178c0,1.4352,0,2.8707-.051,4.2548a662.46466,662.46466,0,0,0-75.5094-29.7323,1153.25449,1153.25449,0,0,0-9.3713-181.0291c-10.6582-81.4721-87.5898-137.6037-168.6094-123.925l-1.4884.2517c-6.7664,35.8323-24.8621,64.8979-54.3379,64.8979v13.3793a60.69462,60.69462,0,0,1-60.6946,60.6947h-456.7462a60.74565,60.74565,0,0,1-60.7456-60.7457V1885.56c-29.0146,0-46.7512-28.2969-53.4155-63.4114-42.4963-24.4521-112.0078-38.4979-179.7763-21.6328q6.76605-30.75735,14.7632-60.7456c62.9501-11.5853,125.5924,2.1529,165.0131,24.8111,6.6643,35.1145,24.4009,63.4113,53.4155,63.4113v13.3794a60.69426,60.69426,0,0,0,60.6942,60.6943h456.7466a60.69905,60.69905,0,0,0,60.7456-60.6943v-13.3794c29.4758,0,47.5715-29.0659,54.3379-64.8981,74.6891-12.6103,147.2765-21.7865,207.5097-10.6114q4.7673,18.45465,8.9708,37.2165c.8201,3.5884,1.6405,7.1768,2.4605,10.8162.9227,4.2036,1.8454,8.4584,2.7171,12.7133a1552.90635,1552.90635,0,0,1,33.2691,293.8351Q2118.76583,2128.67106,2118.40673,2150.12416Z"
        opacity=".3" />
    <path fill="#102770"
        d="M1064.50693,1391.392a889.13023,889.13023,0,0,0,95.04,39.6773c210.9955,74.3812,470.2796,82.4807,685.376,17.5829,74.5352-22.4529,143.7905-53.7231,203.87-94.0664C2061.35223,1689.78946,1077.06623,1726.59576,1064.50693,1391.392Z"
        opacity=".3" />
    <path fill="#1297e0"
        d="M2118.35573,2155.09676c-283.6339-133.9482-932.3573-128.822-1156.7834,0-.2563-15.9428-.2563-31.9875,0-48.0326,329.565-163.1165,800.1521-163.1165,1156.7321,0Q2118.84278,2131.20831,2118.35573,2155.09676Z" />
    <path fill="#102770"
        d="M959.08023,2159.48356l-.0708-4.3457c-.2539-15.9131-.2539-32.0996,0-48.1152l.0244-1.5625,1.4014-.6934c162.0556-80.2075,358.9404-122.6049,569.3725-122.6049,210.4053,0,414.2725,42.3852,589.563,122.5708l1.46.6689.0366,1.6064c.3467,15.6397.3662,31.8335.0513,48.1373l-.0782,3.9599-3.5791-1.6919c-278.2373-131.3965-925.5688-131.4502-1154.4116-.0928Zm562.4463-105.5981c224.1577,0,454.353,32.4048,594.3359,97.2168.2295-14.3408.2002-28.5693-.0854-42.3755-352.6319-160.7007-825.6836-160.7422-1151.6651-.0586-.2099,14.0039-.2221,28.1274-.039,42.0703C1080.02993,2086.178,1297.78143,2053.88546,1521.52653,2053.88546Z" />
    <g opacity=".3">
        <path fill="#6b184e"
            d="M2118.35573,2191.03166c-.3588-.1539-.7177-.3589-1.0766-.5128.5125-11.7389.8714-23.5805,1.0766-35.4221.051-1.3841.051-2.8196.051-4.2548C2118.66333,2164.27266,2118.612,2177.70326,2118.35573,2191.03166Z" />
        <path fill="#102770"
            d="M2120.84533,2194.88646l-5.8032-2.5171-.3247-1.9629c.5078-11.6382.8691-23.5327,1.0742-35.354.0513-1.4038.0513-2.8076.0513-4.2114l5.1269-.0489c.2417,12.7075.2246,25.8863-.0512,40.2881Z" />
    </g>
    <path fill="#fff"
        d="M2118.50933,2143.56276c-.0513-3.7933-.1026-7.638-.2049-11.4317-356.58-163.1164-827.1671-163.1164-1156.7321,0-.0514,3.6911-.1024,7.3305-.1537,11.0215q-.1539-17.99325.1537-36.0884c329.565-163.1165,800.1521-163.1165,1156.7321,0C2118.56073,2119.31556,2118.66333,2131.46466,2118.50933,2143.56276Z"
        opacity=".65" />
    <path fill="#1297e0"
        d="M1954.983,2770.96086c-25.6824-3.0243-48.9043,4.8187-70.947,17.7369-14.9685,8.7659-32.5514,12.6106-49.6218,9.4834-68.23-12.5077-37.9855-110.2138,66.5383-102.9344l16.3526,19.5309,9.3811,2.7681c-1.3842,1.3842-2.768,2.6657-4.1522,3.9473A393.60831,393.60831,0,0,1,1954.983,2770.96086Z" />
    <path fill="#102770"
        d="M1846.32873,2801.81756a68.75836,68.75836,0,0,1-12.3755-1.1133c-26.1914-4.8022-41.2158-22.9687-38.2763-46.2817,4.187-33.1934,42.5463-66.1279,105.4541-61.731l1.0864.0757,16.5552,19.7705,12.7758,3.7696-3.0517,3.0493c-.8399.8423-1.6797,1.6455-2.5195,2.4341a395.84193,395.84193,0,0,1,31.2548,47.9394l2.3877,4.3579-4.9365-.581c-22.5293-2.6685-44.5654,2.8735-69.3506,17.4023A77.46434,77.46434,0,0,1,1846.32873,2801.81756Zm43.6353-104.3945c-53.3155,0-85.5493,28.6841-89.2017,57.6416-2.6099,20.7031,10.4614,36.2598,34.1138,40.5957,15.8252,2.9053,32.8174-.3638,47.8637-9.1748,24.0186-14.0723,45.6543-20.0049,67.6368-18.5278a398.81945,398.81945,0,0,0-29.8804-44.9097l-1.4136-1.853,1.7114-1.5821c.3077-.2881.6177-.5737.9278-.8618l-5.8838-1.7358-16.1475-19.2823Q1894.721,2697.41821,1889.964,2697.42306Z" />
    <path fill="#1297e0"
        d="M1124.97743,2770.96086c25.6825-3.0243,48.9044,4.8187,70.9471,17.7369,14.9685,8.7659,32.5514,12.6106,49.6218,9.4834,68.23-12.5077,37.9855-110.2138-66.5383-102.9344l-16.3526,19.5309-9.3811,2.7681c1.3842,1.3842,2.768,2.6657,4.1522,3.9473A393.60957,393.60957,0,0,0,1124.97743,2770.96086Z" />
    <path fill="#102770"
        d="M1233.63343,2801.81756a77.47315,77.47315,0,0,1-39.0063-10.9082c-24.7876-14.5288-46.8335-20.0659-69.3482-17.4023l-4.9341.581,2.3853-4.3579a394.95713,394.95713,0,0,1,31.2549-47.9394c-.8423-.7886-1.6822-1.5918-2.522-2.4341l-3.0518-3.0493,12.7759-3.7696,16.5552-19.7705,1.0864-.0757c62.8736-4.4067,101.2695,28.5352,105.4566,61.7334,2.9394,23.3106-12.085,41.4771-38.2764,46.2793A68.73788,68.73788,0,0,1,1233.63343,2801.81756Zm-97.4609-34.0845c19.7509,0,39.4336,6.0865,61.0473,18.7525,15.0464,8.811,32.0459,12.0703,47.8662,9.1748,23.6524-4.3359,36.7237-19.8901,34.1138-40.5957-3.8696-30.6763-39.812-61.062-98.9307-57.3316l-16.1474,19.2823-5.8814,1.7358c.3101.2881.6202.5737.9278.8618l1.7114,1.5821-1.4136,1.853a397.85706,397.85706,0,0,0-29.8803,44.9121Q1132.88143,2767.73306,1136.17253,2767.73306Z" />
    <path fill="#102770"
        d="M1818.44793,3072.55976c-53.5962.0024-101.731-25.3393-134.0479-71.2305-13.4692-19.1455-23.4936-41.9165-29.8047-67.6904-22.7563-93.3252-37.3193-180.5322-43.2886-259.209-.0244-.3222-.0366-.6469-.0366-.9692,0-37.71,22.4024-66.9922,46.1231-97.9932,34.4555-45.0342,73.374-95.8984,60.791-189.6655-113.5425-22.1582-239.4336-21.6846-356.5527,1.3672-12.0362,92.8979,26.6845,143.5034,60.9643,188.3154,23.7134,31.001,46.1133,60.2808,46.1133,97.9761,0,.3223-.0122.647-.0366.9692-5.9693,78.6768-20.5323,165.8838-43.2862,259.1968-6.3134,25.7861-16.3379,48.5571-29.8047,67.6978-35.8837,50.9594-91.2841,76.5869-151.997,70.3002-64.9317-6.7187-123.5694-49.7241-149.3848-109.5581-17.9492-41.6015-35.1318-127.1191,46.1548-239.0893-213.4229-207.0679-231.6919-646.8018-139.0039-991.5772-71.7261,46.5332-113.3594,110.1368-126.8018,193.4766,22.1265,19.6997,32.1973,47.3413,26.4331,73.7598-5.9155,27.0947-27.0947,48.0664-57.417,57.4096-6.6796,50.7813-31.8701,88.003-71.5698,105.3516-40.6152,17.7417-90.979,10.459-128.3008-18.5742-43.0883-33.5205-61.8798-88.6621-51.5503-151.2866,51.7017-261.7701,230.5127-495.9888,466.7286-611.6529a12.80211,12.80211,0,0,1,11.2719,0,878.75078,878.75078,0,0,0,93.667,39.0991c209.1016,73.7159,468.6646,80.3833,677.4097,17.3999,75.5347-22.7539,142.9663-53.8525,200.4272-92.4365a13.22356,13.22356,0,0,0,1.604-1.1938,12.69032,12.69032,0,0,1,2.7124-1.8482c123.1104-66.0156,207.7027-140.2832,258.2911-226.8432-27.7588-32.8223-35.9424-70.4199-19.6265-93.7451,6.4478-9.2164,25.4004-27.4732,68.8599-13.1397,24.4702-78.7988,77.1289-97.1265,116.4575-88.081,63.811,14.6679,117.9712,99.5019,94.2261,211.0009-53.9185,264.8731-216.46,448.8037-496.7115,561.958,54.2481,180.918,75.3296,387.6197,57.8589,569.1333-19.5825,203.4668-83.7109,362.793-185.6982,461.7871,81.289,111.9703,64.1064,197.4903,46.1572,239.0918-25.8154,59.834-84.4531,102.8394-149.3848,109.5581A174.32552,174.32552,0,0,1,1818.44793,3072.55976Zm-181.5455-399.563c5.8887,77.1558,20.2173,162.8003,42.5928,254.5581,5.5445,22.6441,14.2456,42.5073,25.8643,59.0235,30.3833,43.1421,77.1557,64.8559,128.396,59.5507,55.8545-5.7788,106.289-42.7612,128.4887-94.2163,28.0054-64.9072,10.2881-143.9721-49.8877-222.6342a12.81247,12.81247,0,0,1,1.5015-17.2168c223.6987-205.7642,231.7041-681.0401,125.6641-1023.7622a12.81759,12.81759,0,0,1,7.5586-15.7178c278.313-109.3384,439.2431-288.4741,491.9848-547.6441.0074-.039.0171-.0781.0244-.1172,20.5298-96.289-22.8881-168.7915-74.8852-180.747-40.398-9.2774-74.7559,22.5952-89.707,83.1958a12.8153,12.8153,0,0,1-17.5855,8.6694c-24.8877-10.9057-44.06-11.25-51.2793-.9326-8.7036,12.4438-2.2558,41.4722,23.5986,68.5083a12.81413,12.81413,0,0,1,1.9385,15.083c-52.3388,94.1626-141.3696,174.1138-272.1802,244.4043a38.71214,38.71214,0,0,1-3.2128,2.3291c-59.4263,39.9048-129.1773,72.1021-207.1582,95.5908-216.9239,65.4468-476.1133,58.8062-693.3326-17.7661a910.37748,910.37748,0,0,1-90.7226-37.4927c-226.4136,113.1543-397.4976,338.8184-447.2022,590.4419-8.6792,52.6685,6.6284,98.916,42.0703,126.4868,30.0123,23.3472,70.1636,29.3628,102.2998,15.3199,33.0152-14.4263,53.3545-47.4903,57.2754-93.1006a12.82006,12.82006,0,0,1,10.0147-11.4209c25.4614-5.5982,42.561-20.2588,46.9189-40.2197,4.1675-19.104-4.3798-38.8355-22.8662-52.7808a12.81212,12.81212,0,0,1-4.9731-12.0142c14.624-104.1088,71.1938-183.3496,168.1445-235.52a12.816,12.816,0,0,1,18.3691,14.8926c-52.5244,179.1919-71.9946,383.7256-53.4228,561.1572,20.6934,197.6758,84.6411,350.918,184.9292,443.1543a12.81568,12.81568,0,0,1,1.5015,17.2193c-60.1758,78.6621-77.8931,157.727-49.8877,222.6342,22.1997,51.4551,72.6342,88.4375,128.4887,94.2163,51.2036,5.2955,98.0152-16.4062,128.3985-59.5556,11.6162-16.5113,20.3174-36.3745,25.8642-59.0283,22.3731-91.7481,36.7017-177.3926,42.5904-254.5484-.2002-28.8159-19.0406-53.4448-40.8374-81.9385-36.5723-47.8051-82.0874-107.3046-64.6534-216.6796a12.81978,12.81978,0,0,1,10.0562-10.5323c125.9473-26.101,262.4927-26.5893,384.4824-1.3867a12.81518,12.81518,0,0,1,10.0537,10.481c18.0542,110.2954-27.6806,170.0708-64.4287,218.1006C1655.94793,2619.53726,1637.10263,2644.16626,1636.90243,2672.99676Z" />
    <path fill="#102770"
        d="M1922.54453,2734.31026a12.79337,12.79337,0,0,1-10.1953-5.0391,530.65531,530.65531,0,0,0-53.0053-58.999,12.81475,12.81475,0,0,1,17.8076-18.4326,556.181,556.181,0,0,1,55.5688,61.875,12.81768,12.81768,0,0,1-10.1758,20.5957Z" />
    <path fill="#102770"
        d="M1877.12713,3014.81076a97.24984,97.24984,0,0,1-29.1358-4.5288c-51.7773-16.2915-101.4648-74.6118-136.3208-160.0049-35.2197-86.2793-50.4785-189.9487-41.8652-284.4214a10.25224,10.25224,0,1,1,20.4199,1.8604c-18.5376,203.3496,72.8955,394.3652,163.9209,423.0053,55.7959,17.5562,96.9556-30.3051,121.6455-73.5522a10.25254,10.25254,0,1,1,17.8076,10.166C1953.30143,2997.92106,1909.65393,3014.80826,1877.12713,3014.81076Z" />
    <path fill="#102770"
        d="M1932.29313,2502.87716c-76.46,0-160.1538-36.189-207.0728-90.4273a10.25183,10.25183,0,1,1,15.5078-13.413c44.7388,51.7163,129.8633,86.643,202.1802,83.0761,38.9819-1.9262,93.5376-15.686,132.0654-70.2905a10.2519,10.2519,0,0,1,16.753,11.8213c-34.2627,48.5644-85.3736,75.8642-147.8052,78.9477Q1938.14278,2502.87721,1932.29313,2502.87716Z" />
    <path fill="#102770"
        d="M1934.34143,2560.83616c-.874,0-1.7432-.0073-2.6245-.0171-89.3457-1.1719-173.7695-59.8755-207.8418-114.5142a10.25167,10.25167,0,0,1,17.3975-10.8496c31.6357,50.73,111.6211,103.8233,190.7129,104.8609,53.9477.6469,98.3325-23.2666,128.7573-69.3238a10.25311,10.25311,0,0,1,17.1094,11.3037C2043.88243,2533.71456,1994.295,2560.83616,1934.34143,2560.83616Z" />
    <path fill="#102770"
        d="M1846.29213,2809.52266a75.75586,75.75586,0,0,1-13.7329-1.2427c-34.7217-6.3843-47.3682-32.146-44.4995-54.8437,4.6386-36.6846,45.9936-73.1348,113.5888-68.4229a10.25186,10.25186,0,1,1-1.4257,20.4541c-58.4131-4.0771-88.8599,27.1045-91.8189,50.5396-2.0874,16.5136,8.3276,28.5156,27.8613,32.1069,13.9698,2.561,29.0772-.3735,42.5733-8.2666,26.9702-15.7886,52.2729-22.0337,77.3633-19.0845a10.25313,10.25313,0,0,1-2.3926,20.3662c-20.7715-2.434-41.3086,2.7759-64.6143,16.4136A85.24751,85.24751,0,0,1,1846.29213,2809.52266Z" />
    <path fill="#102770"
        d="M1022.32483,1716.96166a12.827,12.827,0,0,1-12.3266-16.355c1.9189-6.687,3.9428-13.2739,5.9643-19.8584a12.81566,12.81566,0,1,1,24.502,7.5244c-1.9776,6.4331-3.9527,12.8687-5.8277,19.4043A12.82158,12.82158,0,0,1,1022.32483,1716.96166Z" />
    <path fill="#102770"
        d="M1157.43473,2734.31026a12.81768,12.81768,0,0,1-10.1758-20.5957,556.181,556.181,0,0,1,55.5688-61.875,12.81479,12.81479,0,1,1,17.8077,18.4326,530.64663,530.64663,0,0,0-53.0054,58.999A12.79675,12.79675,0,0,1,1157.43473,2734.31026Z" />
    <path fill="#102770"
        d="M1202.84973,3014.81076c-32.5268,0-76.1719-16.8848-116.4722-87.4756a10.25258,10.25258,0,0,1,17.8077-10.166c24.6899,43.2471,65.8252,91.1108,121.6455,73.5522,91.0254-28.6401,182.4585-219.6557,163.9209-423.0053a10.25224,10.25224,0,1,1,20.4199-1.8604c8.6133,94.4727-6.6455,198.1421-41.8652,284.4214-34.856,85.3931-84.5435,143.7134-136.3208,160.0049A97.34267,97.34267,0,0,1,1202.84973,3014.81076Z" />
    <path fill="#102770"
        d="M1147.68373,2502.87716q-5.84835,0-11.6284-.2857c-62.4317-3.0835-113.5425-30.3833-147.8052-78.9477a10.25186,10.25186,0,0,1,16.7529-11.8213c38.5279,54.6045,93.0835,68.3643,132.0655,70.2905,72.3803,3.5352,157.4414-31.3623,202.1801-83.0761a10.25187,10.25187,0,0,1,15.5079,13.413C1307.83993,2466.68576,1224.13883,2502.87716,1147.68373,2502.87716Z" />
    <path fill="#102770"
        d="M1145.63543,2560.83616c-59.9585,0-109.5386-27.1167-143.5108-78.5401a10.25311,10.25311,0,0,1,17.1094-11.3037c30.4272,46.0572,75.1489,70.0586,128.7573,69.3238,79.0918-1.0376,159.0772-54.1309,190.7129-104.8609a10.25167,10.25167,0,0,1,17.3975,10.8496c-34.0723,54.6387-118.4961,113.3423-207.8418,114.5142C1147.38343,2560.82886,1146.50693,2560.83616,1145.63543,2560.83616Z" />
    <path fill="#102770"
        d="M1233.68473,2809.52266a85.21685,85.21685,0,0,1-42.9029-11.98c-23.3032-13.6401-43.8305-18.8721-64.6142-16.4136a10.25313,10.25313,0,0,1-2.3926-20.3662c25.0732-2.9467,50.3882,3.2935,77.3633,19.0845,13.4985,7.898,28.6182,10.835,42.5732,8.2666,19.5337-3.5913,29.9488-15.5933,27.8614-32.1069-2.9615-23.4326-33.3985-54.6143-91.8189-50.5396a10.25187,10.25187,0,0,1-1.4258-20.4541c67.6026-4.751,108.9502,31.7407,113.5889,68.4229,2.8686,22.6977-9.7778,48.4594-44.4995,54.8437A75.777,75.777,0,0,1,1233.68473,2809.52266Z" />
    <path fill="#102770"
        d="M1790.48643,2402.95286a12.746,12.746,0,0,1-3.6181-.5249c-19.1895-5.6372-39.3482-10.6372-59.9146-14.8633a12.8157,12.8157,0,1,1,5.1563-25.1074c21.2597,4.3676,42.1142,9.5434,61.9848,15.3808a12.81785,12.81785,0,0,1-3.6084,25.1148Z" />
    <path fill="#102770"
        d="M1293.64073,2402.95286a12.81786,12.81786,0,0,1-3.4619-25.1563c18.3862-5.1709,37.7197-9.8657,57.4658-13.9502a12.81489,12.81489,0,1,1,5.1953,25.0977c-19.1626,3.9648-37.9101,8.5156-55.7226,13.5254A12.78779,12.78779,0,0,1,1293.64073,2402.95286Z" />
    <path fill="#102770"
        d="M2118.37463,2165.35276a10.208,10.208,0,0,1-4.3725-.9839c-129.5484-61.1987-349.5264-97.5684-589.4263-97.5684-2.2608,0-4.4824.0049-6.7481.0098-240.3003.6836-446.333,37.0117-551.1377,97.1802a10.25286,10.25286,0,0,1-10.2099-17.7832c231.416-132.8516,885.4028-133.064,1166.2817-.3784a10.25347,10.25347,0,0,1-4.3872,19.5239Z" />
    <path fill="#102770"
        d="M2118.35753,2117.33516a10.21105,10.21105,0,0,1-4.2578-.9302c-351.3428-160.7275-823.4057-160.7837-1147.9663-.1343a10.25346,10.25346,0,1,1-9.0967-18.3789c163.1031-80.7275,361.1768-123.3984,572.8076-123.3984,211.5259,0,416.5064,42.6245,592.7857,123.2642a10.25358,10.25358,0,0,1-4.2725,19.5776Z" />
    <path fill="#102770"
        d="M2482.29553,1337.04706a10.45306,10.45306,0,0,1-1.289-.0806,10.25234,10.25234,0,0,1-8.8965-11.4501c5.5957-44.5435-6.814-81.9605-35.8887-108.2032-36.8848-33.2934-98.0225-46.1792-155.7642-32.8247a10.25135,10.25135,0,0,1-4.6191-19.9756c64.0698-14.8266,132.417-.0683,174.1211,37.5782,34.27,30.9326,48.9648,74.4946,42.4975,125.979A10.25627,10.25627,0,0,1,2482.29553,1337.04706Z" />
    <path fill="#102770"
        d="M2336.087,1522.76486a7.63829,7.63829,0,0,1-2.7148-.4981c-107.7539-40.7055-165.6348-133.4423-158.8037-254.4287a7.69049,7.69049,0,0,1,15.3564.8692c-6.5234,115.498,46.3501,200.4394,148.8818,239.1748a7.68974,7.68974,0,0,1-2.7197,14.8828Z" />
    <path fill="#102770"
        d="M2299.84683,1541.47086c-20.9424.0025-45.6201-11.1914-71.8701-32.976-62.6563-51.9947-115.7447-149.5874-94.9146-211.9971a7.69033,7.69033,0,0,1,14.5899,4.8682c-18.5621,55.603,32.6123,147.5512,90.1464,195.2954,31.7432,26.3427,60.5909,35.5468,79.1431,25.2221a7.68848,7.68848,0,1,1,7.4756,13.4375A49.81519,49.81519,0,0,1,2299.84683,1541.47086Z" />
    <path fill="#102770"
        d="M831.79013,2058.72676c-.3784,0-.7592-.0171-1.145-.0513a12.81728,12.81728,0,0,1-11.6357-13.8965,228.80948,228.80948,0,0,0-1.4795-49.497,12.81548,12.81548,0,1,1,25.415-3.3203,254.38187,254.38187,0,0,1,1.5967,55.0781A12.8191,12.8191,0,0,1,831.79013,2058.72676Z" />
    <path fill="#102770" d="M1064.55873,1404.20776h-.0513a12.81615,12.81615,0,1,1,.0513,0Z" />
    <path fill="#102770"
        d="M860.78183,1942.97476a12.7515,12.7515,0,0,1-7.7148-2.5927,83.37334,83.37334,0,0,0-13.4595-8.2569,12.8151,12.8151,0,0,1,11.3037-23.0029,108.87841,108.87841,0,0,1,17.605,10.8106,12.81685,12.81685,0,0,1-7.7344,23.0419Z" />
    <path fill="#102770"
        d="M879.19983,1868.84636a10.22161,10.22161,0,0,1-7.6684-3.4399c-52.793-59.4092-130.0464-88.0933-192.2803-71.3648a10.25133,10.25133,0,1,1-5.3223-19.7998c70.6177-18.9917,154.1968,11.4551,212.9297,77.5415a10.2513,10.2513,0,0,1-7.6587,17.063Z" />
    <path fill="#102770"
        d="M949.95663,1762.83566a7.69089,7.69089,0,0,1-7.5854-6.4942c-9.6655-61.3501-34.1821-109.0454-69.0381-134.3017-21.6797-15.7056-45.7593-21.5552-71.5893-17.3755a7.68905,7.68905,0,1,1-2.4561-15.1807c29.5898-4.8022,58.3105,2.1631,83.0688,20.1026,38.191,27.6733,64.9,78.9428,75.2051,144.3628a7.6879,7.6879,0,0,1-6.3989,8.7915A7.80183,7.80183,0,0,1,949.95663,1762.83566Z" />
    <path fill="#102770"
        d="M948.80433,1755.92886a7.83048,7.83048,0,0,1-1.6528-.1782,7.69273,7.69273,0,0,1-5.8667-9.1577c11.8896-54.2822,5.9106-100.0146-17.2901-132.2558-19.3921-26.9483-51.0205-44.0552-89.06-48.1666a7.68841,7.68841,0,1,1,1.6504-15.288c42.4389,4.5849,77.915,23.9306,99.8925,54.4726,25.8228,35.8838,32.6807,85.8618,19.8316,144.5288A7.6932,7.6932,0,0,1,948.80433,1755.92886Z" />
    <path fill="#1297e0"
        d="M1809.03933,1612.43466V1841.372a60.69905,60.69905,0,0,1-60.7456,60.6943h-456.6952a60.73188,60.73188,0,0,1-60.7456-60.6943v-228.9373a60.73188,60.73188,0,0,1,60.7456-60.6943h456.6952A60.69905,60.69905,0,0,1,1809.03933,1612.43466Z" />
    <path fill="#102770"
        d="M1748.294,1904.63006h-456.6967a63.35654,63.35654,0,0,1-63.3081-63.2593v-228.9355a63.35654,63.35654,0,0,1,63.3081-63.2593H1748.294a63.35663,63.35663,0,0,1,63.3082,63.2593v228.9355A63.35663,63.35663,0,0,1,1748.294,1904.63006Zm-456.6967-350.3271a58.22088,58.22088,0,0,0-58.1812,58.1323v228.9355a58.221,58.221,0,0,0,58.1812,58.1324H1748.294a58.22091,58.22091,0,0,0,58.1812-58.1324v-228.9355a58.22082,58.22082,0,0,0-58.1812-58.1323Z" />
    <path fill="#102770"
        d="M1809.03933,1796.87636v44.4956a60.69905,60.69905,0,0,1-60.7456,60.6943h-456.6952a60.73188,60.73188,0,0,1-60.7456-60.6943v-44.4956a60.73188,60.73188,0,0,0,60.7456,60.6943h456.6952A60.69905,60.69905,0,0,0,1809.03933,1796.87636Z"
        opacity=".3" />
    <path fill="#fff"
        d="M1809.03933,1612.43466v29.6297a60.69931,60.69931,0,0,0-60.7456-60.6946H1430.468c-5.1776,25.016-70.2293,25.016-75.4069,0h-63.4626a60.73213,60.73213,0,0,0-60.7456,60.6946v-29.6297a60.73188,60.73188,0,0,1,60.7456-60.6943h456.6952A60.69905,60.69905,0,0,1,1809.03933,1612.43466Z"
        opacity=".65" />
    <path fill="#ee346a" d="M1511.64343,1551.74036c.0001,62.5641,72.0092,62.5641,72.0091,0Z" />
    <path fill="#ee346a" d="M1645.62133,1551.74036c.0001,62.5641,72.0093,62.5641,72.0091,0Z" />
    <path fill="#fff"
        d="M1583.63953,1551.74036a63.65292,63.65292,0,0,1-3.4861,21.6838h-65.0005a63.66057,63.66057,0,0,1-3.4858-21.6838Z"
        opacity=".65" />
    <path fill="#fff"
        d="M1717.63873,1551.74036a62.37784,62.37784,0,0,1-3.5371,21.6838h-65.0005a63.66069,63.66069,0,0,1-3.4857-21.6838Z"
        opacity=".65" />
    <path fill="#102770"
        d="M1748.294,1914.88156h-456.6967a73.61759,73.61759,0,0,1-73.5596-73.5108v-228.9355a73.61751,73.61751,0,0,1,73.5596-73.5107H1748.294a73.61751,73.61751,0,0,1,73.5596,73.5107v228.9355A73.61759,73.61759,0,0,1,1748.294,1914.88156Zm-456.6967-350.3272a47.95986,47.95986,0,0,0-47.9297,47.8809v228.9355a47.95986,47.95986,0,0,0,47.9297,47.8809H1748.294a47.95986,47.95986,0,0,0,47.9297-47.8809v-228.9355a47.95986,47.95986,0,0,0-47.9297-47.8809Z" />
    <path fill="#1297e0"
        d="M2106.87273,1943.94766l-15.0198-96.7318c25.6825-3.4858,53.4665-13.277,68.6915-41.215a71.63266,71.63266,0,0,0,3.4858-7.1765v-.0513c-66.4869-67.256-180.9556-55.876-300.653-35.6786l-6.7664-91.4517c202.3832-59.5156,342.3803,9.4834,382.3135,93.9125t.1539.3075C2272.296,1836.502,2235.54113,1917.80376,2106.87273,1943.94766Z" />
    <path fill="#102770"
        d="M2104.75163,1946.99336l-15.8326-101.9653,2.5904-.3516c32.7295-4.4434,54.5752-17.4951,66.7846-39.9023.8985-1.5821,1.7676-3.3203,2.7027-5.4102-66.897-66.0913-183.4693-52.9297-297.1924-33.7427l-2.7759.4688-7.1264-96.3233,1.9873-.5835c196.1206-57.6831,342.3095,4.2749,385.3515,95.2759,15.6128,33.1836,15.8448,67.7759.8057,97.7197-20.5249,40.8741-68.3496,70.8057-134.6631,84.2798Zm-9.9683-97.6099,14.209,91.5064c63.3667-13.3985,108.938-42.1094,128.4741-81.0108,14.3164-28.5083,14.065-61.5112-.708-92.9248-42.1167-89.0307-185.0757-149.3042-377.4365-93.435l6.4038,86.582c114.8633-19.2724,232.251-31.7895,300.1294,36.8701l.7397.7495-.2075,2.1143a73.16248,73.16248,0,0,1-3.6133,7.4316C2150.07873,1830.56266,2127.818,1844.36886,2094.78333,1849.38346Z" />
    <path fill="#fff"
        d="M2249.674,1828.89656a120.14709,120.14709,0,0,0-10.6113-35.6273q-.154-.3078-.154-.3075c-26.041-55.0556-94.5788-103.5498-195.2576-114.0585-10.4577,19.2233-62.8989,19.8385-69.2553-1.2815-35.781,2.2042-74.4842,8.8682-115.8015,20.8637l-1.999-26.8616c202.3831-59.5154,342.3803,9.4837,382.3134,93.9124t.154.3075C2248.75133,1786.50266,2252.49333,1808.03286,2249.674,1828.89656Z"
        opacity=".65" />
    <path fill="#102770"
        d="M2104.75163,1946.99336l-15.8326-101.9678,2.5928-.3491c35.1905-4.7412,57.9395-19.5679,69.4873-45.3101-66.8969-66.0913-183.4717-52.9321-297.1948-33.7451l-.8545-5.0537c115.7495-19.5312,234.48-32.8076,302.9053,36.4038l.7397.7495-.205,2.1045c-11.8116,27.8467-35.2515,44.0747-71.6065,49.5606l14.209,91.5039c72.6684-15.3418,120.5029-49.7046,134.8364-96.936,12.0996-39.8633-1.6089-83.5572-37.6098-119.8707-56.6065-57.1069-177.9908-100.2148-348.8843-49.9829l-1.4453-4.917c173.0639-50.8813,296.3208-6.8628,353.9697,51.2891,37.3682,37.6978,51.5381,83.2471,38.8745,124.9707-15.0781,49.6826-65.2759,85.5591-141.3501,101.0156Z" />
    <path fill="#ee346a"
        d="M1863.37723,1763.09446c-6.7664,35.8322-24.8621,64.8981-54.3379,64.8981v-197.052c22.4016,0,38.2931,16.8652,47.5715,40.7022v.051C1866.91433,1698.04266,1869.16983,1732.95216,1863.37723,1763.09446Z" />
    <path fill="#fff"
        d="M1865.73533,1746.58816a150.58,150.58,0,0,0-9.1245-40.7022v-.0514c-9.2784-23.837-25.1699-40.7022-47.5715-40.7022v-34.1918c22.4016,0,38.2931,16.8652,47.5715,40.7022v.051C1865.06893,1693.32656,1868.09353,1720.75176,1865.73533,1746.58816Z"
        opacity=".65" />
    <path fill="#102770"
        d="M1863.37723,1763.09446c-6.7664,35.8322-24.8621,64.8981-54.3379,64.8981v-50.4935c29.4758,0,47.5715-29.0656,54.3379-64.8978.5128-2.7684,1.0253-5.5877,1.3842-8.4071A182.952,182.952,0,0,1,1863.37723,1763.09446Z"
        opacity=".3" />
    <path fill="#ee346a"
        d="M1230.85293,1631.04286v196.9497c-29.0146,0-46.7512-28.2968-53.4155-63.4113-5.7924-30.5011-3.2292-66.1797,7.587-92.9385C1194.25163,1648.57476,1209.57893,1632.06816,1230.85293,1631.04286Z" />
    <path fill="#fff"
        d="M1230.85293,1631.04286v35.0635c-21.274,1.0253-36.6013,17.5316-45.8285,40.5996-5.1262,12.6106-8.3558,27.1689-9.7399,42.2913-2.5631-26.5024.7177-55.0555,9.7399-77.3545C1194.25163,1648.57476,1209.57893,1632.06816,1230.85293,1631.04286Z"
        opacity=".65" />
    <path fill="#102770"
        d="M1230.85483,1778.06286v55.0559c-29.0146,0-46.7512-28.2968-53.4155-63.4113a182.27065,182.27065,0,0,1-.9227-60.6433c.2566,1.8967.5641,3.742.9227,5.5874C1184.10363,1749.76636,1201.84023,1778.06286,1230.85483,1778.06286Z"
        opacity=".3" />
    <path fill="#102770"
        d="M1809.03873,1840.80686a12.81478,12.81478,0,0,1-12.815-12.815v-197.0507a12.81478,12.81478,0,0,1,12.815-12.815c26.1108,0,47.2461,17.3535,59.5166,48.8672.0854.2173.1636.4395.2368.6641,10.8545,28.1933,13.5376,64.7021,7.1753,97.8344C1867.05873,1812.65256,1842.03923,1840.80686,1809.03873,1840.80686Zm12.8149-194.0259v165.3735c19.48-9.8095,26.9116-40.747,28.9307-51.438l.0073-.0415c5.459-28.3984,3.1152-60.7055-6.1157-84.3139-.0806-.21-.1587-.4224-.2295-.6372C1840.09823,1664.74726,1832.96933,1652.36936,1821.85363,1646.781Z" />
    <path fill="#102770"
        d="M1230.85263,1840.80686c-32.5561,0-57.2314-27.6026-66.0058-73.8355-6.3452-33.4106-3.1641-71.7798,8.2959-100.1318,12.0508-30.1294,32.334-47.4024,57.0923-48.5962a12.81559,12.81559,0,0,1,13.4326,12.8003v196.9482A12.81478,12.81478,0,0,1,1230.85263,1840.80686Zm-12.8149-192.8491c-10.2466,6.1474-16.9604,18.0615-21.1133,28.4423-9.7387,24.0894-12.373,56.9458-6.897,85.7911,1.9654,10.3515,9.17,40.2026,28.0103,49.9023Z" />
    <path fill="#102770"
        d="M2186.75113,1840.80926a12.80488,12.80488,0,0,1-10.9693-6.1719,141.633,141.633,0,0,0-20.8398-26.7797,12.82883,12.82883,0,1,1,18.7842-17.4561,169.45127,169.45127,0,0,1,23.9697,30.9448,12.81864,12.81864,0,0,1-10.9448,19.4629Z" />
    <path fill="#102770"
        d="M2106.87323,1956.76146a12.81483,12.81483,0,0,1-12.6636-10.8496l-15.0196-96.731a12.81314,12.81314,0,0,1,10.9522-14.6655c28.2251-3.8037,47.3584-14.6143,58.1958-32.9517-64.3897-56.8677-174.8413-44.0527-282.8296-25.8325a12.81518,12.81518,0,1,1-4.2627-25.2734c118.4009-19.9781,240.0195-33.4034,311.8994,39.3066a12.81343,12.81343,0,0,1,3.7012,9.0088,13.06956,13.06956,0,0,1-1.0181,5.0561c-11.9824,28.2471-35.2929,46.3111-69.3847,53.8208l10.9912,70.7984c62.8906-15.4737,104.0722-46.2476,116.5844-87.4707,10.9693-36.1475-1.8164-76.1231-35.0805-109.6778-54.5264-55.0024-172.1411-96.3281-338.711-47.3632a12.81558,12.81558,0,0,1-7.2314-24.5899c177.3853-52.146,304.4141-6.3476,364.1455,53.9087,39.5142,39.8608,54.9927,90.3906,41.4038,135.166-16.2256,53.4571-69.1821,91.8408-149.1211,108.0835A12.69811,12.69811,0,0,1,2106.87323,1956.76146Z" />
    <path fill="#1297e0"
        d="M1177.43743,1764.58126c-62.6936-36.0375-184.0825-49.4682-272.151,25.3235.3076,1.4352.6152,2.8194.974,4.2032,10.7137,43.8805,42.1887,68.4866,79.0976,68.4866l-12.2517,81.3531c-93.3484,0-162.2448-80.8406-152.0437-154.2481a101.61129,101.61129,0,0,1,12.9692-37.4214c81.5584-126.9766,234.2171-128.2069,350.9926-80.6354C1174.20823,1698.40156,1171.645,1734.08016,1177.43743,1764.58126Z" />
    <path fill="#102770"
        d="M975.31313,1946.51h-2.207a159.95539,159.95539,0,0,1-120.7276-54.834c-26.3476-30.2612-38.6865-67.5586-33.855-102.3291a104.3218,104.3218,0,0,1,13.2935-38.3594c84.9365-132.2412,243.8696-126.6552,354.1748-81.7187l2.3682.9643-.9595,2.3682c-10.415,25.7691-13.269,60.8301-7.4463,91.5015l1.0425,5.4809-4.8364-2.7807c-55.0342-31.6358-176.1988-52.8784-268.0396,24.0649.1953.874.398,1.7359.6201,2.5977,10.0293,41.0717,39.3824,66.5649,76.6162,66.5649h2.9786Zm68.6108-300.8911c-78.1469,0-156.687,28.5693-207.7368,108.0444a99.15555,99.15555,0,0,0-12.5854,36.3892c-4.6289,33.3008,7.2705,69.1162,32.644,98.2568a154.80757,154.80757,0,0,0,114.6558,53.0591l11.4843-76.2622c-38.2983-1.3135-68.2739-28.0298-78.6157-70.3906-.3589-1.3843-.6738-2.8028-.9887-4.2725l-.3223-1.499,1.167-.9912c91.4624-77.6709,211.9238-59.1577,270.376-28.1934-4.5801-29.3213-1.7139-61.8213,7.7124-86.6894C1140.32773,1656.52706,1092.19543,1645.61886,1043.92393,1645.61886Z" />
    <g opacity=".65">
        <path fill="#fff"
            d="M1174.87433,1743.97366a158.29846,158.29846,0,0,0,2.5631,20.6076c-.9227-.5642-1.8967-1.0767-2.8707-1.5892A168.26,168.26,0,0,1,1174.87433,1743.97366Z" />
        <path fill="#102770"
            d="M1181.05043,1769.79366l-4.9487-3.0249c-.8789-.5371-1.8042-1.0205-2.7295-1.5088l-1.3062-.6885-.061-1.4746a170.42876,170.42876,0,0,1,.3125-19.3115l5.1147.0391a155.87305,155.87305,0,0,0,2.522,20.2734Z" />
    </g>
    <path fill="#fff"
        d="M1185.00893,1671.62386a129.24243,129.24243,0,0,0-6.7667,22.7604c-47.1613-18.2493-99.7051-28.4505-150.8133-25.7334-6.9206,16.6089-47.4689,23.1703-58.8493,9.3297-52.2362,14.3534-99.8074,45.6232-134.5633,99.7048a101.61088,101.61088,0,0,0-12.9692,37.4217c-.1026.7174-.2053,1.3838-.2566,2.1016a107.56071,107.56071,0,0,1,.2566-27.5278,101.60761,101.60761,0,0,1,12.9692-37.4214C915.57463,1625.28286,1068.23343,1624.05266,1185.00893,1671.62386Z"
        opacity=".65" />
    <g opacity=".65">
        <path fill="#fff"
            d="M1185.02443,1697.06866c-5.639,13.8922-9.0222,30.1935-10.1501,46.905a179.45637,179.45637,0,0,1,3.3835-49.5704C1180.56463,1695.27456,1182.76893,1696.146,1185.02443,1697.06866Z" />
        <path fill="#102770"
            d="M1172.31753,1744.14666a181.92855,181.92855,0,0,1,3.435-50.2881l.6324-2.9028,2.7783,1.0498c2.3291.8789,4.5557,1.7603,6.8335,2.6904l2.3657.9693-.9619,2.3681c-5.3809,13.252-8.8281,29.1968-9.9707,46.1133Zm7.8369-46.2671c-.6567,3.3423-1.2134,6.7578-1.6675,10.2246q1.46115-4.9767,3.2251-9.6093C1181.192,1698.28726,1180.67443,1698.08226,1180.15443,1697.87956Z" />
    </g>
    <path fill="#102770"
        d="M973.10613,1956.76146c-60.7496,0-116.9825-32.1704-146.753-83.9551-24.0576-41.8482-25.3271-89.3164-3.396-126.9775.0928-.1587.1905-.3199.2906-.4761,88.2763-137.439,252.666-132.002,366.6113-85.5786a12.81489,12.81489,0,0,1,7.0483,16.6699c-9.7216,24.0454-12.3559,56.9018-6.8799,85.7471a12.8156,12.8156,0,0,1-18.977,13.5009c-51.6455-29.6875-164.1992-49.8047-251.4038,19.0161,9.6582,34.1748,34.3042,55.0708,65.7104,55.0708a12.81519,12.81519,0,0,1,12.6734,14.7242l-12.251,81.3525A12.81643,12.81643,0,0,1,973.10613,1956.76146Zm-128.1372-197.7954c-17.3707,30.0341-16.0621,66.853,3.6059,101.0644,23.4155,40.73,66.2427,67.1314,113.562,70.6885l8.5034-56.4673c-38.7255-6.2012-68.5571-36.9067-77.9004-81.731a12.81725,12.81725,0,0,1,4.2505-12.3828c79.2334-67.2876,189.9268-69.375,264.9366-37.5171-1.1914-21.8383,1.2231-44.2285,6.9482-63.5083C1064.815,1640.57976,921.961,1639.41526,844.96893,1758.96606Z" />
    <path fill="#102770"
        d="M895.34483,1811.63936a12.81489,12.81489,0,0,1-8.8476-22.0874c3.7524-3.5791,7.2143-6.6846,10.5859-9.4946a12.81555,12.81555,0,0,1,16.4063,19.6923c-2.9248,2.439-5.9693,5.1685-9.3018,8.3472A12.763,12.763,0,0,1,895.34483,1811.63936Z" />
    <rect width="199.241" height="132.299" x="1420.325" y="1666.549" fill="#ffc107" rx="23.086" />
    <path fill="#102770"
        d="M1596.48013,1801.41226h-153.0689a25.67855,25.67855,0,0,1-25.6494-25.6494V1689.635a25.67855,25.67855,0,0,1,25.6494-25.6494h153.0689a25.67848,25.67848,0,0,1,25.6494,25.6494v86.1279A25.67848,25.67848,0,0,1,1596.48013,1801.41226Zm-153.0689-132.2998a20.546,20.546,0,0,0-20.5224,20.5225v86.1279a20.54591,20.54591,0,0,0,20.5224,20.5225h153.0689a20.54591,20.54591,0,0,0,20.5224-20.5225V1689.635a20.546,20.546,0,0,0-20.5224-20.5225Z" />
    <path fill="#102770"
        d="M1619.57413,1692.69016v22.6582a23.1136,23.1136,0,0,0-23.068-23.1193h-153.1203a23.11379,23.11379,0,0,0-23.068,23.1193v-22.6582a23.07,23.07,0,0,1,23.068-23.068h153.1203A23.06979,23.06979,0,0,1,1619.57413,1692.69016Z"
        opacity=".3" />
    <path fill="#102770"
        d="M1596.48013,1809.10026h-153.0689a33.37323,33.37323,0,0,1-33.3374-33.3374V1689.635a33.37323,33.37323,0,0,1,33.3374-33.3374h153.0689a33.37323,33.37323,0,0,1,33.3374,33.3374v86.1279A33.37323,33.37323,0,0,1,1596.48013,1809.10026Zm-153.0689-132.2998a12.84968,12.84968,0,0,0-12.8344,12.8345v86.1279a12.84962,12.84962,0,0,0,12.8344,12.8345h153.0689a12.8497,12.8497,0,0,0,12.8345-12.8345V1689.635a12.84977,12.84977,0,0,0-12.8345-12.8345Z" />
    <circle cx="1497.88" cy="1731.048" r="12.644" fill="#102770"
        transform="rotate(-45 1497.88 1731.048)" />
    <circle cx="1551.471" cy="1731.048" r="12.644" fill="#102770"
        transform="rotate(-80.783 1551.47 1731.048)" />
    <circle cx="1497.88" cy="1738.771" r="12.644" fill="#102770" opacity=".3" />
    <circle cx="1551.471" cy="1738.771" r="12.644" fill="#102770" opacity=".3" />
    <path fill="#102770"
        d="M1547.64953,1611.47826c-24.2627,0-48.8208-20.5201-48.8208-59.7388a12.815,12.815,0,0,1,25.6299,0c0,23.4351,12.0215,34.1089,23.1909,34.1089,11.167,0,23.1885-10.6738,23.1885-34.1089a12.815,12.815,0,0,1,25.6299,0C1596.46793,1590.95816,1571.90983,1611.47826,1547.64953,1611.47826Z" />
    <path fill="#102770"
        d="M1681.62413,1611.47826c-24.2602,0-48.8183-20.5201-48.8183-59.7388a12.815,12.815,0,0,1,25.6299,0c0,23.4351,12.0214,34.1089,23.1884,34.1089,11.1695,0,23.1909-10.6738,23.1909-34.1089a12.815,12.815,0,0,1,25.6299,0C1730.44493,1590.95816,1705.88683,1611.47826,1681.62413,1611.47826Z" />
    <path fill="#ffa726"
        d="M2403.73243,2185.239c-.4615,7.1766-1.2302,14.6097-2.3581,22.299-20.0948,159.6306-193.7712,242.7265-306.2405,170.2419a660.859,660.859,0,0,0,17.9931-123.747v-.2563c.82.1023,1.5891.2049,2.3582.3076a120.9617,120.9617,0,0,0,27.8353.2562v-.0513c37.575-4.4598,60.1305-30.0909,69.5629-74.2276,21.5812-147.9427,134.9732-168.0377,176.2905-84.1215a.05024.05024,0,0,0,.0513.0513C2400.29793,2118.44416,2406.14163,2148.33016,2403.73243,2185.239Z" />
    <path fill="#fff"
        d="M2133.63193,2279.66376v-.2563c.82.1023,1.5891.205,2.3581.3076a120.96259,120.96259,0,0,0,27.8354.2562v-.0513c37.575-4.4598,60.1305-30.0909,69.5629-74.2276,18.2787-125.304,102.4065-158.865,152.8339-115.2236-43.4865-77.4099-152.2457-55.0052-173.3388,89.5925-9.4324,44.1367-31.9879,69.7678-69.5629,74.2276v.0513a120.9617,120.9617,0,0,1-27.8353-.2562c-.7691-.1027-1.5382-.2053-2.3582-.3076v.2563a660.859,660.859,0,0,1-17.9931,123.747Z"
        opacity=".65" />
    <path fill="#102770"
        d="M2187.30283,2416.99336c-35.5151,0-69.7656-9.5288-99.1113-28.4424a12.8142,12.8142,0,0,1-5.5005-13.833,651.02369,651.02369,0,0,0,17.6367-121.3061,13.07007,13.07007,0,0,1,4.3213-9.1163,12.83684,12.83684,0,0,1,10.0733-3.2348l2.456.3198a109.09867,109.09867,0,0,0,23.6304.3418q.4944-.09885,1.0034-.1611c30.8399-3.6573,49.9634-24.5191,58.4522-63.7769,14.0405-95.3808,63.5058-136.3794,105.1635-142.9443,38.6597-6.1035,74.9829,14.8804,94.9146,54.7778.1318.2295.2563.4663.376.7056,12.7392,25.8276,18.2055,58.938,15.8032,95.7495-.4956,7.6929-1.3257,15.542-2.4658,23.3252-10.3321,82.0898-60.9912,152.0044-135.4785,186.7554C2248.73593,2410.07686,2217.55923,2416.99336,2187.30283,2416.99336Zm-77.5341-45.354c45.8471,25.7446,104.187,26.3794,157.9711,1.2866,66.4551-31.0058,111.6602-93.4302,120.9205-166.9897,1.0766-7.3609,1.8335-14.5142,2.2851-21.521v-.0122c2.0899-32.0508-2.3828-60.4492-12.9394-82.1778-.1148-.205-.2246-.4126-.3296-.625v.0025c-14.9317-30.3345-40.4468-45.8203-68.2569-41.4453-32.705,5.1538-71.9067,39.8462-83.8549,121.7553-.0391.2759-.0904.5542-.149.8277-10.769,50.3882-37.4756,78.6841-79.3872,84.1259-.4077.0879-.8252.1563-1.25.2051a124.50733,124.50733,0,0,1-19.6484.6372A675.77,675.77,0,0,1,2109.76873,2371.63936Z" />
    <circle cx="1306.877" cy="1624.732" r="9.387" fill="#102770" />
    <circle cx="1306.877" cy="1839.107" r="9.387" fill="#102770" />
    <circle cx="1741.937" cy="1624.732" r="9.387" fill="#102770" />
    <circle cx="1741.937" cy="1839.107" r="9.387" fill="#102770" />
    <circle cx="2016.565" cy="1905.135" r="14.139" fill="#6b184e"
        transform="rotate(-22.5 2016.566 1905.135)" />
    <path fill="#102770"
        d="M2016.56553,1921.83716a16.7017,16.7017,0,1,1,16.7017-16.7017A16.721,16.721,0,0,1,2016.56553,1921.83716Zm0-28.2764a11.5747,11.5747,0,1,0,11.5747,11.5747A11.58847,11.58847,0,0,0,2016.56553,1893.56076Z" />
    <circle cx="2016.565" cy="2000.907" r="14.139" fill="#6b184e" />
    <path fill="#102770"
        d="M2016.56553,2017.60856a16.70165,16.70165,0,1,1,16.7017-16.7016A16.72089,16.72089,0,0,1,2016.56553,2017.60856Zm0-28.2763a11.5747,11.5747,0,1,0,11.5747,11.5747A11.5884,11.5884,0,0,0,2016.56553,1989.33226Z" />
    <circle cx="1053.938" cy="1905.135" r="14.138" fill="#6b184e"
        transform="rotate(-76.718 1053.938 1905.135)" />
    <path fill="#102770"
        d="M1053.93863,1921.83716a16.7017,16.7017,0,1,1,16.7016-16.7017A16.72106,16.72106,0,0,1,1053.93863,1921.83716Zm0-28.2764a11.5747,11.5747,0,1,0,11.5747,11.5747A11.5884,11.5884,0,0,0,1053.93863,1893.56076Z" />
    <circle cx="1053.938" cy="2000.907" r="14.138" fill="#6b184e" />
    <path fill="#102770"
        d="M1053.93863,2017.60856a16.70165,16.70165,0,1,1,16.7016-16.7016A16.721,16.721,0,0,1,1053.93863,2017.60856Zm0-28.2763a11.5747,11.5747,0,1,0,11.5747,11.5747A11.58834,11.58834,0,0,0,1053.93863,1989.33226Z" />
    <ellipse cx="2446.145" cy="1089.994" fill="#102770" rx="45.998" ry="52.007" />
    <ellipse cx="2416.213" cy="1006.119" fill="#102770" rx="19.587" ry="22.146" />
    <ellipse cx="2472.555" cy="1000.078" fill="#102770" rx="16.711" ry="18.894" />
    <ellipse cx="2506.196" cy="1047.575" fill="#102770" rx="12.531" ry="14.168" />
    <path fill="#102770"
        d="M985.358,1862.59456l-12.2517,81.3531c-93.3484,0-162.2448-80.8406-152.0437-154.2481,18.2494,29.2708,40.8559,43.1627,79.2512,2.3068l5.9466,2.1016C916.97413,1837.98846,948.44913,1862.59456,985.358,1862.59456Z"
        opacity=".3" />
    <path fill="#102770"
        d="M2106.87273,1943.94766l-15.0198-96.7318c25.6825-3.4858,53.4665-13.277,68.6915-41.215,41.2147,23.2733,78.1749,36.3451,78.3799-40.4456t.1539.3075C2272.296,1836.502,2235.54113,1917.80376,2106.87273,1943.94766Z"
        opacity=".3" />
    <path fill="#102770"
        d="M831.77633,2045.908c-15.3274,178.3415-257.38743,132.0516-226.989-52.2872q.15345-.7692.3076-1.5381c2.6657,110.1115,153.5814,113.1871,188.3373-.051,3.5371-24.1446,12.5593-38.0368,29.1169-37.6779,9.74.2562,18.2494,5.9979,24.042,13.8409,12.713,17.4292,33.782,15.7888,32.2952-13.8409,0,0,2.8706,3.2295,7.0229,8.5097C898.51983,1996.69636,879.96293,2035.297,831.77633,2045.908Z"
        opacity=".3" />
    <path fill="#102770"
        d="M1455.89383,2673.46036c-6.2025,81.7633-21.1713,167.7811-42.9577,257.1312-5.5361,22.6068-14.4557,44.3419-27.8354,63.36-96.0654,136.4603-314.4423,45.0597-291.3743-131.7437,19.5309,130.5134,254.4144,150.2496,294.3476-216.9417-57.6187-73.9714-94.4762-156.9136-84.5827-260.1558l35.0122-8.7146,11.5853,1.1276C1323.63733,2547.35506,1455.89383,2588.41616,1455.89383,2673.46036Z"
        opacity=".3" />
    <path fill="#102770"
        d="M1621.31413,2673.46036c6.2026,81.7633,21.1714,167.7811,42.9578,257.1312,5.5361,22.6068,14.4557,44.3419,27.8354,63.36,96.0653,136.4603,314.4422,45.0597,291.3742-131.7437-19.5308,130.5134-254.4144,150.2496-294.3475-216.9417,57.6186-73.9714,94.4762-156.9136,84.5826-260.1558l-35.0122-8.7146-11.5853,1.1276C1753.57063,2547.35506,1621.31413,2588.41616,1621.31413,2673.46036Z"
        opacity=".3" />
    <path fill="#102770"
        d="M1293.64893,2386.819c-.6684-130.1301,498.3009-132.6932,498.9694-2.5631C1621.88613,2348.08546,1455.31423,2346.85106,1293.64893,2386.819Z"
        opacity=".3" />
    <path fill="#102770"
        d="M2551.62383,1127.49416c-54.8503,269.4342-220.4275,434.7036-453.0555,537.5356l-145.9434-15.7375c338.9458-83.4548,652.9269-527.1292,552.0429-698.6014C2542.96053,982.06326,2568.95053,1046.29466,2551.62383,1127.49416Z"
        opacity=".3" />
    <path fill="#fff"
        d="M1281.355,715.48986c-63.376,92.556-92.1243,183.0815-152.5495,141.7065-60.4253-41.3751-58.0332-149.9476,5.3427-242.5036,63.376-92.556,163.7367-134.0463,224.1619-92.6712C1418.73533,563.39656,1344.73093,622.93386,1281.355,715.48986Z"
        opacity=".25" />
    <path fill="#fff"
        d="M1548.35533,513.80876c-46.3837,13.1845-86.9837,13.3234-97.5149-23.7261s18.5331-77.7721,64.9168-90.9565c46.3837-13.1845,92.5224,6.162,103.0536,43.2115S1594.73913,500.62436,1548.35533,513.80876Z"
        opacity=".25" />
    <path fill="#102770"
        d="M1524.90053,1431.13886h-1.3355c-180.7397-.227-356.3525-46.4184-494.4897-130.061a23.15914,23.15914,0,0,0-14.856-3.5572,12.23777,12.23777,0,0,1-11.5307-4.9585c-84.4068-116.0229-129.0235-254.3603-129.0235-400.0537,0-366.7187,287.8174-665.0683,641.5894-665.0683,353.8037,0,641.6431,298.3496,641.6431,665.0683,0,146.1255-44.8877,284.8218-129.8047,401.0987a12.29619,12.29619,0,0,1-6.6016,4.5825,24.12658,24.12658,0,0,0-6.3867,2.8076C1879.50743,1384.95236,1705.82823,1431.13886,1524.90053,1431.13886Zm-506.0669-158.2324a49.72972,49.72972,0,0,1,22.9736,7.1362c277.5367,168.0542,689.9121,168.1128,959.2139.1367a47.47071,47.47071,0,0,1,8.5107-4.2382c80.337-111.3868,122.7759-243.8794,122.7759-383.4327,0-353.1616-276.8091-640.4785-617.0532-640.4785-340.2148,0-616.9995,287.3169-616.9995,640.4785C898.255,1030.802,939.92733,1162.18866,1018.83363,1272.90646Zm998.3301,13.4497h0Z" />
    <ellipse cx="1255.275" cy="375.046" fill="#fff" opacity=".65" rx="14.616" ry="11.6"
        transform="rotate(-35.92 1255.275 375.046)" />
    <polygon fill="#fde6e6"
        points="1607.642 1206.865 1634.603 1262.305 1668.162 1205.122 1607.642 1206.865" />
    <polygon fill="#fde6e6"
        points="1421.17 1207.362 1393.295 1262.348 1360.687 1204.617 1421.17 1207.362" />
    <polygon fill="#102770"
        points="1393.416 1267.775 1358.455 1205.878 1362.918 1203.358 1393.172 1256.92 1418.885 1206.202 1423.455 1208.522 1393.416 1267.775" />
    <path fill="#6b184e"
        d="M1418.17333,1213.27256l-8.4127,18.1523c-.8452,67.3273,210.141,69.9762,210.9863,2.6488l-11.2842-18.3827c-40.2526-15.9929-71.8722-41.1903-91.2817-79.4063C1493.94843,1176.843,1461.82563,1204.49026,1418.17333,1213.27256Z" />
    <path fill="#102770"
        d="M1517.66663,1285.82636q-1.54545,0-3.081-.0195c-52.0411-.6543-107.8443-17.9614-107.3877-54.4141l.2368-1.0449,8.9599-19.3311,1.2744-.2563c40.5567-8.1592,72.7149-32.9517,98.313-75.791l2.3828-3.9868,2.1021,4.143c18.1763,35.7837,47.5952,61.3599,89.9438,78.1836l.7911.315,12.1191,19.7412-.0098.7397C1622.86193,1269.84246,1568.82143,1285.82636,1517.66663,1285.82636Zm-105.3442-53.833c.1928,31.1279,51.4697,48.0493,102.3266,48.6865,50.8106.6763,102.334-14.9316,103.5181-45.9131l-10.4443-17.0092c-41.5332-16.67-70.9327-41.6553-89.7071-76.2769-25.7251,41.3379-57.8491,65.5859-98.0591,74.043Z" />
    <path fill="#102770"
        d="M1600.11323,1050.62006c0,36.5853-38.1341,66.2435-85.1749,66.2435s-85.1749-29.6582-85.1749-66.2435c0-33.8545,36.4778-31.4671,83.5185-31.4671C1560.32273,1019.153,1600.11323,1016.68556,1600.11323,1050.62006Z" />
    <path fill="#102770"
        d="M1633.03773,1223.29956a121.76371,121.76371,0,0,1-20.8105-1.8067c-57.9126-10.0293-102.9102-59.3237-111.9703-122.6611a12.81459,12.81459,0,0,1,25.3711-3.6279c8.6426,60.4052,51.919,94.27,90.9742,101.0351,43.2714,7.4902,82.8833-14.209,105.9912-58.0469a12.81665,12.81665,0,1,1,22.6757,11.9532C1720.794,1196.571,1679.01183,1223.29956,1633.03773,1223.29956Z" />
    <path fill="#102770"
        d="M1395.33753,1223.29956c-45.979,0-87.7563-26.7261-112.2314-73.1543a12.81665,12.81665,0,1,1,22.6757-11.9532c23.108,43.8379,62.7247,65.542,105.9913,58.0469,39.0551-6.7651,82.3315-40.6299,90.9741-101.0351a12.81459,12.81459,0,1,1,25.3711,3.6279c-9.0601,63.3374-54.0576,112.6318-111.9702,122.6611A121.7666,121.7666,0,0,1,1395.33753,1223.29956Z" />
    <path fill="#102770"
        d="M1635.08123,1272.59886c-.0757,0-.1539,0-.2295-.0025a10.25275,10.25275,0,0,1-8.916-5.6128l-27.876-54.9853a10.25354,10.25354,0,1,1,18.291-9.2725l19.2187,37.9102,23.1934-41.0596a10.25118,10.25118,0,0,1,17.8516,10.083l-32.6075,57.7295A10.24631,10.24631,0,0,1,1635.08123,1272.59886Z" />
    <path fill="#102770"
        d="M1393.294,1272.59886a10.24631,10.24631,0,0,1-8.9257-5.21l-32.6075-57.7295a10.25118,10.25118,0,0,1,17.8516-10.083l23.1934,41.0596,19.2187-37.9102a10.25354,10.25354,0,1,1,18.291,9.2725l-27.8759,54.9853a10.253,10.253,0,0,1-8.9161,5.6128C1393.44793,1272.59886,1393.36973,1272.59886,1393.294,1272.59886Z" />
    <path fill="#102770"
        d="M1577.59823,1282.10326a10.25334,10.25334,0,0,1-4.2968-19.5655c16.4892-7.5976,30.5835-18.6084,40.7593-31.8457a10.25117,10.25117,0,1,1,16.2548,12.4951c-12.1899,15.8619-28.9404,28.9917-48.435,37.9737A10.215,10.215,0,0,1,1577.59823,1282.10326Z" />
    <path fill="#102770"
        d="M1451.93913,1282.10326a10.19694,10.19694,0,0,1-4.2774-.94,139.09618,139.09618,0,0,1-49.3799-37.6758,10.25173,10.25173,0,0,1,15.7764-13.0957,118.76267,118.76267,0,0,0,42.1729,32.1436,10.25338,10.25338,0,0,1-4.292,19.5679Z" />
    <path fill="#ed197c"
        d="M1577.59033,1271.84846c-37.9852,17.6855-85.8642,18.4546-125.6435,0C1463.78843,1225.40486,1566.05633,1225.40486,1577.59033,1271.84846Z" />
    <path fill="#102770"
        d="M1514.81993,1295.58226a160.39649,160.39649,0,0,1-67.1875-14.4336,10.2476,10.2476,0,0,1-5.6201-11.8311c7.5293-29.5288,42.0117-42.5439,73.2275-42.5537,30.7422.0952,65.022,13.3081,72.3023,42.6148a10.25192,10.25192,0,0,1-5.625,11.7651A159.75657,159.75657,0,0,1,1514.81993,1295.58226Zm-49.2773-29.1626a143.55731,143.55731,0,0,0,98.5083-.0098c-8.9453-13.0176-30.2564-19.0845-48.8745-19.1406C1496.52163,1247.17646,1474.67343,1253.241,1465.54263,1266.41966Z" />
    <path fill="#102770"
        d="M1577.59093,1282.12766a10.2308,10.2308,0,0,1-10.2514-10.2271v-.0512a10.25149,10.25149,0,1,1,10.2514,10.2783Z" />
    <path fill="#102770"
        d="M1451.94643,1282.12766a10.23089,10.23089,0,0,1-10.2515-10.2271v-.0512a10.25153,10.25153,0,1,1,10.2515,10.2783Z" />
    <ellipse cx="1510.421" cy="1047.404" fill="#fff" rx="33.32" ry="12.816" />
    <ellipse cx="1302.467" cy="941.756" fill="#fff" rx="20.847" ry="26.899"
        transform="rotate(-.372 1302.472 941.76)" />
    <path fill="#fff"
        d="M1246.98393,989.22316c.3407,7.4202-4.045,13.6496-9.7956,13.9136-5.7507.264-10.6888-5.5372-11.0295-12.9575-.3406-7.4202,4.045-13.6495,9.7957-13.9136C1241.70523,976.00166,1246.64323,981.803,1246.98393,989.22316Z" />
    <ellipse cx="1723.726" cy="941.756" fill="#fff" rx="26.899" ry="20.847"
        transform="rotate(-89.627 1723.726 941.756)" />
    <ellipse cx="1789.622" cy="989.701" fill="#fff" rx="13.45" ry="10.423"
        transform="rotate(-87.371 1789.622 989.701)" />
    <path fill="#102770"
        d="M1046.18793,1085.85066a112.39267,112.39267,0,0,1,24.7755-6.0254,184.29336,184.29336,0,0,1,24.7756-1.6617,181.055,181.055,0,0,1,24.7757,1.6409,111.0326,111.0326,0,0,1,24.7755,6.0462,111.04871,111.04871,0,0,1-24.7755,6.0461,181.039,181.039,0,0,1-24.7757,1.6408,184.29306,184.29306,0,0,1-24.7756-1.6615A112.4039,112.4039,0,0,1,1046.18793,1085.85066Z" />
    <path fill="#102770"
        d="M1036.418,1085.85066a140.51841,140.51841,0,0,1,27.9628-6.0254,234.362,234.362,0,0,1,27.9626-1.6617,230.24505,230.24505,0,0,1,27.9628,1.6409,138.79966,138.79966,0,0,1,27.9628,6.0462,138.81991,138.81991,0,0,1-27.9628,6.0461,230.22473,230.22473,0,0,1-27.9628,1.6408,234.36168,234.36168,0,0,1-27.9626-1.6615A140.53246,140.53246,0,0,1,1036.418,1085.85066Z" />
    <path fill="#102770"
        d="M1046.08153,1172.08186a131.29088,131.29088,0,0,1,23.6226-14.3199,217.92954,217.92954,0,0,1,25.0162-10.1846,214.09464,214.09464,0,0,1,26.0708-7.0551,129.70026,129.70026,0,0,1,27.4779-2.8804,129.68808,129.68808,0,0,1-23.6159,14.3394,214.06267,214.06267,0,0,1-25.0227,10.165,217.95657,217.95657,0,0,1-26.0776,7.0354A131.29549,131.29549,0,0,1,1046.08153,1172.08186Z" />
    <path fill="#102770"
        d="M1984.32583,1085.85066a112.40337,112.40337,0,0,1-24.7756,6.0254,184.29526,184.29526,0,0,1-24.7756,1.6615,181.034,181.034,0,0,1-24.7755-1.6408,111.04953,111.04953,0,0,1-24.7756-6.0461,111.03342,111.03342,0,0,1,24.7756-6.0462,181.05,181.05,0,0,1,24.7755-1.6409,184.29556,184.29556,0,0,1,24.7756,1.6617A112.39215,112.39215,0,0,1,1984.32583,1085.85066Z" />
    <path fill="#102770"
        d="M1994.09573,1085.85066a140.534,140.534,0,0,1-27.9628,6.0254,234.36377,234.36377,0,0,1-27.9628,1.6615,230.22828,230.22828,0,0,1-27.9628-1.6408,138.82432,138.82432,0,0,1-27.9628-6.0461,138.80408,138.80408,0,0,1,27.9628-6.0462,230.2486,230.2486,0,0,1,27.9628-1.6409,234.36407,234.36407,0,0,1,27.9628,1.6617A140.51992,140.51992,0,0,1,1994.09573,1085.85066Z" />
    <path fill="#102770"
        d="M1984.432,1172.08186a131.29573,131.29573,0,0,1-27.4711-2.9002,217.95149,217.95149,0,0,1-26.0776-7.0354,214.07971,214.07971,0,0,1-25.0229-10.165,129.69487,129.69487,0,0,1-23.6159-14.3394,129.69818,129.69818,0,0,1,27.4779,2.8804,214.09618,214.09618,0,0,1,26.0709,7.0551,217.92954,217.92954,0,0,1,25.0162,10.1846A131.29012,131.29012,0,0,1,1984.432,1172.08186Z" />
    <path fill="#102770"
        d="M2363.93733,2070.08526s4.1948,201.3498-135.4051,258.7406c-26.2691,10.7995-56.4812-.4397-70.1379-25.3433l-22.5738-41.1639-25.6311,10.2524-10.2525,112.7769s189.7976,60.3503,271.7534-90.2911C2371.69033,2295.05686,2443.39383,2170.04666,2363.93733,2070.08526Z"
        opacity=".3" />
    <path fill="#102770"
        d="M2621.49533,1812.03816c0,5.439-14.9682,9.9928-35.165,11.2155-1.2226,20.1967-5.7764,35.1649-11.2155,35.1649-5.439,0-9.9928-14.9682-11.2155-35.1649-20.1967-1.2227-35.1649-5.7765-35.1649-11.2155,0-5.4394,14.9682-9.9929,35.1649-11.2158,1.2227-20.1965,5.7765-35.1647,11.2155-35.1647,5.4391,0,9.9929,14.9682,11.2155,35.1647C2606.52713,1802.04526,2621.49533,1806.59876,2621.49533,1812.03816Z" />
    <path fill="#102770"
        d="M450.3236,1741.28236c0,5.439-14.9681,9.9928-35.1649,11.2155-1.2226,20.1967-5.7764,35.1649-11.2155,35.1649s-9.99289-14.9682-11.21549-35.1649c-20.1968-1.2227-35.1649-5.7765-35.1649-11.2155,0-5.4394,14.9681-9.9929,35.1649-11.2158,1.2226-20.1965,5.7764-35.1647,11.21549-35.1647s9.9929,14.9682,11.2155,35.1647C435.3555,1731.28946,450.3236,1735.843,450.3236,1741.28236Z" />
    <path fill="#102770"
        d="M495.6878,2371.96376c0,6.5961-18.15237,12.1186-42.6456,13.6014-1.48277,24.4932-7.0053,42.6456-13.6014,42.6456s-12.1186-18.1524-13.60137-42.6456c-24.49323-1.4828-42.64552-7.0053-42.64552-13.6014,0-6.5964,18.15229-12.1186,42.64552-13.6017,1.48277-24.4929,7.00527-42.6452,13.60137-42.6452s12.11863,18.1523,13.6014,42.6452C477.53543,2359.84516,495.6878,2365.36736,495.6878,2371.96376Z" />
    <path fill="#102770"
        d="M2707.54363,2347.209c0,6.5961-18.1524,12.1186-42.6456,13.6014-1.4827,24.4932-7.0052,42.6455-13.6014,42.6455-6.5961,0-12.1186-18.1523-13.6014-42.6455-24.4931-1.4828-42.6455-7.0053-42.6455-13.6014,0-6.5964,18.1524-12.1187,42.6455-13.6017,1.4828-24.4929,7.0053-42.6453,13.6014-42.6453,6.5962,0,12.1187,18.1524,13.6014,42.6453C2689.39123,2335.09026,2707.54363,2340.61256,2707.54363,2347.209Z" />
    <circle cx="2722.378" cy="1951.996" r="29.903" fill="#102770"
        transform="rotate(-45 2722.378 1951.996)" />
    <circle cx="306.687" cy="1978.142" r="29.903" fill="#102770"
        transform="rotate(-22.939 306.687 1978.142)" />
    <circle cx="2804.093" cy="2107.48" r="14.53" fill="#102770"
        transform="rotate(-80.783 2804.093 2107.48)" />
    <circle cx="223.74" cy="2141.679" r="14.53" fill="#102770"
        transform="rotate(-22.712 223.74 2141.679)" />
    <g opacity=".7">
        <path fill="#ffca28"
            d="M602.07123,1171.99216a15.75672,15.75672,0,0,0-.2779,14.6765l30.5209,61.2644,1.6124,3.1688a15.75358,15.75358,0,0,1-17.0673,22.5154l-70.71533-13.6762a15.71466,15.71466,0,0,0-14.0094,4.2252l-51.31317,50.4792a15.79041,15.79041,0,0,1-26.74063-9.2841l-8.8392-71.4381a15.8719,15.8719,0,0,0-8.3947-12.0637l-63.82179-33.1893a15.36481,15.36481,0,0,1-8.22768-11.0634,15.53989,15.53989,0,0,1,8.78388-17.1783l65.21129-30.5208a15.753,15.753,0,0,0,8.8952-11.6749l11.8414-70.9929a15.71953,15.71953,0,0,1,27.0185-8.1725l49.2003,52.5918a15.69246,15.69246,0,0,0,13.8428,4.7809l71.21553-10.6738a15.7838,15.7838,0,0,1,16.1223,23.2381Z" />
        <path fill="#fff"
            d="M636.92863,1109.00446l-8.6726,15.6774a15.555,15.555,0,0,0-16.7338-9.2844l-71.21553,10.6743a15.69318,15.69318,0,0,1-13.8428-4.7813l-49.2006-52.5915a15.67184,15.67184,0,0,0-21.0142-1.779l3.2801-19.68a15.71953,15.71953,0,0,1,27.0185-8.1725l49.2003,52.5918a15.69246,15.69246,0,0,0,13.8428,4.7809l71.21553-10.6738A15.7838,15.7838,0,0,1,636.92863,1109.00446Z"
            opacity=".65" />
        <path fill="#102770"
            d="M469.8199,1332.03726a28.76778,28.76778,0,0,1-9.4702-1.6137,28.39623,28.39623,0,0,1-18.9624-23.4668l-8.8574-71.4478a2.95628,2.95628,0,0,0-1.565-2.2534l-63.87689-33.2031a28.58126,28.58126,0,0,1,1.0693-51.2451l65.21239-30.5005a2.93876,2.93876,0,0,0,1.65773-2.1802l11.84327-71.0181a28.57543,28.57543,0,0,1,49.065-14.8095l49.1601,52.5903a2.983,2.983,0,0,0,2.5928.9033l71.19143-10.6811a28.57978,28.57978,0,0,1,29.2554,42.0849l-34.8316,63.0078a2.93894,2.93894,0,0,0-.0561,2.7393l32.1582,64.4116a28.57755,28.57755,0,0,1-30.9864,40.8252l-70.686-13.6548a2.93975,2.93975,0,0,0-2.627.7959l-51.3183,50.4859A28.40334,28.40334,0,0,1,469.8199,1332.03726Zm5.33453-285.1953a3.23875,3.23875,0,0,0-.94733.149,2.75034,2.75034,0,0,0-2.0532,2.3339l-11.8432,71.0157a28.57581,28.57581,0,0,1-16.0792,21.1816l-65.21239,30.5029a2.94667,2.94667,0,0,0-.1098,5.2832l63.87689,33.2056a28.579,28.579,0,0,1,15.1783,21.8384l8.8574,71.4477a2.94713,2.94713,0,0,0,4.9927,1.7359l51.3183-50.4883a28.57918,28.57918,0,0,1,25.4614-7.688l70.68613,13.6548a2.94819,2.94819,0,0,0,3.1958-4.209l-32.1607-64.4116a28.573,28.573,0,0,1,.5567-26.5894l34.8291-63.0078a2.94793,2.94793,0,0,0-3.0176-4.3384l-71.19393,10.6812a28.6037,28.6037,0,0,1-25.1171-8.7451l-49.1626-52.5952A2.74838,2.74838,0,0,0,475.15443,1046.842Z" />
        <path fill="#102770"
            d="M618.36,1268.52116l-70.71543-13.6761a15.71421,15.71421,0,0,0-14.0093,4.2251l-51.3132,50.4792a15.79039,15.79039,0,0,1-26.7406-9.2841l-8.8392-71.4381a15.8719,15.8719,0,0,0-8.3947-12.0637l-63.82179-33.1893a15.36523,15.36523,0,0,1-8.2278-11.0634l26.4627-16.122,60.58989,30.295a46.34851,46.34851,0,0,1,25.2515,35.6156l3.2896,25.8997a7.44319,7.44319,0,0,0,12.6874,4.2846l17.2145-17.4819a46.34862,46.34862,0,0,1,44.2311-12.4536l74.73263,18.621s1.1119.6115,3.0576,1.6678l1.6124,3.1688A15.75357,15.75357,0,0,1,618.36,1268.52116Z"
            opacity=".3" />
    </g>
    <g opacity=".7">
        <circle cx="2826.293" cy="1426.215" r="151.666" fill="#2ecc71"
            transform="rotate(-45 2826.293 1426.215)" />
        <path fill="#22a7f0"
            d="M2948.65563,1461.80456c-21.5011-26.0991-65.732,10.2913-87.2024-15.7991-21.4614-26.1205,22.7695-62.5112,1.2991-88.6013-21.4614-26.1208-65.6923,10.2696-87.1627-15.8205-14.4084-17.5219.7875-39.6735,5.8411-60.2534a152.20236,152.20236,0,0,0-20.0265,7.9255c.0072-.0263.0163-.0522.0235-.0785-.4002.188-.7825.4121-1.1808.6039-1.7656.8544-3.5024,1.7546-5.2335,2.6763q-2.754,1.45965-5.4401,3.0378c-1.4158.8297-2.8325,1.6495-4.221,2.5249-2.4242,1.5237-4.7899,3.1366-7.1262,4.798-.755.5376-1.539,1.0291-2.2843,1.5807-3.0559,2.2587-6.0158,4.6519-8.9008,7.1418-.8608.7434-1.6802,1.534-2.5253,2.2975-2.0619,1.8625-4.0831,3.7702-6.0448,5.7498-.9518.9602-1.8845,1.9373-2.8116,2.9248q-2.7933,2.9745-5.4228,6.1152c-.7963.9461-1.6101,1.8723-2.3844,2.84-2.4468,3.0562-4.8143,6.1869-7.0311,9.4505-5.1393,14.3399-9.1264,28.4946.7265,40.4939,21.4708,26.0901,65.7017-10.3003,87.163,15.8204,21.4705,26.0904-22.7604,62.4809-1.29,88.571,21.4614,26.1207,65.6926-10.2697,87.1934,15.8298a27.45594,27.45594,0,0,1,2.6626,3.8628c.3729.6558.617,1.3316.922,1.9981.3054.6664.668,1.3238.9092,1.9999.2654.7443.4149,1.5068.6077,2.2627.1576.6192.3679,1.2297.4799,1.856.1389.7776.1796,1.5707.2525,2.3589.0579.6226.1586,1.2386.178,1.8675.0248.7988-.0316,1.6104-.0635,2.4183-.0253.6329-.0162,1.2596-.0735,1.8976-.0738.8222-.2128,1.6542-.3348,2.4839-.0935.6352-.1608,1.2663-.28,1.9055-.1574.8441-.3642,1.6958-.561,2.5459-.1477.6364-.2753,1.2697-.4421,1.9092-.2293.8795-.4947,1.7646-.7556,2.6488-.1812.6142-.3482,1.2259-.5422,1.8419-.3098.9847-.6427,1.9727-.9781,2.9614-.1711.5044-.3332,1.0075-.5094,1.5125-1.1179,3.2077-2.3134,6.4269-3.4664,9.6389-.0366.1023-.0716.2043-.1082.3066q-.7284,2.036-1.4102,4.0637c-.1079.3226-.2077.6439-.3135.9662-.3879,1.1827-.7581,2.3622-1.1026,3.5377-.1095.3745-.2055.7468-.3094,1.1207-.3157,1.1302-.6079,2.2565-.8651,3.3773-.0879.3842-.159.7656-.2387,1.1482-.2316,1.1045-.4334,2.204-.5914,3.2968-.0547.3833-.091.7638-.1358,1.1455-.0835.7049-.2046,1.4155-.2509,2.1144.0291-.0125.0566-.0275.0857-.04-.0353.5394-.1176,1.0866-.1289,1.6223a151.88672,151.88672,0,0,0,75.1243-48.4094C2946.94043,1502.79466,2963.472,1479.84776,2948.65563,1461.80456Z" />
        <path fill="#fff"
            d="M2948.65563,1461.80456c-21.5011-26.0991-65.732,10.2913-87.2024-15.7991-21.4614-26.1205,22.7695-62.5112,1.2991-88.6013-21.4614-26.1208-65.6923,10.2696-87.1627-15.8205-14.4084-17.5219.7875-39.6735,5.8411-60.2534a152.20236,152.20236,0,0,0-20.0265,7.9255c.0072-.0263.0163-.0522.0235-.0785-.4002.188-.7825.4121-1.1808.6039-1.7656.8544-3.5024,1.7546-5.2335,2.6763q-2.754,1.45965-5.4401,3.0378c-1.4158.8297-2.8325,1.6495-4.221,2.5249-2.4242,1.5237-4.7899,3.1366-7.1262,4.798-.755.5376-1.539,1.0291-2.2843,1.5807-3.0559,2.2587-6.0158,4.6519-8.9008,7.1418-.8608.7434-1.6802,1.534-2.5253,2.2975-2.0619,1.8625-4.0831,3.7702-6.0448,5.7498-.9518.9602-1.8845,1.9373-2.8116,2.9248q-2.7933,2.9745-5.4228,6.1152c-.7963.9461-1.6101,1.8723-2.3844,2.84-2.4468,3.0562-4.8143,6.1869-7.0311,9.4505q-.642,1.791-1.2465,3.5759c.1377-.1614.2728-.3254.4096-.4877q2.639-3.1347,5.4228-6.1153c.9271-.9874,1.8598-1.9646,2.8115-2.9248,1.9618-1.9796,3.983-3.8872,6.0449-5.7498.8451-.7634,1.6645-1.554,2.5252-2.2974,2.8851-2.4899,5.8449-4.8832,8.9008-7.1418.7453-.5516,1.5294-1.0432,2.2844-1.5807,2.3362-1.6614,4.7019-3.2743,7.1261-4.798,1.3886-.8755,2.8053-1.6952,4.2211-2.525q2.6925-1.5726,5.44-3.0377c1.7312-.9218,3.468-1.8219,5.2336-2.6764.3983-.1918.7806-.4158,1.1808-.6038-.0072.0262-.0163.0522-.0235.0785a152.21126,152.21126,0,0,1,20.0265-7.9256c-5.0536,20.58-20.2496,42.7316-5.8412,60.2535,21.4705,26.0901,65.7014-10.3003,87.1627,15.8204,21.4705,26.0901-22.7604,62.4809-1.2991,88.6013,21.4705,26.0904,65.7014-10.3,87.2025,15.7992,13.4247,16.3483,1.137,36.719-4.6904,56.0665,3.0008-3.0108,5.9112-6.1221,8.6617-9.3964C2946.94043,1502.79466,2963.472,1479.84776,2948.65563,1461.80456Z"
            opacity=".65" />
        <path fill="#fff"
            d="M2977.30933,1440.53966a151.68377,151.68377,0,0,0-302.3596-4.1135,151.68818,151.68818,0,1,1,302.3596,4.1135Z"
            opacity=".65" />
        <path fill="#102770"
            d="M2826.50943,1590.77506a165.05847,165.05847,0,0,1-47.544-7.0361,164.48045,164.48045,0,0,1-110.1953-204.8535c26.0938-86.8604,118.0078-136.2866,204.8511-110.1953,86.8603,26.0986,136.2939,117.9956,110.1953,204.8535h0a164.73389,164.73389,0,0,1-157.3071,117.2314Zm-.398-303.4765a138.8886,138.8886,0,1,0,133.1592,178.872h0c22.0313-73.3251-19.6997-150.9008-93.0249-172.9345A139.39469,139.39469,0,0,0,2826.11143,1287.29856Z" />
        <path fill="#102770"
            d="M2971.56013,1469.84966a151.68817,151.68817,0,0,1-296.5528-54.7403,151.69506,151.69506,0,0,0,283.0466-63.9967A151.14628,151.14628,0,0,1,2971.56013,1469.84966Z"
            opacity=".3" />
        <path fill="#102770"
            d="M2867.24913,1580.21846a7.95691,7.95691,0,0,1-7.9541-8.1274c.2075-9.7632,3.75-19.48,7.1753-28.8746,6.1231-16.7919,9.3115-27.6318,1.9971-36.5307-7.3218-8.8941-18.5693-7.8589-36.228-5.1001-17.5147,2.7441-37.3511,5.8447-50.9668-10.73-13.6182-16.5503-6.7456-35.415-.6836-52.0605,6.1133-16.7823,9.2968-27.6123,1.98-36.5064-7.3243-8.9136-18.5669-7.876-36.2183-5.1147-17.4951,2.7417-37.3291,5.8447-50.9448-10.7056-13.479-16.4136-6.6162-35.564-2.0752-48.2349a8.03065,8.03065,0,0,1,.9082-1.7846,160.25906,160.25906,0,0,1,84.834-62.7198,7.95725,7.95725,0,0,1,10.0854,9.4971,164.20208,164.20208,0,0,1-5.4443,16.792c-6.1109,16.7822-9.2945,27.6147-1.98,36.5112,7.3193,8.8916,18.5547,7.8565,36.1963,5.0952,17.5049-2.7368,37.3486-5.8471,50.9692,10.7276,13.6182,16.5503,6.7456,35.4175.6812,52.063-6.1158,16.7895-9.3018,27.6294-1.98,36.5381,7.3169,8.8916,18.5596,7.8491,36.206,5.0903,17.5098-2.7417,37.3536-5.8496,50.9888,10.7031,13.6157,16.5796,6.7334,35.4492.6616,52.0996a132.25594,132.25594,0,0,0-5.3076,16.6944,7.93652,7.93652,0,0,1-1.6846,3.4301,158.97645,158.97645,0,0,1-79.0625,50.9497A7.91369,7.91369,0,0,1,2867.24913,1580.21846Zm-16.5136-96.5356c11.0253,0,21.6821,2.771,30.0195,12.893,13.6182,16.5674,6.7358,35.4395.6665,52.0899-1.4942,4.0942-2.9468,8.0786-4.0723,11.9018a142.8933,142.8933,0,0,0,57.7124-40.3979,164.90341,164.90341,0,0,1,5.4444-16.7749c6.1255-16.792,9.3164-27.6319,2.0019-36.5406-7.3291-8.894-18.5766-7.854-36.2402-5.0903-17.5025,2.7393-37.3413,5.8447-50.957-10.7031-13.6182-16.5747-6.7457-35.4444-.6812-52.0923,6.1133-16.7822,9.2969-27.6147,1.98-36.5088-7.3242-8.916-18.5669-7.8784-36.2183-5.1147-17.4951,2.7392-37.3315,5.8447-50.9448-10.7056-13.6157-16.5601-6.7456-35.4248-.6836-52.0679.0073-.0171.0122-.0342.0195-.0512a144.16374,144.16374,0,0,0-60.813,50.039c-5.2685,14.9024-6.6845,23.9942-.271,31.8042,7.3096,8.8843,18.5499,7.8491,36.1915,5.0904,17.5024-2.7393,37.3486-5.8472,50.9692,10.7275,13.6182,16.5503,6.7456,35.415.6836,52.0605-6.1133,16.7823-9.2969,27.6123-1.98,36.5064,7.3242,8.9136,18.5693,7.8808,36.2158,5.1172C2836.57773,1484.801,2843.73353,1483.68286,2850.73553,1483.68286Zm91.6381,40.1709h0Z" />
    </g>
</svg>