<svg xmlns="http://www.w3.org/2000/svg" viewBox="0 0 5120 5120" id="logo">
  <g fill="currentColor">
    <path
      d="M520 2560 l0 -2040 2040 0 2040 0 0 2040 0 2040 -2040 0 -2040 0 0 -2040z m1676 505 c58 -24 67 -61 61 -250 -4 -127 -9 -175 -27 -230 -51 -163 -175 -306 -326 -376 -45 -22 -91 -39 -102 -39 -20 0 -20 0 -2 64 66 233 42 498 -67 739 -20 42 -39 77 -43 77 -12 0 -78 -155 -105 -245 -53 -184 -56 -368 -10 -552 14 -53 25 -99 25 -100 0 -2 -131 -3 -291 -3 l-291 0 4 218 c5 235 7 250 71 382 48 99 160 206 271 260 124 60 183 68 514 69 227 1 290 -2 318 -14z m1399 0 c202 -36 381 -181 459 -374 38 -94 46 -156 46 -358 l0 -183 -290 0 c-159 0 -290 1 -290 3 0 1 11 47 25 100 46 184 43 368 -11 555 -26 88 -92 242 -104 242 -4 0 -23 -35 -43 -77 -110 -242 -134 -505 -67 -739 l19 -66 -32 6 c-113 22 -267 138 -347 260 -69 104 -92 194 -97 381 -6 186 3 226 59 250 47 20 559 20 673 0z"></path>
  </g>
</svg>