<svg xmlns="http://www.w3.org/2000/svg" viewBox="0 0 1364 960">
    <linearGradient id="a" x1="698.641" x2="698.641" y1="516.59" y2="747.11"
        gradientUnits="userSpaceOnUse">
        <stop offset="0" stop-color="#c4e6ff" />
        <stop offset="1" stop-color="#73b2ff" />
    </linearGradient>
    <path fill="url(#a)"
        d="M817.869 743.698v6.634h-24.727v-6.634c0-4.157 6.039-7.526 6.039-7.526v-53.603H598.183v53.603s5.957 3.369 5.957 7.526v6.634h-24.727v-6.634c0-4.157 6.135-7.526 6.135-7.526V504.06h12.635v163.874H799.18V504.06h12.642v232.112c.001.001 6.047 3.37 6.047 7.526z" />
    <linearGradient id="b" x1="700.795" x2="700.795" y1="532.797" y2="687.963"
        gradientUnits="userSpaceOnUse">
        <stop offset="0" stop-color="#ff9666" />
        <stop offset="1" stop-color="#c42d40" />
    </linearGradient>
    <path fill="url(#b)"
        d="M856.016 534.481v39.767c0 1.916-1.993 3.47-4.451 3.47h-301.54c-2.458 0-4.451-1.554-4.451-3.47v-39.767c0-1.916 1.993-3.469 4.451-3.469h301.54c2.458 0 4.451 1.553 4.451 3.469z" />
    <path fill="#FFF"
        d="m576.3 534.295-27.266 29.999v-16.398l12.393-13.601zM613.82 534.295l-36.244 40.14h-15.162l36.344-40.14zM651.846 534.295l-36.01 40.14h-15.364l36.105-40.14zM690.378 534.295l-35.771 40.14h-15.568l35.861-40.14zM729.423 534.295l-35.523 40.14h-15.78l35.622-40.14zM769.009 534.295l-35.289 40.14h-15.996l35.388-40.14zM809.127 534.295l-35.049 40.14H757.87l35.144-40.14zM845.764 534.295l-36.483 40.14h-14.964l36.578-40.14zM852.556 551.598v16.732l-5.511 6.105h-15.166z" />
    <linearGradient id="c" x1="700.795" x2="700.795" y1="532.797" y2="687.963"
        gradientUnits="userSpaceOnUse">
        <stop offset="0" stop-color="#ff9666" />
        <stop offset="1" stop-color="#c42d40" />
    </linearGradient>
    <path fill="url(#c)"
        d="M856.016 609.721v39.768c0 1.916-1.993 3.469-4.451 3.469h-301.54c-2.458 0-4.451-1.553-4.451-3.469v-39.768c0-1.916 1.993-3.47 4.451-3.47h301.54c2.458 0 4.451 1.554 4.451 3.47z" />
    <path fill="#FFF"
        d="m576.3 609.535-27.266 29.999v-16.398l12.393-13.601zM613.82 609.535l-36.244 40.14h-15.162l36.344-40.14zM651.846 609.535l-36.01 40.14h-15.364l36.105-40.14zM690.378 609.535l-35.771 40.14h-15.568l35.861-40.14zM729.423 609.535l-35.523 40.14h-15.78l35.622-40.14zM769.009 609.535l-35.289 40.14h-15.996l35.388-40.14zM809.127 609.535l-35.049 40.14H757.87l35.144-40.14zM845.764 609.535l-36.483 40.14h-14.964l36.578-40.14zM852.556 626.838v16.731l-5.511 6.106h-15.166z" />
    <linearGradient id="d" x1="574.211" x2="607.42" y1="498.758" y2="498.758"
        gradientUnits="userSpaceOnUse">
        <stop offset="0" stop-color="#ff9666" />
        <stop offset="1" stop-color="#c42d40" />
    </linearGradient>
    <path fill="url(#d)"
        d="M574.211 498.758c0-8.989 7.435-16.276 16.605-16.276s16.605 7.287 16.605 16.276-7.435 16.276-16.605 16.276-16.605-7.287-16.605-16.276z" />
    <path fill="#FFE48E"
        d="M579.619 498.758c0-6.061 5.013-10.975 11.196-10.975s11.196 4.914 11.196 10.975-5.013 10.975-11.196 10.975-11.196-4.914-11.196-10.975z" />
    <linearGradient id="e" x1="788.898" x2="822.107" y1="498.758" y2="498.758"
        gradientUnits="userSpaceOnUse">
        <stop offset="0" stop-color="#ff9666" />
        <stop offset="1" stop-color="#c42d40" />
    </linearGradient>
    <path fill="url(#e)"
        d="M788.898 498.758c0-8.989 7.434-16.276 16.605-16.276 9.17 0 16.604 7.287 16.604 16.276s-7.434 16.276-16.604 16.276c-9.171 0-16.605-7.287-16.605-16.276z" />
    <path fill="#FFE48E"
        d="M794.306 498.758c0-6.061 5.013-10.975 11.197-10.975 6.183 0 11.196 4.914 11.196 10.975s-5.012 10.975-11.196 10.975-11.197-4.914-11.197-10.975z" />
    <path fill="#F9CBCB"
        d="M395.184 493.076s25.575-3.065 32.608-9.09c12.607-10.801 28.694-39.768 28.694-39.768 10.084-6.026 16.622-14.426 14.67-18.733-3.517-7.661-10.825 7.608-15.277 6.77 0 0 1.522-6.764-2.306-6.556-3.836.185-6.971 14.04-6.971 14.04-10.464 9.544-21.97 21.99-27.337 27.191-1.825.107-25.982-.887-38.022 6.321 3.492 9.343 5.629 18.011 13.941 19.825z" />
    <linearGradient id="f" x1="405.731" x2="395.449" y1="465.035" y2="498.015"
        gradientUnits="userSpaceOnUse">
        <stop offset="0" stop-color="#ffdd4f" />
        <stop offset="1" stop-color="#ff8f5c" />
    </linearGradient>
    <path fill="url(#f)"
        d="M424.92 487.325c-12.488 6.544-22.984 5.973-29.736 5.751-1.895-.061-3.664-.743-5.276-1.86-9.511-6.56-13.822-28.199-8.152-28.21 3.34-.005 10.016.723 16.925 1.471 8.192.879 16.707 1.774 20.376 1.491l3.634 13.225 1.688 6.155.541 1.977z" />
    <path fill="#F0E9DD"
        d="M424.92 487.325c-12.488 6.544-22.984 5.973-29.736 5.751-1.895-.061-3.664-.743-5.276-1.86-2.067-2.643-3.972-5.14-3.972-5.185l8.869-16.728s11.3 2.609 14.332 13.937c1.111 4.149 9.127 2.296 15.242 2.108l.541 1.977z" />
    <path fill="#F1CCCD"
        d="M409.211 631.555c-1.395 9.114-8.741 84.837-7.153 105.643 3.874.656 7.625.576 11.087-1.219 0 0 6.891-48.927 10.573-75.035.953-6.626 1.631-12.53 1.874-16.963 1.453-25.303-17.17-95.148-18.369-99.67l-.049-.173-.016-.064-35.147-2.685c-14.41 51.211 19.39 45.247 37.2 90.166z" />
    <linearGradient id="g" x1="428.464" x2="361.341" y1="600.063" y2="670.679"
        gradientUnits="userSpaceOnUse">
        <stop offset="0" stop-color="#326ab3" />
        <stop offset="1" stop-color="#003780" />
    </linearGradient>
    <path fill="url(#g)"
        d="M434.062 640.27c0 12.018-9.269 54.145-14.059 76.29v.005c-1.476 6.822-2.527 11.745-2.749 13.306-1.602.298-3.224.5-4.872.616-4.442.323-9.036.045-13.721-.536-4.068-16.106-5.534-63.414-1.779-82.198-5.407-13.635-30.135-39.555-29.033-79.231.237-8.606 1.693-17.86 4.821-27.775l35.148 2.683.015.066.046.172c.086.329.298.986.616 1.931 1.041 3.098 3.229 9.294 5.903 17.193 1.344 3.967 2.81 8.369 4.321 13.018 7.206 22.241 15.343 50.223 15.343 64.46z" />
    <path fill="#C1D2E6"
        d="M412.381 730.488c-4.442.323-9.036.045-13.721-.536-4.068-16.106-5.534-63.414-1.779-82.198-5.407-13.635-30.135-39.555-29.033-79.231 11.891-9.435 32.778-22.731 33.086-22.924h7.56c1.041 3.098 3.229 9.294 5.903 17.193-.733 3.598-2.396 7.085-5.655 9.703-10.8 8.672.647 28.839-5.209 45.152-5.537 15.425.14 24.7 8.342 25.367 0 0-6.782 2.254-7.858 14.646-1.076 12.392 6.57 35.856 1.562 48.515-3.992 10.077 1.38 20.487 6.802 24.313z" />
    <path fill="#F1CCCD"
        d="M328.504 733.334s15.748-31.595 28.351-49.926c2.992-4.387 5.815-8.222 8.227-11.063 17.259-20.26 26.272-122.365 26.272-122.365l-23.241 1.127c-22.37 23.306-12.134 55.698-12.795 87.4-.228 10.988-13.241 20.152-18.477 29.404a100.638 100.638 0 0 0-2.985 5.685c-6.526 13.499-11.002 30.849-14.573 56.851 2.128 5.112 4.745 8.077 9.221 2.887z" />
    <linearGradient id="h" x1="407.521" x2="303.634" y1="587.783" y2="682.939"
        gradientUnits="userSpaceOnUse">
        <stop offset="0" stop-color="#326ab3" />
        <stop offset="1" stop-color="#003780" />
    </linearGradient>
    <path fill="url(#h)"
        d="M398.959 555.388s-.025 1.915-.121 5.246c-.541 18.709-3.229 82.077-15.196 101.24-2.017 3.229-22.236 30.165-36.23 48.864-6.858 9.172-12.22 16.359-13.205 17.804-3.512-.672-6.287-1.188-8.92-2.082-2.481-.849-4.841-2.032-7.576-3.992.758-1.567 2.36-27.366 17.395-57.698 5.327-10.739 13.746-18.497 13.857-31.009.268-30.656-3.452-60.068 18.173-82.592l23.656 3.138 8.167 1.081z" />
    <path fill="#C1D2E6"
        d="m390.792 554.306-2.355 13.185c-1.061-.035-7.949 12.649-23.879 15.55-15.934 2.901-14.09 56.935-3.543 59.972 0 0-5.872-.526-9.132 5.478-3.259 6.004-6.686 25.516-15.914 35.532-7.742 8.409-12.715 32.788-10.684 42.436-2.481-.849-4.841-2.032-7.576-3.992.758-1.567 2.36-27.366 17.395-57.698 5.327-10.739 13.746-18.497 13.857-31.009.268-30.656-3.452-60.068 18.173-82.592l23.658 3.138z" />
    <linearGradient id="i" x1="408.218" x2="345.944" y1="469.843" y2="584.206"
        gradientUnits="userSpaceOnUse">
        <stop offset="0" stop-color="#ffdd4f" />
        <stop offset="1" stop-color="#ff8f5c" />
    </linearGradient>
    <path fill="url(#i)"
        d="M412.68 559.593c-.303 2.769-4.058 5.63-6.807 6.115a119.067 119.067 0 0 1-11.947 1.445c-2.719.197-5.463.303-8.228.333-.51 0-1.021.005-1.531.005-8.242.02-16.707-.682-25.354-1.966a6.052 6.052 0 0 1-2.567-1.021 6.222 6.222 0 0 1-2.587-4.194c-1.804-12.038-6.56-45.498-6.822-64.793-.061-3.613.051-6.742.364-9.127.511-3.937 2.436-8.632 6.029-12.867 3.77-4.437 9.37-8.369 17.087-10.375l5.771-.071 6.469-.081c19.406 4.184 25.556 27.315 26.81 41.804.232 2.653.298 5.018.253 6.923-.197 8.328.516 16.637 1.319 24.126 1.068 9.998 2.302 18.538 1.741 23.744z" />
    <path fill="#F5EEE1"
        d="M364.558 549.98c3.469 8.385 17.875 14.075 21.14 17.501v.005c-.51 0-1.021.005-1.531.005-8.242.02-16.707-.682-25.354-1.966a6.052 6.052 0 0 1-2.567-1.021 6.222 6.222 0 0 1-2.587-4.194c-1.804-12.038-6.56-45.498-6.822-64.793-.061-3.613.051-6.742.364-9.127.511-3.937 4.686-12.583 11.971-11.454 16.701 2.587 50.993 52.829 50.993 52.829s-13.241 8.96-27.644 6.403c-14.4-2.563-21.998 6.058-17.963 15.812z" />
    <path fill="#1F357A"
        d="M378.296 452.513c-3.657 1.131-5.135 2.957-9.812.844-7.117-3.216-13.125-15.534-3.674-21.105.654-1.95 1.312-2.709 3.803-3.251 2.49-.54 5.043.543 8.476.484 3.433-.059 8.289-3.593 11.282 1.399 2.993 4.992-4.428 8.874-8.147 11.332-3.72 2.459-2.513 6.7-1.928 10.297z" />
    <path fill="#F9CBCB"
        d="M370.316 463.15c5.718 5.319 15.88 10.131 12.239-.155l-1.132-8.171-.432-3.538h-9.64l-.185 2.194-.85 9.67z" />
    <path fill="#F0B4B4"
        d="M371.028 455.043c2.382 2.867 8.947 3.697 10.726 2.468l-.763-6.225-9.695-4.069-.268 7.826z" />
    <path fill="#F9CBCB"
        d="M385.055 435.407c1.664 4.692 3.296 15.065-.686 18.922-2.521 2.441-11.667 1.497-13.534-5.218-2.206-1.598-3.825-5.492-1.793-7.26 1.449-1.259 3.3 2.069 5.828 1.518.959-.209-1.987-6.616 1.006-7.726 2.994-1.11 6.162 1.296 9.179-.236z" />
    <path fill="#1F357A"
        d="M427.962 747.322c-.04.884-.359 1.612-.96 1.956-1.92 1.071-20.932 2.102-23.97.839-.652-.268-1.071-1.041-1.329-2.077-.95-3.795.268-11.214.268-11.214 1.9.318 3.74.495 5.473.44 2.052-.066 3.962-.46 5.645-1.329.364 5.377 5.225 6.15 9.455 5.802 1.38-.116 2.512.318 3.376 1.036 1.41 1.166 2.118 3.071 2.042 4.547z" />
    <path fill="#1F357A"
        d="M425.92 742.773c-2.441-.025-5.716 2.769-13.291 2.82-7.171.046-6.221-5.392-5.185-8.328 2.052-.066 3.962-.46 5.645-1.329.364 5.377 5.225 6.15 9.455 5.802 1.38-.117 2.512.318 3.376 1.035zM339.699 747.504c-.349.814-.905 1.385-1.587 1.491-.409.066-1.4-.091-2.744-.399-5.746-1.309-18.047-5.412-19.992-7.232-.516-.48-.637-1.349-.511-2.411.44-3.891 4.185-10.411 4.185-10.411 1.536.889 3.063 1.648 4.573 2.193 2.087.763 4.139 1.127 6.15.884-1.546 5.16 2.734 7.591 6.812 8.753 3.504.991 4.07 4.938 3.114 7.132z" />
    <path fill="#1F357A"
        d="M339.699 747.504c-.349.814-.905 1.385-1.587 1.491-.409.066-1.4-.091-2.744-.399-5.746-1.309-18.047-5.412-19.992-7.232-.516-.48-.637-1.349-.511-2.411 0 0 14.15 4.927 21.62 7.469a300.8 300.8 0 0 0 3.214 1.082z" />
    <path fill="#F9CBCB"
        d="M357.18 502.015s19.832 21.149 30.592 24.415c16.286 4.943 54.024-3.059 54.024-3.059 12.056 4.826 24.873-3.437 27.351-8.039 4.378-8.226-13.957 3.018-16.203-1.457 0 0 5.96-5.436 3.3-6.898-3.721-2.045-14.533 5.65-14.533 5.65-10.103-2.432-31.391-4.183-44.377-6.501-1.317-1.533-24.853-24.993-39.258-30.748-5.871 9.33-4.872 18.114-.896 26.637z" />
    <linearGradient id="j" x1="378.488" x2="361.319" y1="483.415" y2="517.753"
        gradientUnits="userSpaceOnUse">
        <stop offset="0" stop-color="#ffdd4f" />
        <stop offset="1" stop-color="#ff8f5c" />
    </linearGradient>
    <path fill="url(#j)"
        d="m396.23 501.026-17.516 21.958c-11.598-6.944-36.857-31.424-22.565-46.337 1.127-1.178 2.35-1.956 3.654-2.39l.005-.005c1.425-.48 2.941-.556 4.523-.298 8.576 1.39 19.012 12.553 26.739 21.261 1.905 2.147 3.649 4.143 5.16 5.811z" />
    <path fill="#F0E9DD"
        d="m396.23 501.026-17.516 21.958c-11.598-6.944-36.857-31.424-22.565-46.337 1.127-1.178 2.35-1.956 3.654-2.39-.156.384-4.352 19.983 9.52 26.123 13.994 6.2 18.745-2.791 26.907.646z" />
    <path fill="#1F357A"
        d="M339.699 747.504c-.349.814-.905 1.385-1.587 1.491-.409.066-1.4-.091-2.744-.399.389-.662.793-1.405 1.117-2.173.49-1.162.803-2.375.606-3.452-.596-3.26-7.813-2.618-12.857-5.883-3.103-2.006-1.976-4.629-.611-6.352 2.087.763 4.139 1.127 6.15.884-1.546 5.16 2.734 7.591 6.812 8.753 3.504.99 4.07 4.937 3.114 7.131z" />
    <linearGradient id="k" x1="835.732" x2="876.299" y1="720.633" y2="720.633"
        gradientUnits="userSpaceOnUse">
        <stop offset="0" stop-color="#ff9666" />
        <stop offset="1" stop-color="#c42d40" />
    </linearGradient>
    <path fill="url(#k)"
        d="M856.569 697.995h-1.107c-1.042 0-1.981.65-2.377 1.645l-17.353 43.631h40.567l-17.353-43.631c-.396-.995-1.335-1.645-2.377-1.645z" />
    <path fill="#D1D3D4"
        d="M858.946 699.64c-.396-.995-1.335-1.645-2.377-1.645h-1.107c-.465 0-.906.135-1.291.367l8.528 21.443c3.973 9.989-3.386 20.836-14.136 20.836h-11.785l-1.046 2.631h40.567l-17.353-43.632z" />
    <path fill="#FFF"
        d="M874.17 737.926h-36.309l2.107-5.304h32.095zM869.892 727.166H842.14l2.107-5.304h23.538zM865.613 716.4h-19.195l2.114-5.304H863.5zM861.328 705.64h-10.625l2.107-5.304h6.411z" />
    <linearGradient id="l" x1="829.545" x2="882.486" y1="746.817" y2="746.817"
        gradientUnits="userSpaceOnUse">
        <stop offset="0" stop-color="#ff9666" />
        <stop offset="1" stop-color="#c42d40" />
    </linearGradient>
    <path fill="url(#l)"
        d="M882.486 750.678h-52.941v-2.597a5.125 5.125 0 0 1 5.125-5.125h42.691a5.125 5.125 0 0 1 5.125 5.125v2.597z" />
    <linearGradient id="m" x1="525.29" x2="565.858" y1="720.456" y2="720.456"
        gradientUnits="userSpaceOnUse">
        <stop offset="0" stop-color="#ff9666" />
        <stop offset="1" stop-color="#c42d40" />
    </linearGradient>
    <path fill="url(#m)"
        d="M546.127 697.817h-1.107c-1.042 0-1.981.65-2.377 1.645l-17.353 43.631h40.567l-17.353-43.631c-.395-.995-1.335-1.645-2.377-1.645z" />
    <path fill="#D1D3D4"
        d="M548.504 699.462c-.396-.995-1.335-1.645-2.377-1.645h-1.107c-.465 0-.906.135-1.291.367l8.528 21.443c3.973 9.989-3.386 20.836-14.136 20.836h-11.785l-1.046 2.631h40.567l-17.353-43.632z" />
    <path fill="#FFF"
        d="M563.729 737.748h-36.31l2.108-5.304h32.095zM559.45 726.988h-27.752l2.107-5.303h23.538zM555.172 716.222h-19.195l2.113-5.304h14.968zM550.887 705.462h-10.626l2.107-5.304h6.412z" />
    <linearGradient id="n" x1="519.104" x2="572.044" y1="746.639" y2="746.639"
        gradientUnits="userSpaceOnUse">
        <stop offset="0" stop-color="#ff9666" />
        <stop offset="1" stop-color="#c42d40" />
    </linearGradient>
    <path fill="url(#n)"
        d="M572.044 750.5h-52.941v-2.597a5.125 5.125 0 0 1 5.125-5.125h42.691a5.125 5.125 0 0 1 5.125 5.125v2.597z" />
    <path fill="#1F1C80"
        d="M1299.871 749.261H165.409c-.573 0-1.038.465-1.038 1.038v.066c0 .573.465 1.038 1.038 1.038H1299.87c.573 0 1.038-.465 1.038-1.038v-.066a1.037 1.037 0 0 0-1.037-1.038zM140.304 751.403H64.129a1.038 1.038 0 0 1-1.038-1.038v-.066c0-.573.465-1.038 1.038-1.038h76.175c.573 0 1.038.465 1.038 1.038v.066c0 .573-.464 1.038-1.038 1.038zM686.758 788.607H377.552a1.038 1.038 0 0 1-1.038-1.038v-.066c0-.573.465-1.038 1.038-1.038h309.206c.573 0 1.038.465 1.038 1.038v.066c0 .573-.465 1.038-1.038 1.038zM799.79 788.607h-79.523a1.038 1.038 0 0 1-1.038-1.038v-.066c0-.573.465-1.038 1.038-1.038h79.523c.573 0 1.038.465 1.038 1.038v.066c0 .573-.465 1.038-1.038 1.038z" />
    <linearGradient id="o" x1="714.623" x2="714.623" y1="300.662" y2="456.045"
        gradientUnits="userSpaceOnUse">
        <stop offset="0" stop-color="#c4e6ff" />
        <stop offset="1" stop-color="#73b2ff" />
    </linearGradient>
    <path fill="url(#o)"
        d="M772.12 360.693c-4.225-1.804-9.201-.601-11.867 2.656a7.965 7.965 0 0 0-.937 1.378l-8.104 15.115c-1.231 2.296-5.092 1.513-5.092-1.033V314.77c0-2.367-1.073-4.513-2.811-6.066-1.729-1.553-4.131-2.512-6.781-2.512-5.307 0-9.601 3.843-9.601 8.577v45.759c0 1.452-1.318 2.63-2.943 2.63h-.001c-1.626 0-2.943-1.178-2.943-2.63v-55.997c0-4.736-4.297-8.575-9.598-8.575-5.301 0-9.598 3.839-9.598 8.575v55.997c0 1.452-1.318 2.63-2.944 2.63s-2.944-1.178-2.944-2.63v-49.56c0-4.722-4.134-8.772-9.418-8.858-5.384-.088-9.778 3.784-9.778 8.574v49.844c0 1.452-1.318 2.63-2.944 2.63-1.625 0-2.943-1.178-2.943-2.63v-37.831c0-4.721-4.134-8.772-9.418-8.858-5.383-.088-9.778 3.784-9.778 8.574v40.745h-.003v28.128c0 26.745 24.49 49.277 54.425 49.212 23.078-.05 42.763-12.958 50.569-31.135l19.959-37.232a7.822 7.822 0 0 0 .946-3.699c-.001-3.195-2.011-6.262-5.453-7.739z" />
    <linearGradient id="p" x1="924.083" x2="1079.906" y1="561.304" y2="561.304"
        gradientUnits="userSpaceOnUse">
        <stop offset="0" stop-color="#ffdd4f" />
        <stop offset="1" stop-color="#ff8f5c" />
    </linearGradient>
    <path fill="url(#p)"
        d="M1075.918 568.37c-4.267-9.354-10.353-17.828-14.174-27.374-7.063-17.651-5.838-37.395-9.112-56.124s-13.735-38.832-32.306-42.901c-13.763-3.017-28.232 4.075-37.507 14.682-9.276 10.606-14.261 24.229-18.377 37.705-2.922 9.566-5.807 19.744-13.102 26.585-4.895 4.591-11.348 7.223-16.352 11.695-7.916 7.075-11.368 18.225-10.856 28.829.513 10.603 4.585 20.744 9.736 30.028 3.084 5.557 6.614 10.99 8.233 17.136 2.191 8.318.681 17.13 1.442 25.698 1.244 13.993 8.924 27.285 20.426 35.352 11.501 8.068 26.614 10.761 40.195 7.166 23.915 13.686 65.312-5.696 66.945-34.427 1.463-25.724 15.504-50.607 4.809-74.05z" />
    <path fill="#F1F2F2"
        d="M1075.918 568.37c-4.267-9.354-10.354-17.828-14.174-27.374-7.063-17.651-5.838-37.395-9.112-56.124s-13.734-38.832-32.307-42.901a30.174 30.174 0 0 0-4.84-.648 79.283 79.283 0 0 1 2.169 9.151c3.274 18.729 2.049 38.473 9.112 56.124 3.82 9.546 9.906 18.02 14.174 27.374 10.694 23.442-3.346 48.326-4.809 74.052-1.633 28.731-43.03 48.114-66.945 34.427-7.872 2.084-16.255 2.041-24.156.078 2.961 10.856 9.716 20.686 18.939 27.155 11.501 8.068 26.614 10.761 40.195 7.166 23.915 13.686 65.312-5.696 66.945-34.427 1.463-25.727 15.504-50.61 4.809-74.053z" />
    <linearGradient id="q" x1="973.532" x2="1031.858" y1="632.554" y2="632.554"
        gradientUnits="userSpaceOnUse">
        <stop offset="0" stop-color="#d6602b" />
        <stop offset="1" stop-color="#ab051a" />
    </linearGradient>
    <path fill="url(#q)"
        d="M1028.923 538.549c-7.802 7.509-15.235 15.387-22.398 23.506v-44.926c0-2.199-3.419-2.203-3.419 0v48.939c-.114.338-.092.675 0 .995v52.394l-26.299-35.981c-1.285-1.758-4.253-.054-2.952 1.726l28.468 38.946c.219.301.496.469.783.584v123.245c0 2.199 3.419 2.203 3.419 0v-180.83a397.872 397.872 0 0 1 24.815-26.182c1.587-1.527-.831-3.942-2.417-2.416z" />
    <linearGradient id="r" x1="706.783" x2="706.783" y1="251.882" y2="483.553"
        gradientUnits="userSpaceOnUse">
        <stop offset="0" stop-color="#c4e6ff" />
        <stop offset="1" stop-color="#73b2ff" />
    </linearGradient>
    <path fill="url(#r)"
        d="M706.784 483.554c-63.872 0-115.836-51.964-115.836-115.836s51.964-115.836 115.836-115.836S822.62 303.846 822.62 367.718c-.001 63.872-51.964 115.836-115.836 115.836zm0-229.478c-62.662 0-113.642 50.98-113.642 113.642s50.98 113.642 113.642 113.642 113.642-50.98 113.642-113.642c-.001-62.663-50.981-113.642-113.642-113.642z" />
    <linearGradient id="s" x1="3764.523" x2="3764.523" y1="-2791.643" y2="-2581.538"
        gradientTransform="rotate(-134.999 2868.236 -526.155)" gradientUnits="userSpaceOnUse">
        <stop offset="0" stop-color="#c4e6ff" />
        <stop offset="1" stop-color="#73b2ff" />
    </linearGradient>
    <path fill="url(#s)"
        d="M781.066 293.434c40.96 40.96 40.96 107.607 0 148.567-40.96 40.96-107.607 40.96-148.567 0-40.96-40.96-40.96-107.607 0-148.567 40.961-40.96 107.607-40.96 148.567 0zM634.051 440.449c40.105 40.105 105.359 40.105 145.464 0 40.104-40.104 40.104-105.359 0-145.464-40.104-40.104-105.359-40.104-145.463 0-40.105 40.105-40.105 105.36-.001 145.464z" />
    <linearGradient id="t" x1="380.444" x2="380.444" y1="301.974" y2="348.978"
        gradientUnits="userSpaceOnUse">
        <stop offset="0" stop-color="#f0f7ff" />
        <stop offset="1" stop-color="#c4e6ff" />
    </linearGradient>
    <path fill="url(#t)"
        d="M309.431 342.104h158.143s9.303-5.394-11.739-7.81c-21.042-2.416-15.061-16.308-20.156-13.892-5.094 2.416-9.984 10.416-19.048-.281-13.068-15.423-23.921-27.201-30.787-10.893s-14.811 12.911-18.384 9.268c-6.423-6.55-17.498-10.57-23.256 0-5.759 10.57-14.636-1.675-21.041-2.322-5.98-.604-5.094 14.496-14.397 16.308-9.302 1.812-17.719 0-17.498 3.926.222 3.927 16.17 5.696 18.163 5.696z" />
    <linearGradient id="u" x1="1001.994" x2="1001.994" y1="282.022" y2="329.025"
        gradientUnits="userSpaceOnUse">
        <stop offset="0" stop-color="#f0f7ff" />
        <stop offset="1" stop-color="#c4e6ff" />
    </linearGradient>
    <path fill="url(#u)"
        d="M930.981 322.152h158.143s9.303-5.394-11.739-7.81c-21.042-2.416-15.061-16.308-20.156-13.892-5.094 2.416-9.984 10.416-19.048-.281-13.068-15.423-23.921-27.201-30.787-10.893s-14.811 12.911-18.384 9.267c-6.423-6.55-17.498-10.57-23.256 0-5.759 10.57-14.636-1.675-21.042-2.322-5.98-.604-5.094 14.496-14.397 16.308-9.302 1.812-17.719 0-17.498 3.926.224 3.927 16.171 5.697 18.164 5.697z" />
    <path fill="#ADCBFF"
        d="M458.224 272.289a.54.54 0 0 1-.515-.484 18.86 18.86 0 0 1-.065-2.623c.07-1.838.345-3.894.816-6.111a.54.54 0 0 1 1.054.224c-.459 2.156-.726 4.15-.793 5.927-.035.912-.014 1.744.06 2.472a.539.539 0 0 1-.557.595zm3.213-16.827a.54.54 0 0 1-.483-.73 66.276 66.276 0 0 1 3.632-7.896.539.539 0 0 1 .947.513 65.274 65.274 0 0 0-3.572 7.767.541.541 0 0 1-.524.346zm93.875-6.501-.032-.002a20.837 20.837 0 0 1-3.496-.644 11.223 11.223 0 0 1-4.678-2.607.539.539 0 0 1 .729-.793 10.176 10.176 0 0 0 4.234 2.361c1.098.3 2.213.505 3.315.611a.539.539 0 0 1-.072 1.074zm8.463-1.144a.54.54 0 0 1-.174-1.042 18.3 18.3 0 0 0 6.857-4.676.54.54 0 0 1 .794.73 19.39 19.39 0 0 1-7.263 4.953.569.569 0 0 1-.214.035zm-94.161-7.491a.54.54 0 0 1-.417-.853 68.541 68.541 0 0 1 5.507-6.715.54.54 0 0 1 .788.736 67.05 67.05 0 0 0-5.42 6.609.537.537 0 0 1-.458.223zm73.692-1.896a.538.538 0 0 1-.502-.408c-.5-2.011-.709-4.184-.623-6.459.029-.755.091-1.529.185-2.299a.539.539 0 0 1 1.07.131c-.09.741-.15 1.484-.178 2.21-.082 2.173.117 4.245.593 6.158a.539.539 0 0 1-.545.667zm31.662-2.897a.54.54 0 0 1-.502-.675c.285-1.088.451-2.195.493-3.293a14.409 14.409 0 0 0-.659-4.908.539.539 0 1 1 1.028-.324 15.51 15.51 0 0 1 .708 5.273 16.412 16.412 0 0 1-.527 3.526.54.54 0 0 1-.541.401zm-93.624-7.777a.54.54 0 0 1-.323-.954 68.792 68.792 0 0 1 7.022-5.103.539.539 0 1 1 .578.909 67.675 67.675 0 0 0-6.911 5.023.539.539 0 0 1-.366.125zm63.783-6.183a.54.54 0 0 1-.477-.747c1.097-2.615 2.543-5.17 4.296-7.592a.538.538 0 1 1 .873.631c-1.705 2.356-3.11 4.838-4.175 7.377a.538.538 0 0 1-.517.331zm-49.276-3.037a.54.54 0 0 1-.211-1.025 76.435 76.435 0 0 1 8.034-3.263.538.538 0 1 1 .348 1.02 75.318 75.318 0 0 0-7.921 3.216.514.514 0 0 1-.25.052zm74.332 1.33a.538.538 0 0 1-.351-.148c-1.871-1.779-4.231-3.336-7.012-4.627a.54.54 0 0 1 .453-.978c2.888 1.34 5.345 2.963 7.301 4.824a.539.539 0 0 1-.391.929zm-58.072-6.918a.539.539 0 0 1-.099-1.063 92.703 92.703 0 0 1 8.525-1.527.539.539 0 1 1 .14 1.068 91.603 91.603 0 0 0-8.425 1.509.519.519 0 0 1-.141.013zm42.771-.572a.492.492 0 0 1-.106-.015c-2.583-.62-5.417-1.095-8.423-1.413a.54.54 0 0 1-.479-.593c.032-.296.289-.498.593-.479 3.053.323 5.933.806 8.561 1.437a.538.538 0 0 1-.146 1.063zm-25.714-1.721a.538.538 0 0 1-.009-1.076 127.16 127.16 0 0 1 8.655-.195c.32.04.536.249.532.546a.54.54 0 0 1-.546.532c-2.724-.036-5.611.029-8.58.193h-.052zm25.914-2.993a.538.538 0 0 1-.346-.933 52.53 52.53 0 0 1 6.856-5.35.54.54 0 0 1 .747.154.54.54 0 0 1-.154.747 51.37 51.37 0 0 0-6.715 5.239.543.543 0 0 1-.388.143zm253.485 6.138-.568-.022a.538.538 0 1 1 .041-1.077l.568.022c2.715.103 5.42.179 8.041.226a.538.538 0 1 1-.019 1.077 391.656 391.656 0 0 1-8.063-.226zm-9.18-.447h-.012c-2.82-.166-5.719-.364-8.617-.587a.539.539 0 1 1 .083-1.075c2.891.222 5.784.419 8.597.585a.54.54 0 0 1-.051 1.077zm25.855.728a.539.539 0 0 1 .018-1.077 331.59 331.59 0 0 0 8.609-.158.543.543 0 0 1 .556.522.54.54 0 0 1-.522.556c-2.824.089-5.73.142-8.637.158l-.024-.001zm-43.056-2.045a.539.539 0 0 1-9.096-1.458.55.55 0 0 1 .594-.478c2.854.307 5.712.595 8.572.861a.539.539 0 0 1-.07 1.075zm60.293 1.497a.539.539 0 0 1-.012-1.076c2.89-.172 5.778-.387 8.585-.64a.54.54 0 1 1 .096 1.074c-2.816.253-5.715.469-8.616.642h-.053zm-77.438-3.335-.045-.003a774.69 774.69 0 0 1-8.557-1.08.54.54 0 0 1 .141-1.069c2.842.375 5.691.735 8.545 1.079a.537.537 0 0 1-.084 1.073zm-17.087-2.247-.056-.005c-2.851-.404-5.694-.82-8.527-1.245a.54.54 0 0 1-.453-.613.55.55 0 0 1 .613-.453c2.83.425 5.67.84 8.519 1.243a.538.538 0 0 1-.096 1.073zm111.701 4.028a.539.539 0 0 1-.045-1.073 241.52 241.52 0 0 0 8.519-1.203.532.532 0 0 1 .617.447.539.539 0 0 1-.447.617 245.72 245.72 0 0 1-8.557 1.209c-.029.003-.058.004-.087.003zm-128.736-6.58a.67.67 0 0 1-.063-.006c-2.852-.448-5.692-.902-8.518-1.36a.539.539 0 1 1 .172-1.064c2.825.458 5.664.911 8.513 1.359a.54.54 0 0 1-.104 1.071zm-161.534-7.229a.538.538 0 0 1-.21-1.025 74.18 74.18 0 0 1 8.054-3.222.538.538 0 1 1 .342 1.022 73.188 73.188 0 0 0-7.936 3.175.554.554 0 0 1-.25.05zm307.297 11.08a.539.539 0 0 1-.084-1.067 210.81 210.81 0 0 0 8.398-1.852.538.538 0 1 1 .254 1.048 212.582 212.582 0 0 1-8.441 1.862.547.547 0 0 1-.127.009zm-162.789-6.606a.523.523 0 0 1-.068-.007c-2.853-.473-5.689-.948-8.507-1.421a.54.54 0 0 1-.443-.621.543.543 0 0 1 .621-.442c2.817.473 5.653.948 8.505 1.421a.538.538 0 0 1-.108 1.07zm-17.01-2.85a.538.538 0 0 1-.069-.007c-2.858-.48-5.693-.955-8.505-1.423a.538.538 0 0 1-.443-.62.549.549 0 0 1 .62-.444c2.813.468 5.65.943 8.507 1.423a.539.539 0 0 1-.11 1.071zm196.552 5.385a.54.54 0 0 1-.129-1.056 185.753 185.753 0 0 0 8.199-2.581.54.54 0 0 1 .348 1.02 186.173 186.173 0 0 1-8.247 2.596.565.565 0 0 1-.171.021zm-213.568-8.208a.493.493 0 0 1-.066-.007c-2.866-.464-5.704-.917-8.513-1.355a.54.54 0 0 1 .165-1.065c2.811.438 5.652.891 8.52 1.356a.539.539 0 0 1-.106 1.071zm-94.193-4.318a.539.539 0 0 1-.099-1.063c2.725-.623 5.591-1.15 8.517-1.567a.538.538 0 1 1 .152 1.068 103.31 103.31 0 0 0-8.428 1.55.572.572 0 0 1-.142.012zm77.149 1.672c-.019-.001-.039-.002-.058-.005-2.88-.422-5.725-.823-8.534-1.2a.537.537 0 0 1-.462-.605.535.535 0 0 1 .605-.463c2.812.377 5.663.778 8.547 1.201a.54.54 0 0 1-.098 1.072zm-17.096-2.279-.043-.003c-2.94-.347-5.822-.656-8.563-.92a.54.54 0 0 1-.485-.588.549.549 0 0 1 .588-.485c2.749.265 5.637.575 8.586.922a.539.539 0 0 1-.083 1.074zm-43.011-1.855a.538.538 0 0 1-.016-1.075l.444-.031c2.605-.175 5.364-.279 8.2-.311a.535.535 0 0 1 .545.533.54.54 0 0 1-.533.545c-2.815.031-5.554.135-8.14.308l-.441.03c-.021.001-.04.002-.059.001zm25.843.218-.017-.001a252.835 252.835 0 0 0-7.729-.418l-.863-.031h-.002a.538.538 0 0 1 .039-1.077l.867.031c2.474.094 5.086.236 7.763.42a.539.539 0 0 1-.058 1.076zm281.187 9.201a.54.54 0 0 1-.179-1.039 164.64 164.64 0 0 0 3.084-1.259.538.538 0 1 1 .417.993c-1.031.433-2.065.856-3.103 1.268a.584.584 0 0 1-.219.037z" />
    <linearGradient id="v" x1="5573.409" x2="5599.828" y1="-380.11" y2="-380.11"
        gradientTransform="scale(-1 1) rotate(26.176 1107.018 -14083.181)"
        gradientUnits="userSpaceOnUse">
        <stop offset="0" stop-color="#c4e6ff" />
        <stop offset="1" stop-color="#73b2ff" />
    </linearGradient>
    <path fill="url(#v)" d="m907.844 201.217 24.48-10.084-13.242-9.029z" />
    <linearGradient id="w" x1="5541.032" x2="5583.696" y1="-375.031" y2="-375.031"
        gradientTransform="scale(-1 1) rotate(26.176 1107.018 -14083.181)"
        gradientUnits="userSpaceOnUse">
        <stop offset="0" stop-color="#c4e6ff" />
        <stop offset="1" stop-color="#73b2ff" />
    </linearGradient>
    <path fill="url(#w)" d="m932.395 195.987 26.328-24.54-39.237 16.887z" />
    <linearGradient id="x" x1="5540.998" x2="5593.941" y1="-392.071" y2="-392.071"
        gradientTransform="scale(-1 1) rotate(26.176 1107.018 -14083.181)"
        gradientUnits="userSpaceOnUse">
        <stop offset="0" stop-color="#c4e6ff" />
        <stop offset="1" stop-color="#73b2ff" />
    </linearGradient>
    <path fill="url(#x)" d="m958.734 171.393-58.864.257 12.379 8.145z" />
    <linearGradient id="y" x1="5541.032" x2="5599.828" y1="-383.629" y2="-383.629"
        gradientTransform="scale(-1 1) rotate(26.176 1107.018 -14083.181)"
        gradientUnits="userSpaceOnUse">
        <stop offset="0" stop-color="#c4e6ff" />
        <stop offset="1" stop-color="#73b2ff" />
    </linearGradient>
    <path fill="url(#y)" d="m958.723 171.447-39.266 17.034-11.613 12.736 4.315-21.604z" />
    <linearGradient id="z" x1="906.11" x2="916.515" y1="255.462" y2="255.462"
        gradientUnits="userSpaceOnUse">
        <stop offset="0" stop-color="#ff9666" />
        <stop offset="1" stop-color="#c42d40" />
    </linearGradient>
    <path fill="url(#z)"
        d="M916.228 255.841c.27.436.356.961.23 1.478a1.924 1.924 0 0 1-1.344 1.405l-6.514 1.9a1.925 1.925 0 0 1-1.889-.462 1.926 1.926 0 0 1-.544-1.866l1.612-6.591a1.926 1.926 0 0 1 1.344-1.405 1.922 1.922 0 0 1 1.888.462l4.902 4.691c.124.118.229.249.315.388zm-8.525 3.13a.406.406 0 0 0 .468.182l6.514-1.9a.403.403 0 0 0 .284-.297.404.404 0 0 0-.115-.395l-4.902-4.691a.404.404 0 0 0-.399-.098.406.406 0 0 0-.285.297l-1.612 6.591a.395.395 0 0 0 .047.311z" />
    <linearGradient id="A" x1="411.124" x2="421.529" y1="225.954" y2="225.954"
        gradientUnits="userSpaceOnUse">
        <stop offset="0" stop-color="#ff9666" />
        <stop offset="1" stop-color="#c42d40" />
    </linearGradient>
    <path fill="url(#A)"
        d="M421.242 226.333c.27.436.356.961.23 1.478a1.924 1.924 0 0 1-1.344 1.405l-6.514 1.9a1.925 1.925 0 0 1-1.889-.462 1.926 1.926 0 0 1-.544-1.866l1.612-6.591a1.926 1.926 0 0 1 1.344-1.405 1.922 1.922 0 0 1 1.888.462l4.902 4.691c.123.119.229.249.315.388zm-8.525 3.13a.406.406 0 0 0 .468.182l6.514-1.9a.403.403 0 0 0 .284-.297.404.404 0 0 0-.115-.395l-4.902-4.691a.404.404 0 0 0-.399-.098.406.406 0 0 0-.285.297l-1.612 6.591a.395.395 0 0 0 .047.311z" />
    <linearGradient id="B" x1="904.107" x2="911.689" y1="649.239" y2="657.209"
        gradientUnits="userSpaceOnUse">
        <stop offset="0" stop-color="#ffdd4f" />
        <stop offset="1" stop-color="#ff8f5c" />
    </linearGradient>
    <path fill="url(#B)"
        d="m909.613 652.96 2.396-2.396a1.393 1.393 0 0 0-1.969-1.97l-2.396 2.396-2.396-2.396a1.392 1.392 0 1 0-1.969 1.97l2.396 2.396-2.392 2.392a1.393 1.393 0 0 0 1.97 1.97l2.392-2.392 2.392 2.392a1.39 1.39 0 0 0 1.97 0 1.393 1.393 0 0 0 0-1.97l-2.394-2.392z" />
    <linearGradient id="C" x1="472.101" x2="479.682" y1="628.834" y2="636.804"
        gradientUnits="userSpaceOnUse">
        <stop offset="0" stop-color="#ffdd4f" />
        <stop offset="1" stop-color="#ff8f5c" />
    </linearGradient>
    <path fill="url(#C)"
        d="m477.606 632.556 2.396-2.396a1.393 1.393 0 0 0-1.969-1.97l-2.396 2.396-2.396-2.396a1.393 1.393 0 0 0-1.97 1.97l2.396 2.396-2.392 2.392a1.393 1.393 0 0 0 1.97 1.97l2.392-2.392 2.392 2.392c.272.272.628.408.985.408s.713-.136.985-.408a1.393 1.393 0 0 0 0-1.97l-2.393-2.392z" />
    <linearGradient id="D" x1="1091.173" x2="1102.119" y1="412.383" y2="412.383"
        gradientUnits="userSpaceOnUse">
        <stop offset="0" stop-color="#326ab3" />
        <stop offset="1" stop-color="#003780" />
    </linearGradient>
    <path fill="url(#D)"
        d="M1096.646 417.855a5.479 5.479 0 0 1-5.473-5.473 5.479 5.479 0 0 1 5.473-5.473 5.479 5.479 0 0 1 5.473 5.473 5.479 5.479 0 0 1-5.473 5.473zm0-9.232a3.765 3.765 0 0 0-3.76 3.76 3.765 3.765 0 0 0 3.76 3.76 3.765 3.765 0 0 0 3.76-3.76 3.764 3.764 0 0 0-3.76-3.76z" />
    <linearGradient id="E" x1="252.901" x2="263.846" y1="427.088" y2="427.088"
        gradientUnits="userSpaceOnUse">
        <stop offset="0" stop-color="#326ab3" />
        <stop offset="1" stop-color="#003780" />
    </linearGradient>
    <path fill="url(#E)"
        d="M258.374 432.561a5.479 5.479 0 0 1-5.473-5.473 5.479 5.479 0 0 1 5.473-5.473 5.479 5.479 0 0 1 5.473 5.473 5.48 5.48 0 0 1-5.473 5.473zm0-9.233a3.765 3.765 0 0 0-3.76 3.76 3.765 3.765 0 0 0 3.76 3.76 3.765 3.765 0 0 0 3.76-3.76 3.765 3.765 0 0 0-3.76-3.76z" />
</svg>